<svg width="246" height="77" viewBox="0 0 246 77" fill="none" xmlns="http://www.w3.org/2000/svg">
<path d="M93.499 34.2998L88.1514 48.2832H106.073L100.834 34.2998C100.545 33.541 99.3887 30.3252 97.3652 24.5801H96.8955L93.499 34.2998ZM72.542 67L92.5957 17.6787H101.737L121.791 67H113.083L108.169 54.1367H86.0918L81.25 67H72.542ZM129.629 37.1543H123.197V31.1924H129.629V20.3164H137.361V31.1924H146.937V37.1543H137.361V55.835C137.361 59.5566 139.06 61.0381 142.42 61.0381H146.937V67H141.408C133.567 67 129.629 63.4229 129.629 56.3047V37.1543ZM162.724 67H154.919V15.9805H162.724V67ZM178.33 57.2441C178.33 60.1348 181.04 62.2666 185.484 62.2666C191.555 62.2666 196.433 58.4365 196.433 52.7637V48.8975C194.229 49.3672 191.374 49.8369 187.797 50.3428C181.438 51.3184 178.33 53.3779 178.33 57.2441ZM170.345 57.7861C170.345 51.1016 175.982 46.9824 187.291 45.3926C191.952 44.7783 194.987 44.2363 196.433 43.8389V41.8516C196.433 37.9854 193.072 35.6367 187.905 35.6367C183.317 35.6367 179.45 37.2988 176.271 40.6592L171.429 36.9736C175.476 32.6377 181.438 30.0723 187.761 30.0723C198.709 30.0723 204.165 34.8779 204.165 44.5254V67H196.577V62.0498C195.024 65.374 190.182 68.1562 184.401 68.1562C175.692 68.1562 170.345 63.8926 170.345 57.7861ZM217.495 56.7021C220.35 60.5322 224.035 62.4473 228.588 62.4473C233.358 62.4473 236.573 60.5322 236.573 57.6416C236.573 55.7988 235.02 54.2812 231.912 53.0527C230.937 52.6553 228.66 51.9688 225.119 50.9932C221.94 50.0176 219.736 49.2227 217.242 47.5605C214.749 45.8984 213.34 43.4414 213.34 40.3701C213.34 34.1553 219.736 30.0723 228.696 30.0723C235.2 30.0723 241.307 33.5771 244.089 38.2021L238.886 41.0566C236.212 37.5518 232.816 35.7812 228.696 35.7812C223.819 35.7812 221.217 37.6963 221.217 40.4785C221.217 41.96 222.373 43.333 223.385 44.0557C223.855 44.4531 224.722 44.8506 225.914 45.3203C228.299 46.2236 228.805 46.332 231.695 47.0908C240.259 49.4756 244.523 53.0166 244.523 57.7139C244.523 63.6035 238.669 68.1562 228.733 68.1562C221.325 68.1562 215.074 64.8682 211.859 59.665L217.495 56.7021Z" fill="#1F1F29"/>
<g clip-path="url(#clip0_358_6917)">
<path fill-rule="evenodd" clip-rule="evenodd" d="M54.8483 55.8473L47.8477 62.8478L37.1018 52.1019L44.1024 45.1014C46.4703 42.7315 48.0825 39.7129 48.7351 36.4269C49.3877 33.141 49.0514 29.7353 47.7688 26.6404C46.4861 23.5456 44.3147 20.9005 41.529 19.0396C38.7433 17.1786 35.4684 16.1853 32.1183 16.1853C28.7682 16.1853 25.4932 17.1786 22.7075 19.0396C19.9218 20.9005 17.7504 23.5456 16.4677 26.6404C15.1851 29.7353 14.8488 33.141 15.5014 36.4269C16.154 39.7129 17.7662 42.7315 20.1342 45.1014L27.266 52.2332L16.5201 62.9791L9.38828 55.8473C4.89717 51.3489 1.84031 45.6202 0.603982 39.3851C-0.632346 33.15 0.00735145 26.6884 2.44224 20.8167C4.87713 14.945 8.99792 9.92693 14.2839 6.39651C19.5698 2.86609 25.7837 0.981812 32.1401 0.981812C38.4966 0.981812 44.7105 2.86609 49.9964 6.39651C55.2824 9.92693 59.4032 14.945 61.8381 20.8167C64.2729 26.6884 64.9126 33.15 63.6763 39.3851C62.44 45.6202 59.3831 51.3489 54.892 55.8473H54.8483Z" fill="url(#paint0_linear_358_6917)"/>
<path d="M33.8652 58.8335V39.9407C35.6032 39.513 37.1245 38.4637 38.1417 36.9909C39.1589 35.5182 39.6016 33.7239 39.3861 31.947C39.1707 30.1701 38.3121 28.5336 36.9725 27.3466C35.6328 26.1595 33.9049 25.5042 32.115 25.5042C30.3251 25.5042 28.5972 26.1595 27.2576 27.3466C25.9179 28.5336 25.0593 30.1701 24.8439 31.947C24.6285 33.7239 25.0712 35.5182 26.0884 36.9909C27.1056 38.4637 28.6268 39.513 30.3649 39.9407V58.8335L21.3691 67.838L29.4198 75.8974C30.1373 76.6071 31.1058 77.0051 32.115 77.0051C33.1242 77.0051 34.0927 76.6071 34.8103 75.8974L42.8697 67.838L33.8652 58.8335Z" fill="url(#paint1_linear_358_6917)"/>
</g>
<defs>
<linearGradient id="paint0_linear_358_6917" x1="32.1401" y1="0.981812" x2="32.1401" y2="62.9791" gradientUnits="userSpaceOnUse">
<stop stop-color="#4130FF"/>
<stop offset="0.53" stop-color="#FF2D9D"/>
<stop offset="1" stop-color="#FF8F98"/>
</linearGradient>
<linearGradient id="paint1_linear_358_6917" x1="32" y1="9.49997" x2="32.1194" y2="77.0051" gradientUnits="userSpaceOnUse">
<stop stop-color="#4130FF"/>
<stop offset="0.53" stop-color="#FF2D9D"/>
<stop offset="1" stop-color="#FF8F98"/>
</linearGradient>
<clipPath id="clip0_358_6917">
<rect width="64.2215" height="76" fill="white" transform="translate(0 1)"/>
</clipPath>
</defs>
</svg>
