<svg width="128" height="128" viewBox="0 0 128 128" fill="none" xmlns="http://www.w3.org/2000/svg">
<circle cx="64" cy="64" r="64" fill="white"/>
<path d="M13.1735 70.5379C13.5157 70.0163 14.0091 69.6987 14.6538 69.585C15.2985 69.4714 15.8708 69.6011 16.3707 69.9742C16.8629 70.3419 17.1722 70.8842 17.2986 71.6013L17.5144 72.8249L20.0701 72.3742L20.2319 73.2919L13.2258 74.5273L12.8482 72.386C12.7218 71.6689 12.8302 71.0529 13.1735 70.5379ZM15.872 70.7235C15.5679 70.499 15.2152 70.4221 14.8139 70.4929C14.4126 70.5636 14.1074 70.7565 13.8984 71.0714C13.6883 71.3798 13.6244 71.7676 13.7067 72.2346L13.9225 73.4582L16.6657 72.9745L16.45 71.7509C16.3676 71.2838 16.175 70.9414 15.872 70.7235Z" fill="#1A0909"/>
<path d="M19.6204 58.0175L12.6143 56.7821L12.7761 55.8644L18.9139 56.9466L19.5107 53.562L20.379 53.7151L19.6204 58.0175Z" fill="#1A0909"/>
<path d="M23.3923 45.1042L18.8043 38.8223L19.1901 38.1541L26.9294 38.9778L26.4434 39.8195L24.1862 39.5808L22.5279 42.4531L23.8733 44.2711L23.3923 45.1042ZM20.0831 39.1325L21.9843 41.7112L23.2719 39.481L20.0831 39.1325Z" fill="#1A0909"/>
<path d="M34.5369 30.8362L32.5982 28.5258L27.8454 27.1641L28.6975 26.4492L32.3523 27.5157L31.9443 23.7247L32.7963 23.0098L33.3108 27.941L35.2431 30.2437L34.5369 30.8362Z" fill="#1A0909"/>
<path d="M62.953 20.4803L59.9169 13.3661H60.949L63.3437 19.0274L65.7485 13.3661H66.7606L63.7345 20.4803H62.953Z" fill="#1A0909"/>
<path d="M77.1724 22.9637L79.6056 16.2785L80.4813 16.5973L78.0481 23.2824L77.1724 22.9637Z" fill="#1A0909"/>
<path d="M88.7081 29.0454L93.281 23.5956L94.8468 24.9095C95.6809 25.6094 96.1549 26.4475 96.2688 27.4237C96.3878 28.4043 96.1188 29.286 95.4618 30.069C94.8049 30.8519 93.9832 31.2699 92.9969 31.323C92.0157 31.3804 91.108 31.0592 90.2739 30.3593L88.7081 29.0454ZM89.9822 28.9766L90.8343 29.6915C91.4841 30.2368 92.1697 30.485 92.8908 30.4361C93.6214 30.3865 94.2379 30.0623 94.7403 29.4635C95.2427 28.8648 95.4528 28.204 95.3705 27.481C95.2977 26.7572 94.9364 26.1226 94.2865 25.5773L93.4345 24.8623L89.9822 28.9766Z" fill="#1A0909"/>
<path d="M99.4544 40.7196L105.615 37.1625L107.69 40.755L106.926 41.1959L105.318 38.4104L103.452 39.4876L104.76 41.7524L103.996 42.1933L102.688 39.9285L100.684 41.0858L102.292 43.8713L101.529 44.3121L99.4544 40.7196Z" fill="#1A0909"/>
<path d="M106.255 56.4415C106.39 57.2111 106.77 57.8056 107.393 58.2247C108.018 58.6505 108.715 58.7955 109.484 58.6598C110.254 58.5241 110.86 58.1494 111.301 57.5357C111.743 56.9286 111.896 56.2402 111.761 55.4706C111.626 54.7074 111.247 54.113 110.622 53.6873C109.999 53.2681 109.302 53.1264 108.533 53.2621C107.763 53.3978 107.157 53.7692 106.715 54.3763C106.273 54.99 106.12 55.6783 106.255 56.4415ZM105.386 56.5946C105.209 55.5881 105.407 54.6714 105.98 53.8445C106.56 53.0165 107.356 52.5132 108.369 52.3345C109.382 52.1559 110.299 52.357 111.121 52.938C111.949 53.5178 112.452 54.3109 112.629 55.3174C112.808 56.3305 112.607 57.2478 112.026 58.0692C111.452 58.8961 110.659 59.3988 109.646 59.5775C108.633 59.7561 107.713 59.5555 106.885 58.9758C106.064 58.4014 105.565 57.6077 105.386 56.5946Z" fill="#1A0909"/>
<circle cx="17.8865" cy="81.5746" r="1.43143" fill="#1A0909"/>
<circle cx="46.1092" cy="21.392" r="1.43143" fill="#1A0909"/>
<circle cx="112.838" cy="66.306" r="1.43143" fill="#1A0909"/>
<mask id="mask0_37_4139" style="mask-type:alpha" maskUnits="userSpaceOnUse" x="18" y="71" width="98" height="45">
<path d="M115.224 71.0775L18.125 87.7775L31.485 104.477C36.6541 107.499 49.3779 113.925 58.9207 115.452C70.8493 117.36 87.3108 114.02 98.2851 104.477C107.064 96.8432 113.236 79.0298 115.224 71.0775Z" fill="#D9D9D9"/>
</mask>
<g mask="url(#mask0_37_4139)">
<path d="M112.838 64.636C112.838 91.6467 91.0485 113.543 64.1696 113.543C37.2907 113.543 15.501 91.6467 15.501 64.636" stroke="#1A0909" stroke-width="0.954286"/>
</g>
<path d="M79.8057 62.4581C80.6082 62.9214 80.6082 64.0797 79.8057 64.5431L55.4291 78.6169C54.6266 79.0802 53.6234 78.5011 53.6234 77.5744L53.6234 49.4268C53.6234 48.5001 54.6266 47.9209 55.4291 48.3843L79.8057 62.4581Z" fill="#1A0909"/>
</svg>
