<svg width="141" height="50" viewBox="0 0 141 50" fill="none" xmlns="http://www.w3.org/2000/svg">
<g clip-path="url(#clip0_270_6776)">
<path d="M0 2.08333H30.3569V17.2618H15.1785L0 2.08333ZM0 17.2618H15.1785L30.3569 32.4403H0V17.2618ZM0 32.4403H15.1785V47.6187L0 32.4403Z" fill="black"/>
<path d="M47.4854 14.0577H59.7562V17.957H52.1298V23.3757H59.7562V27.1889H52.1298V34.1271H47.4854V14.0577ZM62.2791 20.3077H66.6659V23.2035C66.8951 22.2084 67.3638 21.4445 68.0708 20.9097C68.7958 20.3549 69.6006 20.0785 70.4791 20.0785C70.9381 20.0785 71.3208 20.1174 71.6256 20.1931V24.2646C71.1881 24.2118 70.7478 24.1834 70.3069 24.1785C69.1027 24.1785 68.1958 24.5695 67.5833 25.3535C66.9728 26.1181 66.6659 27.2646 66.6659 28.7945V34.1271H62.2812V20.3077H62.2791ZM78.5506 34.5C77.2131 34.5 76.0465 34.1841 75.0527 33.5535C74.0777 32.9229 73.3027 32.0278 72.8166 30.9729C72.3006 29.8653 72.0409 28.6118 72.0409 27.2174C72.0409 25.841 72.3104 24.5979 72.8451 23.4903C73.3465 22.4202 74.1423 21.5153 75.1388 20.8813C76.1506 20.2507 77.3076 19.9347 78.6083 19.9347C79.5826 19.9347 80.4534 20.1459 81.2173 20.566C81.9812 20.9875 82.5548 21.5611 82.9374 22.2861V20.3077H87.2951V34.1271H82.9374V32.1771C82.5548 32.8653 81.9624 33.4285 81.1597 33.8688C80.3569 34.2945 79.4596 34.5111 78.5506 34.5ZM79.8124 30.8584C80.8631 30.8584 81.6756 30.5146 82.2492 29.8264C82.8228 29.1382 83.1097 28.2681 83.1097 27.2174C83.1097 26.1854 82.8228 25.325 82.2492 24.6368C81.6756 23.9486 80.8631 23.6049 79.8124 23.6049C78.8173 23.6049 78.0159 23.9389 77.4041 24.6084C76.8117 25.2778 76.5152 26.1466 76.5152 27.2174C76.5152 28.2882 76.8117 29.1667 77.4041 29.8549C78.0159 30.5243 78.8187 30.8584 79.8124 30.8584ZM90.3631 20.3077H94.7499V22.3146C95.0569 21.6063 95.5527 21.0327 96.2402 20.5945C96.9485 20.1563 97.7701 19.9347 98.7062 19.9347C100.885 19.9347 102.329 20.7847 103.035 22.4868C103.424 21.7153 104.033 21.0771 104.785 20.6521C105.589 20.1681 106.512 19.9202 107.451 19.9347C110.719 19.9347 112.353 21.807 112.353 25.5542V34.1271H107.938V26.357C107.938 25.4216 107.766 24.7334 107.422 24.2931C107.078 23.8542 106.562 23.6334 105.874 23.6334C105.128 23.6334 104.555 23.8917 104.153 24.4077C103.752 24.9049 103.551 25.7736 103.551 27.0167V34.1271H99.136V26.3285C99.136 25.3924 98.9645 24.7132 98.6201 24.2931C98.2964 23.8542 97.7888 23.6334 97.102 23.6334C96.3367 23.6334 95.7534 23.8917 95.352 24.4077C94.9506 24.9049 94.7499 25.7736 94.7499 27.0167V34.1271H90.3645V20.3077H90.3631ZM128.833 26.5007C128.833 27.0924 128.794 27.7334 128.716 28.4216H118.511C118.55 29.3202 118.855 30.007 119.428 30.4861C120.002 30.9632 120.778 31.2028 121.751 31.2028C123.108 31.2028 123.969 30.791 124.331 29.9695H128.632C128.421 31.3271 127.676 32.425 126.395 33.2667C125.134 34.0882 123.585 34.5 121.751 34.5C119.381 34.5 117.517 33.8591 116.16 32.5785C114.822 31.2972 114.153 29.5111 114.153 27.2174C114.153 25.7264 114.458 24.4361 115.07 23.3466C115.661 22.2584 116.572 21.3778 117.679 20.8236C118.808 20.232 120.117 19.9347 121.609 19.9347C123.022 19.9347 124.274 20.2118 125.363 20.7667C126.471 21.3216 127.323 22.0952 127.915 23.0889C128.527 24.0841 128.833 25.2209 128.833 26.5007ZM124.501 25.6979C124.483 24.7806 124.225 24.082 123.727 23.6049C123.231 23.1278 122.513 22.8882 121.577 22.8882C120.641 22.8882 119.896 23.1459 119.341 23.6625C118.806 24.1597 118.529 24.8375 118.509 25.6979H124.501ZM130.767 20.3077H135.153V23.2035C135.383 22.2084 135.851 21.4445 136.558 20.9097C137.244 20.3695 138.093 20.0764 138.967 20.0785C139.425 20.0785 139.808 20.1174 140.113 20.1931V24.2646C139.676 24.2118 139.235 24.1834 138.794 24.1785C137.59 24.1785 136.683 24.5695 136.071 25.3535C135.458 26.1181 135.153 27.2646 135.153 28.7945V34.1271H130.767V20.3077Z" fill="black"/>
</g>
<defs>
<clipPath id="clip0_270_6776">
<rect width="140.625" height="50" fill="white"/>
</clipPath>
</defs>
</svg>