<svg width="186" height="50" viewBox="0 0 186 50" fill="none" xmlns="http://www.w3.org/2000/svg">
<g clip-path="url(#clip0_270_6780)">
<path d="M6.71607 22.9515C6.64878 22.8634 6.55992 22.7942 6.45806 22.7506C6.35621 22.7069 6.24482 22.6903 6.13465 22.7022C6.02448 22.7142 5.91926 22.7544 5.82917 22.8189C5.73907 22.8834 5.66714 22.9701 5.62033 23.0705L0.0680943 34.1716C0.0175142 34.2727 -0.0063671 34.3851 -0.00128208 34.4981C0.00380294 34.6111 0.0376855 34.721 0.0971485 34.8172C0.156612 34.9134 0.239681 34.9928 0.338471 35.0479C0.437261 35.103 0.548491 35.1319 0.661601 35.1319H8.39281C8.51663 35.1348 8.63863 35.1017 8.74399 35.0365C8.84934 34.9714 8.93353 34.8771 8.98632 34.7651C10.654 31.3189 9.64334 26.079 6.71607 22.9515Z" fill="url(#paint0_linear_270_6780)"/>
<path d="M10.7889 12.8546C9.40546 14.9833 8.59924 17.4351 8.44937 19.9695C8.2995 22.5038 8.81113 25.0336 9.93406 27.3105L13.6614 34.7651C13.7165 34.8753 13.8012 34.968 13.906 35.0328C14.0108 35.0976 14.1316 35.1319 14.2549 35.1319H21.9847C22.0978 35.1319 22.209 35.103 22.3078 35.0479C22.4066 34.9928 22.4897 34.9134 22.5491 34.8172C22.6086 34.721 22.6425 34.6111 22.6476 34.4981C22.6527 34.3851 22.6288 34.2727 22.5782 34.1716C22.5782 34.1716 12.179 13.3707 11.9176 12.8504C11.866 12.7445 11.7855 12.6553 11.6854 12.5931C11.5854 12.5308 11.4698 12.498 11.352 12.4985C11.2341 12.4989 11.1188 12.5326 11.0192 12.5955C10.9196 12.6585 10.8398 12.7483 10.7889 12.8546Z" fill="#2684FF"/>
<path d="M101.456 21.7554C101.456 24.5043 102.731 26.6867 107.719 27.6502C110.695 28.275 111.318 28.7553 111.318 29.7473C111.318 30.7108 110.694 31.3345 108.598 31.3345C106.064 31.2889 103.582 30.6172 101.371 29.379V33.8564C102.873 34.5932 104.857 35.4151 108.541 35.4151C113.756 35.4151 115.825 33.0897 115.825 29.6338L101.456 21.7554ZM115.825 29.6338C115.825 26.3747 114.096 24.8441 109.221 23.7959C106.529 23.2007 105.877 22.6058 105.877 21.7554C105.877 20.6795 106.841 20.2252 108.626 20.2252C110.78 20.2252 112.906 20.877 114.918 21.7839V17.5044C112.988 16.6263 110.887 16.1906 108.768 16.2292C103.95 16.2292 101.456 18.3263 101.456 21.7554" fill="#0052CC"/>
<path d="M168.447 16.5126V35.132H172.415V20.9337L174.087 24.7026L179.698 35.132H184.686V16.5126H180.719V28.5288L179.216 25.0427L174.71 16.5126H168.447Z" fill="#0052CC"/>
<path d="M143.213 16.5126H138.877V35.132H143.213V16.5126Z" fill="#0052CC"/>
<path d="M133.875 29.6336C133.875 26.3746 132.147 24.8439 127.272 23.7958C124.58 23.2005 123.928 22.6056 123.928 21.7553C123.928 20.6793 124.891 20.225 126.677 20.225C128.831 20.225 130.956 20.8768 132.968 21.7837V17.5042C131.039 16.6261 128.938 16.1904 126.818 16.2291C122.001 16.2291 119.507 18.3261 119.507 21.7553C119.507 24.5042 120.782 26.6866 125.77 27.6501C128.746 28.2748 129.369 28.7552 129.369 29.7471C129.369 30.7106 128.744 31.3343 126.648 31.3343C124.115 31.2888 121.632 30.617 119.422 29.3789V33.8562C120.924 34.5931 122.908 35.415 126.592 35.415C131.806 35.415 133.875 33.0895 133.875 29.6336Z" fill="#0052CC"/>
<path d="M67.7715 16.5126V35.132H76.6838L78.0871 31.1076H72.1357V16.5126H67.7715Z" fill="#0052CC"/>
<path d="M50.1641 16.5126V20.5366H54.9819V35.132H59.3461V20.5366H64.504V16.5126H50.1641Z" fill="#0052CC"/>
<path d="M43.8354 16.5126H38.1159L31.623 35.132H36.5814L37.5019 31.9961C39.7688 32.6618 42.1793 32.6618 44.4463 31.9961L45.3667 35.132H50.3262L43.8354 16.5126ZM40.9755 28.6385C40.1678 28.6384 39.3642 28.5228 38.5893 28.2952L40.9755 20.1697L43.3616 28.298C42.5866 28.5247 41.783 28.6393 40.9755 28.6385Z" fill="#0052CC"/>
<path d="M92.048 16.5126H86.3288L79.8359 35.132H84.7954L85.7158 31.9961C87.9828 32.6618 90.3933 32.6618 92.6602 31.9961L93.5807 35.132H98.5401L92.048 16.5126ZM89.1884 28.6385C88.3807 28.6384 87.5771 28.5228 86.8022 28.2952L89.1884 20.1697L91.5745 28.298C90.7994 28.5247 89.9959 28.6393 89.1884 28.6385Z" fill="#0052CC"/>
<path d="M158.839 16.5126H153.12L146.627 35.132H151.586L152.507 31.9961C154.774 32.6618 157.184 32.6618 159.451 31.9961L160.372 35.132H165.331L158.839 16.5126ZM155.978 28.6385C155.17 28.6384 154.366 28.5228 153.591 28.2952L155.978 20.1697L158.364 28.298C157.589 28.5247 156.785 28.6393 155.978 28.6385Z" fill="#0052CC"/>
</g>
<defs>
<linearGradient id="paint0_linear_270_6780" x1="9.75892" y1="24.6647" x2="3.89951" y2="34.8137" gradientUnits="userSpaceOnUse">
<stop stop-color="#0052CC"/>
<stop offset="0.923" stop-color="#2684FF"/>
</linearGradient>
<clipPath id="clip0_270_6780">
<rect width="185.417" height="50" fill="white"/>
</clipPath>
</defs>
</svg>