<svg width="176" height="50" viewBox="0 0 176 50" fill="none" xmlns="http://www.w3.org/2000/svg">
<g clip-path="url(#clip0_270_6779)">
<path d="M151.101 23.5262C153.311 23.5262 154.162 24.8778 154.281 26.0547C154.282 26.0725 154.28 26.0904 154.275 26.1073C154.269 26.1242 154.26 26.1398 154.248 26.1529C154.236 26.1661 154.221 26.1766 154.205 26.1837C154.189 26.1909 154.171 26.1945 154.153 26.1945H148.087C148.069 26.1945 148.051 26.1906 148.034 26.1832C148.018 26.1757 148.003 26.1648 147.991 26.1512C147.979 26.1376 147.97 26.1216 147.965 26.1043C147.959 26.087 147.958 26.0687 147.96 26.0507C148.124 24.9008 149.143 23.5262 151.101 23.5262ZM154.427 31.0089C154.386 31.0087 154.346 31.0181 154.311 31.0364C154.275 31.0546 154.244 31.0811 154.22 31.1138C153.673 31.8844 152.782 32.3595 151.453 32.3595C149.621 32.3595 148.031 31.1557 147.859 29.4497C147.858 29.432 147.86 29.4142 147.865 29.3974C147.871 29.3805 147.88 29.365 147.892 29.3519C147.904 29.3387 147.918 29.3282 147.934 29.321C147.951 29.3138 147.968 29.31 147.986 29.3099H158.886C158.917 29.2141 158.98 28.4834 158.98 27.8156C158.98 22.7326 155.95 19.714 151.038 19.714C146.923 19.714 143.127 22.9542 143.127 28.0382C143.127 33.3448 147.019 36.4583 151.389 36.4583C155.339 36.4583 157.841 34.2482 158.653 31.5769C158.658 31.561 158.685 31.4611 158.715 31.3154C158.723 31.2783 158.722 31.24 158.713 31.2032C158.704 31.1664 158.687 31.1321 158.663 31.1028C158.639 31.0734 158.609 31.0497 158.575 31.0335C158.541 31.0173 158.503 31.0089 158.465 31.0089H154.427ZM164.064 27.9573L158.897 20.5904C158.87 20.5522 158.854 20.5074 158.851 20.4608C158.848 20.4143 158.858 20.3679 158.88 20.3266C158.901 20.2853 158.934 20.2507 158.974 20.2266C159.014 20.2026 159.06 20.1899 159.106 20.1901H164.187C164.274 20.1901 164.354 20.233 164.402 20.3049L167.057 24.3477C167.107 24.4246 167.221 24.4236 167.271 24.3457L169.865 20.3079C169.888 20.2718 169.92 20.2421 169.957 20.2215C169.995 20.2009 170.037 20.1901 170.08 20.1901H174.869C175.077 20.1901 175.198 20.4227 175.079 20.5914L169.98 27.7647C169.95 27.8074 169.933 27.8584 169.933 27.9108C169.933 27.9631 169.949 28.0143 169.979 28.0572C171.648 30.433 173.556 33.1781 175.268 35.5808C175.387 35.7495 175.268 35.9811 175.06 35.9811H170.014C169.972 35.9813 169.93 35.971 169.893 35.9511C169.855 35.9313 169.824 35.9025 169.8 35.8673L167.047 31.6927C167.036 31.6752 167.02 31.6609 167.001 31.6509C166.983 31.641 166.962 31.6358 166.941 31.6358C166.92 31.6358 166.899 31.641 166.881 31.6509C166.862 31.6609 166.846 31.6752 166.835 31.6927C166.01 32.9186 164.932 34.6255 164.114 35.8673C164.091 35.9025 164.059 35.9314 164.022 35.9512C163.985 35.9711 163.943 35.9814 163.901 35.9811H159.197C159.151 35.9814 159.105 35.9689 159.065 35.945C159.025 35.9211 158.993 35.8868 158.971 35.8457C158.95 35.8046 158.94 35.7583 158.943 35.712C158.945 35.6656 158.961 35.621 158.987 35.5828L164.065 28.2468C164.095 28.2043 164.111 28.1538 164.111 28.1021C164.111 28.0503 164.095 27.9998 164.065 27.9573H164.064ZM136.683 35.7276V13.2324C136.683 13.0917 136.798 12.9779 136.939 12.9779H141.277C141.418 12.9779 141.532 13.0917 141.532 13.2324V35.7276C141.532 35.8673 141.418 35.9811 141.277 35.9811H136.939C136.905 35.9813 136.872 35.9748 136.841 35.9621C136.81 35.9495 136.782 35.9308 136.758 35.9073C136.735 35.8837 136.716 35.8557 136.703 35.8249C136.69 35.7941 136.683 35.761 136.683 35.7276ZM129.538 35.7276V13.2324C129.538 13.0917 129.652 12.9779 129.793 12.9779H134.132C134.272 12.9779 134.386 13.0917 134.386 13.2324V35.7276C134.386 35.8673 134.272 35.9811 134.132 35.9811H129.793C129.76 35.9813 129.727 35.9748 129.696 35.9621C129.665 35.9495 129.637 35.9308 129.613 35.9073C129.589 35.8837 129.57 35.8557 129.557 35.8249C129.545 35.7941 129.538 35.761 129.538 35.7276ZM118.809 32.2637C120.755 32.2637 122.413 30.7394 122.413 28.0701C122.413 25.338 120.786 23.9075 118.809 23.9075C116.735 23.9075 115.172 25.338 115.172 28.0701C115.172 30.6755 116.799 32.2647 118.809 32.2647V32.2637ZM122.445 33.9477C121.743 35.473 120.149 36.4263 118.171 36.4263C113.513 36.4263 110.292 32.8996 110.292 28.0382C110.292 23.3365 113.322 19.713 118.011 19.713C120.85 19.713 122.094 21.2702 122.413 22.0009V20.4437C122.413 20.3039 122.527 20.1901 122.669 20.1901H126.847C126.987 20.1901 127.102 20.3039 127.102 20.4447V35.7276C127.102 35.8673 126.988 35.9811 126.847 35.9811H122.672C122.638 35.9811 122.605 35.9744 122.574 35.9615C122.543 35.9485 122.514 35.9295 122.491 35.9055C122.467 35.8816 122.448 35.8531 122.436 35.8219C122.423 35.7907 122.417 35.7573 122.417 35.7236C122.425 35.1496 122.445 33.823 122.445 33.9477ZM99.9451 20.3648L102.851 29.1672C102.891 29.287 103.061 29.283 103.095 29.1622L105.577 20.3758C105.592 20.3223 105.624 20.2751 105.669 20.2416C105.713 20.2081 105.767 20.19 105.823 20.1901H110.035C110.208 20.1901 110.331 20.3558 110.28 20.5195L105.525 35.8024C105.509 35.8545 105.477 35.9001 105.433 35.9324C105.389 35.9648 105.336 35.9822 105.282 35.9821H100.837C100.783 35.982 100.731 35.9652 100.688 35.9341C100.645 35.9029 100.612 35.859 100.595 35.8084L97.3307 26.1436C97.2908 26.0278 97.1261 26.0288 97.0882 26.1436L93.8839 35.8064C93.8671 35.8573 93.8347 35.9015 93.7913 35.9328C93.748 35.9642 93.6958 35.9811 93.6423 35.9811H89.1013C89.0471 35.9812 88.9943 35.964 88.9506 35.932C88.9068 35.9001 88.8743 35.8551 88.8578 35.8034L84.0413 20.5205C84.0294 20.4824 84.0266 20.4419 84.0332 20.4025C84.0399 20.3631 84.0557 20.3258 84.0794 20.2936C84.1031 20.2614 84.1341 20.2353 84.1698 20.2173C84.2055 20.1993 84.2449 20.19 84.2849 20.1901H88.7849C88.8987 20.1901 88.9995 20.266 89.0305 20.3758L91.5131 29.1343C91.547 29.254 91.7167 29.258 91.7566 29.1392L94.6934 20.3648C94.7104 20.3139 94.743 20.2696 94.7865 20.2383C94.83 20.2069 94.8823 20.1901 94.936 20.1901H99.7025C99.8123 20.1901 99.9112 20.26 99.9451 20.3648ZM82.7256 24.6442C82.7256 24.6813 82.7175 24.718 82.7018 24.7517C82.6861 24.7853 82.6632 24.8151 82.6348 24.839C82.6063 24.8629 82.573 24.8802 82.5371 24.8899C82.5013 24.8995 82.4637 24.9012 82.4272 24.8948C82.0199 24.8259 81.6074 24.7932 81.1943 24.7969C79.2478 24.7969 77.4939 25.9409 77.4939 29.0863V35.7276C77.4939 35.8673 77.3801 35.9811 77.2394 35.9811H72.9011C72.8676 35.9813 72.8345 35.9748 72.8036 35.9621C72.7726 35.9495 72.7445 35.9308 72.7208 35.9073C72.697 35.8837 72.6782 35.8557 72.6653 35.8249C72.6523 35.7941 72.6456 35.761 72.6455 35.7276V20.4447C72.6455 20.3049 72.7593 20.1901 72.9011 20.1901H77.0796C77.2204 20.1901 77.3342 20.3039 77.3342 20.4447V22.3193C78.1637 20.5395 80.1742 20.0314 81.4499 20.0314C81.8372 20.0314 82.2245 20.0733 82.527 20.1392C82.6438 20.1652 82.7256 20.269 82.7256 20.3878V24.6442ZM65.4043 35.7276V20.4447C65.4043 20.3049 65.5191 20.1901 65.6599 20.1901H69.9982C70.139 20.1901 70.2537 20.3039 70.2537 20.4447V35.7276C70.2537 35.8673 70.139 35.9811 69.9982 35.9811H65.6599C65.6265 35.9813 65.5933 35.9748 65.5624 35.9621C65.5315 35.9495 65.5033 35.9308 65.4796 35.9073C65.4559 35.8837 65.437 35.8557 65.4241 35.8249C65.4112 35.7941 65.4045 35.761 65.4043 35.7276ZM67.7971 12.5327C69.3923 12.5327 70.668 13.8034 70.668 15.3607C70.668 16.9179 69.3923 18.1887 67.7971 18.1887C66.2658 18.1887 64.9901 16.9179 64.9901 15.3607C64.9901 13.8034 66.2658 12.5327 67.7971 12.5327ZM49.9547 26.8303H55.0816C55.1695 26.8303 55.2314 26.7445 55.2014 26.6616L52.6699 19.3885C52.6613 19.3634 52.6451 19.3415 52.6236 19.326C52.602 19.3104 52.5761 19.302 52.5495 19.3019C52.5229 19.3018 52.4969 19.31 52.4752 19.3254C52.4535 19.3407 52.4371 19.3624 52.4283 19.3875L49.8359 26.6616C49.806 26.7435 49.8679 26.8313 49.9557 26.8313L49.9547 26.8303ZM56.6758 31.4062H48.2957C48.2431 31.4063 48.1918 31.4227 48.1489 31.4531C48.106 31.4834 48.0736 31.5264 48.0561 31.5759L46.5488 35.8124C46.5312 35.8621 46.4986 35.9052 46.4555 35.9356C46.4124 35.966 46.3609 35.9822 46.3082 35.9821H41.5626C41.5213 35.9824 41.4806 35.9725 41.4439 35.9535C41.4073 35.9345 41.3758 35.9068 41.3522 35.8729C41.3287 35.839 41.3137 35.7999 41.3086 35.7589C41.3035 35.718 41.3084 35.6764 41.323 35.6377L49.6483 13.6188C49.6666 13.5703 49.6992 13.5286 49.7418 13.4991C49.7844 13.4697 49.835 13.454 49.8868 13.4541H55.3711C55.4769 13.4541 55.5728 13.5199 55.6097 13.6198L63.8411 35.6387C63.8553 35.6773 63.8599 35.7186 63.8546 35.7593C63.8493 35.8001 63.8343 35.8389 63.8108 35.8725C63.7872 35.9061 63.7559 35.9336 63.7195 35.9525C63.683 35.9714 63.6426 35.9812 63.6015 35.9811H58.6633C58.6106 35.9811 58.5592 35.9648 58.5161 35.9344C58.473 35.904 58.4404 35.8611 58.4227 35.8114L56.9154 31.5759C56.8977 31.5264 56.8653 31.4836 56.8224 31.4532C56.7795 31.4229 56.7283 31.4065 56.6758 31.4062Z" fill="black"/>
<path fill-rule="evenodd" clip-rule="evenodd" d="M35.1781 21.9051C35.799 22.5095 36.2297 23.2823 36.4171 24.1282C36.6046 24.9742 36.5407 25.8566 36.2332 26.6667L33.8904 33.0314C33.2754 34.7024 31.8739 35.9952 30.142 36.3326C29.2757 36.506 28.3785 36.4406 27.5465 36.1434C26.7144 35.8463 25.9788 35.3285 25.4184 34.6455L11.3693 17.8134C11.3343 17.772 11.2891 17.7404 11.2382 17.722C11.1873 17.7035 11.1324 17.6987 11.079 17.7081C11.0257 17.7175 10.9757 17.7407 10.9341 17.7755C10.8926 17.8103 10.8609 17.8554 10.8422 17.9062L6.2713 30.2693C6.17647 30.5248 6.42803 30.7724 6.67758 30.6706L12.2866 28.3797C12.6029 28.2515 12.9422 28.19 13.2833 28.1991C13.6244 28.2082 13.9599 28.2877 14.2688 28.4326C14.5777 28.5775 14.8534 28.7847 15.0785 29.0412C15.3036 29.2976 15.4732 29.5978 15.5768 29.9229C15.9911 31.1937 15.2943 32.5662 14.0675 33.0673L6.74047 36.059C5.38388 36.6131 3.82564 36.5152 2.6038 35.6997C1.77116 35.1432 1.15039 34.3224 0.841751 33.3696C0.533113 32.4169 0.554627 31.388 0.902818 30.449L6.30325 15.8469C6.94311 14.1159 8.40053 12.8941 10.2023 12.5787C11.0798 12.4214 11.9833 12.5008 12.8198 12.8088C13.6564 13.1167 14.3958 13.642 14.9619 14.3306L23.0256 23.9934L30.4425 20.9638C32.0905 20.291 33.9053 20.6514 35.1781 21.9051ZM30.9007 26.7585C30.9945 26.503 30.7429 26.2554 30.4934 26.3582L26.3956 28.0313L28.8533 30.977C28.8881 31.019 28.9334 31.0509 28.9846 31.0697C29.0358 31.0885 29.091 31.0934 29.1447 31.084C29.1984 31.0746 29.2487 31.0512 29.2904 31.0161C29.3321 30.981 29.3638 30.9355 29.3823 30.8842L30.8997 26.7585H30.9007Z" fill="url(#paint0_linear_270_6779)"/>
</g>
<defs>
<linearGradient id="paint0_linear_270_6779" x1="0.625" y1="12.5" x2="22.7103" y2="45.6338" gradientUnits="userSpaceOnUse">
<stop stop-color="#FF4244"/>
<stop offset="1" stop-color="#FF8E3C"/>
</linearGradient>
<clipPath id="clip0_270_6779">
<rect width="175" height="50" fill="white" transform="translate(0.625)"/>
</clipPath>
</defs>
</svg>