<svg width="167" height="50" viewBox="0 0 167 50" fill="none" xmlns="http://www.w3.org/2000/svg">
<g clip-path="url(#clip0_270_6778)">
<path d="M40.5092 9.72773C36.3253 9.72773 34.8567 12.6371 34.8567 15.3526V17.0151H33.97C33.3327 17.0151 32.834 17.5138 32.834 18.1511C32.834 18.7884 33.3327 19.2872 33.97 19.2872H34.8567V30.7585C34.8567 31.4235 35.3832 31.9776 36.0759 31.9776C36.7409 31.9776 37.295 31.4512 37.295 30.7585V19.2872H39.9828C40.6201 19.2872 41.1188 18.7884 41.1188 18.1511C41.1188 17.5138 40.6201 17.0151 39.9828 17.0151H37.295V15.3526C37.295 13.8286 37.8492 12.0275 40.5369 12.0275C41.1742 12.0275 41.673 11.5288 41.673 10.8915C41.6453 10.2265 41.1465 9.72773 40.5092 9.72773Z" fill="#4D4D4D"/>
<path d="M49.9309 16.6265C48.1299 16.6265 46.6059 17.3747 45.7469 18.5938V17.9565C45.7469 17.2915 45.2205 16.7374 44.5278 16.7374C43.8628 16.7374 43.3086 17.2638 43.3086 17.9565V30.7579C43.3086 31.4229 43.8351 31.977 44.5278 31.977C45.1928 31.977 45.7469 31.4506 45.7469 30.7579V23.6922C45.7469 20.7274 47.3263 18.9541 49.9309 18.9541C50.5682 18.9541 51.0947 18.4276 51.0947 17.7903C51.1224 17.153 50.5959 16.6265 49.9309 16.6265Z" fill="#4D4D4D"/>
<path d="M64.7543 22.9163C64.7543 22.2236 64.6435 20.4225 63.5906 18.9263C62.5099 17.3746 60.8197 16.571 58.5199 16.571C54.2528 16.571 51.8145 19.3973 51.8145 24.3294C51.8145 29.4278 54.2528 32.1432 58.8247 32.1432C61.9003 32.1432 63.5906 30.6193 63.8954 30.3145C64.0893 30.1205 64.311 29.8711 64.311 29.4555C64.311 28.8459 63.8122 28.3472 63.2026 28.3472C62.8979 28.3472 62.7039 28.4303 62.5099 28.5688C61.6233 29.2338 60.598 29.8988 58.8524 29.8988C56.1093 29.8988 54.3636 28.0978 54.2805 25.1607H63.2858C64.7543 25.133 64.7543 23.803 64.7543 22.9163ZM58.5199 18.7877C61.0137 18.7877 62.316 20.2009 62.3714 22.9717H54.3082C54.5299 20.284 56.0261 18.7877 58.5199 18.7877Z" fill="#4D4D4D"/>
<path d="M72.9014 23.1109C71.1003 22.5013 69.5487 21.9472 69.5487 20.6172C69.5487 19.1486 71.1835 18.9269 72.1533 18.9269C73.8989 18.9269 74.7579 19.5365 75.4506 20.2015C75.6722 20.4232 75.9493 20.534 76.2541 20.534C76.8637 20.534 77.3625 20.0353 77.3625 19.4257C77.3625 19.0932 77.2239 18.8715 77.1131 18.7053C76.0879 17.3476 74.3422 16.5994 72.1533 16.5994C69.0499 16.5994 67.138 18.1511 67.138 20.6172C67.138 23.6374 69.798 24.5518 72.1256 25.3276C73.8989 25.9372 75.4229 26.436 75.4229 27.7383C75.4229 29.5116 73.4556 29.7887 72.2641 29.7887C70.657 29.7887 69.4101 29.2899 68.3849 28.2924C68.0801 27.9876 67.7476 27.9322 67.5537 27.9322C66.9441 27.9322 66.4453 28.431 66.4453 29.0405C66.4453 29.2899 66.5284 29.4839 66.7224 29.761C67.6368 30.9247 69.7149 32.1162 72.2641 32.1162C75.7554 32.1162 77.8335 30.4814 77.8335 27.766C77.8335 24.8289 75.2289 23.9145 72.9014 23.1109Z" fill="#4D4D4D"/>
<path d="M87.2819 16.5712C85.6194 16.5712 84.1231 17.2362 83.2919 18.2892V10.0875C83.2919 9.42245 82.7654 8.86828 82.0727 8.86828C81.4077 8.86828 80.8535 9.39474 80.8535 10.0875V30.7857C80.8535 31.4507 81.38 32.0049 82.0727 32.0049C82.7377 32.0049 83.2919 31.4784 83.2919 30.7857V22.9996C83.2919 20.201 84.6496 18.7879 87.2819 18.7879C89.8311 18.7879 90.884 19.9517 90.884 22.7779V30.7857C90.884 31.4507 91.4105 32.0049 92.1032 32.0049C92.7682 32.0049 93.3223 31.4784 93.3223 30.7857V22.3623C93.2669 18.5108 91.2442 16.5712 87.2819 16.5712Z" fill="#4D4D4D"/>
<path d="M113.466 16.7657C112.94 16.7657 112.524 17.0705 112.33 17.5693L108.866 27.4335L106.04 17.5693C105.929 17.1813 105.514 16.7657 104.904 16.7657C104.295 16.7657 103.879 17.1813 103.768 17.5693L100.942 27.4058L97.4783 17.5416C97.2843 17.0428 96.8687 16.7657 96.3422 16.7657C95.6772 16.7657 95.123 17.2922 95.123 17.9849C95.123 18.1511 95.1508 18.3174 95.2339 18.4836L99.8612 31.2019C100.055 31.7006 100.471 31.9777 100.997 31.9777C101.551 31.9777 102.022 31.6175 102.161 31.1187L104.876 21.781L107.592 31.1187C107.73 31.6175 108.229 31.9777 108.756 31.9777C109.282 31.9777 109.698 31.6729 109.892 31.1741L114.519 18.4559C114.602 18.2897 114.63 18.0957 114.63 17.9295C114.658 17.2922 114.131 16.7657 113.466 16.7657Z" fill="#4D4D4D"/>
<path d="M122.277 16.571C117.872 16.571 115.461 19.3419 115.461 24.3294C115.461 29.3724 117.872 32.1432 122.277 32.1432C126.683 32.1432 129.094 29.3724 129.094 24.3294C129.094 19.3142 126.655 16.571 122.277 16.571ZM122.277 29.9265C119.34 29.9265 117.899 28.0978 117.899 24.3571C117.899 20.6719 119.368 18.8154 122.277 18.8154C125.187 18.8154 126.655 20.6719 126.655 24.3571C126.655 28.0978 125.214 29.9265 122.277 29.9265Z" fill="#4D4D4D"/>
<path d="M138.46 16.6265C136.659 16.6265 135.135 17.3747 134.276 18.5938V17.9565C134.276 17.2915 133.75 16.7374 133.057 16.7374C132.392 16.7374 131.838 17.2638 131.838 17.9565V30.7579C131.838 31.4229 132.364 31.977 133.057 31.977C133.722 31.977 134.276 31.4506 134.276 30.7579V23.6922C134.276 20.7274 135.856 18.9541 138.46 18.9541C139.098 18.9541 139.624 18.4276 139.624 17.7903C139.624 17.153 139.098 16.6265 138.46 16.6265Z" fill="#4D4D4D"/>
<path d="M147.659 22.9442L152.674 18.9265C153.09 18.594 153.145 18.1783 153.145 17.9567C153.145 17.2917 152.619 16.7375 151.926 16.7375C151.732 16.7375 151.399 16.7652 151.095 17.0423L143.974 22.8611V10.0875C143.974 9.42245 143.447 8.86828 142.754 8.86828C142.089 8.86828 141.535 9.39474 141.535 10.0875V30.7857C141.535 31.4507 142.062 32.0049 142.754 32.0049C143.419 32.0049 143.974 31.4784 143.974 30.7857V25.7982L145.664 24.4404L151.122 31.4507C151.427 31.8109 151.76 32.0049 152.148 32.0049C152.813 32.0049 153.367 31.4784 153.367 30.7857C153.367 30.5917 153.339 30.3146 153.117 30.0376L147.659 22.9442Z" fill="#4D4D4D"/>
<path d="M161.319 23.1109C159.518 22.5013 157.967 21.9472 157.967 20.6172C157.967 19.1486 159.601 18.9269 160.571 18.9269C162.317 18.9269 163.176 19.5365 163.869 20.2015C164.09 20.4232 164.367 20.534 164.672 20.534C165.282 20.534 165.78 20.0353 165.78 19.4257C165.78 19.0655 165.586 18.8161 165.531 18.7053C164.506 17.3476 162.76 16.5994 160.571 16.5994C157.468 16.5994 155.556 18.1511 155.556 20.6172C155.556 23.6374 158.216 24.5518 160.544 25.3276C162.317 25.9372 163.841 26.436 163.841 27.7383C163.841 29.5116 161.874 29.7887 160.682 29.7887C159.075 29.7887 157.828 29.2899 156.803 28.2924C156.498 27.9876 156.193 27.9322 155.972 27.9322C155.362 27.9322 154.863 28.431 154.863 29.0405C154.863 29.2899 154.946 29.4839 155.14 29.761C156.055 30.9247 158.133 32.1162 160.682 32.1162C164.173 32.1162 166.251 30.4814 166.251 27.766C166.251 24.8289 163.647 23.9145 161.319 23.1109Z" fill="#4D4D4D"/>
<path d="M0.166016 30.0928C0.63706 33.1684 2.0779 35.9393 4.15604 38.0174L9.00503 33.1684C9.00503 28.264 11.5542 23.4981 16.0984 20.8658L0.166016 30.0928Z" fill="#9B65C3"/>
<path d="M9.00503 33.1692C6.59439 33.1692 4.15604 32.5596 1.91165 31.2573C1.30206 30.8971 0.720186 30.5092 0.166016 30.0658C0.63706 33.1415 2.0779 35.9123 4.15604 37.9904L9.00503 33.1692Z" fill="#9B65C3"/>
<path d="M9.00524 33.1686L4.15625 38.0176C6.2621 40.1234 9.00524 41.5643 12.0809 42.0076L21.2801 26.0752C18.6755 30.6194 13.9096 33.1686 9.00524 33.1686Z" fill="#BE63C5"/>
<path d="M10.9171 40.2891C9.61483 38.0447 9.00524 35.6064 9.00524 33.1958L4.15625 38.0447C6.2621 40.1506 9.00524 41.5914 12.0809 42.0348C11.6653 41.4806 11.2773 40.8987 10.9171 40.2891Z" fill="#BF63C6"/>
<path d="M27.0708 14.548L16.126 20.8932C11.5818 23.5255 6.17863 23.3316 1.93923 20.8932C0.720056 22.9714 0.0273438 25.4097 0.0273438 27.9866C0.0273438 28.707 0.0827603 29.3997 0.193594 30.0924C0.747764 30.5358 1.32964 30.9237 1.93923 31.2839C4.18362 32.5862 6.62197 33.1958 9.03261 33.1958L27.3756 14.8528C27.2648 14.7419 27.1817 14.6311 27.0708 14.548Z" fill="#3278B1"/>
<path d="M1.91202 31.2847C4.1564 32.587 6.59475 33.1966 9.00539 33.1966C9.00539 28.2922 11.5546 23.5263 16.0988 20.894L0.138672 30.0933C0.72055 30.5089 1.30243 30.9245 1.91202 31.2847Z" fill="#3278B2"/>
<path d="M1.91189 20.894C0.692712 22.9722 0 25.4105 0 27.9874C0 28.7078 0.0554171 29.4006 0.166251 30.0933L16.1264 20.894C11.5544 23.4986 6.15129 23.3324 1.91189 20.894Z" fill="#45A4EC"/>
<path d="M27.3762 14.8254C27.2931 14.7423 27.1823 14.6314 27.0714 14.5483C26.9329 14.4375 26.7943 14.3266 26.6281 14.2435C26.1016 13.9387 25.492 13.7725 24.8548 13.7725H14.2147C8.95007 13.7725 4.37817 16.6264 1.91211 20.8658C6.15151 23.3042 11.5547 23.4981 16.0989 20.8658C11.5547 23.4981 9.00549 28.264 9.00549 33.1684C13.9099 33.1684 18.6758 30.6192 21.3081 26.075L27.6256 15.1302C27.5425 15.0193 27.4594 14.9085 27.3762 14.8254Z" fill="#19BB7D"/>
<path d="M16.1266 20.8934L27.0714 14.5758C26.9329 14.465 26.7943 14.3542 26.6281 14.271L1.91211 20.8934C6.15151 23.3317 11.5547 23.498 16.1266 20.8934Z" fill="#08C7FB"/>
<path d="M24.8547 13.7725H14.2147C8.95007 13.7725 4.37817 16.6264 1.91211 20.8658L26.6281 14.2435C26.1016 13.9664 25.5198 13.7725 24.8547 13.7725Z" fill="#59F2F6"/>
<path d="M21.3084 26.0747L27.626 15.1299C27.5429 15.019 27.4597 14.9359 27.3489 14.8251L9.00586 33.1681C9.00586 35.5787 9.61545 38.0171 10.9177 40.2614C11.278 40.871 11.6659 41.4529 12.1092 42.0071C12.8019 42.1179 13.4946 42.1733 14.2151 42.1733C16.7919 42.1733 19.2303 41.4806 21.3084 40.2614C18.8701 36.022 18.6761 30.6189 21.3084 26.0747Z" fill="#DA3757"/>
<path d="M9.00586 33.1686C9.00586 35.5792 9.61545 38.0176 10.9177 40.262C11.278 40.8716 11.6659 41.4534 12.1092 42.0076L21.3084 26.0752C18.6761 30.6194 13.9103 33.1686 9.00586 33.1686Z" fill="#D33C4E"/>
<path d="M21.3086 26.0752L12.1094 42.0353C12.8021 42.1462 13.4948 42.2016 14.2152 42.2016C16.7921 42.2016 19.2305 41.5089 21.3086 40.2897C18.8702 36.0226 18.6763 30.6194 21.3086 26.0752Z" fill="#EE5A24"/>
<path d="M27.9304 15.5733C27.8473 15.407 27.7364 15.2685 27.6256 15.1299C27.5425 15.0191 27.4594 14.936 27.3485 14.8251C27.2654 14.742 27.1546 14.6312 27.0437 14.548L16.1266 20.8933C11.5824 23.5256 9.0332 28.2915 9.0332 33.1959C13.9376 33.1959 18.7035 30.6467 21.3358 26.1025C18.7035 30.6467 18.8974 36.0498 21.3358 40.2892C25.5752 37.8232 28.4292 33.2513 28.4292 27.9867V17.3466C28.4014 16.6816 28.2352 16.072 27.9304 15.5733Z" fill="#8BDF55"/>
<path d="M27.0714 14.548L16.1266 20.8933C11.5824 23.5256 9.0332 28.2915 9.0332 33.1959L27.3762 14.8528C27.2654 14.742 27.1823 14.6312 27.0714 14.548Z" fill="#25C16F"/>
<path d="M9.00586 33.1681C13.9103 33.1681 18.6761 30.6189 21.3084 26.0747L27.626 15.1299C27.5429 15.019 27.4597 14.9359 27.3489 14.8251L9.00586 33.1681Z" fill="#8BDF55"/>
<path d="M27.626 15.1305L21.3084 26.0753C18.6761 30.6195 18.8701 36.0227 21.3084 40.2621L27.9308 15.5461C27.8476 15.4076 27.7368 15.269 27.626 15.1305Z" fill="#FFBB00"/>
<path d="M21.3066 40.2897C25.546 37.8237 28.4 33.2518 28.4 27.9872V17.3471C28.4 16.7098 28.2338 16.1002 27.929 15.5738L21.3066 40.2897Z" fill="#FFA800"/>
</g>
<defs>
<clipPath id="clip0_270_6778">
<rect width="166.667" height="50" fill="white"/>
</clipPath>
</defs>
</svg>