<svg width="44" height="44" viewBox="0 0 44 44" fill="none" xmlns="http://www.w3.org/2000/svg">
<path d="M0 22.7333C15 20.9733 20.75 6.84444 21.75 0C22.95 15.84 35.75 21.7556 42 22.7333C24.2776 23.8886 21.0961 36.9867 21.718 43.6898C21.7291 43.7927 21.7397 43.8961 21.75 44C21.7384 43.8982 21.7278 43.7948 21.718 43.6898C19.7966 25.7727 6.46287 22.2472 0 22.7333Z" fill="white"/>
<path d="M29 36.2667C34.3571 35.6267 36.4107 30.4889 36.7679 28C37.1964 33.76 41.7679 35.9111 44 36.2667C37.6705 36.6868 36.5343 41.4498 36.7564 43.8873C36.7604 43.9247 36.7642 43.9622 36.7679 44C36.7637 43.963 36.7599 43.9254 36.7564 43.8873C36.0702 37.3719 31.3082 36.0899 29 36.2667Z" fill="#FFC108"/>
</svg>
