<svg width="65" height="76" viewBox="0 0 65 76" fill="none" xmlns="http://www.w3.org/2000/svg">
<g clip-path="url(#clip0_358_6924)">
<path fill-rule="evenodd" clip-rule="evenodd" d="M54.8483 54.8473L47.8477 61.8478L37.1018 51.1019L44.1024 44.1014C46.4703 41.7315 48.0825 38.7129 48.7351 35.4269C49.3877 32.141 49.0514 28.7353 47.7688 25.6404C46.4861 22.5456 44.3147 19.9005 41.529 18.0396C38.7433 16.1786 35.4684 15.1853 32.1183 15.1853C28.7682 15.1853 25.4932 16.1786 22.7075 18.0396C19.9218 19.9005 17.7504 22.5456 16.4677 25.6404C15.1851 28.7353 14.8488 32.141 15.5014 35.4269C16.154 38.7129 17.7662 41.7315 20.1342 44.1014L27.266 51.2332L16.5201 61.9791L9.38828 54.8473C4.89717 50.3489 1.84031 44.6202 0.603982 38.3851C-0.632346 32.15 0.00735145 25.6884 2.44224 19.8167C4.87713 13.945 8.99792 8.92693 14.2839 5.39651C19.5698 1.86609 25.7837 -0.0181885 32.1401 -0.0181885C38.4966 -0.0181885 44.7105 1.86609 49.9964 5.39651C55.2824 8.92693 59.4032 13.945 61.8381 19.8167C64.2729 25.6884 64.9126 32.15 63.6763 38.3851C62.44 44.6202 59.3831 50.3489 54.892 54.8473H54.8483Z" fill="url(#paint0_linear_358_6924)"/>
<path d="M33.8652 57.8335V38.9407C35.6032 38.513 37.1245 37.4637 38.1417 35.9909C39.1589 34.5182 39.6016 32.7239 39.3861 30.947C39.1707 29.1701 38.3121 27.5336 36.9725 26.3466C35.6328 25.1595 33.9049 24.5042 32.115 24.5042C30.3251 24.5042 28.5972 25.1595 27.2576 26.3466C25.9179 27.5336 25.0593 29.1701 24.8439 30.947C24.6285 32.7239 25.0712 34.5182 26.0884 35.9909C27.1056 37.4637 28.6268 38.513 30.3649 38.9407V57.8335L21.3691 66.838L29.4198 74.8974C30.1373 75.6071 31.1058 76.0051 32.115 76.0051C33.1242 76.0051 34.0927 75.6071 34.8103 74.8974L42.8697 66.838L33.8652 57.8335Z" fill="url(#paint1_linear_358_6924)"/>
</g>
<defs>
<linearGradient id="paint0_linear_358_6924" x1="32.1401" y1="-0.0181885" x2="32.1401" y2="61.9791" gradientUnits="userSpaceOnUse">
<stop stop-color="#4130FF"/>
<stop offset="0.53" stop-color="#FF2D9D"/>
<stop offset="1" stop-color="#FF8F98"/>
</linearGradient>
<linearGradient id="paint1_linear_358_6924" x1="32" y1="8.49997" x2="32.1194" y2="76.0051" gradientUnits="userSpaceOnUse">
<stop stop-color="#4130FF"/>
<stop offset="0.53" stop-color="#FF2D9D"/>
<stop offset="1" stop-color="#FF8F98"/>
</linearGradient>
<clipPath id="clip0_358_6924">
<rect width="64.2215" height="76" fill="white"/>
</clipPath>
</defs>
</svg>
