<svg width="146" height="146" viewBox="0 0 146 146" fill="none" xmlns="http://www.w3.org/2000/svg">
<circle cx="73" cy="73" r="72.4781" fill="white" fill-opacity="0.35" stroke="url(#paint0_linear_91_1219)" stroke-width="1.0438"/>
<circle cx="72.9987" cy="72.9999" r="39.0198" stroke="#8F919B" stroke-opacity="0.3" stroke-width="1.0438"/>
<path d="M52.048 127.484L53.8326 128.011C53.7888 128.413 53.8175 128.786 53.9189 129.131C54.0202 129.476 54.1765 129.789 54.3876 130.071C54.5988 130.353 54.8569 130.595 55.1621 130.797C55.4635 130.998 55.8011 131.154 56.1748 131.264C56.8497 131.463 57.5042 131.472 58.1382 131.29C58.7683 131.107 59.3346 130.733 59.837 130.168C60.3355 129.602 60.7242 128.846 61.0032 127.901C61.2844 126.947 61.3692 126.098 61.2576 125.352C61.1422 124.605 60.8671 123.985 60.4322 123.491C59.9973 122.998 59.4462 122.653 58.7789 122.457C58.409 122.347 58.0435 122.293 57.6825 122.295C57.3166 122.299 56.969 122.36 56.6398 122.478C56.3105 122.597 56.0103 122.771 55.7391 123.002C55.4629 123.236 55.2335 123.529 55.0508 123.881L53.2679 123.349C53.533 122.801 53.8743 122.326 54.2918 121.922C54.7042 121.522 55.1758 121.209 55.7063 120.984C56.232 120.762 56.7956 120.636 57.3971 120.606C57.9987 120.576 58.6217 120.657 59.2661 120.847C60.2805 121.146 61.1134 121.653 61.7648 122.367C62.4151 123.086 62.8364 123.962 63.0285 124.997C63.2168 126.031 63.1271 127.172 62.7592 128.419C62.3903 129.669 61.8449 130.675 61.1229 131.437C60.3999 132.202 59.5709 132.707 58.636 132.954C57.6999 133.204 56.7267 133.18 55.7161 132.882C55.0945 132.699 54.5414 132.438 54.0565 132.1C53.5668 131.765 53.1571 131.362 52.8274 130.892C52.4966 130.425 52.2627 129.904 52.1256 129.329C51.9874 128.758 51.9615 128.143 52.048 127.484Z" fill="#14161B"/>
<path d="M50.4005 117.406L43.913 127.754L37.4257 123.686L38.2683 122.342L43.1944 125.431L45.1711 122.278L40.5835 119.401L41.4229 118.062L46.0105 120.939L47.9967 117.771L43.0099 114.643L43.8525 113.299L50.4005 117.406Z" fill="#14161B"/>
<path d="M40.0288 110.055L30.9902 118.27L28.0629 115.047C27.4266 114.347 27.0193 113.656 26.8408 112.975C26.6597 112.291 26.6782 111.64 26.8963 111.023C27.1114 110.408 27.4971 109.848 28.0531 109.343C28.6063 108.84 29.1988 108.514 29.8308 108.364C30.4571 108.213 31.0977 108.265 31.7525 108.519C32.4046 108.77 33.0489 109.245 33.6851 109.946L35.9027 112.387L34.7287 113.454L32.6234 111.136C32.2224 110.695 31.833 110.393 31.4552 110.232C31.0747 110.067 30.705 110.03 30.3461 110.119C29.9873 110.209 29.6386 110.408 29.3003 110.715C28.959 111.026 28.7234 111.361 28.5936 111.72C28.4612 112.077 28.4557 112.455 28.5773 112.855C28.6932 113.255 28.9557 113.68 29.3648 114.13L30.9207 115.843L38.7897 108.691L40.0288 110.055ZM31.8967 109.299L33.9456 103.359L35.3571 104.913L33.2681 110.808L31.8967 109.299Z" fill="#14161B"/>
<path d="M22.2158 104.864L20.7975 105.575L16.5649 97.1229L17.9832 96.4123L19.6896 99.8198L29.191 95.059L30.0135 96.7014L20.5121 101.462L22.2158 104.864Z" fill="#14161B"/>
<path d="M12.9798 84.1592L24.9709 81.8372L25.321 83.6465L13.3299 85.9684L12.9798 84.1592Z" fill="#14161B"/>
<path d="M24.1845 72.53L12.0117 71.53L12.632 63.9815L14.2131 64.1114L13.7437 69.8233L17.4526 70.128L17.8775 64.957L19.4526 65.0863L19.0277 70.2574L24.3354 70.6934L24.1845 72.53Z" fill="#14161B"/>
<path d="M16.317 50.8589L27.7684 55.1067L27.1276 56.8345L15.6763 52.5867L16.317 50.8589Z" fill="#14161B"/>
<path d="M30.542 34.6297L29.4484 36.1351C29.0847 35.9593 28.7234 35.8614 28.3645 35.8413C28.0055 35.8213 27.6579 35.8636 27.3215 35.9681C26.9851 36.0726 26.6707 36.2348 26.3783 36.4548C26.0881 36.6715 25.8286 36.9375 25.5996 37.2527C25.186 37.8221 24.9587 38.4359 24.9178 39.0943C24.8792 39.7494 25.0419 40.4083 25.4058 41.0709C25.7721 41.7302 26.354 42.3497 27.1517 42.9294C27.9557 43.5137 28.7278 43.8782 29.468 44.0229C30.2104 44.1644 30.8867 44.1128 31.4969 43.8682C32.1071 43.6235 32.6166 43.2197 33.0256 42.6568C33.2522 42.3448 33.4254 42.0185 33.5451 41.6778C33.6639 41.3317 33.7226 40.9836 33.7213 40.6337C33.7199 40.2838 33.6559 39.9423 33.5292 39.6094C33.4016 39.271 33.2024 38.9566 32.9316 38.6665L34.03 37.1645C34.4572 37.5979 34.791 38.0788 35.0312 38.6072C35.2705 39.1301 35.4073 39.6792 35.4415 40.2545C35.4748 40.8243 35.4047 41.3976 35.2314 41.9744C35.0581 42.5513 34.7739 43.1115 34.379 43.6551C33.7575 44.5108 33.001 45.1259 32.1097 45.5005C31.2152 45.8727 30.2483 45.976 29.2088 45.8104C28.1717 45.6416 27.1273 45.175 26.0756 44.4107C25.0207 43.644 24.2555 42.7931 23.7801 41.8578C23.3015 40.9202 23.1026 39.9696 23.1834 39.006C23.2609 38.0401 23.6093 37.1309 24.2286 36.2785C24.6095 35.7542 25.0402 35.3202 25.5209 34.9765C26.0006 34.6272 26.5173 34.3761 27.0708 34.2229C27.6211 34.0675 28.1901 34.0215 28.7779 34.085C29.3625 34.1461 29.9505 34.3277 30.542 34.6297Z" fill="#14161B"/>
<path d="M39.9971 36.9173L38.4631 38.131L34.3335 25.8239L36.0031 24.5028L47.0264 31.3554L45.4924 32.5691L36.5842 26.872L36.5094 26.9312L39.9971 36.9173ZM37.2874 32.9623L42.2635 29.0249L43.2254 30.2411L38.2492 34.1784L37.2874 32.9623Z" fill="#14161B"/>
<path d="M46.2808 19.5843L45.6689 18.1207L54.3893 14.4729L55.0012 15.9365L51.4855 17.4071L55.5847 27.2122L53.8902 27.921L49.791 18.116L46.2808 19.5843Z" fill="#14161B"/>
<path d="M67.564 11.779L69.0606 23.9008L67.2317 24.1268L65.7351 12.005L67.564 11.779Z" fill="#14161B"/>
<path d="M88.3814 19.0846C88.1862 20.374 87.7825 21.4468 87.1703 22.3031C86.5587 23.1555 85.8043 23.7691 84.9071 24.1439C84.0144 24.5154 83.0472 24.6223 82.0055 24.4645C80.9599 24.3062 80.0637 23.9172 79.3171 23.2975C78.5751 22.6744 78.0384 21.8633 77.7072 20.8642C77.3759 19.865 77.3076 18.7227 77.5023 17.4373C77.6975 16.1479 78.1009 15.077 78.7125 14.2247C79.3247 13.3684 80.0771 12.7545 80.9698 12.383C81.867 12.0081 82.8384 11.8999 83.8841 12.0582C84.9258 12.2159 85.8177 12.6063 86.5597 13.2294C87.3063 13.8491 87.8452 14.6585 88.1765 15.6577C88.5083 16.6529 88.5766 17.7952 88.3814 19.0846ZM86.5771 18.8114C86.7259 17.8286 86.692 16.977 86.4753 16.2566C86.2632 15.5328 85.9082 14.9563 85.4102 14.5271C84.9168 14.0945 84.3241 13.8258 83.6323 13.721C82.9365 13.6157 82.2889 13.6966 81.6895 13.9637C81.0907 14.2269 80.5809 14.6724 80.1601 15.3004C79.7439 15.9249 79.4613 16.7286 79.3125 17.7114C79.1637 18.6941 79.1953 19.5474 79.4074 20.2711C79.6241 20.9916 79.9791 21.5681 80.4725 22.0007C80.9666 22.4293 81.5615 22.6964 82.2573 22.8017C82.9492 22.9065 83.5945 22.8273 84.1933 22.5641C84.7966 22.2975 85.3064 21.852 85.7227 21.2274C86.1435 20.5995 86.4283 19.7941 86.5771 18.8114Z" fill="#14161B"/>
<path d="M104.506 19.1615L99.4879 30.2968L97.9438 29.6007L95.9644 18.8827L95.8611 18.8361L92.1807 27.0028L90.5008 26.2454L95.5189 15.1101L97.0739 15.8111L99.0539 26.5424L99.1572 26.589L102.842 18.4115L104.506 19.1615Z" fill="#14161B"/>
<path d="M119.216 37.0234C119.401 36.6921 119.532 36.3576 119.608 36.0198C119.69 35.6822 119.714 35.3468 119.681 35.0137C119.65 34.6778 119.557 34.3483 119.402 34.0251C119.25 33.7048 119.036 33.3965 118.759 33.1001C118.29 32.5973 117.737 32.2648 117.101 32.1024C116.465 31.94 115.788 31.9745 115.068 32.206C114.354 32.4376 113.637 32.89 112.917 33.563C112.193 34.2388 111.692 34.9278 111.412 35.6301C111.132 36.3323 111.054 37.009 111.178 37.6603C111.302 38.3116 111.608 38.8988 112.096 39.4219C112.549 39.9072 113.043 40.2377 113.577 40.4135C114.114 40.5922 114.655 40.6121 115.199 40.4732C115.75 40.3344 116.27 40.0357 116.761 39.577L117.022 39.9868L114.637 37.4324L115.748 36.3943L119.024 39.9033L118.009 40.8519C117.259 41.5521 116.459 42.0002 115.609 42.1962C114.764 42.3924 113.93 42.3499 113.107 42.0686C112.287 41.7902 111.54 41.2906 110.867 40.5699C110.113 39.7621 109.637 38.8793 109.439 37.9216C109.244 36.9669 109.329 36.0006 109.694 35.0228C110.062 34.0423 110.717 33.1123 111.658 32.233C112.37 31.568 113.102 31.0697 113.853 30.7381C114.604 30.4065 115.344 30.2348 116.073 30.2231C116.807 30.2117 117.506 30.3509 118.168 30.6407C118.836 30.9308 119.44 31.365 119.98 31.9433C120.43 32.4257 120.778 32.9412 121.024 33.4897C121.272 34.0412 121.418 34.6018 121.46 35.1715C121.505 35.7442 121.448 36.3063 121.289 36.8579C121.132 37.4067 120.871 37.9225 120.506 38.4052L119.216 37.0234Z" fill="#14161B"/>
<path d="M130.772 48.511L131.623 50.1526L124.49 53.849C123.731 54.2424 122.967 54.4126 122.196 54.3597C121.429 54.305 120.71 54.0416 120.04 53.5693C119.374 53.0953 118.816 52.424 118.366 51.5556C117.918 50.6907 117.692 49.8492 117.689 49.0312C117.69 48.2113 117.889 47.4722 118.287 46.8138C118.688 46.1535 119.268 45.6267 120.027 45.2334L127.159 41.5369L128.007 43.1732L121.007 46.8011C120.517 47.0554 120.136 47.389 119.867 47.8019C119.599 48.2184 119.459 48.6828 119.447 49.1951C119.438 49.7057 119.575 50.2345 119.859 50.7817C120.144 51.3324 120.498 51.7514 120.92 52.0388C121.347 52.3278 121.806 52.4794 122.297 52.4936C122.79 52.5114 123.282 52.3931 123.772 52.1388L130.772 48.511Z" fill="#14161B"/>
<path d="M122.025 59.8163L121.627 57.9011L134.479 59.719L134.912 61.8036L123.848 68.5925L123.45 66.6773L132.534 61.2624L132.515 61.169L122.025 59.8163ZM126.774 59.1642L128.065 65.3769L126.547 65.6925L125.256 59.4797L126.774 59.1642Z" fill="#14161B"/>
<path d="M124.06 73.1335L136.245 73.967L135.948 78.3104C135.883 79.2544 135.667 80.0267 135.299 80.6272C134.931 81.2317 134.449 81.669 133.852 81.939C133.26 82.2093 132.589 82.3189 131.839 82.2676C131.094 82.2166 130.448 82.015 129.902 81.6628C129.36 81.3149 128.954 80.8169 128.683 80.1687C128.413 79.5245 128.309 78.7304 128.374 77.7864L128.599 74.4961L130.182 74.6043L129.968 77.728C129.927 78.323 129.98 78.8128 130.125 79.1973C130.269 79.5858 130.498 79.8784 130.812 80.0752C131.125 80.272 131.51 80.386 131.966 80.4172C132.426 80.4486 132.831 80.3867 133.18 80.2312C133.529 80.0798 133.806 79.8217 134.01 79.4571C134.218 79.0967 134.343 78.6131 134.385 78.0062L134.542 75.6977L123.934 74.972L124.06 73.1335ZM129.146 79.5249L123.442 82.1594L123.585 80.0651L129.285 77.49L129.146 79.5249Z" fill="#14161B"/>
<path d="M122.368 86.7743L123.023 84.9311L133.059 93.1637L132.346 95.1699L119.367 95.2205L120.022 93.3773L130.596 93.4715L130.628 93.3816L122.368 86.7743ZM126.765 88.6854L124.64 94.6647L123.179 94.1453L125.304 88.1661L126.765 88.6854Z" fill="#14161B"/>
<path d="M121.615 114.125L111.638 107.08L112.614 105.696L123.512 105.79L123.577 105.698L116.259 100.531L117.322 99.0257L127.299 106.07L126.316 107.464L115.406 107.368L115.34 107.46L122.668 112.634L121.615 114.125Z" fill="#14161B"/>
<path d="M115.992 117.729L116.993 118.959L109.661 124.926L108.66 123.695L111.616 121.29L104.91 113.045L106.335 111.886L113.04 120.13L115.992 117.729Z" fill="#14161B"/>
<path d="M96.9597 118.28L101.825 129.483L94.8015 132.534L94.1696 131.079L99.5027 128.762L98.0204 125.349L93.0538 127.506L92.4243 126.057L97.3909 123.899L95.9014 120.469L90.5027 122.815L89.8708 121.36L96.9597 118.28Z" fill="#14161B"/>
<path d="M84.1445 122.802L85.8073 134.903L78.2211 135.946L78.0052 134.374L83.7657 133.582L83.259 129.895L77.8944 130.633L77.6793 129.067L83.0439 128.33L82.5348 124.625L76.7035 125.427L76.4875 123.855L84.1445 122.802Z" fill="#14161B"/>
<circle cx="73.5987" cy="73.5982" r="20.8761" fill="#27BD63"/>
<path d="M70.302 77.6197L81.1387 66.783C81.4023 66.5172 81.7098 66.3843 82.0611 66.3843C82.4126 66.3843 82.7213 66.5172 82.9871 66.783C83.2529 67.0488 83.3858 67.3578 83.3858 67.7101C83.3858 68.0624 83.2576 68.3667 83.0012 68.623L71.2443 80.4104C70.9807 80.6762 70.6732 80.8091 70.3219 80.8091C69.9704 80.8091 69.6617 80.6762 69.3959 80.4104L64.2131 75.2276C63.9473 74.9618 63.8145 74.6538 63.8145 74.3034C63.8145 73.9531 63.9473 73.645 64.2131 73.3792C64.4789 73.1134 64.789 72.9805 65.1435 72.9805C65.4977 72.9805 65.8037 73.1134 66.0615 73.3792L70.302 77.6197Z" fill="white"/>
<defs>
<linearGradient id="paint0_linear_91_1219" x1="73" y1="0" x2="73" y2="146" gradientUnits="userSpaceOnUse">
<stop stop-color="white"/>
<stop offset="1" stop-color="white" stop-opacity="0.6"/>
</linearGradient>
</defs>
</svg>
