<svg width="226" height="227" viewBox="0 0 226 227" fill="none" xmlns="http://www.w3.org/2000/svg">
<g filter="url(#filter0_bd_173_1672)">
<circle cx="113" cy="105" r="73" fill="white" fill-opacity="0.35" shape-rendering="crispEdges"/>
<circle cx="113" cy="105" r="72.4781" stroke="url(#paint0_linear_173_1672)" stroke-width="1.0438" shape-rendering="crispEdges"/>
</g>
<circle cx="113" cy="105" r="39.0198" stroke="#8F919B" stroke-opacity="0.3" stroke-width="1.0438"/>
<path d="M92.0489 159.485L93.8336 160.011C93.7897 160.413 93.8185 160.786 93.9199 161.131C94.0212 161.476 94.1775 161.789 94.3886 162.071C94.5997 162.353 94.8579 162.595 95.1631 162.797C95.4645 162.998 95.802 163.154 96.1757 163.264C96.8507 163.463 97.5052 163.472 98.1392 163.29C98.7693 163.107 99.3356 162.733 99.8379 162.168C100.336 161.602 100.725 160.846 101.004 159.901C101.285 158.947 101.37 158.098 101.259 157.352C101.143 156.605 100.868 155.985 100.433 155.492C99.9983 154.999 99.4472 154.654 98.7799 154.457C98.41 154.348 98.0445 154.294 97.6835 154.295C97.3176 154.299 96.97 154.36 96.6407 154.478C96.3115 154.597 96.0113 154.771 95.74 155.002C95.4639 155.236 95.2345 155.529 95.0518 155.881L93.2688 155.349C93.534 154.801 93.8753 154.326 94.2927 153.922C94.7052 153.522 95.1767 153.209 95.7073 152.984C96.233 152.762 96.7966 152.636 97.3981 152.606C97.9996 152.577 98.6227 152.657 99.2671 152.847C100.281 153.146 101.114 153.653 101.766 154.368C102.416 155.086 102.837 155.963 103.029 156.998C103.218 158.031 103.128 159.172 102.76 160.419C102.391 161.67 101.846 162.676 101.124 163.437C100.401 164.202 99.5718 164.707 98.6369 164.954C97.7009 165.204 96.7276 165.18 95.7171 164.882C95.0955 164.699 94.5423 164.438 94.0575 164.1C93.5678 163.765 93.1581 163.362 92.8284 162.892C92.4976 162.425 92.2636 161.905 92.1266 161.329C91.9884 160.758 91.9625 160.143 92.0489 159.485Z" fill="#14161B"/>
<path d="M90.3995 149.406L83.912 159.754L77.4248 155.686L78.2674 154.342L83.1935 157.431L85.1701 154.278L80.5825 151.401L81.422 150.062L86.0095 152.939L87.9957 149.771L83.009 146.643L83.8516 145.299L90.3995 149.406Z" fill="#14161B"/>
<path d="M80.0288 142.055L70.9902 150.27L68.0629 147.047C67.4266 146.347 67.0193 145.656 66.8408 144.975C66.6597 144.291 66.6782 143.64 66.8963 143.023C67.1114 142.408 67.4971 141.848 68.0531 141.343C68.6063 140.84 69.1988 140.514 69.8308 140.364C70.4571 140.214 71.0977 140.265 71.7525 140.519C72.4046 140.77 73.0489 141.245 73.6851 141.946L75.9027 144.387L74.7287 145.454L72.6234 143.136C72.2224 142.695 71.833 142.393 71.4552 142.232C71.0747 142.067 70.705 142.03 70.3461 142.12C69.9873 142.209 69.6386 142.408 69.3003 142.715C68.959 143.026 68.7234 143.361 68.5936 143.72C68.4612 144.077 68.4557 144.455 68.5773 144.855C68.6932 145.255 68.9557 145.68 69.3648 146.13L70.9207 147.843L78.7897 140.691L80.0288 142.055ZM71.8967 141.299L73.9456 135.359L75.3571 136.913L73.2681 142.808L71.8967 141.299Z" fill="#14161B"/>
<path d="M62.2148 136.864L60.7965 137.575L56.5639 129.123L57.9822 128.412L59.6886 131.82L69.1901 127.059L70.0125 128.701L60.5111 133.462L62.2148 136.864Z" fill="#14161B"/>
<path d="M52.9789 116.159L64.9699 113.837L65.32 115.647L53.3289 117.969L52.9789 116.159Z" fill="#14161B"/>
<path d="M64.1835 104.53L52.0107 103.53L52.6311 95.9816L54.2121 96.1115L53.7427 101.823L57.4516 102.128L57.8766 96.957L59.4516 97.0864L59.0267 102.257L64.3344 102.693L64.1835 104.53Z" fill="#14161B"/>
<path d="M56.317 82.8588L67.7684 87.1066L67.1276 88.8345L55.6763 84.5867L56.317 82.8588Z" fill="#14161B"/>
<path d="M70.543 66.6298L69.4494 68.1352C69.0857 67.9593 68.7244 67.8614 68.3654 67.8414C68.0065 67.8214 67.6589 67.8636 67.3225 67.9681C66.9861 68.0726 66.6717 68.2349 66.3792 68.4548C66.0891 68.6716 65.8295 68.9376 65.6005 69.2528C65.1869 69.8221 64.9597 70.436 64.9188 71.0944C64.8802 71.7495 65.0429 72.4084 65.4068 73.0709C65.7731 73.7303 66.355 74.3498 67.1526 74.9295C67.9567 75.5138 68.7288 75.8783 69.4689 76.023C70.2114 76.1645 70.8877 76.1129 71.4979 75.8682C72.1081 75.6236 72.6176 75.2198 73.0265 74.6569C73.2532 74.3448 73.4264 74.0185 73.546 73.6779C73.6648 73.3317 73.7236 72.9837 73.7222 72.6338C73.7209 72.2838 73.6569 71.9424 73.5301 71.6095C73.4025 71.271 73.2034 70.9567 72.9326 70.6665L74.031 69.1646C74.4582 69.598 74.7919 70.0789 75.0322 70.6073C75.2715 71.1302 75.4082 71.6793 75.4424 72.2546C75.4757 72.8243 75.4057 73.3976 75.2324 73.9745C75.059 74.5514 74.7749 75.1116 74.38 75.6552C73.7584 76.5108 73.002 77.1259 72.1107 77.5005C71.2162 77.8727 70.2492 77.9761 69.2098 77.8104C68.1727 77.6416 67.1283 77.1751 66.0766 76.4107C65.0217 75.6441 64.2565 74.7931 63.7811 73.8579C63.3025 72.9202 63.1035 71.9697 63.1843 71.0061C63.2619 70.0402 63.6103 69.131 64.2295 68.2786C64.6104 67.7543 65.0412 67.3203 65.5218 66.9766C66.0016 66.6273 66.5182 66.3761 67.0717 66.223C67.622 66.0675 68.1911 66.0215 68.7789 66.085C69.3635 66.1462 69.9515 66.3277 70.543 66.6298Z" fill="#14161B"/>
<path d="M79.9981 68.9173L78.4641 70.1311L74.3344 57.824L76.0041 56.5029L87.0274 63.3554L85.4934 64.5692L76.5852 58.8721L76.5104 58.9313L79.9981 68.9173ZM77.2884 64.9623L82.2645 61.025L83.2263 62.2411L78.2502 66.1785L77.2884 64.9623Z" fill="#14161B"/>
<path d="M86.2808 51.5844L85.6689 50.1208L94.3893 46.473L95.0012 47.9366L91.4855 49.4072L95.5847 59.2123L93.8902 59.9211L89.791 50.116L86.2808 51.5844Z" fill="#14161B"/>
<path d="M107.565 43.7791L109.062 55.9008L107.233 56.1268L105.736 44.0051L107.565 43.7791Z" fill="#14161B"/>
<path d="M128.381 51.0846C128.186 52.374 127.782 53.4469 127.17 54.3032C126.559 55.1555 125.804 55.7691 124.907 56.144C124.014 56.5155 123.047 56.6224 122.006 56.4646C120.96 56.3063 120.064 55.9173 119.317 55.2975C118.575 54.6745 118.038 53.8634 117.707 52.8642C117.376 51.8651 117.308 50.7228 117.502 49.4373C117.697 48.148 118.101 47.0771 118.713 46.2247C119.325 45.3684 120.077 44.7545 120.97 44.383C121.867 44.0082 122.838 43.8999 123.884 44.0583C124.926 44.216 125.818 44.6064 126.56 45.2294C127.306 45.8492 127.845 46.6586 128.176 47.6577C128.508 48.653 128.577 49.7953 128.381 51.0846ZM126.577 50.8114C126.726 49.8287 126.692 48.9771 126.475 48.2567C126.263 47.5329 125.908 46.9564 125.41 46.5271C124.917 46.0945 124.324 45.8259 123.632 45.7211C122.936 45.6157 122.289 45.6966 121.69 45.9637C121.091 46.2269 120.581 46.6725 120.16 47.3004C119.744 47.925 119.461 48.7287 119.313 49.7114C119.164 50.6942 119.195 51.5475 119.407 52.2712C119.624 52.9916 119.979 53.5681 120.473 54.0007C120.967 54.4294 121.561 54.6964 122.257 54.8018C122.949 54.9065 123.594 54.8273 124.193 54.5641C124.797 54.2976 125.306 53.852 125.723 53.2275C126.143 52.5995 126.428 51.7942 126.577 50.8114Z" fill="#14161B"/>
<path d="M144.506 51.1616L139.488 62.2969L137.944 61.6008L135.964 50.8828L135.861 50.8362L132.181 59.0028L130.501 58.2455L135.519 47.1102L137.074 47.8112L139.054 58.5425L139.157 58.5891L142.842 50.4116L144.506 51.1616Z" fill="#14161B"/>
<path d="M159.215 69.0234C159.4 68.6921 159.531 68.3576 159.607 68.0198C159.689 67.6822 159.713 67.3468 159.68 67.0137C159.649 66.6778 159.556 66.3483 159.401 66.0251C159.249 65.7048 159.035 65.3965 158.758 65.1001C158.289 64.5973 157.736 64.2648 157.1 64.1024C156.464 63.94 155.787 63.9745 155.067 64.206C154.353 64.4376 153.636 64.89 152.916 65.563C152.192 66.2388 151.691 66.9278 151.411 67.6301C151.131 68.3323 151.053 69.009 151.177 69.6603C151.301 70.3116 151.607 70.8988 152.095 71.4219C152.549 71.9072 153.042 72.2377 153.576 72.4135C154.113 72.5922 154.654 72.6121 155.198 72.4732C155.749 72.3344 156.269 72.0357 156.76 71.577L157.021 71.9868L154.636 69.4324L155.747 68.3943L159.023 71.9033L158.008 72.8519C157.258 73.5521 156.458 74.0002 155.608 74.1962C154.763 74.3924 153.929 74.3499 153.106 74.0686C152.286 73.7902 151.539 73.2906 150.866 72.5699C150.112 71.7621 149.636 70.8793 149.438 69.9216C149.243 68.9669 149.328 68.0006 149.693 67.0228C150.061 66.0423 150.716 65.1123 151.657 64.233C152.369 63.568 153.101 63.0697 153.852 62.7381C154.603 62.4065 155.343 62.2348 156.072 62.2231C156.806 62.2117 157.505 62.3509 158.167 62.6407C158.835 62.9308 159.439 63.365 159.979 63.9433C160.429 64.4257 160.777 64.9412 161.023 65.4897C161.271 66.0412 161.417 66.6018 161.459 67.1715C161.504 67.7442 161.447 68.3063 161.288 68.8579C161.131 69.4067 160.87 69.9225 160.505 70.4052L159.215 69.0234Z" fill="#14161B"/>
<path d="M170.772 80.511L171.623 82.1526L164.49 85.849C163.731 86.2424 162.967 86.4126 162.196 86.3597C161.429 86.305 160.71 86.0416 160.04 85.5693C159.374 85.0953 158.816 84.424 158.366 83.5556C157.918 82.6907 157.692 81.8492 157.689 81.0312C157.69 80.2113 157.889 79.4722 158.287 78.8138C158.688 78.1535 159.268 77.6267 160.027 77.2334L167.159 73.5369L168.007 75.1732L161.007 78.8011C160.517 79.0554 160.136 79.389 159.867 79.8019C159.599 80.2184 159.459 80.6828 159.447 81.1951C159.438 81.7057 159.575 82.2345 159.859 82.7817C160.144 83.3324 160.498 83.7514 160.92 84.0388C161.347 84.3278 161.806 84.4794 162.297 84.4936C162.79 84.5114 163.282 84.3931 163.772 84.1388L170.772 80.511Z" fill="#14161B"/>
<path d="M162.024 91.8163L161.626 89.9011L174.478 91.719L174.911 93.8036L163.847 100.592L163.449 98.6773L172.533 93.2624L172.514 93.169L162.024 91.8163ZM166.773 91.1642L168.064 97.3769L166.546 97.6925L165.255 91.4797L166.773 91.1642Z" fill="#14161B"/>
<path d="M164.059 105.134L176.244 105.967L175.947 110.31C175.882 111.254 175.666 112.027 175.298 112.627C174.93 113.232 174.448 113.669 173.852 113.939C173.259 114.209 172.588 114.319 171.838 114.268C171.093 114.217 170.447 114.015 169.901 113.663C169.359 113.315 168.953 112.817 168.682 112.169C168.412 111.525 168.308 110.73 168.373 109.786L168.598 106.496L170.181 106.604L169.967 109.728C169.926 110.323 169.979 110.813 170.124 111.197C170.268 111.586 170.497 111.878 170.811 112.075C171.124 112.272 171.509 112.386 171.965 112.417C172.425 112.449 172.83 112.387 173.179 112.231C173.528 112.08 173.805 111.822 174.009 111.457C174.217 111.097 174.342 110.613 174.384 110.006L174.541 107.698L163.933 106.972L164.059 105.134ZM169.145 111.525L163.441 114.159L163.584 112.065L169.284 109.49L169.145 111.525Z" fill="#14161B"/>
<path d="M162.368 118.774L163.023 116.931L173.059 125.164L172.346 127.17L159.367 127.221L160.022 125.377L170.596 125.471L170.628 125.382L162.368 118.774ZM166.765 120.685L164.64 126.665L163.179 126.145L165.304 120.166L166.765 120.685Z" fill="#14161B"/>
<path d="M161.615 146.125L151.638 139.08L152.614 137.696L163.512 137.79L163.577 137.698L156.259 132.531L157.322 131.026L167.299 138.07L166.316 139.464L155.406 139.368L155.34 139.46L162.668 144.634L161.615 146.125Z" fill="#14161B"/>
<path d="M155.991 149.729L156.992 150.959L149.66 156.926L148.659 155.695L151.615 153.29L144.909 145.045L146.334 143.886L153.039 152.13L155.991 149.729Z" fill="#14161B"/>
<path d="M136.96 150.28L141.825 161.483L134.802 164.534L134.17 163.079L139.503 160.762L138.02 157.349L133.054 159.506L132.424 158.057L137.391 155.899L135.901 152.469L130.503 154.815L129.871 153.36L136.96 150.28Z" fill="#14161B"/>
<path d="M124.145 154.802L125.807 166.903L118.221 167.946L118.005 166.374L123.766 165.582L123.259 161.895L117.894 162.633L117.679 161.067L123.044 160.33L122.535 156.625L116.703 157.427L116.487 155.855L124.145 154.802Z" fill="#14161B"/>
<circle cx="113.598" cy="105.598" r="20.8761" fill="#27BD63"/>
<path d="M110.301 109.62L121.138 98.783C121.401 98.5172 121.709 98.3843 122.06 98.3843C122.412 98.3843 122.72 98.5172 122.986 98.783C123.252 99.0487 123.385 99.3578 123.385 99.7101C123.385 100.062 123.257 100.367 123 100.623L111.243 112.41C110.98 112.676 110.672 112.809 110.321 112.809C109.969 112.809 109.661 112.676 109.395 112.41L104.212 107.228C103.946 106.962 103.813 106.654 103.813 106.303C103.813 105.953 103.946 105.645 104.212 105.379C104.478 105.113 104.788 104.981 105.143 104.981C105.497 104.981 105.803 105.113 106.061 105.379L110.301 109.62Z" fill="white"/>
<defs>
<filter id="filter0_bd_173_1672" x="0.33548" y="0.685905" width="225.329" height="225.329" filterUnits="userSpaceOnUse" color-interpolation-filters="sRGB">
<feFlood flood-opacity="0" result="BackgroundImageFix"/>
<feGaussianBlur in="BackgroundImageFix" stdDeviation="6.26282"/>
<feComposite in2="SourceAlpha" operator="in" result="effect1_backgroundBlur_173_1672"/>
<feColorMatrix in="SourceAlpha" type="matrix" values="0 0 0 0 0 0 0 0 0 0 0 0 0 0 0 0 0 0 127 0" result="hardAlpha"/>
<feOffset dy="8.35042"/>
<feGaussianBlur stdDeviation="19.8323"/>
<feComposite in2="hardAlpha" operator="out"/>
<feColorMatrix type="matrix" values="0 0 0 0 0.0625 0 0 0 0 0.0625 0 0 0 0 0.0625 0 0 0 0.08 0"/>
<feBlend mode="normal" in2="effect1_backgroundBlur_173_1672" result="effect2_dropShadow_173_1672"/>
<feBlend mode="normal" in="SourceGraphic" in2="effect2_dropShadow_173_1672" result="shape"/>
</filter>
<linearGradient id="paint0_linear_173_1672" x1="113" y1="32" x2="113" y2="178" gradientUnits="userSpaceOnUse">
<stop stop-color="white"/>
<stop offset="1" stop-color="white" stop-opacity="0.6"/>
</linearGradient>
</defs>
</svg>
