<svg width="28" height="28" viewBox="0 0 28 28" fill="none" xmlns="http://www.w3.org/2000/svg">
<path d="M18.6653 26.5416H9.33197C3.94197 26.5416 2.93864 24.0333 2.68197 21.5949L1.80697 12.2499C1.67864 11.0249 1.64364 9.2166 2.85697 7.86326C3.90697 6.6966 5.6453 6.1366 8.1653 6.1366H19.832C22.3636 6.1366 24.102 6.70826 25.1403 7.86326C26.3536 9.2166 26.3186 11.0249 26.1903 12.2616L25.3153 21.5833C25.0586 24.0333 24.0553 26.5416 18.6653 26.5416ZM8.1653 7.87493C6.19364 7.87493 4.8403 8.25993 4.15197 9.02993C3.5803 9.65993 3.39364 10.6283 3.5453 12.0749L4.4203 21.4199C4.61864 23.2633 5.1203 24.7916 9.33197 24.7916H18.6653C22.8653 24.7916 23.3786 23.2633 23.577 21.4083L24.452 12.0866C24.6036 10.6283 24.417 9.65993 23.8453 9.02993C23.157 8.25993 21.8036 7.87493 19.832 7.87493H8.1653Z" fill="#6C1CFF"/>
<path d="M18.6673 7.87504C18.189 7.87504 17.7923 7.47837 17.7923 7.00004V6.06671C17.7923 3.99004 17.7923 3.20837 14.934 3.20837H13.0673C10.209 3.20837 10.209 3.99004 10.209 6.06671V7.00004C10.209 7.47837 9.81232 7.87504 9.33398 7.87504C8.85565 7.87504 8.45898 7.47837 8.45898 7.00004V6.06671C8.45898 4.01337 8.45898 1.45837 13.0673 1.45837H14.934C19.5423 1.45837 19.5423 4.01337 19.5423 6.06671V7.00004C19.5423 7.47837 19.1457 7.87504 18.6673 7.87504Z" fill="#6C1CFF"/>
<path d="M13.9993 19.5417C10.791 19.5417 10.791 17.5583 10.791 16.3683V15.1667C10.791 13.5217 11.1877 13.125 12.8327 13.125H15.166C16.811 13.125 17.2077 13.5217 17.2077 15.1667V16.3333C17.2077 17.5467 17.2077 19.5417 13.9993 19.5417ZM12.541 14.875C12.541 14.9683 12.541 15.0733 12.541 15.1667V16.3683C12.541 17.57 12.541 17.7917 13.9993 17.7917C15.4577 17.7917 15.4577 17.605 15.4577 16.3567V15.1667C15.4577 15.0733 15.4577 14.9683 15.4577 14.875C15.3643 14.875 15.2593 14.875 15.166 14.875H12.8327C12.7393 14.875 12.6343 14.875 12.541 14.875Z" fill="#6C1CFF"/>
<path d="M16.3347 17.2317C15.903 17.2317 15.5181 16.9051 15.4714 16.4617C15.4131 15.9834 15.7514 15.5401 16.2297 15.4817C19.3097 15.0967 22.2614 13.9301 24.7464 12.1217C25.1314 11.8301 25.6797 11.9234 25.9714 12.3201C26.2514 12.7051 26.1697 13.2534 25.7731 13.5451C23.0431 15.5284 19.8231 16.8001 16.4397 17.2317C16.4047 17.2317 16.3697 17.2317 16.3347 17.2317Z" fill="#6C1CFF"/>
<path d="M11.6656 17.2434C11.6306 17.2434 11.5956 17.2434 11.5606 17.2434C8.36389 16.8817 5.24889 15.7151 2.55389 13.8717C2.15722 13.6034 2.05222 13.055 2.32056 12.6584C2.58889 12.2617 3.13722 12.1567 3.53389 12.425C5.99556 14.105 8.83056 15.1667 11.7472 15.505C12.2256 15.5634 12.5756 15.995 12.5172 16.4734C12.4822 16.9167 12.1089 17.2434 11.6656 17.2434Z" fill="#6C1CFF"/>
</svg>
