<svg width="24" height="24" viewBox="0 0 24 24" fill="none" xmlns="http://www.w3.org/2000/svg">
<path d="M20.1401 3H3.58416C2.71054 3 2 4.04235 2 5.32396V14.4659C2 15.7475 2.71054 16.7899 3.58416 16.7899H20.144C21.0176 16.7899 21.7282 15.7475 21.7282 14.4659V5.32396C21.7243 4.04235 21.0137 3 20.1401 3ZM20.6294 14.4659C20.6294 14.8589 20.4119 15.1779 20.144 15.1779H3.58416C3.31625 15.1779 3.09882 14.8589 3.09882 14.4659V5.32396C3.09882 4.93092 3.31625 4.61195 3.58416 4.61195H20.144C20.4119 4.61195 20.6294 4.93092 20.6294 5.32396V14.4659Z" fill="#7E7E89"/>
<path d="M17.6081 12.1016H6.11501C5.87311 12.1016 5.67773 12.4604 5.67773 12.9047C5.67773 13.349 5.87311 13.7079 6.11501 13.7079H17.6112C17.8531 13.7079 18.0485 13.349 18.0485 12.9047C18.0485 12.4604 17.85 12.1016 17.6081 12.1016Z" fill="#7E7E89"/>
<path d="M17.5821 5.99609C17.0872 5.99609 16.6875 6.35496 16.6875 6.79921V7.06691C16.6875 7.51126 17.0872 7.87002 17.5821 7.87002C18.0768 7.87002 18.4765 7.51126 18.4765 7.06691V6.79921C18.4765 6.35496 18.0768 5.99609 17.5821 5.99609Z" fill="#7E7E89"/>
<path d="M17.5821 9.03906C17.0872 9.03906 16.6875 9.39783 16.6875 9.84217V10.1099C16.6875 10.5541 17.0872 10.913 17.5821 10.913C18.0768 10.913 18.4765 10.5541 18.4765 10.1099V9.84217C18.4765 9.40362 18.0768 9.03906 17.5821 9.03906Z" fill="#7E7E89"/>
<path d="M6.65303 17.9798C6.38751 17.9134 6.122 18.0741 6.05562 18.3396L5.68879 19.8C5.62241 20.0655 5.78311 20.3345 6.04863 20.3974C6.35258 20.4672 6.59014 20.2611 6.64604 20.0375L7.01286 18.5772C7.07924 18.3152 6.91853 18.0462 6.65303 17.9798Z" fill="#7E7E89"/>
<path d="M10.1255 18.5489C9.85304 18.5244 9.61543 18.7271 9.59451 18.9996L9.47222 20.5018C9.45124 20.7743 9.65043 21.0189 9.92291 21.0328C10.2059 21.0503 10.433 20.8407 10.4539 20.5822L10.5762 19.0799C10.6007 18.8109 10.398 18.5733 10.1255 18.5489Z" fill="#7E7E89"/>
<path d="M18.0344 19.7988L17.6675 18.3385C17.6011 18.073 17.3321 17.9158 17.0701 17.9786C16.8046 18.0451 16.6439 18.3141 16.7103 18.5761L17.0771 20.0364C17.133 20.26 17.374 20.4661 17.6745 20.3963C17.94 20.3334 18.1008 20.0609 18.0344 19.7988Z" fill="#7E7E89"/>
<path d="M14.2505 20.5018L14.1282 18.9995C14.1038 18.7305 13.8697 18.5244 13.5972 18.5488C13.3247 18.5698 13.1221 18.8074 13.1465 19.0799L13.2688 20.5822C13.2897 20.8407 13.5203 21.0503 13.7998 21.0328C14.0723 21.0154 14.2714 20.7743 14.2505 20.5018Z" fill="#7E7E89"/>
</svg>
