<svg width="16" height="16" viewBox="0 0 16 16" fill="none" xmlns="http://www.w3.org/2000/svg">
<path d="M12.877 3.1217C10.1835 0.428183 5.81717 0.428183 3.12365 3.1217C0.430136 5.81522 0.430136 10.1816 3.12365 12.8751C5.81717 15.5686 10.1835 15.5686 12.877 12.8751C15.5705 10.1816 15.57 5.81522 12.877 3.1217ZM11.7537 6.29301L7.56283 10.4845C7.45936 10.5879 7.31905 10.646 7.17276 10.646C7.02646 10.646 6.88615 10.5879 6.78269 10.4845L4.24696 7.94818C4.19574 7.89696 4.15511 7.83615 4.12738 7.76922C4.09966 7.70229 4.08539 7.63056 4.08539 7.55811C4.08539 7.41181 4.14351 7.2715 4.24696 7.16805C4.35042 7.06459 4.49073 7.00647 4.63703 7.00647C4.78334 7.00647 4.92365 7.06459 5.0271 7.16805L7.17276 9.3137L10.9736 5.51232C11.0248 5.4611 11.0857 5.42047 11.1527 5.39276C11.2196 5.36505 11.2914 5.3508 11.3638 5.35083C11.4363 5.35086 11.5081 5.36515 11.575 5.39291C11.642 5.42067 11.7028 5.46134 11.754 5.5126C11.8052 5.56386 11.8458 5.62471 11.8736 5.69167C11.9013 5.75863 11.9155 5.83039 11.9155 5.90286C11.9155 5.97533 11.9012 6.04708 11.8734 6.11403C11.8457 6.18097 11.805 6.24179 11.7537 6.29301Z" fill="#6C1CFF"/>
</svg>
