<svg width="24" height="24" viewBox="0 0 24 24" fill="none" xmlns="http://www.w3.org/2000/svg">
<path d="M19.4998 16.1051V11.8335C19.4998 7.69781 16.1357 4.33372 12 4.33372C7.86425 4.33372 4.50016 7.69781 4.50016 11.8335V16.1051C3.06353 16.4759 2.00022 17.7826 2.00022 19.3334C2.00022 20.2525 2.74771 21 3.66685 21H20.3331C21.2523 21 21.9998 20.2525 21.9998 19.3334C21.9998 17.7826 20.9365 16.4759 19.4998 16.1051ZM12 6.00035C15.2158 6.00035 17.8332 8.61779 17.8332 11.8335V16.0001H6.16679V11.8335C6.16679 8.61779 8.78423 6.00035 12 6.00035ZM3.66685 19.3334C3.66685 18.4142 4.41433 17.6667 5.33348 17.6667H18.6665C19.5857 17.6667 20.3331 18.4142 20.3331 19.3334H3.66685ZM19.3307 6.17618C19.0032 5.85202 19.0007 5.32536 19.324 4.99787L20.574 3.73373C20.8973 3.40624 21.4248 3.40374 21.7523 3.72707C22.0798 4.05122 22.0823 4.57788 21.7589 4.90537L20.509 6.16951C20.3465 6.33451 20.1315 6.417 19.9165 6.417C19.7048 6.417 19.4932 6.33617 19.3307 6.17618ZM15.8432 2.70042L16.4907 1.45045C16.7024 1.04046 17.2065 0.882131 17.614 1.09379C18.0224 1.30545 18.1824 1.80794 17.9707 2.2171L17.3232 3.46707C17.1749 3.75373 16.884 3.91706 16.5824 3.91706C16.4532 3.91706 16.3224 3.88706 16.1999 3.82373C15.7916 3.61207 15.6316 3.10958 15.8432 2.70042ZM2.24105 4.9062C1.91689 4.57871 1.92022 4.05206 2.24772 3.7279C2.57438 3.40374 3.10353 3.40707 3.42602 3.73457L4.67599 4.9987C5.00015 5.32619 4.99682 5.85285 4.66933 6.17701C4.50766 6.337 4.29517 6.41784 4.08351 6.41784C3.86851 6.41784 3.65352 6.33534 3.49102 6.17034L2.24105 4.9062ZM6.0293 2.2171C5.81763 1.80878 5.97763 1.30545 6.38596 1.09379C6.79178 0.882131 7.29677 1.04046 7.50926 1.45045L8.15675 2.70042C8.36841 3.10875 8.20841 3.61207 7.80009 3.82373C7.67843 3.88706 7.54676 3.91706 7.4176 3.91706C7.11677 3.91706 6.82511 3.75373 6.67678 3.46707L6.0293 2.2171ZM8.66674 11.8335C8.66674 9.99525 10.1617 8.50029 12 8.50029C12.4608 8.50029 12.8333 8.87278 12.8333 9.3336C12.8333 9.79443 12.4608 10.1669 12 10.1669C11.0808 10.1669 10.3334 10.9144 10.3334 11.8335C10.3334 12.2944 9.96087 12.6669 9.50005 12.6669C9.03923 12.6669 8.66674 12.2944 8.66674 11.8335Z" fill="#7E7E89"/>
</svg>
