<svg width="12" height="7" viewBox="0 0 12 7" fill="none" xmlns="http://www.w3.org/2000/svg">
<path d="M11.5917 0.840249C11.5142 0.762142 11.422 0.700146 11.3205 0.657839C11.2189 0.615532 11.11 0.59375 11 0.59375C10.89 0.59375 10.7811 0.615532 10.6795 0.657839C10.578 0.700146 10.4858 0.762142 10.4083 0.840249L6.59168 4.65692C6.51421 4.73502 6.42204 4.79702 6.32049 4.83932C6.21894 4.88163 6.11002 4.90341 6.00001 4.90341C5.89 4.90341 5.78108 4.88163 5.67953 4.83932C5.57798 4.79702 5.48581 4.73502 5.40834 4.65692L1.59168 0.840249C1.51421 0.762142 1.42204 0.700146 1.32049 0.657839C1.21894 0.615532 1.11002 0.59375 1.00001 0.59375C0.889999 0.59375 0.781078 0.615532 0.679529 0.657839C0.577979 0.700146 0.485812 0.762142 0.408343 0.840249C0.253134 0.996384 0.166016 1.20759 0.166016 1.42775C0.166016 1.6479 0.253134 1.85911 0.408343 2.01525L4.23334 5.84025C4.70209 6.30842 5.33751 6.57138 6.00001 6.57138C6.66251 6.57138 7.29792 6.30842 7.76668 5.84025L11.5917 2.01525C11.7469 1.85911 11.834 1.6479 11.834 1.42775C11.834 1.20759 11.7469 0.996384 11.5917 0.840249Z" fill="#242429"/>
</svg>
