<svg width="24" height="24" viewBox="0 0 24 24" fill="none" xmlns="http://www.w3.org/2000/svg">
<path d="M6 11.9986C6.00486 11.4725 6.21684 10.9695 6.59 10.5986L10.88 6.29861C11.0674 6.11235 11.3208 6.00781 11.585 6.00781C11.8492 6.00781 12.1026 6.11235 12.29 6.29861C12.3837 6.39157 12.4581 6.50217 12.5089 6.62403C12.5597 6.74589 12.5858 6.87659 12.5858 7.00861C12.5858 7.14062 12.5597 7.27132 12.5089 7.39318C12.4581 7.51504 12.3837 7.62564 12.29 7.71861L9 10.9986H19C19.2652 10.9986 19.5196 11.104 19.7071 11.2915C19.8946 11.479 20 11.7334 20 11.9986C20 12.2638 19.8946 12.5182 19.7071 12.7057C19.5196 12.8932 19.2652 12.9986 19 12.9986H9L12.29 16.2886C12.4783 16.4756 12.5846 16.7297 12.5856 16.9951C12.5865 17.2604 12.482 17.5153 12.295 17.7036C12.108 17.8919 11.8539 17.9982 11.5885 17.9992C11.3232 18.0001 11.0683 17.8956 10.88 17.7086L6.59 13.4086C6.21441 13.0353 6.00223 12.5282 6 11.9986Z" fill="white"/>
</svg>
