<svg width="20" height="20" viewBox="0 0 20 20" fill="none" xmlns="http://www.w3.org/2000/svg">
<path d="M12.0248 4.31657C12.1831 4.31657 12.3415 4.3749 12.4665 4.4999L17.5248 9.55824C17.7665 9.7999 17.7665 10.1999 17.5248 10.4416L12.4665 15.4999C12.2248 15.7416 11.8248 15.7416 11.5831 15.4999C11.3415 15.2582 11.3415 14.8582 11.5831 14.6166L16.1998 9.9999L11.5831 5.38323C11.3415 5.14157 11.3415 4.74157 11.5831 4.4999C11.6998 4.3749 11.8665 4.31657 12.0248 4.31657Z" fill="white"/>
<path d="M2.9169 9.375L16.9419 9.375C17.2836 9.375 17.5669 9.65833 17.5669 10C17.5669 10.3417 17.2836 10.625 16.9419 10.625L2.91689 10.625C2.57523 10.625 2.29189 10.3417 2.29189 10C2.29189 9.65833 2.57523 9.375 2.9169 9.375Z" fill="white"/>
</svg>
