<svg width="25" height="24" viewBox="0 0 25 24" fill="none" xmlns="http://www.w3.org/2000/svg">
<path d="M21.9688 12.8459C21.4946 12.3084 20.8112 12.0001 20.0945 12.0001H4.26049V5.73514C4.26049 5.03431 4.57717 4.34099 5.17136 3.96849C6.0789 3.39933 7.18728 3.67933 7.76064 4.44432L7.97648 4.73182L7.57396 7.04096C7.52563 7.31929 7.58313 7.60596 7.73564 7.84346C8.08982 8.39512 8.83819 8.53012 9.36237 8.13679L12.3675 5.88347C12.84 5.52931 12.9592 4.86932 12.64 4.37182L12.6292 4.35432C12.4317 4.04599 12.0958 3.85266 11.73 3.83599L9.30821 3.72849L9.1632 3.53516C8.61484 2.80433 7.83564 2.25017 6.93894 2.07267C4.62717 1.61518 2.59375 3.38016 2.59375 5.61098C2.59375 5.61098 2.59708 10.3693 2.59875 12.2134C2.59875 12.6934 2.62958 13.1676 2.68875 13.6442C2.77292 14.3184 2.88626 15.2276 2.88626 15.2276C3.09544 16.8984 3.90547 18.3667 5.08219 19.425L4.70134 20.9667C4.5905 21.4133 4.86301 21.865 5.3097 21.9758C5.3772 21.9925 5.44387 22 5.51054 22C5.88473 22 6.22474 21.7458 6.31891 21.3667L6.54975 20.4325C7.47396 20.9025 8.51651 21.1667 9.61322 21.1667H15.7943C16.8135 21.1667 17.7861 20.9392 18.6611 20.5292L18.8686 21.3667C18.962 21.7458 19.3028 22 19.677 22C19.7437 22 19.8103 21.9917 19.8778 21.9758C20.3245 21.865 20.597 21.4133 20.4862 20.9667L20.1445 19.5834C21.4196 18.515 22.3038 16.9834 22.5229 15.2284L22.5746 14.8109C22.6629 14.0992 22.4429 13.3842 21.9679 12.8467L21.9688 12.8459ZM20.9212 14.6034L20.8695 15.0209C20.5504 17.5742 18.3686 19.5 15.7952 19.5H9.61405C7.04061 19.5 4.85968 17.5742 4.5405 15.0209L4.37133 13.6667H20.0945C20.337 13.6667 20.5595 13.7667 20.7195 13.9484C20.8795 14.1309 20.9512 14.3626 20.9212 14.6034Z" fill="#7E7E89"/>
</svg>
