<svg width="16" height="16" viewBox="0 0 16 16" fill="none" xmlns="http://www.w3.org/2000/svg">
<path d="M11.8889 2.66666H4.11115C2.57949 2.66666 1.33337 3.86292 1.33337 5.33332V12.8C1.33337 13.0949 1.58226 13.3333 1.88893 13.3333C2.1956 13.3333 2.44449 13.0949 2.44449 12.8V11.7333H13.5556V12.8C13.5556 13.0949 13.8039 13.3333 14.1112 13.3333C14.4184 13.3333 14.6667 13.0949 14.6667 12.8V5.33332C14.6667 3.86292 13.4206 2.66666 11.8889 2.66666ZM4.11115 3.73332H11.8889C12.8078 3.73332 13.5556 4.45119 13.5556 5.33332V8.53332H12.4445C12.4445 7.35679 11.4478 6.39999 10.2223 6.39999H9.66671C9.00337 6.39999 8.40782 6.68052 8.00004 7.12372C7.59226 6.67999 6.99671 6.39999 6.33337 6.39999H5.77782C4.55226 6.39999 3.5556 7.35679 3.5556 8.53332H2.44449V5.33332C2.44449 4.45119 3.19226 3.73332 4.11115 3.73332ZM8.5556 8.53332C8.5556 7.94506 9.05393 7.46666 9.66671 7.46666H10.2223C10.835 7.46666 11.3334 7.94506 11.3334 8.53332H8.5556ZM4.66671 8.53332C4.66671 7.94506 5.16504 7.46666 5.77782 7.46666H6.33337C6.94615 7.46666 7.44448 7.94506 7.44448 8.53332H4.66671ZM2.44449 10.6667V9.59999H13.5556V10.6667H2.44449Z" fill="#555558"/>
</svg>
