<svg width="66" height="66" viewBox="0 0 66 66" fill="none" xmlns="http://www.w3.org/2000/svg">
<path d="M49.9588 39.5447C48.1116 39.1473 46.6503 40.005 45.3564 40.7541C44.0312 41.5258 41.5116 43.5699 40.0673 43.0468C32.6729 40.0023 25.7184 33.5302 22.7078 26.106C22.1772 24.6309 24.2117 22.0952 24.9778 20.7545C25.7212 19.4566 26.5611 17.9815 26.178 16.1205C25.8319 14.4482 21.3543 8.75078 19.7711 7.19279C18.7268 6.16366 17.6571 5.59763 16.5591 5.50613C12.4305 5.3289 7.81966 10.8376 7.011 12.1555C4.98504 14.9656 4.9964 18.7048 7.04504 23.2387C11.9822 35.4169 30.6555 53.7955 42.8792 58.9182C45.135 59.9731 47.1978 60.5019 49.0508 60.5019C50.8638 60.5019 52.4784 59.9959 53.866 58.9927C54.9129 58.3893 60.6475 53.5496 60.4971 49.3102C60.4063 48.2295 59.8418 47.149 58.8259 46.1026C57.2793 44.5046 51.6187 39.8937 49.9588 39.5447Z" fill="#6C1CFF"/>
</svg>
