<svg width="20" height="20" viewBox="0 0 20 20" fill="none" xmlns="http://www.w3.org/2000/svg">
<mask id="mask0_8_221" style="mask-type:luminance" maskUnits="userSpaceOnUse" x="0" y="0" width="20" height="20">
<path d="M20 0H0V20H20V0Z" fill="white"/>
</mask>
<g mask="url(#mask0_8_221)">
<path d="M17.67 16.1909L16.1137 17.7471C16.1137 17.7471 12.0715 19.4795 6.29557 13.7036C0.519687 7.92772 2.2521 3.88543 2.2521 3.88543L3.80832 2.3292C3.97381 2.16358 4.17296 2.03547 4.39229 1.95356C4.61162 1.87165 4.846 1.83784 5.07953 1.85444C5.31307 1.87104 5.54031 1.93765 5.74585 2.04976C5.95139 2.16187 6.13043 2.31685 6.27082 2.50421L7.75634 4.4847C7.9921 4.79933 8.10647 5.18845 8.07843 5.58062C8.0504 5.97279 7.88185 6.34168 7.60372 6.61957L6.29498 7.92831C6.29498 7.92831 6.29498 9.08325 8.60486 11.3931C10.9147 13.703 12.0697 13.703 12.0697 13.703L13.3778 12.3949C13.6558 12.1167 14.0249 11.9481 14.4172 11.9202C14.8095 11.8923 15.1987 12.0068 15.5133 12.2428L17.4932 13.7278C17.6808 13.868 17.836 14.047 17.9483 14.2525C18.0607 14.458 18.1275 14.6853 18.1442 14.9189C18.161 15.1525 18.1273 15.387 18.0455 15.6065C17.9637 15.826 17.8356 16.0252 17.67 16.1909Z" fill="#6C1CFF"/>
</g>
</svg>
