<svg width="31" height="30" viewBox="0 0 31 30" fill="none" xmlns="http://www.w3.org/2000/svg">
<path d="M28 11.3867C28 10.9789 27.8354 10.5878 27.5424 10.2994C27.2493 10.0111 26.8519 9.84909 26.4375 9.84909C26.4375 9.84909 25.8292 9.84909 25.7865 9.85729C25.0076 8.43711 24.1152 7.0801 23.1177 5.79909C22.5973 5.13311 21.876 4.64621 21.0573 4.40809C19.2229 3.53064 11.7771 3.53064 9.94271 4.40809C9.12396 4.64621 8.40275 5.13311 7.88229 5.79909C6.88484 7.0801 5.99245 8.43711 5.21354 9.85729C5.17083 9.84909 4.5625 9.84909 4.5625 9.84909C4.1481 9.84909 3.75067 10.0111 3.45765 10.2994C3.16462 10.5878 3 10.9789 3 11.3867V18.0495C3.0002 18.7691 3.19282 19.4759 3.55851 20.099C3.92421 20.7221 4.45009 21.2395 5.08333 21.5993V23.1748C5.08333 23.9904 5.41257 24.7726 5.99863 25.3493C6.58468 25.926 7.37953 26.25 8.20833 26.25C9.03714 26.25 9.83199 25.926 10.418 25.3493C11.0041 24.7726 11.3333 23.9904 11.3333 23.1748V22.1498H19.6667V23.1748C19.6667 23.9904 19.9959 24.7726 20.582 25.3493C21.168 25.926 21.9629 26.25 22.7917 26.25C23.6205 26.25 24.4153 25.926 25.0014 25.3493C25.5874 24.7726 25.9167 23.9904 25.9167 23.1748V21.5993C26.5499 21.2395 27.0758 20.7221 27.4415 20.099C27.8072 19.4759 27.9998 18.7691 28 18.0495V11.3867ZM9.53542 7.04658C9.7906 6.72274 10.1431 6.48635 10.5427 6.37107C12.125 5.60125 18.876 5.60125 20.4573 6.37107C20.8569 6.48635 21.2094 6.72274 21.4646 7.04658C23.0465 9.08773 24.3493 11.3244 25.3396 13.6992C18.8144 12.7623 12.1856 12.7623 5.66042 13.6992C6.65073 11.3244 7.95353 9.08773 9.53542 7.04658ZM9.25 23.1748C9.25 23.4467 9.14025 23.7074 8.9449 23.8997C8.74955 24.0919 8.4846 24.1999 8.20833 24.1999C7.93207 24.1999 7.66712 24.0919 7.47176 23.8997C7.27641 23.7074 7.16667 23.4467 7.16667 23.1748V22.1498H9.25V23.1748ZM23.8333 23.1748C23.8333 23.4467 23.7236 23.7074 23.5282 23.8997C23.3329 24.0919 23.0679 24.1999 22.7917 24.1999C22.5154 24.1999 22.2505 24.0919 22.0551 23.8997C21.8597 23.7074 21.75 23.4467 21.75 23.1748V22.1498H23.8333V23.1748ZM23.8333 20.0997H7.16667C6.61413 20.0997 6.08423 19.8837 5.69353 19.4992C5.30283 19.1147 5.08333 18.5933 5.08333 18.0495V15.8528C8.53204 15.334 12.0119 15.0406 15.5 14.9744C18.9881 15.0406 22.468 15.334 25.9167 15.8528V18.0495C25.9167 18.5933 25.6972 19.1147 25.3065 19.4992C24.9158 19.8837 24.3859 20.0997 23.8333 20.0997ZM9.25 18.0495C9.25 18.3214 9.14025 18.5821 8.9449 18.7744C8.74955 18.9666 8.4846 19.0746 8.20833 19.0746C7.93207 19.0746 7.66712 18.9666 7.47176 18.7744C7.27641 18.5821 7.16667 18.3214 7.16667 18.0495C7.16667 17.7777 7.27641 17.517 7.47176 17.3247C7.66712 17.1325 7.93207 17.0245 8.20833 17.0245C8.4846 17.0245 8.74955 17.1325 8.9449 17.3247C9.14025 17.517 9.25 17.7777 9.25 18.0495ZM23.8333 18.0495C23.8333 18.3214 23.7236 18.5821 23.5282 18.7744C23.3329 18.9666 23.0679 19.0746 22.7917 19.0746C22.5154 19.0746 22.2505 18.9666 22.0551 18.7744C21.8597 18.5821 21.75 18.3214 21.75 18.0495C21.75 17.7777 21.8597 17.517 22.0551 17.3247C22.2505 17.1325 22.5154 17.0245 22.7917 17.0245C23.0679 17.0245 23.3329 17.1325 23.5282 17.3247C23.7236 17.517 23.8333 17.7777 23.8333 18.0495Z" fill="#7E7E89"/>
</svg>
