<svg width="24" height="24" viewBox="0 0 24 24" fill="none" xmlns="http://www.w3.org/2000/svg">
<path d="M16.5 2H8.16667C5.86917 2 4 3.86917 4 6.16667V17.8333C4 20.1308 5.86917 22 8.16667 22H16.5C18.7975 22 20.6667 20.1308 20.6667 17.8333V6.16667C20.6667 3.86917 18.7975 2 16.5 2ZM19 17.8333C19 19.2117 17.8783 20.3333 16.5 20.3333H8.16667C6.78833 20.3333 5.66667 19.2117 5.66667 17.8333V6.16667C5.66667 4.78833 6.78833 3.66667 8.16667 3.66667H16.5C17.8783 3.66667 19 4.78833 19 6.16667V17.8333ZM7.75 7C7.06 7 6.5 6.44 6.5 5.75C6.5 5.06 7.06 4.5 7.75 4.5C8.44 4.5 9 5.06 9 5.75C9 6.44 8.44 7 7.75 7ZM9.83333 5.75C9.83333 5.06 10.3933 4.5 11.0833 4.5C11.7733 4.5 12.3333 5.06 12.3333 5.75C12.3333 6.44 11.7733 7 11.0833 7C10.3933 7 9.83333 6.44 9.83333 5.75ZM12.3333 8.66667C9.57583 8.66667 7.33333 10.9092 7.33333 13.6667C7.33333 16.4242 9.57583 18.6667 12.3333 18.6667C15.0908 18.6667 17.3333 16.4242 17.3333 13.6667C17.3333 10.9092 15.0908 8.66667 12.3333 8.66667ZM12.3333 17C10.7842 17 9.49083 15.9333 9.11833 14.5H10.6667C11.1275 14.5 11.5 14.1267 11.5 13.6667C11.5 13.2067 11.1275 12.8333 10.6667 12.8333H9.11833C9.49083 11.4 10.7842 10.3333 12.3333 10.3333C14.1717 10.3333 15.6667 11.8283 15.6667 13.6667C15.6667 15.505 14.1717 17 12.3333 17Z" fill="#7E7E89"/>
</svg>
