<svg width="32" height="26" viewBox="0 0 32 26" fill="none" xmlns="http://www.w3.org/2000/svg">
<path d="M31.0616 5.27996L31.2608 19.8101C31.2125 20.0624 31.1699 20.3155 31.1151 20.5663C30.4565 23.5595 27.9486 25.5914 24.824 25.6526C22.9884 25.689 21.1525 25.703 19.3167 25.7281C15.1115 25.7858 10.9066 25.8714 6.70085 25.8883C3.15018 25.9027 0.318988 23.1147 0.262894 19.6134C0.191183 15.1305 0.129711 10.6472 0.0784796 6.16339C0.0743762 5.91495 0.103892 5.66706 0.166244 5.42632C0.674946 3.53373 2.99806 2.89145 4.45481 4.24893C5.51991 5.24026 6.55467 6.25996 7.6038 7.26669C7.68003 7.33995 7.76106 7.40915 7.87325 7.50988C7.97035 7.39429 8.04181 7.29743 8.12557 7.21159C9.92633 5.38225 11.7274 3.55371 13.5287 1.72595C14.7429 0.493245 16.2519 0.474152 17.501 1.67149L23.0747 7.0282C23.1567 7.10697 23.2459 7.18565 23.3393 7.27146C23.4255 7.19038 23.4918 7.12874 23.554 7.06557C24.568 6.03775 25.5762 5.00442 26.5951 3.98212C27.3012 3.27332 28.1525 3.00198 29.1355 3.25856C30.1185 3.51514 30.7382 4.1706 31.0007 5.14657C31.0166 5.19287 31.037 5.23755 31.0616 5.27996Z" fill="#6C1CFF"/>
</svg>
