<svg width="32" height="32" viewBox="0 0 32 32" fill="none" xmlns="http://www.w3.org/2000/svg">
<path d="M30.9969 12.3798C30.7629 13.3814 30.3272 14.3249 29.7165 15.1528C28.2658 17.1074 26.8368 19.0777 25.399 21.0418L18.9481 29.8574C17.3186 32.0844 14.2697 32.0989 12.6248 29.8904C8.91691 24.903 5.20746 19.9167 1.49642 14.9314C0.959443 14.2127 0.580054 13.3891 0.382965 12.5141L8.39585 12.453C8.90463 13.7416 9.41505 15.0355 9.92711 16.3347L14.5227 28.0133C14.8493 28.8441 15.5835 29.1904 16.3086 28.861C16.6907 28.6869 16.8932 28.3711 17.0352 27.9925C17.9123 25.6515 18.792 23.3113 19.6744 20.9719C20.7204 18.1849 21.7686 15.3974 22.8188 12.6093C22.8533 12.5171 22.8975 12.4272 22.9375 12.3221L30.996 12.2606L30.9969 12.3798Z" fill="#6C1CFF"/>
<path d="M11.679 0.912827C11.2336 2.12603 10.7893 3.34002 10.346 4.55481C9.71856 6.24474 9.09107 7.93227 8.46921 9.62375C8.40727 9.79298 8.34068 9.87827 8.13897 9.879C5.61443 9.89106 3.08996 9.91352 0.565464 9.93117C0.485423 9.93178 0.410097 9.92116 0.317989 9.91386C0.460844 9.02925 0.807979 8.19005 1.33188 7.46279C2.47745 5.90487 3.62945 4.35011 4.8185 2.82385C5.62148 1.7908 6.71278 1.19864 8.00637 0.995224C8.07397 0.980524 8.14065 0.961856 8.20605 0.939316L11.679 0.912827Z" fill="#6C1CFF"/>
<path d="M22.8803 0.827942C23.3118 0.940619 23.7527 1.02443 24.1716 1.1716C25.0547 1.4799 25.8258 2.04395 26.3868 2.79186C27.5528 4.32281 28.7118 5.86022 29.864 7.40408C30.3734 8.08694 30.7319 8.87014 30.9157 9.70183L30.5747 9.70443C28.1294 9.72308 25.6842 9.73773 23.239 9.76518C23.0053 9.76696 22.8968 9.70781 22.8102 9.47733C21.7236 6.59893 20.6293 3.72433 19.5273 0.853516L22.8803 0.827942Z" fill="#6C1CFF"/>
<path d="M16.8292 0.873805C16.8981 1.08922 16.9582 1.3087 17.0383 1.52083C18.0446 4.16364 19.052 6.80564 20.0604 9.44683C20.098 9.54571 20.1244 9.64949 20.1621 9.76996L11.1071 9.83903L14.432 0.89209L16.8292 0.873805Z" fill="#6C1CFF"/>
<path d="M15.7166 24.0496L11.1406 12.4316L20.1852 12.3627C18.7155 16.2661 17.2494 20.1629 15.787 24.053L15.7166 24.0496Z" fill="#6C1CFF"/>
</svg>
