<svg width="32" height="32" viewBox="0 0 32 32" fill="none" xmlns="http://www.w3.org/2000/svg">
<path d="M21.578 2.0057C20.905 2.0657 20.316 2.5487 20.252 3.2377L20.035 5.5817H11V3.4567C11 2.6657 10.289 2.0817 9.5 2.0817H7.5C6.711 2.0817 6 2.6657 6 3.4567V8.7067C6 9.4977 6.711 10.0817 7.5 10.0817H9.5C10.289 10.0817 11 9.4977 11 8.7067V6.5817H15V24.1517C14.6567 24.2423 14.3436 24.4224 14.0927 24.6736C13.8418 24.9249 13.6621 25.2382 13.572 25.5817H11V23.4567C11 22.6657 10.289 22.0817 9.5 22.0817H7.5C6.711 22.0817 6 22.6657 6 23.4567V28.7067C6 29.4977 6.711 30.0817 7.5 30.0817H9.5C10.289 30.0817 11 29.4977 11 28.7067V26.5817H13.572C13.6832 27.0092 13.9326 27.388 14.2812 27.6592C14.6298 27.9305 15.0583 28.079 15.5 28.0817C16.425 28.0817 17.202 27.4387 17.428 26.5817H20V28.7067C20 29.4977 20.711 30.0817 21.5 30.0817H23.5C24.289 30.0817 25 29.4977 25 28.7067V23.4567C25 22.6657 24.289 22.0817 23.5 22.0817H21.5C20.711 22.0817 20 22.6657 20 23.4567V25.5817H17.428C17.3379 25.2382 17.1582 24.9249 16.9073 24.6736C16.6564 24.4224 16.3433 24.2423 16 24.1517V6.5817H19.943L19.77 8.4667C19.697 9.2547 20.351 9.9017 21.137 9.9747L23.129 10.1577C23.914 10.2307 24.675 9.7137 24.748 8.9257L25.23 3.6987C25.303 2.9107 24.649 2.2637 23.863 2.1907L21.871 2.0077C21.7736 1.99815 21.6755 1.99748 21.578 2.0057ZM21.779 3.0037L23.771 3.1867C24.089 3.2167 24.251 3.4297 24.234 3.6067L23.752 8.8337C23.736 9.0107 23.539 9.1917 23.221 9.1617L21.229 8.9787C20.911 8.9487 20.749 8.7357 20.766 8.5587L21.248 3.3297C21.264 3.1527 21.461 2.9747 21.779 3.0037ZM7.5 3.0817H9.5C9.82 3.0817 10 3.2787 10 3.4567V8.7067C10 8.8847 9.82 9.0817 9.5 9.0817H7.5C7.18 9.0817 7 8.8847 7 8.7067V3.4567C7 3.2787 7.18 3.0817 7.5 3.0817ZM7.5 23.0817H9.5C9.82 23.0817 10 23.2787 10 23.4567V28.7067C10 28.8847 9.82 29.0817 9.5 29.0817H7.5C7.18 29.0817 7 28.8847 7 28.7067V23.4567C7 23.2787 7.18 23.0817 7.5 23.0817ZM21.5 23.0817H23.5C23.82 23.0817 24 23.2787 24 23.4567V28.7067C24 28.8847 23.82 29.0817 23.5 29.0817H21.5C21.18 29.0817 21 28.8847 21 28.7067V23.4567C21 23.2787 21.18 23.0817 21.5 23.0817ZM15.5 25.0817C16.058 25.0817 16.5 25.5237 16.5 26.0817C16.5 26.6397 16.058 27.0817 15.5 27.0817C14.942 27.0817 14.5 26.6397 14.5 26.0817C14.5 25.5237 14.942 25.0817 15.5 25.0817Z" fill="#242429"/>
</svg>
