<svg width="32" height="32" viewBox="0 0 32 32" fill="none" xmlns="http://www.w3.org/2000/svg">
<path d="M10 4.00391V5.00391H11V10.5369C11 12.2819 12.31 13.7099 14 13.9529V16.0029H10V15.5029C10 15.3703 9.94732 15.2431 9.85355 15.1494C9.75979 15.0556 9.63261 15.0029 9.5 15.0029H7.5C7.36739 15.0029 7.24021 15.0556 7.14645 15.1494C7.05268 15.2431 7 15.3703 7 15.5029V16.0029H5.5C5.36739 16.0029 5.24021 16.0556 5.14645 16.1494C5.05268 16.2431 5 16.3703 5 16.5029V17.0029H4V16.0029H3V19.0029H4V18.0029H5V18.5029C5 18.6355 5.05268 18.7627 5.14645 18.8565C5.24021 18.9502 5.36739 19.0029 5.5 19.0029H7V20.5029C7 20.6355 7.05268 20.7627 7.14645 20.8565C7.24021 20.9502 7.36739 21.0029 7.5 21.0029H8.81L6.819 27.5099C6.79947 27.5742 6.79339 27.6378 6.80112 27.6971C6.80885 27.7565 6.83023 27.8104 6.86404 27.8557C6.89785 27.901 6.94343 27.9369 6.99816 27.9613C7.05289 27.9857 7.1157 27.9982 7.183 27.9979H10.183C10.3184 27.9978 10.4639 27.9464 10.5877 27.8549C10.7114 27.7635 10.8032 27.6394 10.843 27.5099L12.835 21.0039H13.847L13.212 23.3729C13.105 23.7709 13.163 24.1909 13.394 24.5059C13.624 24.8209 14.016 25.0039 14.427 25.0039C14.5596 25.0039 14.6868 24.9512 14.7806 24.8575C14.8743 24.7637 14.927 24.6365 14.927 24.5039C14.927 24.3713 14.8743 24.2441 14.7806 24.1504C14.6868 24.0566 14.5596 24.0039 14.427 24.0039C14.284 24.0039 14.237 23.9609 14.202 23.9139C14.168 23.8679 14.137 23.7869 14.179 23.6309L14.882 21.0039H20V21.5039C20 21.6365 20.0527 21.7637 20.1464 21.8575C20.2402 21.9512 20.3674 22.0039 20.5 22.0039H22.5C22.6326 22.0039 22.7598 21.9512 22.8536 21.8575C22.9473 21.7637 23 21.6365 23 21.5039V20.2599L25.545 18.4079C25.6086 18.3615 25.6604 18.3007 25.6961 18.2305C25.7318 18.1603 25.7504 18.0827 25.7504 18.0039C25.7504 17.9251 25.7318 17.8475 25.6961 17.7773C25.6604 17.7071 25.6086 17.6463 25.545 17.5999L23 15.7479V14.5039C23 14.3713 22.9473 14.2441 22.8536 14.1504C22.7598 14.0566 22.6326 14.0039 22.5 14.0039H20.5C20.3674 14.0039 20.2402 14.0566 20.1464 14.1504C20.0527 14.2441 20 14.3713 20 14.5039V15.0039H16.5C16.3674 15.0039 16.2402 15.0566 16.1464 15.1504C16.0527 15.2441 16 15.3713 16 15.5039V16.0039H15V13.9539C16.69 13.7099 18 12.2819 18 10.5369V5.00391H19V4.00391H10ZM12 5.00391H17V10.5369C17 11.9089 15.897 13.0039 14.5 13.0039C13.103 13.0039 12 11.9089 12 10.5369V5.00391ZM28.771 14.7579C28.755 14.7578 28.739 14.7585 28.723 14.7599C28.6443 14.7647 28.5679 14.788 28.5 14.8279L26.795 15.8129C26.7352 15.8442 26.6824 15.8872 26.6397 15.9394C26.597 15.9916 26.5654 16.0519 26.5466 16.1166C26.5278 16.1814 26.5223 16.2493 26.5304 16.3162C26.5385 16.3832 26.5601 16.4478 26.5939 16.5062C26.6276 16.5646 26.6728 16.6155 26.7268 16.656C26.7807 16.6964 26.8423 16.7255 26.9078 16.7416C26.9733 16.7576 27.0414 16.7603 27.1079 16.7493C27.1745 16.7384 27.2381 16.7141 27.295 16.6779L29 15.6949C29.0959 15.6417 29.1716 15.5585 29.2155 15.458C29.2594 15.3576 29.2691 15.2455 29.2431 15.139C29.2171 15.0325 29.1567 14.9375 29.0714 14.8687C28.9862 14.7998 28.8806 14.7609 28.771 14.7579ZM21 15.0039H22V16.0019C22 16.0026 22 16.0032 22 16.0039V21.0039H21V15.0039ZM8 16.0039H9V20.0039H8V16.0039ZM17 16.0039H20V20.0039H17V18.5039H18.492C18.6246 18.5039 18.7518 18.4512 18.8456 18.3575C18.9393 18.2637 18.992 18.1365 18.992 18.0039C18.992 17.8713 18.9393 17.7441 18.8456 17.6504C18.7518 17.5566 18.6246 17.5039 18.492 17.5039H17V16.0039ZM23 16.9859L24.398 18.0039L23 19.0199V16.9859ZM6 17.0039H7V18.0039H6V17.0039ZM10 17.0039H16V20.0039H14.594C14.5542 19.9957 14.5136 19.9923 14.473 19.9939V19.9959C14.4498 19.997 14.4268 19.9996 14.404 20.0039H10V17.0039ZM27.465 17.5039C27.3324 17.5105 27.2078 17.5696 27.1188 17.668C27.0297 17.7665 26.9834 17.8963 26.99 18.0289C26.9966 18.1615 27.0557 18.2861 27.1541 18.3751C27.2526 18.4642 27.3824 18.5105 27.515 18.5039H29.485C29.6176 18.5039 29.7448 18.4512 29.8386 18.3575C29.9323 18.2637 29.985 18.1365 29.985 18.0039C29.985 17.8713 29.9323 17.7441 29.8386 17.6504C29.7448 17.5566 29.6176 17.5039 29.485 17.5039H27.515C27.4983 17.5031 27.4817 17.5031 27.465 17.5039ZM27.059 19.2539C27.042 19.2537 27.025 19.2544 27.008 19.2559C26.9003 19.2628 26.7978 19.3042 26.7157 19.3741C26.6335 19.4441 26.5762 19.5387 26.5522 19.6438C26.5283 19.749 26.539 19.8591 26.5827 19.9577C26.6265 20.0563 26.7009 20.1381 26.795 20.1909L28.5 21.1759C28.5569 21.2121 28.6205 21.2364 28.6871 21.2473C28.7536 21.2583 28.8217 21.2556 28.8872 21.2396C28.9527 21.2235 29.0143 21.1944 29.0682 21.154C29.1222 21.1135 29.1674 21.0626 29.2011 21.0042C29.2349 20.9458 29.2565 20.8812 29.2646 20.8142C29.2727 20.7473 29.2672 20.6794 29.2484 20.6146C29.2296 20.5499 29.198 20.4896 29.1553 20.4374C29.1126 20.3852 29.0598 20.3422 29 20.3109L27.295 19.3259C27.2236 19.2826 27.1424 19.2578 27.059 19.2539ZM9.832 21.0039H11.809L9.969 27.0199H7.992L9.832 21.0039Z" fill="#242429"/>
</svg>
