<svg width="31" height="38" viewBox="0 0 31 38" fill="none" xmlns="http://www.w3.org/2000/svg">
<path d="M1.07464 13.024L1.077 13.0406C1.08383 13.0885 1.08871 13.1367 1.09162 13.1849L9.83099 36.6585C9.92552 36.7787 10.0397 36.8736 10.1628 36.9383C10.2777 36.9987 10.3966 37.031 10.5116 37.0372L10.7807 36.937C10.9277 36.7817 10.9904 36.6303 11.0094 36.4725C11.0329 36.2768 10.994 36.0257 10.8681 35.693C10.868 35.693 10.868 35.6929 10.868 35.6928L11.3356 35.5158C10.5138 33.3508 9.70807 31.1802 8.90228 29.0094C8.60925 28.22 8.31622 27.4306 8.0224 26.6414L1.07464 13.024ZM1.07464 13.024L1.07116 13.0076M1.07464 13.024L1.07116 13.0076M1.07116 13.0076C0.711157 11.3075 1.06643 9.91343 2.10798 8.7872L1.07116 13.0076ZM23.188 0.56253L23.1484 0.561892C23.1331 0.561644 23.1178 0.560994 23.1026 0.559948L3.07837 8.01512C2.97394 8.09516 2.86185 8.17634 2.75741 8.25198C2.6892 8.30138 2.62426 8.34841 2.56684 8.39122C2.38782 8.52471 2.23542 8.64958 2.10814 8.78703L23.188 0.56253ZM23.188 0.56253L23.2272 0.556934M23.188 0.56253L23.2272 0.556934M23.2272 0.556934C23.754 0.481695 24.3777 0.757817 24.8381 1.31134M23.2272 0.556934L24.8381 1.31134M24.8381 1.31134C25.2904 1.85508 25.5196 2.59389 25.3289 3.32702M24.8381 1.31134L25.3289 3.32702M25.3289 3.32702C25.3289 3.32709 25.3288 3.32716 25.3288 3.32723M25.3289 3.32702L25.3288 3.32723M25.3288 3.32723L25.8127 3.45317L25.3288 3.32723Z" fill="#6C1CFF" stroke="#6C1CFF"/>
</svg>
