<svg width="32" height="32" viewBox="0 0 32 32" fill="none" xmlns="http://www.w3.org/2000/svg">
<path d="M5.5 3C5.36739 3 5.24021 3.05268 5.14645 3.14645C5.05268 3.24021 5 3.36739 5 3.5V27H4.5C4.36739 27 4.24021 27.0527 4.14645 27.1464C4.05268 27.2402 4 27.3674 4 27.5V29.5C4 29.6326 4.05268 29.7598 4.14645 29.8536C4.24021 29.9473 4.36739 30 4.5 30H19.5C19.6326 30 19.7598 29.9473 19.8536 29.8536C19.9473 29.7598 20 29.6326 20 29.5V27.5C20 27.3674 19.9473 27.2402 19.8536 27.1464C19.7598 27.0527 19.6326 27 19.5 27H19V19H20.5C20.6326 19 20.7598 18.9473 20.8536 18.8536C20.9473 18.7598 21 18.6326 21 18.5V18H21.5C21.786 18 22 18.214 22 18.5V26.5C22 27.29 22.628 27.94 23.406 27.99C23.4369 27.9963 23.4684 27.9996 23.5 28H24.5C24.535 27.9997 24.5698 27.9956 24.604 27.988C24.9812 27.9611 25.3344 27.793 25.5932 27.5172C25.8519 27.2414 25.9972 26.8782 26 26.5V18H26.5C26.6326 18 26.7598 17.9473 26.8536 17.8536C26.9473 17.7598 27 17.6326 27 17.5V16H28.5C28.5793 16.0001 28.6574 15.9813 28.728 15.9453C28.7986 15.9092 28.8596 15.8569 28.906 15.7927C28.9524 15.7284 28.9829 15.654 28.9949 15.5756C29.0069 15.4973 29 15.4172 28.975 15.342L28.193 13H28.5C28.5759 12.9998 28.6507 12.9824 28.7188 12.949C28.787 12.9156 28.8466 12.8672 28.8932 12.8074C28.9399 12.7475 28.9723 12.6779 28.988 12.6036C29.0037 12.5294 29.0024 12.4526 28.984 12.379L27.984 8.379C27.9571 8.27095 27.8948 8.17499 27.8071 8.10633C27.7194 8.03768 27.6114 8.00025 27.5 8H25.687L24.857 7.152C24.8104 7.10391 24.7546 7.06568 24.6929 7.03957C24.6313 7.01346 24.565 7 24.498 7C24.366 7.00029 24.2395 7.05278 24.146 7.146L24.023 7.27L23.141 5.736C23.0854 5.63881 22.9988 5.5631 22.895 5.521L21.693 5.039C21.6313 5.01307 21.565 4.99981 21.498 5C21.3812 5.00015 21.2681 5.04118 21.1784 5.11598C21.0887 5.19077 21.028 5.29462 21.0069 5.40948C20.9858 5.52435 21.0055 5.643 21.0627 5.74483C21.1199 5.84667 21.2109 5.92527 21.32 5.967L22.361 6.385L23.293 8L23.146 8.146C23.0996 8.19252 23.0628 8.24773 23.0378 8.30847C23.0127 8.36921 22.9999 8.4343 23 8.5V11.5C23 11.6326 23.0527 11.7598 23.1464 11.8536C23.2402 11.9473 23.3674 12 23.5 12H23.86L23.016 15.379C22.9976 15.4526 22.9963 15.5294 23.012 15.6036C23.0277 15.6779 23.0601 15.7475 23.1068 15.8074C23.1534 15.8672 23.213 15.9156 23.2812 15.949C23.3493 15.9824 23.4241 15.9998 23.5 16H24V17.5C24 17.6326 24.0527 17.7598 24.1464 17.8536C24.2402 17.9473 24.3674 18 24.5 18H25V26.5C25 26.786 24.786 27 24.5 27H23.5C23.4339 27.0016 23.3681 26.9898 23.3067 26.9653C23.2453 26.9408 23.1895 26.904 23.1428 26.8572C23.096 26.8105 23.0592 26.7547 23.0347 26.6933C23.0102 26.6319 22.9984 26.5661 23 26.5V18.5C23 17.678 22.322 17 21.5 17H21V13.5C21 13.3674 20.9473 13.2402 20.8536 13.1464C20.7598 13.0527 20.6326 13 20.5 13H19V3.5C19 3.36739 18.9473 3.24021 18.8536 3.14645C18.7598 3.05268 18.6326 3 18.5 3H5.5ZM6 4H18V27H6V4ZM7.5 6C7.36739 6 7.24021 6.05268 7.14645 6.14645C7.05268 6.24021 7 6.36739 7 6.5V13.5C7 13.6326 7.05268 13.7598 7.14645 13.8536C7.24021 13.9473 7.36739 14 7.5 14H16.5C16.6326 14 16.7598 13.9473 16.8536 13.8536C16.9473 13.7598 17 13.6326 17 13.5V6.5C17 6.36739 16.9473 6.24021 16.8536 6.14645C16.7598 6.05268 16.6326 6 16.5 6H7.5ZM8 7H16V13H8V7ZM24.496 8.21L25.119 8.85C25.1657 8.8976 25.2214 8.9354 25.2829 8.96116C25.3443 8.98692 25.4103 9.00012 25.477 9H27.11L27.86 12H27.5C27.4207 11.9999 27.3426 12.0187 27.272 12.0547C27.2014 12.0908 27.1404 12.1431 27.094 12.2073C27.0476 12.2716 27.0171 12.346 27.0051 12.4244C26.9931 12.5027 27 12.5828 27.025 12.658L27.807 15H24.14L24.984 11.623C25.0027 11.5493 25.0044 11.4722 24.9888 11.3977C24.9732 11.3233 24.9409 11.2533 24.8942 11.1932C24.8475 11.1332 24.7878 11.0845 24.7194 11.051C24.6511 11.0176 24.5761 11.0001 24.5 11H24V8.707L24.496 8.211V8.21ZM19 14H20V17.418C19.991 17.4723 19.991 17.5277 20 17.582V18H19V14ZM12.006 16C11.9369 15.999 11.8683 16.0124 11.8047 16.0392C11.741 16.0661 11.6835 16.1058 11.636 16.156C11.636 16.156 10.864 16.973 10.088 18.012C9.312 19.05 8.478 20.252 8.478 21.402C8.479 23.377 10.055 25 12 25C13.946 25 15.521 23.377 15.521 21.402C15.521 20.252 14.688 19.05 13.912 18.012C13.136 16.973 12.363 16.156 12.363 16.156C12.317 16.1074 12.2616 16.0686 12.2003 16.0418C12.139 16.015 12.0729 16.0008 12.006 16ZM25 16H26V17H25V16ZM12 17.28C12.24 17.543 12.556 17.868 13.11 18.61C13.845 19.594 14.521 20.841 14.521 21.402C14.521 22.85 13.391 24 12 24C10.608 24 9.479 22.85 9.479 21.402C9.479 20.841 10.155 19.594 10.891 18.609C11.444 17.868 11.76 17.543 12 17.279V17.28ZM13.492 20.412C13.4263 20.413 13.3615 20.427 13.3013 20.4531C13.241 20.4792 13.1865 20.5169 13.1408 20.5641C13.0951 20.6113 13.0591 20.667 13.035 20.728C13.0108 20.7891 12.9989 20.8543 13 20.92C13 21.46 12.718 21.955 12.268 22.22C12.1537 22.2876 12.0709 22.3979 12.0379 22.5265C12.0049 22.6552 12.0244 22.7917 12.092 22.906C12.1596 23.0203 12.2699 23.1031 12.3985 23.1361C12.5272 23.1691 12.6637 23.1496 12.778 23.082C13.1519 22.8588 13.4612 22.542 13.6755 22.1629C13.8898 21.7838 14.0016 21.3555 14 20.92C14.0011 20.853 13.9887 20.7864 13.9635 20.7243C13.9384 20.6622 13.901 20.6058 13.8536 20.5584C13.8062 20.511 13.7498 20.4736 13.6877 20.4485C13.6256 20.4233 13.559 20.4109 13.492 20.412ZM5 28H19V29H5V28Z" fill="#242429"/>
</svg>
