<svg width="24" height="24" viewBox="0 0 24 24" fill="none" xmlns="http://www.w3.org/2000/svg">
<path d="M13.6667 10.3355H10.3333C9.41417 10.3355 8.66667 11.0829 8.66667 12.0019V15.3346C8.66667 16.2536 9.41417 17.0009 10.3333 17.0009H13.6667C14.5858 17.0009 15.3333 16.2536 15.3333 15.3346V12.0019C15.3333 11.0829 14.5858 10.3355 13.6667 10.3355ZM10.3333 15.3346V12.0019H13.6667V15.3346H10.3333ZM20.3333 6.77286V3.6701C20.3333 3.20936 19.96 2.83693 19.5 2.83693C19.04 2.83693 18.6667 3.20936 18.6667 3.6701V5.64223L14.3308 2.71612C12.915 1.76129 11.085 1.76129 9.66917 2.71612L3.83667 6.65204C2.68667 7.42773 2 8.71749 2 10.1056V17.8341C2 20.1312 3.86917 22 6.16667 22H17.8333C20.1308 22 22 20.1312 22 17.8341V10.1056C22 8.78831 21.38 7.55687 20.3333 6.77286ZM20.3333 17.8341C20.3333 19.2122 19.2117 20.3336 17.8333 20.3336H6.16667C4.78833 20.3336 3.66667 19.2122 3.66667 17.8341V10.1056C3.66667 9.27322 4.07833 8.4992 4.76833 8.03429L10.6017 4.09836C11.0267 3.81091 11.5133 3.6676 12 3.6676C12.4867 3.6676 12.9733 3.81091 13.3983 4.09836L19.2317 8.03429C19.9217 8.50003 20.3333 9.27322 20.3333 10.1056V17.8341Z" fill="#7E7E89"/>
</svg>
