<svg width="94" height="93" viewBox="0 0 94 93" fill="none" xmlns="http://www.w3.org/2000/svg">
<g clip-path="url(#clip0_239_4051)">
<path d="M52.5078 17.3867H49.7539V14.6914C49.7539 13.2016 48.5222 11.9961 47 11.9961C45.4778 11.9961 44.2461 13.2016 44.2461 14.6914V17.3867H41.4922C39.97 17.3867 38.7383 18.5922 38.7383 20.082C38.7383 21.5718 39.97 22.7773 41.4922 22.7773H44.2461V25.4727C44.2461 26.9624 45.4778 28.168 47 28.168C48.5222 28.168 49.7539 26.9624 49.7539 25.4727V22.7773H52.5078C54.03 22.7773 55.2617 21.5718 55.2617 20.082C55.2617 18.5922 54.03 17.3867 52.5078 17.3867Z" fill="#6C1CFF"/>
<path d="M8.26172 44.3398H11.0156V38.9492H8.26172C3.70602 38.9492 0 42.5764 0 47.0352V90.1602C0 91.6499 1.23173 92.8555 2.75391 92.8555H11.0156V71.293H5.50781V65.9023H11.0156V60.5117H5.50781V55.1211H11.0156V49.7305H5.50781V47.0352C5.50781 45.5506 6.7423 44.3398 8.26172 44.3398Z" fill="#6C1CFF"/>
<path d="M85.7383 38.9492H82.9844V44.3398H85.7383C87.2577 44.3398 88.4922 45.5506 88.4922 47.0352V49.7305H82.9844V55.1211H88.4922V60.5117H82.9844V65.9023H88.4922V71.293H82.9844V92.8555H91.2461C92.7683 92.8555 94 91.6499 94 90.1602V47.0352C94 42.5764 90.294 38.9492 85.7383 38.9492Z" fill="#6C1CFF"/>
<path d="M69.2148 11.9961H66.2773V3.55078C66.2773 2.06099 65.0456 0.855469 63.5234 0.855469H30.4766C28.9544 0.855469 27.7227 2.06099 27.7227 3.55078V11.9961H24.7852C20.2295 11.9961 16.5234 15.6233 16.5234 20.082C16.5234 32.083 16.5234 76.362 16.5234 92.8555C19.5904 92.8555 35.6644 92.8555 38.7383 92.8555C38.7383 91.7107 38.7383 83.1843 38.7383 82.0742H55.2617C55.2617 83.219 55.2617 91.7454 55.2617 92.8555C58.3287 92.8555 74.4027 92.8555 77.4766 92.8555C77.4766 84.5419 77.4766 28.6037 77.4766 20.082C77.4766 15.6233 73.7705 11.9961 69.2148 11.9961ZM44.2461 65.9023H33.2305V60.5117H44.2461V65.9023ZM44.2461 55.1211H33.2305V49.7305H44.2461V55.1211ZM44.2461 44.3398H33.2305V38.9492H44.2461V44.3398ZM60.7695 65.9023H49.7539V60.5117H60.7695V65.9023ZM60.7695 55.1211H49.7539V49.7305H60.7695V55.1211ZM60.7695 44.3398H49.7539V38.9492H60.7695V44.3398ZM60.7695 14.6914V33.5586H33.2305V14.6914V6.24609H60.7695V14.6914Z" fill="#6C1CFF"/>
</g>
<defs>
<clipPath id="clip0_239_4051">
<rect width="94" height="92" fill="white" transform="translate(0 0.855469)"/>
</clipPath>
</defs>
</svg>
