<svg width="32" height="32" viewBox="0 0 32 32" fill="none" xmlns="http://www.w3.org/2000/svg">
<path d="M14.5 5V6H15.5V7H15C14.8674 7 14.7402 7.05268 14.6464 7.14645C14.5527 7.24021 14.5 7.36739 14.5 7.5V9H14C13.9264 9.00012 13.8537 9.0165 13.7872 9.04796C13.7206 9.07942 13.6618 9.12519 13.615 9.182L11.115 12.182C11.0409 12.2714 11.0002 12.3839 11 12.5V30.5C11 30.6326 11.0527 30.7598 11.1464 30.8536C11.2402 30.9473 11.3674 31 11.5 31H20.5C20.6326 31 20.7598 30.9473 20.8536 30.8536C20.9473 30.7598 21 30.6326 21 30.5V12.5C20.9998 12.3839 20.9591 12.2714 20.885 12.182L18.385 9.182C18.3382 9.12519 18.2794 9.07942 18.2128 9.04796C18.1463 9.0165 18.0736 9.00012 18 9H17.5V7.5C17.5 7.36739 17.4473 7.24021 17.3536 7.14645C17.2598 7.05268 17.1326 7 17 7H16.5V6H17.5V5H14.5ZM15.5 8H16.5V9H15.5V8ZM14.234 10H17.766L20 12.682V30H12V12.682L14.234 10ZM14.5 17C14.3875 17.0001 14.2783 17.0382 14.1901 17.1081C14.1019 17.1779 14.0399 17.2755 14.014 17.385L13.014 21.584C12.9963 21.6575 12.9955 21.7341 13.0117 21.8079C13.0278 21.8818 13.0606 21.951 13.1073 22.0104C13.1541 22.0698 13.2138 22.1178 13.2818 22.1508C13.3498 22.1838 13.4244 22.201 13.5 22.201H14.791L14.029 24.332C13.9905 24.4398 13.9901 24.5576 14.028 24.6656C14.0659 24.7736 14.1397 24.8654 14.2371 24.9256C14.3345 24.9857 14.4496 25.0107 14.5631 24.9962C14.6767 24.9817 14.7818 24.9287 14.861 24.846L18.861 20.646C18.9285 20.5752 18.9737 20.4862 18.9911 20.39C19.0085 20.2937 18.9973 20.1945 18.9589 20.1046C18.9205 20.0146 18.8565 19.9379 18.775 19.884C18.6934 19.83 18.5978 19.8012 18.5 19.801H17.209L17.971 17.67C17.9983 17.5944 18.007 17.5134 17.9964 17.4337C17.9857 17.3541 17.956 17.2782 17.9098 17.2124C17.8636 17.1467 17.8022 17.0931 17.7309 17.0561C17.6596 17.0191 17.5804 16.9999 17.5 17H14.5ZM14.895 18H16.791L16.029 20.133C16.0021 20.2085 15.9937 20.2893 16.0045 20.3687C16.0154 20.448 16.0451 20.5236 16.0913 20.5891C16.1375 20.6546 16.1987 20.708 16.2698 20.7449C16.3409 20.7818 16.4199 20.801 16.5 20.801H17.334L15.764 22.449L15.971 21.869C15.9979 21.7935 16.0063 21.7127 15.9955 21.6333C15.9846 21.554 15.9549 21.4784 15.9087 21.4129C15.8625 21.3474 15.8013 21.294 15.7302 21.2571C15.6591 21.2202 15.5801 21.201 15.5 21.201H14.133L14.895 18Z" fill="#242429"/>
<path d="M20.7895 2.24609V2.24809C20.6945 2.24455 20.6005 2.26814 20.5185 2.31609L18.8115 3.30309C18.1975 3.62609 18.7245 4.53809 19.3115 4.16809L21.0185 3.18409C21.4645 2.93709 21.2985 2.26009 20.7895 2.24609ZM19.4815 4.99209C18.8145 5.02609 18.8655 6.02609 19.5315 5.99209H21.5015C22.1765 6.00209 22.1765 4.98209 21.5015 4.99209H19.5315C19.5148 4.99126 19.4981 4.99126 19.4815 4.99209ZM19.0245 6.74409C18.5225 6.77209 18.3715 7.44009 18.8115 7.68209L20.5185 8.66609C21.1045 9.03609 21.6325 8.12409 21.0185 7.80109L19.3115 6.81409C19.2251 6.76239 19.125 6.73799 19.0245 6.74409Z" fill="#242429"/>
</svg>
