<svg width="66" height="66" viewBox="0 0 66 66" fill="none" xmlns="http://www.w3.org/2000/svg">
<path d="M33.0825 5.50005C39.2975 5.52761 45.2375 8.00261 49.5825 12.3476C53.955 16.7201 56.4025 22.6326 56.3752 28.7651V28.9026C56.21 37.2351 51.535 44.9076 45.705 50.9026C42.405 54.2851 38.7475 57.2826 34.76 59.8126C33.6875 60.7201 32.12 60.7201 31.0475 59.8126C25.135 55.9626 19.91 51.1226 15.675 45.4851C11.9625 40.5901 9.845 34.7051 9.625 28.5726C9.68 15.7851 20.185 5.47261 33.0825 5.50005ZM33.0825 21.8076C28.985 21.8076 25.685 25.0801 25.685 29.1501C25.685 33.1679 28.93 36.4101 33 36.4651H33.0825C35.035 36.4651 36.905 35.7226 38.28 34.3751C39.71 32.9726 40.5102 31.1054 40.5102 29.1501C40.5102 25.0801 37.18 21.8076 33.0825 21.8076Z" fill="#6C1CFF"/>
</svg>
