<svg width="20" height="20" viewBox="0 0 20 20" fill="none" xmlns="http://www.w3.org/2000/svg">
<path d="M10.0004 11.8084C8.22539 11.8084 6.77539 10.3667 6.77539 8.58337C6.77539 6.80003 8.22539 5.3667 10.0004 5.3667C11.7754 5.3667 13.2254 6.80837 13.2254 8.5917C13.2254 10.375 11.7754 11.8084 10.0004 11.8084ZM10.0004 6.6167C8.91706 6.6167 8.02539 7.50003 8.02539 8.5917C8.02539 9.68337 8.90872 10.5667 10.0004 10.5667C11.0921 10.5667 11.9754 9.68337 11.9754 8.5917C11.9754 7.50003 11.0837 6.6167 10.0004 6.6167Z" fill="#6C1CFF"/>
<path d="M10.0004 18.9667C8.76706 18.9667 7.52539 18.5001 6.55872 17.5751C4.10039 15.2084 1.38372 11.4334 2.40872 6.94175C3.33372 2.86675 6.89206 1.04175 10.0004 1.04175C10.0004 1.04175 10.0004 1.04175 10.0087 1.04175C13.1171 1.04175 16.6754 2.86675 17.6004 6.95008C18.6171 11.4417 15.9004 15.2084 13.4421 17.5751C12.4754 18.5001 11.2337 18.9667 10.0004 18.9667ZM10.0004 2.29175C7.57539 2.29175 4.45872 3.58341 3.63372 7.21675C2.73372 11.1417 5.20039 14.5251 7.43372 16.6667C8.87539 18.0584 11.1337 18.0584 12.5754 16.6667C14.8004 14.5251 17.2671 11.1417 16.3837 7.21675C15.5504 3.58341 12.4254 2.29175 10.0004 2.29175Z" fill="#6C1CFF"/>
</svg>
