<svg width="16" height="16" viewBox="0 0 16 16" fill="none" xmlns="http://www.w3.org/2000/svg">
<path d="M8.00004 9.4463C6.58004 9.4463 5.42004 8.29297 5.42004 6.8663C5.42004 5.43964 6.58004 4.29297 8.00004 4.29297C9.42004 4.29297 10.58 5.4463 10.58 6.87297C10.58 8.29964 9.42004 9.4463 8.00004 9.4463ZM8.00004 5.29297C7.13338 5.29297 6.42004 5.99964 6.42004 6.87297C6.42004 7.7463 7.12671 8.45297 8.00004 8.45297C8.87338 8.45297 9.58004 7.7463 9.58004 6.87297C9.58004 5.99964 8.86671 5.29297 8.00004 5.29297Z" fill="#555558"/>
<path d="M8 15.172C7.01333 15.172 6.01999 14.7987 5.24666 14.0587C3.28 12.1654 1.10666 9.14536 1.92666 5.55203C2.66666 2.29203 5.51333 0.832031 8 0.832031C8 0.832031 8 0.832031 8.00666 0.832031C10.4933 0.832031 13.34 2.29203 14.08 5.5587C14.8933 9.15203 12.72 12.1654 10.7533 14.0587C9.97999 14.7987 8.98666 15.172 8 15.172ZM8 1.83203C6.06 1.83203 3.56666 2.86536 2.90666 5.77203C2.18666 8.91203 4.16 11.6187 5.94666 13.332C7.1 14.4454 8.90666 14.4454 10.06 13.332C11.84 11.6187 13.8133 8.91203 13.1067 5.77203C12.44 2.86536 9.93999 1.83203 8 1.83203Z" fill="#555558"/>
</svg>
