<svg width="14" height="14" viewBox="0 0 14 14" fill="none" xmlns="http://www.w3.org/2000/svg">
<g clip-path="url(#clip0_239_4096)">
<path d="M7.00065 11.0833C6.19524 11.0833 5.54232 11.7363 5.54232 12.5417C5.54232 13.3471 6.19524 14 7.00065 14C7.80607 14 8.45898 13.3471 8.45898 12.5417C8.45898 11.7363 7.80607 11.0833 7.00065 11.0833Z" fill="#7E7E89"/>
<path d="M7.00065 5.54427C6.19524 5.54427 5.54232 6.19719 5.54232 7.0026C5.54232 7.80802 6.19524 8.46094 7.00065 8.46094C7.80607 8.46094 8.45898 7.80802 8.45898 7.0026C8.45898 6.19719 7.80607 5.54427 7.00065 5.54427Z" fill="#7E7E89"/>
<path d="M7.00065 -0.00260461C6.19524 -0.00260468 5.54232 0.650313 5.54232 1.45573C5.54232 2.26114 6.19524 2.91406 7.00065 2.91406C7.80607 2.91406 8.45898 2.26114 8.45898 1.45573C8.45898 0.650314 7.80607 -0.00260454 7.00065 -0.00260461Z" fill="#7E7E89"/>
</g>
<defs>
<clipPath id="clip0_239_4096">
<rect width="14" height="14" fill="white" transform="translate(14 14) rotate(-180)"/>
</clipPath>
</defs>
</svg>
