<svg width="44" height="44" viewBox="0 0 44 44" fill="none" xmlns="http://www.w3.org/2000/svg">
<path d="M32.1927 32.9448H11.806C4.50935 32.9448 2.29102 30.7265 2.29102 23.4298V11.8065C2.29102 4.50984 4.50935 2.2915 11.806 2.2915H32.1743C39.471 2.2915 41.6893 4.50984 41.6893 11.8065V23.4115C41.7077 30.7265 39.4893 32.9448 32.1927 32.9448ZM11.806 5.0415C6.04935 5.0415 5.04102 6.04984 5.04102 11.8065V23.4115C5.04102 29.1682 6.04935 30.1765 11.806 30.1765H32.1743C37.931 30.1765 38.9393 29.1682 38.9393 23.4115V11.8065C38.9393 6.04984 37.931 5.0415 32.1743 5.0415H11.806Z" fill="white"/>
<path d="M22 41.7082C21.2483 41.7082 20.625 41.0848 20.625 40.3332V31.5698C20.625 30.8182 21.2483 30.1948 22 30.1948C22.7517 30.1948 23.375 30.8182 23.375 31.5698V40.3332C23.375 41.0848 22.7517 41.7082 22 41.7082Z" fill="white"/>
<path d="M40.3327 25.2085H3.66602C2.91435 25.2085 2.29102 24.5852 2.29102 23.8335C2.29102 23.0818 2.91435 22.4585 3.66602 22.4585H40.3327C41.0844 22.4585 41.7077 23.0818 41.7077 23.8335C41.7077 24.5852 41.0844 25.2085 40.3327 25.2085Z" fill="white"/>
<path d="M30.25 41.7085H13.75C12.9983 41.7085 12.375 41.0852 12.375 40.3335C12.375 39.5818 12.9983 38.9585 13.75 38.9585H30.25C31.0017 38.9585 31.625 39.5818 31.625 40.3335C31.625 41.0852 31.0017 41.7085 30.25 41.7085Z" fill="white"/>
</svg>
