<svg width="25" height="24" viewBox="0 0 25 24" fill="none" xmlns="http://www.w3.org/2000/svg">
<path d="M22.8899 2.90922L22.8895 7.45547C22.8895 7.95758 22.4826 8.36435 21.9807 8.36435C21.4785 8.36435 21.0719 7.95759 21.0719 7.4553V5.10564L15.7905 10.3917C15.6127 10.5696 15.3798 10.658 15.1471 10.658C14.9146 10.658 14.6822 10.5695 14.5046 10.3919C14.1496 10.0372 14.1493 9.46171 14.5041 9.10671L19.7873 3.81843H17.4381C16.936 3.81843 16.5291 3.41133 16.5291 2.90905C16.5291 2.4071 16.9362 2 17.4381 2H21.9807C22.2219 2 22.453 2.09586 22.6236 2.26664C22.7942 2.43707 22.8899 2.66863 22.8899 2.90922ZM21.9808 15.6359C21.4785 15.6359 21.0719 16.0435 21.0719 16.5453V18.8949L15.879 13.7463C15.5237 13.3913 14.9238 13.3909 14.5688 13.7459C14.2137 14.1004 14.2014 14.6763 14.5561 15.0311L19.6965 20.1823H17.3448H17.343C16.8409 20.1823 16.4334 20.5891 16.4332 21.0913C16.4331 21.5929 16.8393 22.0002 17.3416 22.0002L21.8834 22.0007C22.1249 22.0007 22.4048 21.9049 22.5749 21.7344C22.7453 21.564 22.89 21.3328 22.89 21.0919V16.5451C22.8899 16.0433 22.4828 15.6359 21.9808 15.6359ZM9.90033 13.7063L4.70791 18.8953V16.5451C4.70791 16.043 4.30898 15.6369 3.80704 15.6369H3.81078C3.30867 15.6369 2.90361 16.0435 2.90361 16.5451L2.90395 21.0912C2.90395 21.3324 3.00015 21.5637 3.17059 21.7341C3.34136 21.9047 3.57292 22.0004 3.81402 22.0004H8.3567C8.85881 22.0004 9.26575 21.5933 9.26575 21.0913C9.26575 20.5889 8.85864 20.182 8.3567 20.182H6.00823L11.1942 14.9912C11.5495 14.6364 11.5449 14.0601 11.1899 13.7056C10.8349 13.3511 10.2555 13.3514 9.90033 13.7063ZM5.99222 3.90033H8.34103C8.84315 3.90033 9.24991 3.49374 9.24991 2.9918C9.24991 2.48951 8.84298 2.08241 8.34103 2.08241L3.79887 2.08207H3.7987C3.55743 2.08207 3.32655 2.17742 3.15577 2.34785C2.98551 2.51829 2.88965 2.74934 2.88965 2.99094L2.89016 7.53737C2.89016 8.0388 3.29709 8.44642 3.79904 8.44642C4.30115 8.44642 4.70791 8.0388 4.70791 7.53737V5.18737L9.948 10.4317C10.1256 10.6095 10.3585 10.6983 10.5913 10.6983C10.8235 10.6983 11.0563 10.6098 11.2337 10.4322C11.5888 10.0776 11.5894 9.50155 11.2342 9.14621L5.99222 3.90033Z" fill="#7E7E89"/>
</svg>
