<svg width="20" height="20" viewBox="0 0 20 20" fill="none" xmlns="http://www.w3.org/2000/svg">
<path d="M9.58464 18.1243C4.8763 18.1243 1.04297 14.291 1.04297 9.58268C1.04297 4.87435 4.8763 1.04102 9.58464 1.04102C14.293 1.04102 18.1263 4.87435 18.1263 9.58268C18.1263 14.291 14.293 18.1243 9.58464 18.1243ZM9.58464 2.29102C5.55964 2.29102 2.29297 5.56602 2.29297 9.58268C2.29297 13.5993 5.55964 16.8743 9.58464 16.8743C13.6096 16.8743 16.8763 13.5993 16.8763 9.58268C16.8763 5.56602 13.6096 2.29102 9.58464 2.29102Z" fill="white"/>
<path d="M18.3326 18.9576C18.1742 18.9576 18.0159 18.8992 17.8909 18.7742L16.2242 17.1076C15.9826 16.8659 15.9826 16.4659 16.2242 16.2242C16.4659 15.9826 16.8659 15.9826 17.1076 16.2242L18.7742 17.8909C19.0159 18.1326 19.0159 18.5326 18.7742 18.7742C18.6492 18.8992 18.4909 18.9576 18.3326 18.9576Z" fill="white"/>
</svg>
