<svg width="32" height="32" viewBox="0 0 32 32" fill="none" xmlns="http://www.w3.org/2000/svg">
<path d="M11.5 9C10.678 9 10 9.678 10 10.5C10 11.322 10.678 12 11.5 12H19.5C20.322 12 21 11.322 21 10.5C21 9.678 20.322 9 19.5 9H11.5ZM11.5 10H19.5C19.786 10 20 10.214 20 10.5C20 10.786 19.786 11 19.5 11H11.5C11.4339 11.0016 11.3681 10.9898 11.3067 10.9653C11.2453 10.9408 11.1895 10.904 11.1428 10.8572C11.096 10.8105 11.0592 10.7547 11.0347 10.6933C11.0102 10.6319 10.9984 10.5661 11 10.5C11 10.214 11.214 10 11.5 10ZM11.5 13C10.678 13 10 13.678 10 14.5C10 15.322 10.678 16 11.5 16H19.5C20.322 16 21 15.322 21 14.5C21 13.678 20.322 13 19.5 13H11.5ZM11.5 14H19.5C19.786 14 20 14.214 20 14.5C20 14.786 19.786 15 19.5 15H11.5C11.4339 15.0016 11.3681 14.9898 11.3067 14.9653C11.2453 14.9408 11.1895 14.904 11.1428 14.8572C11.096 14.8105 11.0592 14.7547 11.0347 14.6933C11.0102 14.6319 10.9984 14.5661 11 14.5C11 14.214 11.214 14 11.5 14ZM11.5 17C10.678 17 10 17.678 10 18.5C10 19.322 10.678 20 11.5 20H19.5C20.322 20 21 19.322 21 18.5C21 17.678 20.322 17 19.5 17H11.5ZM11.5 18H19.5C19.786 18 20 18.214 20 18.5C20 18.786 19.786 19 19.5 19H11.5C11.4339 19.0016 11.3681 18.9898 11.3067 18.9653C11.2453 18.9407 11.1895 18.904 11.1428 18.8572C11.096 18.8105 11.0592 18.7547 11.0347 18.6933C11.0102 18.6319 10.9984 18.5661 11 18.5C11 18.214 11.214 18 11.5 18ZM11.5 21C10.678 21 10 21.678 10 22.5C10 23.322 10.678 24 11.5 24H19.5C20.322 24 21 23.322 21 22.5C21 21.678 20.322 21 19.5 21H11.5ZM11.5 22H19.5C19.786 22 20 22.214 20 22.5C20 22.786 19.786 23 19.5 23H11.5C11.4339 23.0016 11.3681 22.9898 11.3067 22.9653C11.2453 22.9407 11.1895 22.904 11.1428 22.8572C11.096 22.8105 11.0592 22.7547 11.0347 22.6933C11.0102 22.6319 10.9984 22.5661 11 22.5C11 22.214 11.214 22 11.5 22Z" fill="#242429"/>
</svg>
