<svg width="24" height="24" viewBox="0 0 24 24" fill="none" xmlns="http://www.w3.org/2000/svg">
<path d="M3.50419 3.60159C3.50419 3.37884 3.59267 3.16522 3.75018 3.00771C3.90769 2.8502 4.12131 2.76172 4.34405 2.76172H8.47284C9.14881 2.76151 9.81485 2.9245 10.4143 3.23682C11.0138 3.54915 11.5291 4.00158 11.9163 4.55567L16.2114 10.701C16.2746 10.7915 16.3194 10.8935 16.3432 11.0014C16.367 11.1092 16.3694 11.2206 16.3501 11.3293C16.3309 11.438 16.2904 11.5419 16.231 11.635C16.1716 11.728 16.0944 11.8085 16.0039 11.8717C15.9134 11.935 15.8114 11.9798 15.7035 12.0036C15.5957 12.0274 15.4843 12.0298 15.3756 12.0105C15.2669 11.9912 15.163 11.9507 15.0699 11.8913C14.9769 11.8319 14.8964 11.7548 14.8331 11.6643L11.9163 7.49017L4.8421 12.678C4.66234 12.8099 4.43756 12.8649 4.21721 12.8311C3.99686 12.7972 3.79899 12.6772 3.66712 12.4974C3.53526 12.3177 3.4802 12.0929 3.51406 11.8726C3.54793 11.6522 3.66794 11.4543 3.84769 11.3225L10.9538 6.1153L10.5381 5.52152C10.3062 5.1885 9.99741 4.91639 9.63784 4.72835C9.27827 4.5403 8.87861 4.44188 8.47284 4.44145H4.34405C4.12131 4.44145 3.90769 4.35297 3.75018 4.19546C3.59267 4.03795 3.50419 3.82433 3.50419 3.60159ZM20.5812 19.1307C20.2738 19.4069 19.8749 19.5595 19.4616 19.559C19.0962 19.5596 18.7385 19.4542 18.4318 19.2554C18.1252 19.0567 17.8828 18.7733 17.734 18.4395C17.676 18.2759 17.5688 18.1344 17.427 18.0342C17.2853 17.9341 17.116 17.8803 16.9425 17.8803C16.7689 17.8803 16.5996 17.9341 16.4579 18.0342C16.3161 18.1344 16.2089 18.2759 16.1509 18.4395C16.0017 18.773 15.7591 19.0563 15.4525 19.255C15.1459 19.4538 14.7883 19.5595 14.4229 19.5595C14.0575 19.5595 13.6999 19.4538 13.3932 19.255C13.0866 19.0563 12.8441 18.773 12.6948 18.4395C12.6368 18.2759 12.5296 18.1344 12.3878 18.0342C12.2461 17.9341 12.0768 17.8803 11.9033 17.8803C11.7297 17.8803 11.5604 17.9341 11.4187 18.0342C11.2769 18.1344 11.1697 18.2759 11.1117 18.4395C10.9625 18.773 10.7199 19.0563 10.4133 19.255C10.1067 19.4538 9.74907 19.5595 9.38367 19.5595C9.01827 19.5595 8.66068 19.4538 8.35405 19.255C8.04742 19.0563 7.80486 18.773 7.65565 18.4395C7.59765 18.2759 7.4904 18.1344 7.34865 18.0342C7.20691 17.9341 7.03762 17.8803 6.86407 17.8803C6.69053 17.8803 6.52124 17.9341 6.37949 18.0342C6.23775 18.1344 6.1305 18.2759 6.0725 18.4395C5.92353 18.7733 5.68096 19.0567 5.37418 19.2554C5.0674 19.4541 4.70957 19.5596 4.34405 19.559C3.93079 19.5586 3.53219 19.4058 3.22451 19.1299C3.05818 18.9845 2.84128 18.9106 2.62081 18.924C2.40033 18.9375 2.19402 19.0372 2.04657 19.2017C1.89911 19.3661 1.82239 19.5821 1.833 19.8027C1.84362 20.0233 1.94073 20.2309 2.10329 20.3804C2.71908 20.9326 3.51694 21.2383 4.34405 21.2388C5.28458 21.2306 6.18624 20.8625 6.86365 20.2099C7.53652 20.8694 8.44111 21.2388 9.38325 21.2388C10.3254 21.2388 11.23 20.8694 11.9029 20.2099C12.5757 20.8694 13.4803 21.2388 14.4225 21.2388C15.3646 21.2388 16.2692 20.8694 16.942 20.2099C17.6193 20.8627 18.5211 21.231 19.4616 21.2388C20.2892 21.2395 21.0875 20.9334 21.7024 20.3796C21.7884 20.3071 21.859 20.218 21.9099 20.1177C21.9608 20.0173 21.9911 19.9078 21.9988 19.7956C22.0066 19.6833 21.9917 19.5707 21.9551 19.4643C21.9185 19.3579 21.8609 19.2599 21.7857 19.1762C21.7105 19.0925 21.6193 19.0248 21.5174 18.9771C21.4155 18.9293 21.3051 18.9025 21.1927 18.8983C21.0802 18.894 20.9681 18.9124 20.8629 18.9523C20.7577 18.9923 20.6625 19.0529 20.5812 19.1307ZM4.34405 17.0394C5.28458 17.0313 6.18624 16.6631 6.86365 16.0106C7.53652 16.6701 8.44111 17.0394 9.38325 17.0394C10.3254 17.0394 11.23 16.6701 11.9029 16.0106C12.5757 16.6701 13.4803 17.0394 14.4225 17.0394C15.3646 17.0394 16.2692 16.6701 16.942 16.0106C17.6193 16.6634 18.5211 17.0316 19.4616 17.0394C20.2892 17.0402 21.0875 16.7341 21.7024 16.1803C21.7884 16.1077 21.859 16.0187 21.9099 15.9183C21.9608 15.818 21.9911 15.7085 21.9988 15.5962C22.0066 15.484 21.9917 15.3713 21.9551 15.2649C21.9185 15.1585 21.8609 15.0606 21.7857 14.9769C21.7105 14.8932 21.6193 14.8255 21.5174 14.7777C21.4155 14.73 21.3051 14.7032 21.1927 14.6989C21.0802 14.6947 20.9681 14.7131 20.8629 14.753C20.7577 14.7929 20.6616 14.8536 20.5804 14.9314C20.2731 15.2074 19.8746 15.36 19.4616 15.3597C19.0962 15.3603 18.7385 15.2548 18.4318 15.0561C18.1252 14.8574 17.8828 14.5739 17.734 14.2402C17.676 14.0766 17.5688 13.935 17.427 13.8349C17.2853 13.7348 17.116 13.681 16.9425 13.681C16.7689 13.681 16.5996 13.7348 16.4579 13.8349C16.3161 13.935 16.2089 14.0766 16.1509 14.2402C16.0017 14.5737 15.7591 14.857 15.4525 15.0557C15.1459 15.2544 14.7883 15.3602 14.4229 15.3602C14.0575 15.3602 13.6999 15.2544 13.3932 15.0557C13.0866 14.857 12.8441 14.5737 12.6948 14.2402C12.6368 14.0766 12.5296 13.935 12.3878 13.8349C12.2461 13.7348 12.0768 13.681 11.9033 13.681C11.7297 13.681 11.5604 13.7348 11.4187 13.8349C11.2769 13.935 11.1697 14.0766 11.1117 14.2402C10.9625 14.5737 10.7199 14.857 10.4133 15.0557C10.1067 15.2544 9.74907 15.3602 9.38367 15.3602C9.01827 15.3602 8.66068 15.2544 8.35405 15.0557C8.04742 14.857 7.80486 14.5737 7.65565 14.2402C7.59765 14.0766 7.4904 13.935 7.34865 13.8349C7.20691 13.7348 7.03762 13.681 6.86407 13.681C6.69053 13.681 6.52124 13.7348 6.37949 13.8349C6.23775 13.935 6.1305 14.0766 6.0725 14.2402C5.92353 14.574 5.68096 14.8574 5.37418 15.0561C5.0674 15.2548 4.70957 15.3603 4.34405 15.3597C3.93079 15.3592 3.53219 15.2064 3.22451 14.9305C3.05818 14.7852 2.84128 14.7112 2.62081 14.7247C2.40033 14.7381 2.19402 14.8379 2.04657 15.0023C1.89911 15.1668 1.82239 15.3827 1.833 15.6034C1.84362 15.824 1.94073 16.0316 2.10329 16.1811C2.71908 16.7333 3.51694 17.0389 4.34405 17.0394ZM17.362 8.64078C17.7773 8.64078 18.1832 8.51764 18.5285 8.28693C18.8738 8.05621 19.1429 7.72829 19.3018 7.34462C19.4607 6.96096 19.5023 6.53879 19.4213 6.13149C19.3403 5.7242 19.1403 5.35007 18.8467 5.05643C18.553 4.76279 18.1789 4.56281 17.7716 4.4818C17.3643 4.40078 16.9421 4.44236 16.5585 4.60128C16.1748 4.7602 15.8469 5.02932 15.6162 5.37461C15.3855 5.71989 15.2623 6.12584 15.2623 6.54112C15.2623 7.09798 15.4835 7.63204 15.8773 8.0258C16.2711 8.41957 16.8051 8.64078 17.362 8.64078Z" fill="#7E7E89"/>
</svg>
