<svg width="32" height="32" viewBox="0 0 32 32" fill="none" xmlns="http://www.w3.org/2000/svg">
<path d="M22.596 1.00132C21.9831 0.984474 21.3764 1.12872 20.8366 1.41966C20.2969 1.7106 19.8429 2.13805 19.52 2.65932C19.273 3.06308 19.1107 3.51287 19.0429 3.98133C18.9752 4.44979 19.0035 4.92713 19.126 5.38432C19.126 5.38566 19.126 5.38699 19.126 5.38832L18.585 7.24932C18.5836 7.2553 18.5822 7.2613 18.581 7.26732C18.421 7.90732 18.631 8.55932 19.089 8.95832L14.236 20.9993H14.117C12.972 20.9993 12 21.8793 12 22.9993H11.117C9.972 22.9993 9 23.8793 9 24.9993V25.9993H8C6.347 25.9993 5 27.3463 5 28.9993V30.4993C5 30.6319 5.05268 30.7591 5.14645 30.8529C5.24021 30.9466 5.36739 30.9993 5.5 30.9993H22.5C22.6326 30.9993 22.7598 30.9466 22.8536 30.8529C22.9473 30.7591 23 30.6319 23 30.4993V28.9993C22.9977 28.381 22.8043 27.7785 22.4463 27.2744C22.0882 26.7702 21.5831 26.3892 21 26.1833V24.9993C21 23.9183 20.092 23.0693 19 23.0113V22.9993C19 22.0673 18.325 21.3093 17.44 21.0773L21.879 10.0653C22.0966 10.0653 22.3122 10.0236 22.514 9.94232C22.864 9.80232 23.174 9.56432 23.389 9.23532C23.398 9.22239 23.4063 9.20904 23.414 9.19532L24.314 7.47532C24.7209 7.2305 25.0736 6.90521 25.3504 6.51936C25.6273 6.13351 25.8224 5.69522 25.924 5.23132C26.0952 4.42453 25.9765 3.5832 25.5888 2.85527C25.201 2.12734 24.5691 1.5594 23.804 1.25132C23.4194 1.09676 23.0103 1.0121 22.596 1.00132ZM22.568 1.99932C22.858 2.00732 23.151 2.06732 23.434 2.18132C23.9811 2.39974 24.433 2.80504 24.7095 3.3252C24.9859 3.84536 25.069 4.44668 24.944 5.02232C24.822 5.59921 24.4995 6.11418 24.0337 6.47576C23.568 6.83735 22.9891 7.02214 22.4 6.99732C22.3325 6.9913 22.2646 6.99905 22.2002 7.02009C22.1358 7.04113 22.0764 7.07502 22.0255 7.11972C21.9747 7.16442 21.9334 7.21899 21.9042 7.28011C21.8751 7.34124 21.8587 7.40765 21.8559 7.47532C21.8532 7.54299 21.8643 7.6105 21.8885 7.67376C21.9126 7.73703 21.9494 7.79472 21.9965 7.84335C22.0437 7.89197 22.1002 7.93052 22.1627 7.95664C22.2251 7.98277 22.2923 7.99593 22.36 7.99532C22.552 8.00332 22.741 7.98932 22.928 7.96532L22.547 8.69532C22.4442 8.83784 22.3036 8.9487 22.141 9.01532C21.975 9.08132 21.823 9.07932 21.746 9.04832L19.891 8.29932C19.713 8.22832 19.476 7.81732 19.553 7.50832L19.785 6.70332C19.905 6.85032 20.034 6.99032 20.18 7.11932C20.2792 7.20738 20.4093 7.25242 20.5417 7.24454C20.6741 7.23666 20.7979 7.17652 20.886 7.07732C20.9741 6.97813 21.0191 6.84803 21.0112 6.71563C21.0033 6.58322 20.9432 6.45938 20.844 6.37132C20.4018 5.98123 20.112 5.44725 20.0258 4.86394C19.9396 4.28064 20.0626 3.68564 20.373 3.18432C20.6027 2.81157 20.9265 2.50583 21.3118 2.29783C21.6971 2.08982 22.1303 1.98687 22.568 1.99932ZM19.984 9.41532L20.912 9.78832L16.392 20.9993H15.314L19.984 9.41532ZM14.117 21.9993H16.883C17.53 21.9993 18 22.4573 18 22.9993H13C13 22.4573 13.47 21.9993 14.117 21.9993ZM11.117 23.9993H18.883C19.53 23.9993 20 24.4573 20 24.9993V25.9993H10V24.9993C10 24.4573 10.47 23.9993 11.117 23.9993ZM8 26.9993H20C21.117 26.9993 22 27.8823 22 28.9993V29.9993H6V28.9993C6 27.8823 6.883 26.9993 8 26.9993Z" fill="#242429"/>
</svg>
