<svg width="32" height="32" viewBox="0 0 32 32" fill="none" xmlns="http://www.w3.org/2000/svg">
<path d="M16.0607 2.93781C16.0191 2.93596 15.9775 2.94247 15.9384 2.95693C15.8994 2.97139 15.8636 2.99351 15.8332 3.02201C15.8028 3.0505 15.7784 3.08478 15.7614 3.12284C15.7445 3.1609 15.7353 3.20196 15.7344 3.24362C15.7336 3.28528 15.7411 3.32668 15.7565 3.36541C15.7718 3.40413 15.7948 3.43938 15.824 3.4691C15.8532 3.49881 15.8881 3.52239 15.9265 3.53844C15.965 3.55449 16.0062 3.56269 16.0479 3.56256C17.6193 3.59485 18.8263 3.66115 19.6578 3.75861C20.0735 3.80733 20.396 3.86454 20.6134 3.92413C20.8309 3.98372 20.9328 4.07628 20.9009 4.0329C20.8616 3.97948 20.9329 4.11591 20.9712 4.29413C21.0096 4.47235 21.0496 4.71638 21.0885 5.00067C21.1663 5.56925 21.2403 6.30095 21.3027 7.03876C21.365 7.77657 21.416 8.52143 21.449 9.11993C21.482 9.71844 21.4943 10.1973 21.4881 10.3035C21.4712 10.5931 21.3758 11.4139 21.2891 12.2818C21.2024 13.1497 21.1225 14.0701 21.1392 14.663C21.1555 15.243 21.287 17.4671 21.3118 20.118C21.336 22.701 21.2531 25.6704 20.8737 27.8187C19.7963 28.2178 18.1858 28.435 16.0542 28.435C16.0128 28.4344 15.9717 28.4421 15.9333 28.4575C15.8949 28.4729 15.8599 28.4959 15.8304 28.5249C15.8009 28.554 15.7775 28.5887 15.7615 28.6269C15.7455 28.6651 15.7373 28.7061 15.7373 28.7475C15.7373 28.7889 15.7455 28.8299 15.7615 28.8681C15.7775 28.9063 15.8009 28.941 15.8304 28.97C15.8599 28.9991 15.8949 29.022 15.9333 29.0375C15.9717 29.0529 16.0128 29.0606 16.0542 29.06C18.3333 29.06 20.0625 28.8317 21.2706 28.3398C21.319 28.3201 21.3617 28.2885 21.3948 28.248C21.4278 28.2075 21.4502 28.1594 21.4599 28.108C21.8822 25.86 21.9617 22.7804 21.9367 20.1121C21.9117 17.4438 21.7788 15.1735 21.764 14.6454C21.7495 14.1304 21.825 13.205 21.9111 12.3439C21.9971 11.4829 22.0916 10.6915 22.1121 10.3399C22.1246 10.1256 22.1064 9.6909 22.073 9.08551C22.0397 8.48012 21.9884 7.73062 21.9255 6.98615C21.8625 6.24167 21.7881 5.50309 21.7078 4.91595C21.6676 4.62239 21.6262 4.36722 21.5822 4.16266C21.5382 3.9581 21.5262 3.82817 21.4045 3.66266C21.2499 3.45246 21.0473 3.39497 20.7786 3.32135C20.5099 3.24773 20.1645 3.18863 19.7305 3.13776C18.8625 3.03601 17.643 2.97031 16.0607 2.93781Z" fill="#242429"/>
<path d="M16.0533 10.0743C16.0119 10.0737 15.9708 10.0814 15.9323 10.0968C15.8939 10.1122 15.8589 10.1352 15.8294 10.1642C15.7999 10.1933 15.7765 10.228 15.7605 10.2662C15.7446 10.3044 15.7363 10.3454 15.7363 10.3868C15.7363 10.4282 15.7446 10.4692 15.7605 10.5074C15.7765 10.5456 15.7999 10.5803 15.8294 10.6093C15.8589 10.6384 15.8939 10.6613 15.9323 10.6768C15.9708 10.6922 16.0119 10.6999 16.0533 10.6993C16.3861 10.6993 17.0432 10.7526 17.4626 10.8156C18.326 10.9454 18.9838 11.1353 19.4511 11.361C19.2634 12.3594 18.9641 13.2605 18.5552 14.0679C17.7166 13.8839 16.8821 13.7867 16.0533 13.7867C16.0119 13.7861 15.9708 13.7938 15.9323 13.8092C15.8939 13.8246 15.8589 13.8476 15.8294 13.8766C15.7999 13.9057 15.7765 13.9404 15.7605 13.9786C15.7446 14.0168 15.7363 14.0578 15.7363 14.0992C15.7363 14.1406 15.7446 14.1816 15.7605 14.2198C15.7765 14.258 15.7999 14.2927 15.8294 14.3217C15.8589 14.3508 15.8939 14.3737 15.9323 14.3892C15.9708 14.4046 16.0119 14.4123 16.0533 14.4117C16.9127 14.4117 17.78 14.5167 18.6568 14.7277C18.7238 14.7439 18.7943 14.7374 18.8573 14.7093C18.9202 14.6812 18.9722 14.6331 19.0049 14.5725C19.5373 13.5865 19.9062 12.4734 20.1142 11.2382C20.1248 11.1754 20.1159 11.1108 20.0887 11.0531C20.0615 10.9954 20.0173 10.9474 19.9621 10.9156C19.3833 10.5819 18.5859 10.3524 17.5555 10.1976C17.0954 10.1284 16.4477 10.0743 16.0533 10.0743ZM20.4931 12.9637C20.4354 12.9643 20.3791 12.9809 20.3303 13.0116C20.2815 13.0423 20.2421 13.0859 20.2165 13.1375C19.8907 13.7963 19.6327 14.3449 19.4413 14.786C19.4267 14.8197 19.4181 14.8559 19.4159 14.8927C19.3272 16.4673 19.2915 17.4298 19.3165 17.8625C19.351 18.4633 19.4948 19.7605 20.393 20.9996C20.4323 21.0537 20.4879 21.0938 20.5517 21.114C20.6154 21.1342 20.684 21.1334 20.7473 21.1117C20.8105 21.09 20.8652 21.0486 20.9032 20.9935C20.9412 20.9385 20.9605 20.8727 20.9583 20.8059L20.7735 15.1949L20.809 13.2819C20.8098 13.2401 20.8022 13.1986 20.7866 13.1598C20.771 13.121 20.7478 13.0857 20.7183 13.056C20.6889 13.0264 20.6538 13.0029 20.6151 12.987C20.5764 12.9712 20.5349 12.9632 20.4931 12.9637ZM20.1569 14.7323L20.1484 15.1912C20.1483 15.1966 20.1483 15.202 20.1485 15.2073L20.2897 19.4945C20.0281 18.8048 19.9611 18.1866 19.9404 17.8265C19.9213 17.4956 19.9519 16.5139 20.0372 14.9868C20.0669 14.9187 20.1238 14.8059 20.1569 14.7323ZM19.0656 20.2695C19.045 20.269 19.0244 20.2705 19.0041 20.2741C18.1417 20.4248 17.1597 20.4905 16.0595 20.4687C16.0181 20.4673 15.9769 20.4741 15.9381 20.4888C15.8994 20.5035 15.864 20.5257 15.8339 20.5542C15.8038 20.5827 15.7797 20.6169 15.763 20.6548C15.7463 20.6926 15.7372 20.7335 15.7364 20.7749C15.7356 20.8163 15.743 20.8575 15.7583 20.896C15.7735 20.9345 15.7962 20.9696 15.8251 20.9992C15.854 21.0289 15.8886 21.0525 15.9267 21.0687C15.9648 21.0849 16.0058 21.0933 16.0472 21.0936C17.0607 21.1137 17.9799 21.0578 18.8161 20.9326C19.0569 21.9626 19.2152 23.059 19.2897 24.2226C18.5646 24.4 17.4902 24.5024 16.0533 24.5024C16.0119 24.5018 15.9708 24.5095 15.9323 24.5249C15.8939 24.5403 15.8589 24.5633 15.8294 24.5923C15.7999 24.6214 15.7765 24.6561 15.7605 24.6943C15.7446 24.7325 15.7363 24.7735 15.7363 24.8149C15.7363 24.8563 15.7446 24.8973 15.7605 24.9355C15.7765 24.9737 15.7999 25.0084 15.8294 25.0374C15.8589 25.0665 15.8939 25.0894 15.9323 25.1049C15.9708 25.1203 16.0119 25.128 16.0533 25.1274C17.6749 25.1274 18.8819 25.0151 19.7112 24.7655C19.7782 24.7453 19.8365 24.7032 19.8768 24.646C19.9171 24.5887 19.937 24.5197 19.9333 24.4498C19.8593 23.0486 19.669 21.7338 19.361 20.5059C19.3444 20.4396 19.3065 20.3806 19.2532 20.3379C19.1998 20.2952 19.1339 20.2712 19.0656 20.2695ZM21.7067 6.52473C21.6653 6.52414 21.6242 6.5318 21.5858 6.54724C21.5473 6.56268 21.5124 6.5856 21.4829 6.61468C21.4534 6.64376 21.43 6.6784 21.414 6.71661C21.398 6.75481 21.3898 6.79582 21.3898 6.83723C21.3898 6.87864 21.398 6.91965 21.414 6.95785C21.43 6.99606 21.4534 7.0307 21.4829 7.05978C21.5124 7.08886 21.5473 7.11178 21.5858 7.12722C21.6242 7.14267 21.6653 7.15032 21.7067 7.14973H21.7927V8.92085C21.7161 8.93578 21.6479 8.9788 21.6014 9.04145C21.555 9.10411 21.5336 9.18187 21.5416 9.25947C21.5495 9.33706 21.5862 9.40888 21.6444 9.46081C21.7026 9.51274 21.7781 9.54102 21.8561 9.54011C22.1744 9.54011 22.4177 9.26649 22.4177 8.96138V7.10347C22.4177 6.78736 22.155 6.52473 21.8389 6.52473H21.7067ZM21.6497 21.9625C21.5718 21.9617 21.4965 21.9901 21.4384 22.042C21.3803 22.0939 21.3438 22.1656 21.3358 22.2431C21.3279 22.3206 21.3491 22.3983 21.3955 22.4609C21.4418 22.5235 21.5098 22.5665 21.5862 22.5816V24.3586C21.5097 24.3735 21.4415 24.4165 21.395 24.4792C21.3486 24.5419 21.3272 24.6196 21.3352 24.6972C21.3431 24.7748 21.3798 24.8466 21.438 24.8986C21.4962 24.9505 21.5717 24.9788 21.6497 24.9779C21.9679 24.9779 22.2112 24.7044 22.2112 24.3992V22.5413C22.2112 22.2362 21.968 21.9625 21.6497 21.9625ZM19.6481 3.14875C19.5753 3.14548 19.5037 3.16774 19.4456 3.2117C19.3874 3.25566 19.3465 3.31855 19.3298 3.38949C19.3132 3.46043 19.3218 3.53496 19.3543 3.60021C19.3867 3.66545 19.441 3.71729 19.5076 3.74678C19.4829 3.73542 19.538 3.76788 19.5981 3.8852C19.6298 3.94712 19.666 4.07639 19.7009 4.17549C19.6847 4.17767 19.6656 4.18433 19.6528 4.18489C19.6845 4.18351 19.6083 4.18184 19.5142 4.16877C19.4201 4.1557 19.2881 4.1346 19.121 4.10591C18.8244 4.05496 18.3748 3.97069 17.8574 3.87153V3.62532C17.8579 3.58391 17.8503 3.54279 17.8348 3.50437C17.8194 3.46594 17.7965 3.43096 17.7674 3.40147C17.7383 3.37198 17.7037 3.34856 17.6655 3.33258C17.6273 3.3166 17.5863 3.30837 17.5449 3.30837C17.5034 3.30837 17.4624 3.3166 17.4242 3.33258C17.386 3.34856 17.3514 3.37198 17.3223 3.40147C17.2932 3.43096 17.2703 3.46594 17.2549 3.50437C17.2394 3.54279 17.2318 3.58391 17.2324 3.62532V4.03559C17.2324 4.25422 17.3643 4.41408 17.579 4.45552C18.1954 4.57449 18.6733 4.66316 19.0152 4.72187C19.1861 4.75123 19.3228 4.77316 19.4282 4.78779C19.5335 4.80243 19.5874 4.8133 19.68 4.80928C19.8104 4.8036 19.9332 4.77711 20.0447 4.73994C20.1005 4.72136 20.152 4.70131 20.2078 4.66865C20.2637 4.636 20.3725 4.61867 20.404 4.39851C20.4099 4.35672 20.4074 4.31416 20.3964 4.27339C20.3234 4.00112 20.2464 3.78011 20.1544 3.60029C20.0623 3.42047 19.9587 3.26626 19.7686 3.17891C19.7309 3.1609 19.6899 3.15064 19.6481 3.14875ZM22.3455 12.3055C22.2849 12.3023 22.2208 12.3065 22.1448 12.3259C21.9337 12.3796 21.7132 12.4955 21.4289 12.6715C21.393 12.6926 21.3617 12.7206 21.3368 12.754C21.3119 12.7874 21.2939 12.8254 21.2839 12.8658C21.2739 12.9062 21.2721 12.9482 21.2786 12.9894C21.285 13.0305 21.2996 13.0699 21.3216 13.1053C21.3435 13.1407 21.3722 13.1714 21.4062 13.1955C21.4401 13.2197 21.4785 13.2368 21.5191 13.2459C21.5598 13.255 21.6018 13.2558 21.6428 13.2484C21.6838 13.241 21.7228 13.2255 21.7577 13.2028C22.0167 13.0426 22.2151 12.9529 22.2989 12.9316C22.2575 12.9421 22.3342 12.9313 22.4212 12.9461C22.5082 12.9609 22.6191 12.9887 22.7259 13.0224C22.8327 13.0562 22.9368 13.0964 23.0107 13.1317C23.0465 13.1488 23.0754 13.1722 23.0906 13.1839C23.0996 13.2049 23.1641 13.3384 23.1995 13.4636C23.2059 13.4862 23.2068 13.4986 23.2118 13.5197C23.1239 13.5473 23.0115 13.5773 22.8765 13.5965C22.5819 13.6385 22.2184 13.6288 21.9119 13.4876C21.8745 13.4696 21.8339 13.4591 21.7924 13.4569C21.751 13.4547 21.7095 13.4608 21.6704 13.4748C21.6313 13.4889 21.5954 13.5105 21.5648 13.5386C21.5342 13.5667 21.5094 13.6005 21.4921 13.6383C21.4747 13.676 21.465 13.7168 21.4636 13.7583C21.4622 13.7998 21.469 13.8412 21.4838 13.88C21.4985 13.9188 21.5208 13.9543 21.5495 13.9844C21.5781 14.0145 21.6124 14.0386 21.6504 14.0552C22.1108 14.2673 22.5908 14.2686 22.9647 14.2153C23.1516 14.1886 23.3129 14.1477 23.4387 14.1062C23.5015 14.0854 23.5551 14.0646 23.6024 14.0429C23.6496 14.0212 23.6733 14.0312 23.7629 13.9357C23.858 13.8343 23.8566 13.7567 23.8613 13.7021C23.8659 13.6475 23.8625 13.6041 23.8574 13.5601C23.847 13.4721 23.8266 13.384 23.801 13.2934C23.7497 13.1122 23.7002 12.9489 23.5872 12.7924C23.4802 12.6442 23.3902 12.6202 23.28 12.5676C23.1697 12.5149 23.0441 12.4675 22.9141 12.4265C22.7842 12.3854 22.6513 12.3512 22.5261 12.3299C22.4634 12.3192 22.4062 12.3087 22.3455 12.3055Z" fill="#242429"/>
<path d="M15.9401 2.93781C14.3579 2.97031 13.1384 3.03601 12.2703 3.13776C11.8363 3.18863 11.4909 3.24773 11.2222 3.32135C10.9535 3.39497 10.7509 3.45246 10.5964 3.66266C10.4747 3.82817 10.4627 3.9581 10.4186 4.16266C10.3746 4.36722 10.3332 4.62239 10.293 4.91595C10.2127 5.50309 10.1383 6.24167 10.0754 6.98615C10.0124 7.73062 9.96116 8.48012 9.92779 9.08551C9.89441 9.6909 9.87623 10.1256 9.88872 10.3399C9.90922 10.6915 10.0038 11.4829 10.0898 12.3439C10.1758 13.205 10.2513 14.1304 10.2369 14.6454C10.222 15.1735 10.0891 17.4438 10.0641 20.1121C10.0392 22.7804 10.1187 25.86 10.5409 28.108C10.5506 28.1594 10.573 28.2075 10.6061 28.248C10.6391 28.2885 10.6818 28.3201 10.7303 28.3398C11.9383 28.8317 13.6676 29.06 15.9466 29.06C15.988 29.0606 16.0291 29.0529 16.0675 29.0375C16.106 29.022 16.1409 28.9991 16.1704 28.97C16.1999 28.941 16.2233 28.9063 16.2393 28.8681C16.2553 28.8299 16.2635 28.7889 16.2635 28.7475C16.2635 28.7061 16.2553 28.6651 16.2393 28.6269C16.2233 28.5887 16.1999 28.554 16.1704 28.5249C16.1409 28.4959 16.106 28.4729 16.0675 28.4575C16.0291 28.4421 15.988 28.4344 15.9466 28.435C13.815 28.435 12.2046 28.2178 11.1271 27.8187C10.7477 25.6704 10.6648 22.701 10.689 20.118C10.7138 17.4671 10.8453 15.243 10.8616 14.663C10.8783 14.0701 10.7984 13.1497 10.7117 12.2818C10.625 11.4139 10.5296 10.5931 10.5127 10.3035C10.5066 10.1973 10.5188 9.71844 10.5518 9.11993C10.5848 8.52143 10.6358 7.77657 10.6982 7.03876C10.7605 6.30095 10.8345 5.56925 10.9123 5.00067C10.9512 4.71638 10.9912 4.47235 11.0296 4.29413C11.0679 4.11591 11.1392 3.97948 11.0999 4.0329C11.068 4.07628 11.1699 3.98372 11.3874 3.92413C11.6049 3.86454 11.9274 3.80733 12.3431 3.75861C13.1745 3.66115 14.3815 3.59485 15.9529 3.56256C15.9946 3.56269 16.0359 3.55449 16.0743 3.53844C16.1128 3.52239 16.1476 3.49881 16.1768 3.4691C16.206 3.43938 16.229 3.40413 16.2444 3.36541C16.2598 3.32668 16.2672 3.28528 16.2664 3.24362C16.2655 3.20196 16.2564 3.1609 16.2394 3.12284C16.2224 3.08478 16.1981 3.0505 16.1677 3.02201C16.1373 2.99351 16.1015 2.97139 16.0624 2.95693C16.0233 2.94247 15.9817 2.93596 15.9401 2.93781Z" fill="#242429"/>
<path d="M15.9469 10.0743C15.5525 10.0743 14.9048 10.1284 14.4447 10.1976C13.4143 10.3525 12.6169 10.5819 12.0381 10.9156C11.9829 10.9475 11.9387 10.9954 11.9115 11.0531C11.8843 11.1108 11.8754 11.1754 11.886 11.2383C12.094 12.4734 12.4629 13.5865 12.9952 14.5725C13.028 14.6331 13.0799 14.6813 13.1429 14.7093C13.2059 14.7374 13.2764 14.7439 13.3434 14.7278C14.2202 14.5167 15.0874 14.4117 15.9469 14.4117C15.9883 14.4123 16.0294 14.4047 16.0679 14.3892C16.1063 14.3738 16.1413 14.3508 16.1707 14.3218C16.2002 14.2927 16.2237 14.258 16.2396 14.2198C16.2556 14.1816 16.2639 14.1406 16.2639 14.0992C16.2639 14.0578 16.2556 14.0168 16.2396 13.9786C16.2237 13.9404 16.2002 13.9057 16.1707 13.8767C16.1413 13.8476 16.1063 13.8247 16.0679 13.8092C16.0294 13.7938 15.9883 13.7861 15.9469 13.7867C15.1181 13.7867 14.2835 13.8839 13.4449 14.068C13.0361 13.2605 12.7368 12.3594 12.5491 11.3611C13.0163 11.1353 13.6742 10.9454 14.5376 10.8156C14.957 10.7526 15.614 10.6993 15.9469 10.6993C15.9883 10.6999 16.0294 10.6922 16.0679 10.6768C16.1063 10.6614 16.1413 10.6384 16.1707 10.6094C16.2002 10.5803 16.2237 10.5456 16.2396 10.5074C16.2556 10.4692 16.2639 10.4282 16.2639 10.3868C16.2639 10.3454 16.2556 10.3044 16.2396 10.2662C16.2237 10.228 16.2002 10.1933 16.1707 10.1643C16.1413 10.1352 16.1063 10.1123 16.0679 10.0968C16.0294 10.0814 15.9883 10.0737 15.9469 10.0743ZM11.5071 12.9637C11.4653 12.9633 11.4238 12.9712 11.3851 12.9871C11.3464 13.0029 11.3113 13.0264 11.2818 13.056C11.2524 13.0857 11.2292 13.121 11.2136 13.1598C11.198 13.1986 11.1904 13.2401 11.1912 13.282L11.2267 15.1949L11.0419 20.8059C11.0397 20.8727 11.059 20.9385 11.097 20.9936C11.135 21.0486 11.1897 21.09 11.2529 21.1117C11.3162 21.1334 11.3847 21.1342 11.4485 21.114C11.5123 21.0938 11.5679 21.0537 11.6072 20.9996C12.5053 19.7605 12.6491 18.4633 12.6837 17.8625V17.8624C12.7087 17.4297 12.6729 16.4672 12.5842 14.8927C12.5821 14.8559 12.5735 14.8198 12.5588 14.786C12.3675 14.3449 12.1094 13.7963 11.7837 13.1375C11.7581 13.0859 11.7187 13.0423 11.6699 13.0116C11.6211 12.9809 11.5647 12.9644 11.5071 12.9637ZM11.8433 14.7323C11.8764 14.806 11.9333 14.9187 11.963 14.9868C12.0483 16.514 12.0789 17.4956 12.0598 17.8265C12.0391 18.1866 11.9721 18.8048 11.7105 19.4945L11.8517 15.2074C11.8519 15.202 11.8519 15.1966 11.8518 15.1913L11.8433 14.7323ZM12.9338 20.2695C12.8656 20.2714 12.7999 20.2955 12.7467 20.3382C12.6935 20.3809 12.6557 20.4398 12.6392 20.506C12.3312 21.7338 12.1408 23.0486 12.0669 24.4498C12.0632 24.5197 12.0831 24.5888 12.1234 24.646C12.1636 24.7032 12.2219 24.7453 12.2889 24.7655C13.1182 25.0151 14.3252 25.1274 15.9469 25.1274C15.9883 25.128 16.0294 25.1203 16.0679 25.1049C16.1063 25.0895 16.1413 25.0665 16.1707 25.0375C16.2002 25.0084 16.2237 24.9737 16.2396 24.9355C16.2556 24.8973 16.2639 24.8563 16.2639 24.8149C16.2639 24.7735 16.2556 24.7325 16.2396 24.6943C16.2237 24.6561 16.2002 24.6214 16.1707 24.5924C16.1413 24.5633 16.1063 24.5404 16.0679 24.5249C16.0294 24.5095 15.9883 24.5018 15.9469 24.5024C14.51 24.5024 13.4356 24.4 12.7105 24.2226C12.7849 23.059 12.9433 21.9626 13.1841 20.9326C14.0203 21.0578 14.9395 21.1137 15.953 21.0936C15.9944 21.0934 16.0354 21.0849 16.0735 21.0687C16.1116 21.0525 16.1461 21.0289 16.1751 20.9993C16.204 20.9696 16.2267 20.9345 16.2419 20.896C16.2572 20.8575 16.2646 20.8163 16.2638 20.7749C16.2629 20.7335 16.2539 20.6927 16.2372 20.6548C16.2204 20.6169 16.1963 20.5827 16.1663 20.5542C16.1362 20.5257 16.1008 20.5035 16.0621 20.4888C16.0233 20.4742 15.9821 20.4673 15.9407 20.4687C14.8405 20.4905 13.8585 20.4248 12.9961 20.2741C12.9756 20.2705 12.9547 20.269 12.9338 20.2695ZM10.1613 6.52475C9.84515 6.52475 9.58252 6.78738 9.58252 7.10349V8.9614C9.58252 9.26651 9.82575 9.54013 10.144 9.54013C10.2218 9.54072 10.297 9.51229 10.3549 9.46039C10.4129 9.40849 10.4494 9.33686 10.4573 9.25949C10.4652 9.18212 10.444 9.10458 10.3978 9.042C10.3517 8.97943 10.2838 8.93633 10.2075 8.92112V7.14975H10.2935C10.3349 7.15034 10.376 7.14269 10.4144 7.12725C10.4528 7.1118 10.4878 7.08888 10.5173 7.0598C10.5468 7.03073 10.5702 6.99608 10.5862 6.95787C10.6022 6.91967 10.6104 6.87867 10.6104 6.83725C10.6104 6.79584 10.6022 6.75484 10.5862 6.71663C10.5702 6.67843 10.5468 6.64378 10.5173 6.6147C10.4878 6.58563 10.4528 6.5627 10.4144 6.54726C10.376 6.53182 10.3349 6.52417 10.2935 6.52475H10.1613ZM10.3505 21.9625C10.0322 21.9625 9.78894 22.2362 9.78894 22.5414V24.3993C9.78894 24.7044 10.0323 24.9779 10.3505 24.9779C10.4282 24.9785 10.5034 24.95 10.5614 24.8981C10.6193 24.8462 10.6558 24.7746 10.6637 24.6972C10.6717 24.6199 10.6505 24.5423 10.6043 24.4797C10.5581 24.4172 10.4902 24.3741 10.4139 24.3589V22.5819C10.4906 22.5671 10.559 22.5241 10.6056 22.4614C10.6522 22.3987 10.6737 22.3208 10.6657 22.2431C10.6577 22.1654 10.621 22.0935 10.5626 22.0416C10.5043 21.9896 10.4286 21.9614 10.3505 21.9625ZM12.3739 3.14853C12.3247 3.14732 12.276 3.15774 12.2316 3.17893C12.0415 3.26628 11.9379 3.42049 11.8458 3.60031C11.7537 3.78014 11.6768 4.00114 11.6038 4.27341C11.5928 4.31418 11.5902 4.35674 11.5962 4.39853C11.6277 4.61869 11.7365 4.63602 11.7924 4.66867C11.8482 4.70133 11.8997 4.72138 11.9554 4.73996C12.0669 4.77713 12.1897 4.80362 12.3202 4.8093C12.4127 4.81333 12.4667 4.80245 12.572 4.78781C12.6774 4.77318 12.8141 4.75125 12.985 4.7219C13.3268 4.66319 13.8047 4.5745 14.421 4.45554C14.6358 4.41414 14.7678 4.25429 14.7678 4.03562V3.62534C14.7684 3.58393 14.7608 3.54282 14.7453 3.50439C14.7299 3.46596 14.707 3.43099 14.6779 3.40149C14.6488 3.372 14.6142 3.34859 14.5759 3.3326C14.5377 3.31662 14.4967 3.30839 14.4553 3.30839C14.4139 3.30839 14.3729 3.31662 14.3347 3.3326C14.2965 3.34859 14.2619 3.372 14.2328 3.40149C14.2037 3.43099 14.1808 3.46596 14.1653 3.50439C14.1499 3.54282 14.1422 3.58393 14.1428 3.62534V3.87155C13.6254 3.97071 13.1758 4.05498 12.8792 4.10593C12.7121 4.13462 12.58 4.15573 12.486 4.1688C12.3919 4.18187 12.3157 4.18353 12.3474 4.18491C12.3346 4.18435 12.3155 4.17769 12.2993 4.17551C12.3341 4.07641 12.3704 3.94714 12.4021 3.88523C12.4622 3.7679 12.5173 3.73544 12.4926 3.7468C12.5575 3.71808 12.6107 3.66811 12.6435 3.6051C12.6762 3.5421 12.6865 3.46982 12.6727 3.40017C12.6589 3.33052 12.6218 3.26765 12.5675 3.22191C12.5132 3.17617 12.4449 3.15029 12.3739 3.14853ZM9.65467 12.3055C9.59401 12.3087 9.53676 12.3193 9.47412 12.3299C9.34886 12.3513 9.216 12.3854 9.08606 12.4265C8.95612 12.4675 8.8305 12.515 8.72022 12.5676C8.60993 12.6202 8.51996 12.6442 8.41297 12.7925C8.29996 12.9489 8.25053 13.1122 8.19922 13.2934C8.17356 13.3841 8.15315 13.4721 8.14282 13.5602C8.13766 13.6042 8.13427 13.6475 8.13892 13.7021C8.14357 13.7567 8.14221 13.8343 8.23731 13.9358C8.32685 14.0313 8.35059 14.0212 8.39783 14.0429C8.44507 14.0646 8.49866 14.0854 8.56153 14.1062C8.68725 14.1477 8.84859 14.1887 9.03552 14.2153C9.4094 14.2686 9.88943 14.2673 10.3497 14.0553C10.3878 14.0386 10.4221 14.0145 10.4507 13.9844C10.4793 13.9543 10.5017 13.9188 10.5164 13.88C10.5312 13.8412 10.538 13.7998 10.5366 13.7583C10.5352 13.7168 10.5255 13.676 10.5081 13.6383C10.4907 13.6006 10.466 13.5667 10.4354 13.5386C10.4048 13.5106 10.3689 13.4889 10.3298 13.4749C10.2907 13.4608 10.2492 13.4547 10.2077 13.4569C10.1663 13.4591 10.1257 13.4696 10.0883 13.4876C9.78175 13.6288 9.41829 13.6385 9.12366 13.5965C8.98869 13.5773 8.87632 13.5473 8.78833 13.5197C8.79335 13.4987 8.79425 13.4863 8.80066 13.4636C8.83608 13.3385 8.9006 13.205 8.90955 13.1839C8.92479 13.1722 8.95367 13.1488 8.9895 13.1317C9.06337 13.0964 9.16748 13.0562 9.27429 13.0224C9.38111 12.9887 9.49202 12.9609 9.57898 12.9461C9.66595 12.9313 9.74269 12.9421 9.7013 12.9316C9.78508 12.9529 9.98353 13.0426 10.2424 13.2029C10.2773 13.2256 10.3164 13.2411 10.3574 13.2485C10.3984 13.2558 10.4404 13.255 10.481 13.2459C10.5217 13.2368 10.5601 13.2197 10.594 13.1956C10.6279 13.1714 10.6567 13.1408 10.6786 13.1054C10.7005 13.07 10.7152 13.0305 10.7216 12.9894C10.7281 12.9483 10.7263 12.9063 10.7163 12.8658C10.7063 12.8254 10.6883 12.7874 10.6634 12.754C10.6385 12.7207 10.6072 12.6926 10.5713 12.6715C10.287 12.4956 10.0665 12.3796 9.85535 12.3259C9.77937 12.3066 9.71532 12.3023 9.65467 12.3055Z" fill="#242429"/>
</svg>
