<svg width="24" height="24" viewBox="0 0 24 24" fill="none" xmlns="http://www.w3.org/2000/svg">
<path d="M10.399 17.5999C10.399 16.7194 11.119 15.999 11.999 15.999C12.879 15.999 13.599 16.7194 13.599 17.5999C13.599 18.4804 12.879 19.2008 11.999 19.2008C11.119 19.2008 10.399 18.4804 10.399 17.5999ZM21.3429 10.0277C21.6709 9.72352 21.6869 9.21924 21.3829 8.89906C18.9669 6.29761 15.543 4.80078 11.999 4.80078C8.45498 4.80078 5.03099 6.28961 2.615 8.89105C2.31101 9.21924 2.33501 9.72352 2.655 10.0197C2.975 10.3238 3.487 10.2998 3.783 9.97966C5.89499 7.69839 8.88698 6.39367 11.999 6.39367C15.111 6.39367 18.0949 7.69839 20.2149 9.97966C20.3749 10.1478 20.5829 10.2358 20.7989 10.2358C20.9909 10.2358 21.1909 10.1638 21.3429 10.0197V10.0277ZM17.3349 13.8778C17.6629 13.5737 17.6789 13.0694 17.3749 12.7492C15.9909 11.2524 14.031 10.3959 11.999 10.3959C9.96697 10.3959 8.00698 11.2524 6.62299 12.7492C6.31899 13.0694 6.34299 13.5817 6.66299 13.8778C6.98299 14.182 7.49498 14.158 7.79098 13.8378C8.87098 12.6692 10.407 12.0048 11.999 12.0048C13.591 12.0048 15.119 12.6772 16.2069 13.8378C16.3669 14.0059 16.5749 14.0939 16.7909 14.0939C16.9829 14.0939 17.1829 14.0219 17.3349 13.8778Z" fill="#7E7E89"/>
</svg>
