<svg width="70" height="70" viewBox="0 0 70 70" fill="none" xmlns="http://www.w3.org/2000/svg">
<path fill-rule="evenodd" clip-rule="evenodd" d="M35.7393 26.9247H24.2714C24.2724 26.8635 24.2681 26.8022 24.2582 26.7399C24.2101 26.4315 24.186 26.1274 24.1871 25.8277C24.1904 25.224 23.7026 24.7318 23.0989 24.7296C22.4951 24.7274 22.0029 25.2152 21.9996 25.819C21.9985 26.1821 22.0226 26.5518 22.074 26.9247H16.1776C15.307 26.9247 14.4724 27.2704 13.8567 27.8861C13.242 28.5008 12.8964 29.3354 12.8964 30.206V31.7022C12.0957 32.0271 11.375 32.5411 10.8007 33.2127C9.76167 34.4268 9.30558 36.0335 9.55167 37.6129C10.6651 44.7343 12.6689 57.5607 13.6532 63.8628C14.0699 66.525 16.3624 68.4872 19.0574 68.4872H50.9424C53.6374 68.4872 55.9299 66.525 56.3466 63.8628C57.1341 58.8207 58.5735 49.6036 59.688 42.4724C59.781 41.8763 59.3731 41.3163 58.777 41.2233C58.1798 41.1304 57.6198 41.5383 57.5268 42.1355C56.4123 49.2668 54.9729 58.4827 54.1854 63.5249C53.9349 65.1218 52.5601 66.2997 50.9424 66.2997C43.4251 66.2997 26.5748 66.2997 19.0574 66.2997C17.4398 66.2997 16.0649 65.1218 15.8145 63.5249C14.8301 57.2227 12.8264 44.3963 11.7129 37.2749C11.5653 36.3277 11.8387 35.363 12.4621 34.6346C13.0856 33.9061 13.9967 33.4872 14.9559 33.4872H55.044C56.0032 33.4872 56.9143 33.9061 57.5377 34.6346C58.1612 35.363 58.4346 36.3277 58.287 37.2749C58.1929 37.871 58.602 38.431 59.1981 38.5239C59.7941 38.618 60.3541 38.209 60.4482 37.6129C60.6943 36.0335 60.2382 34.4268 59.1991 33.2127C58.5166 32.4154 57.6285 31.84 56.6463 31.5393V25.9174C56.6463 25.0479 56.3007 24.2133 55.6849 23.5976C55.0691 22.9829 54.2346 22.6361 53.3651 22.6361C49.4484 22.6361 42.9963 22.6361 39.5423 22.6361C38.1346 22.6361 36.8845 23.5341 36.4338 24.8674L35.7393 26.9247ZM25.4056 22.5476C25.621 22.296 25.8617 22.0586 26.1285 21.8388C26.5934 21.4538 26.659 20.7636 26.274 20.2988C25.889 19.834 25.1988 19.7683 24.734 20.1533C24.3676 20.4563 24.0362 20.7822 23.7409 21.129C23.3493 21.5883 23.4051 22.2796 23.8645 22.6711C24.3239 23.0627 25.0151 23.0069 25.4056 22.5476ZM29.5279 20.2605C29.9709 20.161 30.4368 20.0855 30.9246 20.0374C31.5251 19.9772 31.9648 19.4413 31.9046 18.8397C31.8445 18.2393 31.3085 17.8007 30.707 17.8608C30.1273 17.9188 29.5749 18.0074 29.0488 18.1255C28.4604 18.2579 28.0896 18.8441 28.222 19.4326C28.3532 20.0221 28.9395 20.3929 29.5279 20.2605ZM35.1279 20.033C35.794 20.0494 36.4284 20.0451 37.031 20.0188C37.6348 19.9936 38.104 19.484 38.0788 18.8813C38.0537 18.2776 37.5429 17.8083 36.9403 17.8335C36.3835 17.8565 35.7984 17.8619 35.1826 17.8455C34.5799 17.8313 34.0768 18.3082 34.0615 18.9119C34.0473 19.5157 34.5242 20.0177 35.1279 20.033ZM41.5504 19.3341C42.257 19.1296 42.8924 18.8857 43.4634 18.6111C44.0081 18.3497 44.2378 17.6957 43.9763 17.1521C43.7149 16.6074 43.0609 16.3777 42.5173 16.6391C42.047 16.8655 41.522 17.0646 40.9412 17.233C40.3615 17.4015 40.0268 18.0096 40.1953 18.5893C40.3637 19.169 40.9707 19.5026 41.5504 19.3341ZM46.7512 15.926C47.274 15.1801 47.6152 14.3849 47.8034 13.5799C47.9401 12.9926 47.5748 12.4041 46.9874 12.2663C46.399 12.1285 45.8106 12.4949 45.6727 13.0822C45.5459 13.6269 45.314 14.1651 44.9596 14.6704C44.6129 15.1647 44.7332 15.8472 45.2276 16.194C45.722 16.5396 46.4045 16.4204 46.7512 15.926ZM33.4184 5.73006C34.0998 2.53959 36.8713 1.04771 38.7909 1.10021C40.706 1.15271 41.7724 2.74631 39.0599 5.73006H40.5977C41.2015 5.73006 41.6915 6.22006 41.6915 6.82381C41.6915 7.42756 41.2015 7.91756 40.5977 7.91756H39.0796C41.7681 10.8871 40.7017 12.4719 38.7909 12.5244C36.8757 12.5769 34.1118 11.0916 33.4238 7.91756H33.2751C32.6713 7.91756 32.1813 7.42756 32.1813 6.82381C32.1813 6.22006 32.6713 5.73006 33.2751 5.73006H33.4184ZM47.3998 9.19287C46.9142 8.06302 46.1562 7.11146 45.2538 6.48912C44.7573 6.14678 44.0759 6.27146 43.7324 6.76912C43.3901 7.26568 43.5148 7.94709 44.0124 8.29052C44.5976 8.69412 45.0745 9.32302 45.3895 10.0558C45.6279 10.6104 46.271 10.8674 46.8256 10.6301C47.3812 10.3916 47.6382 9.7474 47.3998 9.19287Z" fill="#A2A2AC"/>
<path d="M33.4522 49.8715L29.5852 46.0045C29.3661 45.7854 29.2565 45.5276 29.2565 45.2311C29.2565 44.9347 29.3661 44.6769 29.5852 44.4577C29.8044 44.2386 30.0622 44.129 30.3586 44.129C30.6551 44.129 30.9129 44.2386 31.132 44.4577L34.999 48.3247L38.866 44.4577C39.0851 44.2386 39.3429 44.129 39.6394 44.129C39.9359 44.129 40.1937 44.2386 40.4128 44.4577C40.6319 44.6769 40.7415 44.9347 40.7415 45.2311C40.7415 45.5276 40.6319 45.7854 40.4128 46.0045L36.5458 49.8715L40.4128 53.7385C40.6319 53.9576 40.7415 54.2154 40.7415 54.5119C40.7415 54.8084 40.6319 55.0662 40.4128 55.2853C40.1937 55.5044 39.9359 55.614 39.6394 55.614C39.3429 55.614 39.0851 55.5044 38.866 55.2853L34.999 51.4183L31.132 55.2853C30.9129 55.5044 30.6551 55.614 30.3586 55.614C30.0622 55.614 29.8044 55.5044 29.5852 55.2853C29.3661 55.0662 29.2565 54.8084 29.2565 54.5119C29.2565 54.2154 29.3661 53.9576 29.5852 53.7385L33.4522 49.8715Z" fill="#A2A2AC"/>
</svg>
