<svg width="33" height="27" viewBox="0 0 33 27" fill="none" xmlns="http://www.w3.org/2000/svg">
<path d="M31.5078 25.5V25.25H31.2578H1.25781H1.00781V25.5V26.5V26.75H1.25781H31.2578H31.5078V26.5V25.5Z" fill="#6C1CFF" stroke="#6C1CFF" stroke-width="0.5"/>
<path d="M14.941 21.8565H15.191V21.6065V10.0465V9.90864L15.0744 9.83508L1.52793 1.28856L1.14453 1.04668V1.5V21.6065V21.8565H1.39453H3.03281H3.28281V21.6065V5.06987L13.0528 11.2339V21.6065V21.8565H13.3028H14.941Z" fill="#6C1CFF" stroke="#6C1CFF" stroke-width="0.5"/>
<path d="M31.7422 21.8565H31.9922V21.6065V1.5V1.04669L31.6088 1.28856L18.0619 9.83508L17.9453 9.90864V10.0465V21.6065V21.8565H18.1953H19.8336H20.0836V21.6065V11.2339L29.8539 5.06986V21.6065V21.8565H30.1039H31.7422Z" fill="#6C1CFF" stroke="#6C1CFF" stroke-width="0.5"/>
</svg>
