<svg width="30" height="30" viewBox="0 0 30 30" fill="none" xmlns="http://www.w3.org/2000/svg">
<path d="M27.5 26.5625H2.5C1.9875 26.5625 1.5625 26.9875 1.5625 27.5C1.5625 28.0125 1.9875 28.4375 2.5 28.4375H27.5C28.0125 28.4375 28.4375 28.0125 28.4375 27.5C28.4375 26.9875 28.0125 26.5625 27.5 26.5625Z" fill="#44A1ED"/>
<path d="M21.25 2.5H8.75C5 2.5 3.75 4.7375 3.75 7.5V27.5H11.25V19.925C11.25 19.275 11.775 18.75 12.425 18.75H17.5875C18.225 18.75 18.7625 19.275 18.7625 19.925V27.5H26.2625V7.5C26.25 4.7375 25 2.5 21.25 2.5ZM18.125 11.5625H15.9375V13.75C15.9375 14.2625 15.5125 14.6875 15 14.6875C14.4875 14.6875 14.0625 14.2625 14.0625 13.75V11.5625H11.875C11.3625 11.5625 10.9375 11.1375 10.9375 10.625C10.9375 10.1125 11.3625 9.6875 11.875 9.6875H14.0625V7.5C14.0625 6.9875 14.4875 6.5625 15 6.5625C15.5125 6.5625 15.9375 6.9875 15.9375 7.5V9.6875H18.125C18.6375 9.6875 19.0625 10.1125 19.0625 10.625C19.0625 11.1375 18.6375 11.5625 18.125 11.5625Z" fill="#44A1ED"/>
</svg>
