<svg width="111" height="35" viewBox="0 0 111 35" fill="none" xmlns="http://www.w3.org/2000/svg">
<path d="M41.7485 15.7082L39.3607 21.952H47.3631L45.0237 15.7082C44.8946 15.3694 44.3783 13.9335 43.4749 11.3682H43.2651L41.7485 15.7082ZM32.3909 30.3093L41.3452 8.28669H45.427L54.3813 30.3093H50.4931L48.2989 24.5657H38.4411L36.2792 30.3093H32.3909ZM57.881 16.9828H55.0092V14.3207H57.881V9.46445H61.3337V14.3207H65.6091V16.9828H61.3337V25.324C61.3337 26.9858 62.092 27.6472 63.5924 27.6472H65.6091V30.3093H63.1407C59.6396 30.3093 57.881 28.7121 57.881 25.5337V16.9828ZM72.6583 30.3093H69.1734V7.5284H72.6583V30.3093ZM79.6268 25.9532C79.6268 27.2439 80.8369 28.1958 82.8213 28.1958C85.5318 28.1958 87.7099 26.4856 87.7099 23.9526V22.2263C86.7257 22.436 85.4511 22.6458 83.8539 22.8716C81.0143 23.3073 79.6268 24.2269 79.6268 25.9532ZM76.0613 26.1952C76.0613 23.2105 78.5781 21.3712 83.628 20.6613C85.7093 20.387 87.0645 20.145 87.7099 19.9676V19.0802C87.7099 17.3539 86.2094 16.3052 83.9023 16.3052C81.8533 16.3052 80.127 17.0473 78.7072 18.5478L76.5453 16.9021C78.3523 14.9661 81.0143 13.8206 83.8378 13.8206C88.7263 13.8206 91.1625 15.9664 91.1625 20.2741V30.3093H87.7744V28.099C87.0807 29.5833 84.9187 30.8256 82.3373 30.8256C78.4491 30.8256 76.0613 28.9218 76.0613 26.1952ZM97.1146 25.7112C98.3892 27.4214 100.035 28.2765 102.068 28.2765C104.197 28.2765 105.633 27.4214 105.633 26.1307C105.633 25.3078 104.939 24.6302 103.552 24.0817C103.116 23.9042 102.1 23.5977 100.519 23.1621C99.099 22.7264 98.1149 22.3715 97.0016 21.6293C95.8884 20.8872 95.2592 19.7901 95.2592 18.4187C95.2592 15.6437 98.1149 13.8206 102.116 13.8206C105.02 13.8206 107.747 15.3856 108.989 17.4507L106.666 18.7253C105.472 17.1603 103.955 16.3697 102.116 16.3697C99.938 16.3697 98.7764 17.2248 98.7764 18.4671C98.7764 19.1286 99.2926 19.7417 99.7444 20.0644C99.9541 20.2418 100.341 20.4193 100.874 20.629C101.939 21.0324 102.164 21.0808 103.455 21.4196C107.279 22.4844 109.183 24.0655 109.183 26.1629C109.183 28.7927 106.569 30.8256 102.132 30.8256C98.8248 30.8256 96.0336 29.3574 94.5977 27.0342L97.1146 25.7112Z" fill="#1F1F29"/>
<g clip-path="url(#clip0_761_5959)">
<path fill-rule="evenodd" clip-rule="evenodd" d="M24.4906 25.246L21.3647 28.3718L16.5665 23.5737L19.6924 20.4478C20.7497 19.3896 21.4696 18.0418 21.761 16.5745C22.0524 15.1073 21.9022 13.5866 21.3295 12.2047C20.7568 10.8228 19.7872 9.64178 18.5434 8.81083C17.2995 7.97989 15.8372 7.53639 14.3413 7.53639C12.8455 7.53639 11.3832 7.97989 10.1393 8.81083C8.89545 9.64178 7.92587 10.8228 7.35315 12.2047C6.78043 13.5866 6.63028 15.1073 6.92167 16.5745C7.21307 18.0418 7.93293 19.3896 8.99026 20.4478L12.1747 23.6323L7.37653 28.4304L4.19207 25.246C2.18673 23.2374 0.821799 20.6795 0.269761 17.8954C-0.282276 15.1114 0.00335749 12.2261 1.09057 9.60435C2.17778 6.98258 4.01777 4.74192 6.37802 3.16554C8.73827 1.58916 11.5128 0.747803 14.3511 0.747803C17.1894 0.747803 19.9639 1.58916 22.3242 3.16554C24.6844 4.74192 26.5244 6.98258 27.6116 9.60435C28.6988 12.2261 28.9845 15.1114 28.4324 17.8954C27.8804 20.6795 26.5155 23.2374 24.5101 25.246H24.4906Z" fill="url(#paint0_linear_761_5959)"/>
<path d="M15.1212 26.579V18.1431C15.8972 17.9522 16.5765 17.4836 17.0307 16.826C17.4849 16.1684 17.6825 15.3673 17.5863 14.5739C17.4902 13.7805 17.1068 13.0497 16.5086 12.5197C15.9104 11.9897 15.1389 11.697 14.3397 11.697C13.5405 11.697 12.7689 11.9897 12.1708 12.5197C11.5726 13.0497 11.1892 13.7805 11.093 14.5739C10.9969 15.3673 11.1945 16.1684 11.6487 16.826C12.1029 17.4836 12.7822 17.9522 13.5582 18.1431V26.579L9.5415 30.5997L13.1362 34.1983C13.4566 34.5152 13.8891 34.6929 14.3397 34.6929C14.7903 34.6929 15.2228 34.5152 15.5431 34.1983L19.1418 30.5997L15.1212 26.579Z" fill="url(#paint1_linear_761_5959)"/>
</g>
<defs>
<linearGradient id="paint0_linear_761_5959" x1="14.3511" y1="0.747803" x2="14.3511" y2="28.4304" gradientUnits="userSpaceOnUse">
<stop stop-color="#4130FF"/>
<stop offset="0.53" stop-color="#FF2D9D"/>
<stop offset="1" stop-color="#FF8F98"/>
</linearGradient>
<linearGradient id="paint1_linear_761_5959" x1="14.2883" y1="4.55093" x2="14.3416" y2="34.6929" gradientUnits="userSpaceOnUse">
<stop stop-color="#4130FF"/>
<stop offset="0.53" stop-color="#FF2D9D"/>
<stop offset="1" stop-color="#FF8F98"/>
</linearGradient>
<clipPath id="clip0_761_5959">
<rect width="28.6758" height="33.9351" fill="white" transform="translate(0 0.755615)"/>
</clipPath>
</defs>
</svg>
