<svg width="97" height="28" viewBox="0 0 97 28" fill="none" xmlns="http://www.w3.org/2000/svg">
<path d="M31.5082 25.5V25.25H31.2582H1.25818H1.00818V25.5V26.5V26.75H1.25818H31.2582H31.5082V26.5V25.5Z" fill="#6C1CFF" stroke="#6C1CFF" stroke-width="0.5"/>
<path d="M14.9421 21.8565H15.1921V21.6065V10.0465V9.90864L15.0755 9.83508L1.52903 1.28856L1.14563 1.04668V1.5V21.6065V21.8565H1.39563H3.03391H3.28391V21.6065V5.06987L13.0539 11.2339V21.6065V21.8565H13.3039H14.9421Z" fill="#6C1CFF" stroke="#6C1CFF" stroke-width="0.5"/>
<path d="M31.7417 21.8565H31.9917V21.6065V1.5V1.04669L31.6083 1.28856L18.0614 9.83508L17.9448 9.90864V10.0465V21.6065V21.8565H18.1948H19.8331H20.0831V21.6065V11.2339L29.8535 5.06986V21.6065V21.8565H30.1035H31.7417Z" fill="#6C1CFF" stroke="#6C1CFF" stroke-width="0.5"/>
<path d="M42.3178 23L49.2298 6.2H51.1498L58.0138 23H55.0378L49.6618 9.392H50.6698L45.2458 23H42.3178ZM45.7258 19.76V17.36H54.6298V19.76H45.7258ZM60.8484 23V6.68H63.4884V23H60.8484ZM58.0884 13.88V11.48H66.2484V13.88H58.0884ZM68.1668 23V5.72H70.8068V23H68.1668ZM78.5689 23.24C77.5289 23.24 76.5849 22.976 75.7369 22.448C74.9049 21.92 74.2409 21.208 73.7449 20.312C73.2649 19.4 73.0249 18.384 73.0249 17.264C73.0249 16.128 73.2649 15.112 73.7449 14.216C74.2409 13.304 74.9049 12.584 75.7369 12.056C76.5849 11.512 77.5289 11.24 78.5689 11.24C79.4489 11.24 80.2249 11.432 80.8969 11.816C81.5849 12.184 82.1289 12.696 82.5289 13.352C82.9289 14.008 83.1289 14.752 83.1289 15.584V18.896C83.1289 19.728 82.9289 20.472 82.5289 21.128C82.1449 21.784 81.6089 22.304 80.9209 22.688C80.2329 23.056 79.4489 23.24 78.5689 23.24ZM79.0009 20.744C79.9769 20.744 80.7609 20.416 81.3529 19.76C81.9609 19.104 82.2649 18.264 82.2649 17.24C82.2649 16.552 82.1289 15.944 81.8569 15.416C81.5849 14.888 81.2009 14.48 80.7049 14.192C80.2249 13.888 79.6569 13.736 79.0009 13.736C78.3609 13.736 77.7929 13.888 77.2969 14.192C76.8169 14.48 76.4329 14.888 76.1449 15.416C75.8729 15.944 75.7369 16.552 75.7369 17.24C75.7369 17.928 75.8729 18.536 76.1449 19.064C76.4329 19.592 76.8169 20.008 77.2969 20.312C77.7929 20.6 78.3609 20.744 79.0009 20.744ZM82.0969 23V19.904L82.5529 17.096L82.0969 14.312V11.48H84.7369V23H82.0969ZM91.4348 23.24C90.7948 23.24 90.1788 23.16 89.5868 23C88.9948 22.824 88.4508 22.584 87.9548 22.28C87.4588 21.96 87.0268 21.576 86.6588 21.128L88.3388 19.448C88.7388 19.912 89.1948 20.264 89.7068 20.504C90.2348 20.728 90.8268 20.84 91.4828 20.84C92.0748 20.84 92.5228 20.752 92.8268 20.576C93.1308 20.4 93.2828 20.144 93.2828 19.808C93.2828 19.456 93.1388 19.184 92.8508 18.992C92.5628 18.8 92.1868 18.64 91.7228 18.512C91.2748 18.368 90.7948 18.224 90.2828 18.08C89.7868 17.936 89.3068 17.744 88.8428 17.504C88.3948 17.248 88.0268 16.904 87.7388 16.472C87.4508 16.04 87.3068 15.48 87.3068 14.792C87.3068 14.056 87.4748 13.424 87.8108 12.896C88.1628 12.368 88.6508 11.96 89.2748 11.672C89.9148 11.384 90.6748 11.24 91.5548 11.24C92.4828 11.24 93.2988 11.408 94.0028 11.744C94.7228 12.064 95.3228 12.552 95.8028 13.208L94.1228 14.888C93.7868 14.472 93.4028 14.16 92.9708 13.952C92.5388 13.744 92.0428 13.64 91.4828 13.64C90.9548 13.64 90.5468 13.72 90.2588 13.88C89.9708 14.04 89.8268 14.272 89.8268 14.576C89.8268 14.896 89.9708 15.144 90.2588 15.32C90.5468 15.496 90.9148 15.648 91.3628 15.776C91.8268 15.904 92.3068 16.048 92.8028 16.208C93.3148 16.352 93.7948 16.56 94.2428 16.832C94.7068 17.088 95.0828 17.44 95.3708 17.888C95.6588 18.32 95.8028 18.888 95.8028 19.592C95.8028 20.712 95.4108 21.6 94.6268 22.256C93.8428 22.912 92.7788 23.24 91.4348 23.24Z" fill="white"/>
</svg>
