<svg width="150" height="35" viewBox="0 0 150 35" fill="none" xmlns="http://www.w3.org/2000/svg">
<path d="M39.1843 31.6904V31.3784H38.8723H1H0.687972V31.6904V32.9244V33.2364H1H38.8723H39.1843V32.9244V31.6904Z" fill="#2469D0" stroke="#2469D0" stroke-width="0.624056"/>
<path d="M18.2749 27.1979H18.587V26.8859V12.6212V12.447L18.4387 12.3556L1.33749 1.80937L0.861678 1.51593V2.07495V26.8859V27.1979H1.17371H3.24188H3.55391V26.8859V6.47972L15.8947 14.0904V26.8859V27.1979H16.2068H18.2749Z" fill="white" stroke="white" stroke-width="0.624056"/>
<path d="M39.4827 27.1979H39.7947V26.8859V2.07495V1.51594L39.3189 1.80936L22.2172 12.3556L22.069 12.447V12.6212V26.8859V27.1979H22.381H24.4492H24.7612V26.8859V14.0905L37.1025 6.47971V26.8859V27.1979H37.4145H39.4827Z" fill="white" stroke="white" stroke-width="0.624056"/>
<path d="M53.3798 27V9.52642H56.2505V27H53.3798ZM64.488 27V9.52642H67.3587V27H64.488ZM55.3518 19.2617V16.6407H65.1121V19.2617H55.3518ZM79.1887 27.2496C77.9405 27.2496 76.7756 27.0166 75.6939 26.5507C74.6122 26.0847 73.6637 25.444 72.8482 24.6286C72.0328 23.7965 71.3921 22.8396 70.9262 21.7579C70.4768 20.6596 70.2522 19.4864 70.2522 18.2382C70.2522 16.9901 70.4768 15.8252 70.9262 14.7435C71.3921 13.6618 72.0245 12.7133 72.8233 11.8978C73.6387 11.0658 74.579 10.4251 75.644 9.97574C76.7257 9.50978 77.8906 9.27679 79.1387 9.27679C80.3868 9.27679 81.5434 9.50978 82.6085 9.97574C83.6902 10.4251 84.6388 11.0658 85.4542 11.8978C86.2696 12.7133 86.902 13.6702 87.3513 14.7685C87.8173 15.8502 88.0503 17.0151 88.0503 18.2632C88.0503 19.5113 87.8173 20.6845 87.3513 21.7829C86.902 22.8646 86.2696 23.8132 85.4542 24.6286C84.6554 25.444 83.7151 26.0847 82.6335 26.5507C81.5684 27.0166 80.4201 27.2496 79.1887 27.2496ZM79.1387 24.5038C80.3203 24.5038 81.3521 24.2375 82.2341 23.705C83.1327 23.1725 83.8316 22.4402 84.3309 21.5083C84.8468 20.5597 85.1047 19.4697 85.1047 18.2382C85.1047 17.323 84.9549 16.4909 84.6554 15.742C84.3725 14.9765 83.9648 14.3192 83.4322 13.77C82.8997 13.2042 82.2673 12.7715 81.5351 12.472C80.8195 12.1724 80.0207 12.0226 79.1387 12.0226C77.9738 12.0226 76.9421 12.2889 76.0434 12.8214C75.1614 13.3373 74.4625 14.0612 73.9466 14.9932C73.4473 15.9251 73.1977 17.0068 73.1977 18.2382C73.1977 19.1535 73.3392 20.0022 73.6221 20.7844C73.9216 21.5499 74.3293 22.2072 74.8452 22.7564C75.3778 23.3056 76.0101 23.7383 76.7424 24.0545C77.4746 24.354 78.2734 24.5038 79.1387 24.5038ZM94.1927 27V10.0257H97.0634V27H94.1927ZM88.5013 12.1475V9.52642H102.755V12.1475H88.5013ZM105.255 27V9.52642H108.125V27H105.255ZM107.227 27V24.379H117.012V27H107.227ZM107.227 19.3366V16.8154H116.163V19.3366H107.227ZM107.227 12.1475V9.52642H116.887V12.1475H107.227ZM119.978 27V9.52642H122.849V27H119.978ZM121.95 27V24.379H131.087V27H121.95Z" fill="white"/>
<path d="M145.285 27L140.143 19.2118H139.619L132.704 9.52642H136.099L141.266 16.8653H141.79L148.63 27H145.285ZM132.405 27L139.045 17.6641L141.017 19.3366L135.625 27H132.405ZM141.99 18.6376L140.018 16.9652L145.11 9.52642H148.331L141.99 18.6376Z" fill="#124797"/>
</svg>
