<svg width="97" height="28" viewBox="0 0 97 28" fill="none" xmlns="http://www.w3.org/2000/svg">
<path d="M31.5078 25.5V25.25H31.2578H1.25781H1.00781V25.5V26.5V26.75H1.25781H31.2578H31.5078V26.5V25.5Z" fill="#6C1CFF" stroke="#6C1CFF" stroke-width="0.5"/>
<path d="M14.941 21.8565H15.191V21.6065V10.0465V9.90864L15.0744 9.83508L1.52793 1.28856L1.14453 1.04668V1.5V21.6065V21.8565H1.39453H3.03281H3.28281V21.6065V5.06987L13.0528 11.2339V21.6065V21.8565H13.3028H14.941Z" fill="#6C1CFF" stroke="#6C1CFF" stroke-width="0.5"/>
<path d="M31.7422 21.8565H31.9922V21.6065V1.5V1.04669L31.6088 1.28856L18.0619 9.83508L17.9453 9.90864V10.0465V21.6065V21.8565H18.1953H19.8336H20.0836V21.6065V11.2339L29.8539 5.06986V21.6065V21.8565H30.1039H31.7422Z" fill="#6C1CFF" stroke="#6C1CFF" stroke-width="0.5"/>
<path d="M42.3182 23L49.2302 6.2H51.1502L58.0142 23H55.0382L49.6622 9.392H50.6702L45.2462 23H42.3182ZM45.7262 19.76V17.36H54.6302V19.76H45.7262ZM60.8488 23V6.68H63.4888V23H60.8488ZM58.0888 13.88V11.48H66.2488V13.88H58.0888ZM68.1671 23V5.72H70.8071V23H68.1671ZM78.5693 23.24C77.5293 23.24 76.5853 22.976 75.7373 22.448C74.9053 21.92 74.2413 21.208 73.7453 20.312C73.2653 19.4 73.0253 18.384 73.0253 17.264C73.0253 16.128 73.2653 15.112 73.7453 14.216C74.2413 13.304 74.9053 12.584 75.7373 12.056C76.5853 11.512 77.5293 11.24 78.5693 11.24C79.4493 11.24 80.2253 11.432 80.8973 11.816C81.5853 12.184 82.1293 12.696 82.5293 13.352C82.9293 14.008 83.1293 14.752 83.1293 15.584V18.896C83.1293 19.728 82.9293 20.472 82.5293 21.128C82.1453 21.784 81.6093 22.304 80.9213 22.688C80.2333 23.056 79.4493 23.24 78.5693 23.24ZM79.0013 20.744C79.9773 20.744 80.7613 20.416 81.3533 19.76C81.9613 19.104 82.2653 18.264 82.2653 17.24C82.2653 16.552 82.1293 15.944 81.8573 15.416C81.5853 14.888 81.2013 14.48 80.7053 14.192C80.2253 13.888 79.6573 13.736 79.0013 13.736C78.3613 13.736 77.7933 13.888 77.2973 14.192C76.8173 14.48 76.4333 14.888 76.1453 15.416C75.8733 15.944 75.7373 16.552 75.7373 17.24C75.7373 17.928 75.8733 18.536 76.1453 19.064C76.4333 19.592 76.8173 20.008 77.2973 20.312C77.7933 20.6 78.3613 20.744 79.0013 20.744ZM82.0973 23V19.904L82.5533 17.096L82.0973 14.312V11.48H84.7373V23H82.0973ZM91.4351 23.24C90.7951 23.24 90.1791 23.16 89.5871 23C88.9951 22.824 88.4511 22.584 87.9551 22.28C87.4591 21.96 87.0271 21.576 86.6591 21.128L88.3391 19.448C88.7391 19.912 89.1951 20.264 89.7071 20.504C90.2351 20.728 90.8271 20.84 91.4831 20.84C92.0751 20.84 92.5231 20.752 92.8271 20.576C93.1311 20.4 93.2831 20.144 93.2831 19.808C93.2831 19.456 93.1391 19.184 92.8511 18.992C92.5631 18.8 92.1871 18.64 91.7231 18.512C91.2751 18.368 90.7951 18.224 90.2831 18.08C89.7871 17.936 89.3071 17.744 88.8431 17.504C88.3951 17.248 88.0271 16.904 87.7391 16.472C87.4511 16.04 87.3071 15.48 87.3071 14.792C87.3071 14.056 87.4751 13.424 87.8111 12.896C88.1631 12.368 88.6511 11.96 89.2751 11.672C89.9151 11.384 90.6751 11.24 91.5551 11.24C92.4831 11.24 93.2991 11.408 94.0031 11.744C94.7231 12.064 95.3231 12.552 95.8031 13.208L94.1231 14.888C93.7871 14.472 93.4031 14.16 92.9711 13.952C92.5391 13.744 92.0431 13.64 91.4831 13.64C90.9551 13.64 90.5471 13.72 90.2591 13.88C89.9711 14.04 89.8271 14.272 89.8271 14.576C89.8271 14.896 89.9711 15.144 90.2591 15.32C90.5471 15.496 90.9151 15.648 91.3631 15.776C91.8271 15.904 92.3071 16.048 92.8031 16.208C93.3151 16.352 93.7951 16.56 94.2431 16.832C94.7071 17.088 95.0831 17.44 95.3711 17.888C95.6591 18.32 95.8031 18.888 95.8031 19.592C95.8031 20.712 95.4111 21.6 94.6271 22.256C93.8431 22.912 92.7791 23.24 91.4351 23.24Z" fill="#242429"/>
</svg>
