<svg width="121" height="28" viewBox="0 0 121 28" fill="none" xmlns="http://www.w3.org/2000/svg">
<path d="M31.25 25.5V25.25H31H1H0.75V25.5V26.5V26.75H1H31H31.25V26.5V25.5Z" fill="#2469D0" stroke="#2469D0" stroke-width="0.5"/>
<path d="M14.684 21.8565H14.934V21.6065V10.0465V9.90864L14.8173 9.83508L1.27085 1.28856L0.887451 1.04668V1.5V21.6065V21.8565H1.13745H2.77573H3.02573V21.6065V5.06987L12.7957 11.2339V21.6065V21.8565H13.0457H14.684Z" fill="#124797" stroke="#124797" stroke-width="0.5"/>
<path d="M31.4836 21.8565H31.7336V21.6065V1.5V1.04669L31.3502 1.28856L17.8033 9.83508L17.6866 9.90864V10.0465V21.6065V21.8565H17.9366H19.5749H19.8249V21.6065V11.2339L29.5953 5.06986V21.6065V21.8565H29.8453H31.4836Z" fill="#124797" stroke="#124797" stroke-width="0.5"/>
<path d="M43.0036 21V7H45.3036V21H43.0036ZM51.9036 21V7H54.2036V21H51.9036ZM44.5836 14.8V12.7H52.4036V14.8H44.5836ZM63.6818 21.2C62.6818 21.2 61.7485 21.0133 60.8818 20.64C60.0152 20.2667 59.2552 19.7533 58.6018 19.1C57.9485 18.4333 57.4352 17.6667 57.0618 16.8C56.7018 15.92 56.5218 14.98 56.5218 13.98C56.5218 12.98 56.7018 12.0467 57.0618 11.18C57.4352 10.3133 57.9418 9.55333 58.5818 8.9C59.2352 8.23333 59.9885 7.72 60.8418 7.36C61.7085 6.98667 62.6418 6.8 63.6418 6.8C64.6418 6.8 65.5685 6.98667 66.4218 7.36C67.2885 7.72 68.0485 8.23333 68.7018 8.9C69.3552 9.55333 69.8618 10.32 70.2218 11.2C70.5952 12.0667 70.7818 13 70.7818 14C70.7818 15 70.5952 15.94 70.2218 16.82C69.8618 17.6867 69.3552 18.4467 68.7018 19.1C68.0618 19.7533 67.3085 20.2667 66.4418 20.64C65.5885 21.0133 64.6685 21.2 63.6818 21.2ZM63.6418 19C64.5885 19 65.4152 18.7867 66.1218 18.36C66.8418 17.9333 67.4018 17.3467 67.8018 16.6C68.2152 15.84 68.4218 14.9667 68.4218 13.98C68.4218 13.2467 68.3018 12.58 68.0618 11.98C67.8352 11.3667 67.5085 10.84 67.0818 10.4C66.6552 9.94667 66.1485 9.6 65.5618 9.36C64.9885 9.12 64.3485 9 63.6418 9C62.7085 9 61.8818 9.21333 61.1618 9.64C60.4552 10.0533 59.8952 10.6333 59.4818 11.38C59.0818 12.1267 58.8818 12.9933 58.8818 13.98C58.8818 14.7133 58.9952 15.3933 59.2218 16.02C59.4618 16.6333 59.7885 17.16 60.2018 17.6C60.6285 18.04 61.1352 18.3867 61.7218 18.64C62.3085 18.88 62.9485 19 63.6418 19ZM75.7032 21V7.4H78.0032V21H75.7032ZM71.1432 9.1V7H82.5632V9.1H71.1432ZM84.5661 21V7H86.8661V21H84.5661ZM86.1461 21V18.9H93.9861V21H86.1461ZM86.1461 14.86V12.84H93.3061V14.86H86.1461ZM86.1461 9.1V7H93.8861V9.1H86.1461ZM96.3629 21V7H98.6629V21H96.3629ZM97.9429 21V18.9H105.263V21H97.9429Z" fill="#061A18"/>
<path d="M116.639 21L112.519 14.76H112.099L106.559 7H109.279L113.419 12.88H113.839L119.319 21H116.639ZM106.319 21L111.639 13.52L113.219 14.86L108.899 21H106.319ZM113.999 14.3L112.419 12.96L116.499 7H119.079L113.999 14.3Z" fill="#124797"/>
</svg>
