<svg width="30" height="30" viewBox="0 0 30 30" fill="none" xmlns="http://www.w3.org/2000/svg">
<path d="M13.4374 5.80044L7.8999 3.06294C4.9124 1.60044 2.4624 3.08794 2.4624 6.36294V24.9129C2.4624 26.3379 3.6499 27.5004 5.0999 27.5004H14.3749C15.0624 27.5004 15.6249 26.9379 15.6249 26.2504V9.26294C15.6249 7.95044 14.6374 6.38794 13.4374 5.80044ZM11.2124 17.1879H6.8749C6.3624 17.1879 5.9374 16.7629 5.9374 16.2504C5.9374 15.7379 6.3624 15.3129 6.8749 15.3129H11.2124C11.7249 15.3129 12.1499 15.7379 12.1499 16.2504C12.1499 16.7629 11.7374 17.1879 11.2124 17.1879ZM11.2124 12.1879H6.8749C6.3624 12.1879 5.9374 11.7629 5.9374 11.2504C5.9374 10.7379 6.3624 10.3129 6.8749 10.3129H11.2124C11.7249 10.3129 12.1499 10.7379 12.1499 11.2504C12.1499 11.7629 11.7374 12.1879 11.2124 12.1879Z" fill="#44A1ED"/>
<path d="M27.5 22.5498V24.3748C27.5 26.0998 26.1 27.4998 24.375 27.4998H18.7125C18.0375 27.4998 17.5 26.9623 17.5 26.2873V23.5873C18.8375 23.7498 20.25 23.3623 21.2625 22.5498C22.1125 23.2373 23.2 23.6498 24.3875 23.6498C25.55 23.6498 26.6375 23.2373 27.5 22.5498Z" fill="#44A1ED"/>
<path d="M27.5 18.8122V18.8247C27.4 20.4622 26.0625 21.7747 24.3875 21.7747C22.65 21.7747 21.2625 20.3622 21.2625 18.6497C21.2625 20.5622 19.5 22.0997 17.5 21.7122V14.9997C17.5 14.1997 18.2375 13.5997 19.025 13.7747L21.2625 14.2747L21.8625 14.4122L24.4125 14.9872C25.025 15.1122 25.5875 15.3247 26.075 15.6372C26.075 15.6497 26.0875 15.6497 26.0875 15.6497C26.2125 15.7372 26.3375 15.8372 26.45 15.9497C27.025 16.5247 27.4 17.3622 27.4875 18.5872C27.4875 18.6622 27.5 18.7372 27.5 18.8122Z" fill="#44A1ED"/>
</svg>
