<svg fill="none" height="512" viewBox="0 0 24 24" width="512" xmlns="http://www.w3.org/2000/svg" xmlns:xlink="http://www.w3.org/1999/xlink"><linearGradient id="paint0_linear_16_1334" gradientUnits="userSpaceOnUse" x1="12" x2="12" y1="-1.2" y2="25.2"><stop offset="0" stop-color="#ce9ffc"/><stop offset=".979167" stop-color="#7367f0"/></linearGradient><path d="m3.783 2.826 8.217-1.826 8.217 1.826c.2221.04936.4207.17297.563.3504.1424.17744.22.39812.22.6256v9.987c-.0001.9877-.244 1.9602-.7101 2.831s-1.14 1.6131-1.9619 2.161l-6.328 4.219-6.328-4.219c-.82173-.5478-1.49554-1.2899-1.96165-2.1605-.46611-.8707-.71011-1.8429-.71035-2.8305v-9.988c.00004-.22748.07764-.44816.21999-.6256.14235-.17743.34095-.30104.56301-.3504zm8.217 10.674 2.939 1.545-.561-3.272 2.377-2.318-3.286-.478-1.469-2.977-1.47 2.977-3.285.478 2.377 2.318-.56 3.272z" fill="url(#paint0_linear_16_1334)"/></svg>