<svg width="18" height="18" viewBox="0 0 18 18" fill="none" xmlns="http://www.w3.org/2000/svg">
    <path d="M10.6499 9.33752H6.8999C6.5924 9.33752 6.3374 9.08252 6.3374 8.77502C6.3374 8.46752 6.5924 8.21252 6.8999 8.21252H10.6499C10.9574 8.21252 11.2124 8.46752 11.2124 8.77502C11.2124 9.08252 10.9574 9.33752 10.6499 9.33752Z" fill="#555558" />
    <path d="M8.7749 11.2125C8.4674 11.2125 8.2124 10.9575 8.2124 10.65V6.90002C8.2124 6.59252 8.4674 6.33752 8.7749 6.33752C9.0824 6.33752 9.3374 6.59252 9.3374 6.90002V10.65C9.3374 10.9575 9.0824 11.2125 8.7749 11.2125Z" fill="#555558" />
    <path d="M8.625 16.3125C4.3875 16.3125 0.9375 12.8625 0.9375 8.625C0.9375 4.3875 4.3875 0.9375 8.625 0.9375C12.8625 0.9375 16.3125 4.3875 16.3125 8.625C16.3125 12.8625 12.8625 16.3125 8.625 16.3125ZM8.625 2.0625C5.0025 2.0625 2.0625 5.01 2.0625 8.625C2.0625 12.24 5.0025 15.1875 8.625 15.1875C12.2475 15.1875 15.1875 12.24 15.1875 8.625C15.1875 5.01 12.2475 2.0625 8.625 2.0625Z" fill="#555558" />
    <path d="M16.5001 17.0625C16.3576 17.0625 16.2151 17.01 16.1026 16.8975L13.5003 14.2955C13.2828 14.078 13.2828 13.718 13.5003 13.5005C13.7178 13.283 14.0778 13.283 14.2953 13.5005L16.8976 16.1025C17.1151 16.32 17.1151 16.68 16.8976 16.8975C16.7851 17.01 16.6426 17.0625 16.5001 17.0625Z" fill="#555558" />
</svg>