<svg width="19" height="18" viewBox="0 0 19 18" fill="none" xmlns="http://www.w3.org/2000/svg">
    <path d="M12.5622 17.0624H6.56218C3.09718 17.0624 2.45218 15.4499 2.28718 13.8824L1.72468 7.87495C1.64218 7.08745 1.61968 5.92495 2.39968 5.05495C3.07468 4.30495 4.19218 3.94495 5.81218 3.94495H13.3122C14.9397 3.94495 16.0572 4.31245 16.7247 5.05495C17.5047 5.92495 17.4822 7.08745 17.3997 7.88245L16.8372 13.8749C16.6722 15.4499 16.0272 17.0624 12.5622 17.0624ZM5.81218 5.06245C4.54468 5.06245 3.67468 5.30995 3.23218 5.80495C2.86468 6.20995 2.74468 6.83245 2.84218 7.76245L3.40468 13.7699C3.53218 14.9549 3.85468 15.9374 6.56218 15.9374H12.5622C15.2622 15.9374 15.5922 14.9549 15.7197 13.7624L16.2822 7.76995C16.3797 6.83245 16.2597 6.20995 15.8922 5.80495C15.4497 5.30995 14.5797 5.06245 13.3122 5.06245H5.81218Z" fill="#7E7E89" />
    <path d="M12.5625 5.0625C12.255 5.0625 12 4.8075 12 4.5V3.9C12 2.565 12 2.0625 10.1625 2.0625H8.9625C7.125 2.0625 7.125 2.565 7.125 3.9V4.5C7.125 4.8075 6.87 5.0625 6.5625 5.0625C6.255 5.0625 6 4.8075 6 4.5V3.9C6 2.58 6 0.9375 8.9625 0.9375H10.1625C13.125 0.9375 13.125 2.58 13.125 3.9V4.5C13.125 4.8075 12.87 5.0625 12.5625 5.0625Z" fill="#7E7E89" />
    <path d="M9.5625 12.5625C7.5 12.5625 7.5 11.2875 7.5 10.5225V9.75C7.5 8.6925 7.755 8.4375 8.8125 8.4375H10.3125C11.37 8.4375 11.625 8.6925 11.625 9.75V10.5C11.625 11.28 11.625 12.5625 9.5625 12.5625ZM8.625 9.5625C8.625 9.6225 8.625 9.69 8.625 9.75V10.5225C8.625 11.295 8.625 11.4375 9.5625 11.4375C10.5 11.4375 10.5 11.3175 10.5 10.515V9.75C10.5 9.69 10.5 9.6225 10.5 9.5625C10.44 9.5625 10.3725 9.5625 10.3125 9.5625H8.8125C8.7525 9.5625 8.685 9.5625 8.625 9.5625Z" fill="#7E7E89" />
    <path d="M11.0631 11.0776C10.7856 11.0776 10.5381 10.8676 10.5081 10.5826C10.4706 10.2751 10.6881 9.99006 10.9956 9.95256C12.9756 9.70506 14.8731 8.95506 16.4706 7.79256C16.7181 7.60506 17.0706 7.66506 17.2581 7.92006C17.4381 8.16756 17.3856 8.52006 17.1306 8.70756C15.3756 9.98256 13.3056 10.8001 11.1306 11.0776C11.1081 11.0776 11.0856 11.0776 11.0631 11.0776Z" fill="#7E7E89" />
    <path d="M8.06207 11.085C8.03957 11.085 8.01707 11.085 7.99457 11.085C5.93957 10.8525 3.93707 10.1025 2.20457 8.91755C1.94957 8.74505 1.88207 8.39255 2.05457 8.13755C2.22707 7.88255 2.57957 7.81505 2.83457 7.98755C4.41707 9.06755 6.23957 9.75005 8.11457 9.96755C8.42207 10.005 8.64707 10.2825 8.60957 10.59C8.58707 10.875 8.34707 11.085 8.06207 11.085Z" fill="#7E7E89" />
</svg>