<svg width="19" height="18" viewBox="0 0 19 18" fill="none" xmlns="http://www.w3.org/2000/svg">
    <path d="M14.7891 17.0625H4.28906C1.47656 17.0625 1.47656 15.5025 1.47656 14.25V13.5C1.47656 12.78 2.06906 12.1875 2.78906 12.1875H16.2891C17.0091 12.1875 17.6016 12.78 17.6016 13.5V14.25C17.6016 15.5025 17.6016 17.0625 14.7891 17.0625ZM2.78906 13.3125C2.68406 13.3125 2.60156 13.395 2.60156 13.5V14.25C2.60156 15.48 2.60156 15.9375 4.28906 15.9375H14.7891C16.4766 15.9375 16.4766 15.48 16.4766 14.25V13.5C16.4766 13.395 16.3941 13.3125 16.2891 13.3125H2.78906Z" fill="#7E7E89" />
    <path d="M16.1031 13.3125H3.01562C2.70812 13.3125 2.45312 13.0575 2.45312 12.75V9.75C2.45312 6.675 4.63563 3.975 7.63563 3.3375C8.07812 3.24 8.54313 3.1875 9.01562 3.1875H10.1031C10.5831 3.1875 11.0481 3.24 11.4906 3.3375C14.4906 3.9825 16.6656 6.6825 16.6656 9.75V12.75C16.6656 13.0575 16.4181 13.3125 16.1031 13.3125ZM3.57812 12.1875H15.5406V9.75C15.5406 7.2075 13.7406 4.9725 11.2506 4.4325C10.8831 4.35 10.5006 4.3125 10.1031 4.3125H9.01562C8.62563 4.3125 8.24312 4.35 7.87563 4.4325C5.38563 4.965 3.57812 7.2 3.57812 9.75V12.1875Z" fill="#7E7E89" />
    <path d="M7.755 4.4475C7.5075 4.4475 7.2825 4.2825 7.215 4.035C7.155 3.8175 7.125 3.6 7.125 3.375C7.125 2.0325 8.22 0.9375 9.5625 0.9375C10.905 0.9375 12 2.0325 12 3.375C12 3.6 11.97 3.8175 11.91 4.035C11.835 4.32 11.55 4.5 11.25 4.4325C10.8825 4.35 10.5 4.3125 10.1025 4.3125H9.015C8.625 4.3125 8.2425 4.35 7.875 4.4325C7.8375 4.44 7.8 4.4475 7.755 4.4475ZM9.015 3.1875H10.1025C10.3575 3.1875 10.62 3.2025 10.8675 3.2325C10.8 2.5725 10.2375 2.0625 9.5625 2.0625C8.8875 2.0625 8.3325 2.5725 8.2575 3.2325C8.5125 3.2025 8.76 3.1875 9.015 3.1875Z" fill="#7E7E89" />
</svg>