<svg width="19" height="18" viewBox="0 0 19 18" fill="none" xmlns="http://www.w3.org/2000/svg">
    <path d="M15.5625 8.81256H3.56251C3.39001 8.81256 3.23251 8.73756 3.12751 8.60256C3.02251 8.47506 2.97751 8.29506 3.01501 8.13006L3.86251 4.08006C4.14001 2.76756 4.70251 1.56006 6.93001 1.56006H12.2025C14.43 1.56006 14.9925 2.77506 15.27 4.08006L16.1175 8.13756C16.155 8.30256 16.11 8.47506 16.005 8.61006C15.8925 8.73756 15.735 8.81256 15.5625 8.81256ZM4.25251 7.68756H14.865L14.16 4.31256C13.95 3.33006 13.7025 2.68506 12.195 2.68506H6.93001C5.42251 2.68506 5.17501 3.33006 4.96501 4.31256L4.25251 7.68756Z" fill="#7E7E89" />
    <path
        d="M15.5317 17.0625H14.1217C12.9067 17.0625 12.6742 16.365 12.5242 15.9075L12.3742 15.4575C12.1792 14.8875 12.1567 14.8125 11.4817 14.8125H7.64171C6.96671 14.8125 6.92171 14.94 6.74921 15.4575L6.59921 15.9075C6.44171 16.3725 6.21671 17.0625 5.00171 17.0625H3.59171C2.99921 17.0625 2.42921 16.815 2.03171 16.38C1.64171 15.9525 1.45421 15.3825 1.50671 14.8125L1.92671 10.245C2.03921 9.0075 2.36921 7.6875 4.77671 7.6875H14.3467C16.7542 7.6875 17.0767 9.0075 17.1967 10.245L17.6167 14.8125C17.6692 15.3825 17.4817 15.9525 17.0917 16.38C16.6942 16.815 16.1242 17.0625 15.5317 17.0625ZM7.64171 13.6875H11.4817C12.8467 13.6875 13.1692 14.295 13.4392 15.09L13.5967 15.555C13.7242 15.9375 13.7242 15.945 14.1292 15.945H15.5392C15.8167 15.945 16.0792 15.8325 16.2667 15.63C16.4467 15.435 16.5292 15.1875 16.5067 14.925L16.0867 10.3575C15.9892 9.345 15.8692 8.82 14.3617 8.82H4.77671C3.26171 8.82 3.14171 9.345 3.05171 10.3575L2.63171 14.925C2.60921 15.1875 2.69171 15.435 2.87171 15.63C3.05171 15.8325 3.32171 15.945 3.59921 15.945H5.00921C5.41421 15.945 5.41421 15.9375 5.54171 15.5625L5.69171 15.105C5.87921 14.505 6.15671 13.6875 7.64171 13.6875Z"
        fill="#7E7E89" />
    <path d="M3.5625 6.5625H2.8125C2.505 6.5625 2.25 6.3075 2.25 6C2.25 5.6925 2.505 5.4375 2.8125 5.4375H3.5625C3.87 5.4375 4.125 5.6925 4.125 6C4.125 6.3075 3.87 6.5625 3.5625 6.5625Z" fill="#7E7E89" />
    <path d="M16.3125 6.5625H15.5625C15.255 6.5625 15 6.3075 15 6C15 5.6925 15.255 5.4375 15.5625 5.4375H16.3125C16.62 5.4375 16.875 5.6925 16.875 6C16.875 6.3075 16.62 6.5625 16.3125 6.5625Z" fill="#7E7E89" />
    <path d="M9.5625 4.3125C9.255 4.3125 9 4.0575 9 3.75V2.25C9 1.9425 9.255 1.6875 9.5625 1.6875C9.87 1.6875 10.125 1.9425 10.125 2.25V3.75C10.125 4.0575 9.87 4.3125 9.5625 4.3125Z" fill="#7E7E89" />
    <path d="M10.6875 4.3125H8.4375C8.13 4.3125 7.875 4.0575 7.875 3.75C7.875 3.4425 8.13 3.1875 8.4375 3.1875H10.6875C10.995 3.1875 11.25 3.4425 11.25 3.75C11.25 4.0575 10.995 4.3125 10.6875 4.3125Z" fill="#7E7E89" />
    <path d="M7.3125 11.8125H5.0625C4.755 11.8125 4.5 11.5575 4.5 11.25C4.5 10.9425 4.755 10.6875 5.0625 10.6875H7.3125C7.62 10.6875 7.875 10.9425 7.875 11.25C7.875 11.5575 7.62 11.8125 7.3125 11.8125Z" fill="#7E7E89" />
    <path d="M14.0625 11.8125H11.8125C11.505 11.8125 11.25 11.5575 11.25 11.25C11.25 10.9425 11.505 10.6875 11.8125 10.6875H14.0625C14.37 10.6875 14.625 10.9425 14.625 11.25C14.625 11.5575 14.37 11.8125 14.0625 11.8125Z" fill="#7E7E89" />
</svg>