<svg width="19" height="18" viewBox="0 0 19 18" fill="none" xmlns="http://www.w3.org/2000/svg">
    <path d="M10.3125 17.0625H4.3125C2.4975 17.0625 1.5 16.065 1.5 14.25V8.25C1.5 6.435 2.4975 5.4375 4.3125 5.4375H8.0625C8.37 5.4375 8.625 5.6925 8.625 6V14.25C8.625 15.435 9.1275 15.9375 10.3125 15.9375C10.62 15.9375 10.875 16.1925 10.875 16.5C10.875 16.8075 10.62 17.0625 10.3125 17.0625ZM4.3125 6.5625C3.1275 6.5625 2.625 7.065 2.625 8.25V14.25C2.625 15.435 3.1275 15.9375 4.3125 15.9375H7.91249C7.64249 15.495 7.5 14.9325 7.5 14.25V6.5625H4.3125Z" fill="#7E7E89" />
    <path d="M8.0625 6.5625H4.3125C4.005 6.5625 3.75 6.3075 3.75 6V4.5C3.75 3.36 4.6725 2.4375 5.8125 2.4375H8.14499C8.31749 2.4375 8.48251 2.51998 8.58751 2.65498C8.69251 2.79748 8.72999 2.9775 8.68499 3.1425C8.63999 3.3075 8.625 3.495 8.625 3.75V6C8.625 6.3075 8.37 6.5625 8.0625 6.5625ZM4.875 5.4375H7.5V3.75C7.5 3.6825 7.5 3.6225 7.5 3.5625H5.8125C5.295 3.5625 4.875 3.9825 4.875 4.5V5.4375Z" fill="#7E7E89" />
    <path d="M11.0625 10.3125C10.755 10.3125 10.5 10.0575 10.5 9.75V6C10.5 5.6925 10.755 5.4375 11.0625 5.4375C11.37 5.4375 11.625 5.6925 11.625 6V9.75C11.625 10.0575 11.37 10.3125 11.0625 10.3125Z" fill="#7E7E89" />
    <path d="M14.0625 10.3125C13.755 10.3125 13.5 10.0575 13.5 9.75V6C13.5 5.6925 13.755 5.4375 14.0625 5.4375C14.37 5.4375 14.625 5.6925 14.625 6V9.75C14.625 10.0575 14.37 10.3125 14.0625 10.3125Z" fill="#7E7E89" />
    <path d="M14.0625 17.0625H11.0625C10.755 17.0625 10.5 16.8075 10.5 16.5V13.5C10.5 12.78 11.0925 12.1875 11.8125 12.1875H13.3125C14.0325 12.1875 14.625 12.78 14.625 13.5V16.5C14.625 16.8075 14.37 17.0625 14.0625 17.0625ZM11.625 15.9375H13.5V13.5C13.5 13.395 13.4175 13.3125 13.3125 13.3125H11.8125C11.7075 13.3125 11.625 13.395 11.625 13.5V15.9375Z" fill="#7E7E89" />
    <path d="M5.0625 13.3125C4.755 13.3125 4.5 13.0575 4.5 12.75V9.75C4.5 9.4425 4.755 9.1875 5.0625 9.1875C5.37 9.1875 5.625 9.4425 5.625 9.75V12.75C5.625 13.0575 5.37 13.3125 5.0625 13.3125Z" fill="#7E7E89" />
    <path d="M14.8125 17.0625H10.3125C8.4975 17.0625 7.5 16.065 7.5 14.25V3.75C7.5 1.935 8.4975 0.9375 10.3125 0.9375H14.8125C16.6275 0.9375 17.625 1.935 17.625 3.75V14.25C17.625 16.065 16.6275 17.0625 14.8125 17.0625ZM10.3125 2.0625C9.1275 2.0625 8.625 2.565 8.625 3.75V14.25C8.625 15.435 9.1275 15.9375 10.3125 15.9375H14.8125C15.9975 15.9375 16.5 15.435 16.5 14.25V3.75C16.5 2.565 15.9975 2.0625 14.8125 2.0625H10.3125Z" fill="#7E7E89" />
</svg>