<svg width="19" height="18" viewBox="0 0 19 18" fill="none" xmlns="http://www.w3.org/2000/svg">
    <path
        d="M4.31266 16.4025C3.75766 16.4025 3.21016 16.1925 2.79016 15.7725C2.38516 15.3675 2.16016 14.8275 2.16016 14.25C2.16016 13.6725 2.38516 13.1325 2.79016 12.7275L12.5402 2.97753C13.3802 2.13753 14.7452 2.13753 15.5852 2.97753C15.9902 3.38253 16.2152 3.92253 16.2152 4.50003C16.2152 5.07753 15.9902 5.61753 15.5852 6.02253L5.83516 15.7725C5.41516 16.1925 4.86766 16.4025 4.31266 16.4025ZM14.0627 3.47253C13.8002 3.47253 13.5377 3.57003 13.3352 3.77253L3.58516 13.5225C3.39016 13.7175 3.28516 13.9725 3.28516 14.25C3.28516 14.5275 3.39016 14.7825 3.58516 14.9775C3.98266 15.375 4.64266 15.375 5.04016 14.9775L14.7902 5.22753C14.9852 5.03253 15.0902 4.77753 15.0902 4.50003C15.0902 4.22253 14.9852 3.96753 14.7902 3.77253C14.5877 3.57003 14.3252 3.47253 14.0627 3.47253Z"
        fill="#7E7E89" />
    <path d="M14.0704 7.30501C13.9279 7.30501 13.7854 7.25251 13.6729 7.14001L11.4229 4.89001C11.2054 4.67251 11.2054 4.31251 11.4229 4.09501C11.6404 3.87751 12.0004 3.87751 12.2179 4.09501L14.4679 6.34501C14.6854 6.56251 14.6854 6.92251 14.4679 7.14001C14.3554 7.25251 14.2129 7.30501 14.0704 7.30501Z" fill="#7E7E89" />
    <path
        d="M8.06181 4.12504C8.02431 4.12504 7.99431 4.11754 7.95681 4.11004L6.93681 3.81004L5.91681 4.11004C5.78181 4.14754 5.63931 4.11004 5.54931 4.01254C5.45181 3.91504 5.41431 3.78004 5.45181 3.64504L5.75181 2.62504L5.45181 1.60504C5.41431 1.47004 5.45181 1.32754 5.54931 1.23754C5.64681 1.14004 5.78931 1.10254 5.91681 1.14004L6.93681 1.44004L7.95681 1.14004C8.09181 1.10254 8.22681 1.14004 8.32431 1.23754C8.42181 1.33504 8.45931 1.47754 8.42181 1.60504L8.12181 2.62504L8.42181 3.64504C8.45931 3.78004 8.42181 3.92254 8.32431 4.01254C8.25681 4.08754 8.15931 4.12504 8.06181 4.12504ZM6.93681 3.04504C6.97431 3.04504 7.00431 3.05254 7.04181 3.06004L7.50681 3.19504L7.37181 2.73004C7.34931 2.66254 7.34931 2.58754 7.37181 2.52004L7.50681 2.05504L7.04181 2.19004C6.97431 2.21254 6.89931 2.21254 6.83181 2.19004L6.36681 2.05504L6.50181 2.52004C6.52431 2.58754 6.52431 2.66254 6.50181 2.73004L6.36681 3.19504L6.83181 3.06004C6.86931 3.05254 6.89931 3.04504 6.93681 3.04504Z"
        fill="#7E7E89" />
    <path
        d="M5.06181 8.62504C5.02431 8.62504 4.99431 8.61754 4.95681 8.61004L3.93681 8.31004L2.91681 8.61004C2.78181 8.64754 2.64681 8.61004 2.54931 8.51254C2.45181 8.41504 2.41431 8.27254 2.45181 8.14504L2.75181 7.12504L2.45181 6.10504C2.41431 5.97004 2.45181 5.82754 2.54931 5.73754C2.64681 5.64754 2.78931 5.60254 2.91681 5.64004L3.93681 5.94004L4.95681 5.64004C5.08431 5.60254 5.22681 5.64004 5.32431 5.73754C5.42181 5.83504 5.45931 5.97754 5.42181 6.10504L5.12181 7.12504L5.42181 8.14504C5.45931 8.28004 5.42181 8.42254 5.32431 8.51254C5.25681 8.58754 5.15931 8.62504 5.06181 8.62504ZM3.93681 7.54504C3.97431 7.54504 4.00431 7.55254 4.04181 7.56004L4.50681 7.69504L4.37181 7.23004C4.34931 7.16254 4.34931 7.08754 4.37181 7.02004L4.50681 6.55504L4.04181 6.69004C3.97431 6.71254 3.89931 6.71254 3.83181 6.69004L3.36681 6.55504L3.50181 7.02004C3.52431 7.08754 3.52431 7.16254 3.50181 7.23004L3.36681 7.69504L3.83181 7.56004C3.86931 7.55254 3.89931 7.54504 3.93681 7.54504Z"
        fill="#7E7E89" />
    <path
        d="M16.3118 12.375C16.2743 12.375 16.2443 12.3675 16.2068 12.36L15.1868 12.06L14.1668 12.36C14.0318 12.3975 13.8968 12.36 13.7993 12.2625C13.7018 12.165 13.6643 12.0225 13.7018 11.895L14.0018 10.875L13.7018 9.85504C13.6643 9.72004 13.7018 9.57754 13.7993 9.48754C13.8968 9.39754 14.0393 9.35254 14.1668 9.39004L15.1868 9.69004L16.2068 9.39004C16.3343 9.35254 16.4768 9.39004 16.5743 9.48754C16.6718 9.58504 16.7093 9.72754 16.6718 9.85504L16.3718 10.875L16.6718 11.895C16.7093 12.03 16.6718 12.1725 16.5743 12.2625C16.5068 12.3375 16.4093 12.375 16.3118 12.375ZM15.1868 11.295C15.2243 11.295 15.2543 11.3025 15.2918 11.31L15.7568 11.445L15.6218 10.98C15.5993 10.9125 15.5993 10.8375 15.6218 10.77L15.7568 10.305L15.2918 10.44C15.2243 10.4625 15.1493 10.4625 15.0818 10.44L14.6168 10.305L14.7518 10.77C14.7743 10.8375 14.7743 10.9125 14.7518 10.98L14.6168 11.445L15.0818 11.31C15.1193 11.3025 15.1493 11.295 15.1868 11.295Z"
        fill="#7E7E89" />
</svg>