<svg width="20" height="20" viewBox="0 0 20 20" fill="none" xmlns="http://www.w3.org/2000/svg">
    <path d="M13.4361 3C12.7326 3.01162 12.0445 3.22023 11.4411 3.60475C10.8378 3.98927 10.3407 4.53609 10 5.18999C9.65929 4.53609 9.16217 3.98927 8.55886 3.60475C7.95554 3.22023 7.26738 3.01162 6.56389 3C5.44243 3.05176 4.38583 3.57288 3.62494 4.44953C2.86404 5.32617 2.4607 6.48707 2.50302 7.67861C2.50302 10.6961 5.49307 13.9917 8.00081 16.2262C8.56072 16.726 9.26864 17 10 17C10.7314 17 11.4393 16.726 11.9992 16.2262C14.5069 13.9917 17.497 10.6961 17.497 7.67861C17.5393 6.48707 17.136 5.32617 16.3751 4.44953C15.6142 3.57288 14.5576 3.05176 13.4361 3Z" fill="#6C1CFF" />
</svg>