<svg width="169" height="50" viewBox="0 0 169 50" fill="none" xmlns="http://www.w3.org/2000/svg">
<g clip-path="url(#clip0_270_6777)">
<path fill-rule="evenodd" clip-rule="evenodd" d="M27.6242 11.4588H2.58365C1.15647 11.4588 0 12.6156 0 14.0425V39.083C0 40.5101 1.15674 41.6666 2.58365 41.6666H27.6242C29.0513 41.6666 30.2078 40.5098 30.2078 39.083V14.0425C30.2078 12.6153 29.051 11.4588 27.6242 11.4588ZM15.8727 28.1016C13.6144 28.1016 12.5882 25.9194 12.5882 23.8966C12.5882 20.7116 14.314 19.5775 15.9283 19.5775C17.9095 19.5775 19.2406 21.3005 19.2406 23.8669C19.2406 26.7942 17.5473 28.1016 15.8727 28.1016ZM23.4954 23.8107C23.4954 19.0371 20.7729 15.8302 16.7238 15.8302C14.3682 15.8302 13.0046 16.8986 12.3467 17.6359C12.2678 17.0002 11.853 16.1754 10.2325 16.1754H6.71285V19.8931H8.15539C8.39993 19.8931 8.47886 19.9712 8.47886 20.218V37.1943H12.6734V30.8227C12.6734 30.6509 12.6702 30.4899 12.6656 30.3463C13.3203 30.9523 14.5725 31.7895 16.5273 31.7895C20.6274 31.7895 23.4954 28.5093 23.4954 23.8107Z" fill="#192435"/>
<path fill-rule="evenodd" clip-rule="evenodd" d="M41.2918 19.5933C42.0348 18.7612 43.5751 17.5554 46.2361 17.5554C50.8097 17.5554 53.885 21.1745 53.885 26.5617C53.885 31.8643 50.6453 35.5662 46.014 35.5662C43.8059 35.5662 42.3915 34.6213 41.652 33.9374C41.6572 34.0996 41.6607 34.2811 41.6607 34.475V41.6656H36.9227V22.5072C36.9227 22.2287 36.8336 22.1406 36.5573 22.1406H34.9279V17.945H38.9036C40.7341 17.945 41.2026 18.8758 41.2918 19.5933ZM45.3374 21.7844C43.5139 21.7844 41.5645 23.0643 41.5645 26.6586C41.5645 28.9415 42.7237 31.4042 45.2745 31.4042C47.1661 31.4042 49.0788 29.9287 49.0788 26.6252C49.0788 23.7289 47.5752 21.7844 45.3374 21.7844Z" fill="#192435"/>
<path d="M60.2477 30.6484V20.4963C60.2477 18.781 59.4277 17.9455 57.7476 17.9455H53.5131V22.1409H55.1443C55.4188 22.1409 55.508 22.2309 55.508 22.5077V32.6245C55.508 34.3661 56.3017 35.1753 58.0028 35.1753H62.2425V31.0168H60.6113C60.349 31.0168 60.2477 30.911 60.2477 30.6484Z" fill="#192435"/>
<path fill-rule="evenodd" clip-rule="evenodd" d="M67.6786 19.5933C68.4251 18.7612 69.9619 17.5554 72.6263 17.5554C77.1982 17.5554 80.2717 21.1745 80.2717 26.5617C80.2717 31.8643 77.0356 35.5662 72.4025 35.5662C70.1962 35.5662 68.7765 34.6213 68.0405 33.9374C68.0457 34.0996 68.051 34.2811 68.051 34.475V41.6656H63.3095V22.5072C63.3095 22.2287 63.2204 22.1406 62.9459 22.1406H61.3164V17.945H65.2939C67.1244 17.945 67.5912 18.8758 67.6786 19.5933ZM67.9513 26.6586C67.9513 28.9415 69.1157 31.4042 71.6595 31.4042C73.5564 31.4042 75.4674 29.9287 75.4674 26.6252C75.4674 23.7289 73.9638 21.7844 71.726 21.7844C69.9007 21.7844 67.9513 23.0643 67.9513 26.6586Z" fill="#192435"/>
<path fill-rule="evenodd" clip-rule="evenodd" d="M80.5135 26.5626C80.5135 21.26 84.0836 17.5563 89.1886 17.5563C93.7413 17.5563 96.8009 20.8492 96.8009 25.7499C96.8009 26.247 96.7082 27.2641 96.6994 27.3064L96.6733 27.6202H85.4367C85.8477 29.9119 87.5855 31.3732 89.9597 31.3732C92.3489 31.3732 94.1772 29.7504 94.3184 29.6251C94.3234 29.6206 94.3262 29.6181 94.327 29.6175L94.6329 29.3249L96.6977 32.7783L96.5071 32.9687C96.3946 33.0785 93.8443 35.567 89.673 35.567C84.365 35.567 80.5135 31.7788 80.5135 26.5626ZM89.1886 21.4256C87.4124 21.4256 86.1274 22.3846 85.6134 24.0752H91.9073C91.7132 22.5204 90.6153 21.4256 89.1886 21.4256Z" fill="#192435"/>
<path fill-rule="evenodd" clip-rule="evenodd" d="M114.035 14.009V30.6484C114.035 30.911 114.137 31.0168 114.399 31.0168H115.995V35.1753H111.89C110.117 35.1753 109.64 34.2339 109.544 33.49C108.808 34.3432 107.301 35.5666 104.687 35.5666C100.113 35.5666 97.0399 31.9493 97.0399 26.5621C97.0399 21.2595 100.248 17.5558 104.846 17.5558C107.198 17.5558 108.563 18.3932 109.262 19.0295V16.0222C109.262 15.7436 109.173 15.6555 108.899 15.6555H107.268V11.4582H111.502C113.205 11.4582 114.035 12.2938 114.035 14.009ZM101.874 26.5621C101.874 29.5024 103.332 31.4046 105.586 31.4046C107.409 31.4046 109.36 30.1265 109.36 26.5304C109.36 24.1664 108.212 21.7848 105.65 21.7848C103.392 21.7848 101.874 23.7028 101.874 26.5621Z" fill="#192435"/>
<path d="M126.539 17.7178C124.567 17.7178 122.752 18.8654 121.675 20.6935V20.3003C121.675 18.7385 120.82 17.9452 119.142 17.9452H115.068V22.1407H116.698C116.972 22.1407 117.063 22.2289 117.063 22.5074V35.1751H121.801V28.2806C121.801 27.3728 121.916 26.4985 122.14 25.6893C122.853 23.3113 124.748 22.4651 126.282 22.4651C126.826 22.4651 127.221 22.5233 127.228 22.525L127.623 22.585V17.8359L127.334 17.7866C127.32 17.783 126.918 17.7178 126.539 17.7178Z" fill="#192435"/>
<path d="M134.367 30.6484V20.4963C134.367 18.7811 133.551 17.9455 131.87 17.9455H128.04V22.141H129.264C129.54 22.141 129.627 22.2309 129.627 22.5077V32.6245C129.627 34.3662 130.423 35.1753 132.128 35.1753H136.364V31.0169H134.731C134.469 31.0169 134.367 30.911 134.367 30.6484Z" fill="#192435"/>
<path d="M152.255 17.9455H149.727C148.25 17.9455 147.458 18.462 146.989 19.7295L143.9 28.429C143.793 28.7516 143.693 29.113 143.607 29.4603C143.518 29.113 143.412 28.7463 143.295 28.4238L140.205 19.7277C139.731 18.4461 138.966 17.9455 137.469 17.9455H134.78V22.141H135.478C135.848 22.141 135.967 22.268 136.055 22.5007L140.837 35.1754H146.165L150.947 22.5007C151.035 22.268 151.157 22.141 151.527 22.141H152.255V17.9455Z" fill="#192435"/>
<path fill-rule="evenodd" clip-rule="evenodd" d="M151.742 26.5626C151.742 21.26 155.311 17.5563 160.415 17.5563C164.97 17.5563 168.032 20.8492 168.032 25.7499C168.032 26.247 167.935 27.2641 167.931 27.3064L167.904 27.6202H156.664C157.075 29.9119 158.813 31.3732 161.189 31.3732C163.653 31.3732 165.537 29.6334 165.553 29.6175L165.867 29.3249L167.927 32.7783L167.734 32.9687C167.628 33.0744 165.075 35.567 160.899 35.567C155.591 35.567 151.742 31.7788 151.742 26.5626ZM160.415 21.4256C158.64 21.4256 157.36 22.3846 156.841 24.0752H163.134C162.941 22.5204 161.845 21.4256 160.415 21.4256Z" fill="#192435"/>
<path d="M59.9241 11.4594H55.7002V15.9457H59.9241V11.4594Z" fill="#192435"/>
<path d="M134.046 11.4594H129.82V15.9457H134.046V11.4594Z" fill="#192435"/>
</g>
<defs>
<clipPath id="clip0_270_6777">
<rect width="168.75" height="50" fill="white"/>
</clipPath>
</defs>
</svg>
