<svg width="176" height="50" viewBox="0 0 176 50" fill="none" xmlns="http://www.w3.org/2000/svg">
<g clip-path="url(#clip0_270_6782)">
<path fill-rule="evenodd" clip-rule="evenodd" d="M46.9225 10.5269L32.0828 39.5368H18.1442L24.3546 27.5138H24.076C18.9525 34.1648 11.3081 38.5432 0.416016 39.5368V27.6803C0.416016 27.6803 7.38393 27.2687 11.4802 22.9621H0.416016V10.5271H12.8509V20.7547L13.13 20.7535L18.2114 10.5271H27.6156V20.6898L27.8947 20.6894L33.1666 10.5269H46.9225Z" fill="#146EF5"/>
<path d="M127.844 36.3347H131.849V13.3473H127.844V36.3347Z" fill="#080808"/>
<path fill-rule="evenodd" clip-rule="evenodd" d="M105.766 36.0999C106.637 36.4619 107.522 36.6427 108.422 36.6427C109.908 36.6427 111.238 36.2809 112.412 35.5572C113.585 34.8335 114.495 33.8359 115.14 32.5646C115.786 31.2834 116.108 29.8312 116.108 28.2077C116.108 26.5842 115.776 25.1319 115.111 23.8508C114.446 22.5696 113.522 21.577 112.338 20.8729C111.155 20.1589 109.81 19.8069 108.304 19.8166C107.346 19.8166 106.426 20.0024 105.546 20.3741C104.666 20.7457 103.933 21.2738 103.346 21.9584C103.3 22.0105 103.256 22.0632 103.214 22.1163V13.362H99.1942V36.3347H103.184L103.176 34.1886C103.28 34.3151 103.39 34.4387 103.507 34.5596C104.143 35.2149 104.896 35.7283 105.766 36.0999ZM109.874 32.3885C109.219 32.7894 108.47 32.9901 107.629 32.9901C106.798 32.9901 106.035 32.7846 105.341 32.3739C104.646 31.9533 104.094 31.3812 103.683 30.6575C103.282 29.9338 103.082 29.1123 103.082 28.193C103.072 27.2737 103.268 26.4522 103.668 25.7285C104.079 24.995 104.632 24.4278 105.326 24.0268C106.021 23.6161 106.788 23.4156 107.629 23.4254C108.47 23.4156 109.219 23.6112 109.874 24.0122C110.539 24.4033 111.047 24.9657 111.399 25.6992C111.761 26.4229 111.942 27.2542 111.942 28.193C111.942 29.1318 111.761 29.9632 111.399 30.6869C111.047 31.4105 110.539 31.9778 109.874 32.3885Z" fill="#080808"/>
<path d="M52.7246 14.7409H57.3015L61.3958 29.6933L65.7513 14.7409H69.5654L74.2891 29.3932L78.2205 14.7409H82.416L76.2254 36.3347H72.2792L67.476 22.0206L63.0667 36.3347H59.0765L52.7246 14.7409Z" fill="#080808"/>
<path fill-rule="evenodd" clip-rule="evenodd" d="M89.1749 36.7161C87.5807 36.7258 86.1432 36.3737 84.8619 35.6599C83.5907 34.9362 82.5882 33.9337 81.8547 32.6526C81.131 31.3714 80.7691 29.9093 80.7691 28.2663C80.7691 26.6723 81.1408 25.2297 81.884 23.9388C82.6272 22.6479 83.6347 21.6406 84.9059 20.9169C86.1773 20.1932 87.5954 19.8313 89.1602 19.8313C90.9205 19.8313 92.4609 20.2225 93.7811 21.0049C95.1112 21.7873 96.1038 22.8973 96.759 24.3349C97.4241 25.7627 97.6637 27.4009 97.4779 29.2492H84.9122C84.9473 29.9856 85.131 30.6556 85.4635 31.2589C85.8351 31.9239 86.3535 32.4423 87.0183 32.8139C87.6834 33.1855 88.4267 33.3713 89.2482 33.3713C89.8741 33.3616 90.456 33.254 90.9939 33.0487C91.5317 32.8336 91.9865 32.545 92.3582 32.1832C92.7395 31.8213 93.0085 31.4105 93.1649 30.951H97.3606C97.1063 32.0756 96.5977 33.078 95.8349 33.9582C95.072 34.8285 94.1136 35.5082 92.9596 35.9973C91.8055 36.4862 90.5439 36.7258 89.1749 36.7161ZM85.4781 25.2151C85.2437 25.6238 85.0814 26.0639 84.991 26.5354H93.3204C93.26 25.9397 93.0761 25.3969 92.7688 24.907C92.4169 24.33 91.9377 23.885 91.3313 23.5721C90.7249 23.2493 90.0404 23.088 89.2775 23.088C88.4659 23.088 87.7275 23.2738 87.0625 23.6454C86.3975 24.0171 85.8692 24.5403 85.4781 25.2151Z" fill="#080808"/>
<path d="M119.057 20.1687C119.057 18.8582 119.355 17.6944 119.952 16.6773C120.548 15.6505 121.385 14.8534 122.46 14.2862C123.546 13.7092 124.812 13.4109 126.26 13.3913V16.956C125.585 16.9658 125.008 17.1076 124.529 17.3815C124.059 17.6455 123.697 18.0318 123.443 18.5404C123.209 19.0086 123.083 19.5513 123.064 20.1687H126.172V23.5574H123.062V36.3347H119.057V23.5574H116.475V20.1687H119.057Z" fill="#080808"/>
<path fill-rule="evenodd" clip-rule="evenodd" d="M142.029 36.6868C140.396 36.6868 138.934 36.3297 137.643 35.6159C136.362 34.8922 135.355 33.8945 134.621 32.6233C133.898 31.3421 133.536 29.8898 133.536 28.2663C133.536 26.6332 133.898 25.176 134.621 23.8948C135.355 22.6039 136.362 21.6014 137.643 20.8875C138.934 20.1736 140.396 19.8166 142.029 19.8166C143.672 19.8166 145.139 20.1736 146.43 20.8875C147.731 21.6014 148.743 22.599 149.467 23.8801C150.191 25.1613 150.557 26.6233 150.567 28.2663C150.557 29.8898 150.191 31.3421 149.467 32.6233C148.753 33.8945 147.746 34.8922 146.445 35.6159C145.144 36.3297 143.672 36.6868 142.029 36.6868ZM142.029 33.0047C142.89 33.0047 143.653 32.8091 144.318 32.4178C144.983 32.0169 145.496 31.4594 145.858 30.7455C146.22 30.0218 146.401 29.1955 146.401 28.2663C146.401 27.3275 146.22 26.4962 145.858 25.7725C145.496 25.0488 144.983 24.4914 144.318 24.1002C143.653 23.6992 142.89 23.4987 142.029 23.4987C141.179 23.4987 140.421 23.6992 139.756 24.1002C139.1 24.4914 138.592 25.0488 138.23 25.7725C137.868 26.4962 137.692 27.3275 137.702 28.2663C137.702 29.1955 137.883 30.0218 138.245 30.7455C138.616 31.4594 139.125 32.0169 139.77 32.4178C140.426 32.8091 141.179 33.0047 142.029 33.0047Z" fill="#080808"/>
<path d="M154.895 20.1687H150.435L155.261 36.3347H159.164L162.338 26.0095L165.765 36.3347H169.609L174.449 20.1687H170.416L167.67 30.231L164.636 20.1687H160.733L157.713 30.4527L154.895 20.1687Z" fill="#080808"/>
</g>
<defs>
<clipPath id="clip0_270_6782">
<rect width="175" height="50" fill="white" transform="translate(0.416016)"/>
</clipPath>
</defs>
</svg>
