<svg width="161" height="50" viewBox="0 0 161 50" fill="none" xmlns="http://www.w3.org/2000/svg">
<g clip-path="url(#clip0_270_6775)">
<path d="M64.6956 26.7317L61.9069 19.4333C61.7931 19.1348 61.3582 19.1348 61.2442 19.4333L58.456 26.7321C58.4362 26.784 58.4296 26.8398 58.4368 26.8946C58.444 26.9495 58.4648 27.0019 58.4974 27.0473C58.5299 27.0927 58.5733 27.1298 58.6238 27.1554C58.6744 27.181 58.7305 27.1944 58.7875 27.1944H64.3641C64.4211 27.1944 64.4772 27.181 64.5277 27.1553C64.5783 27.1297 64.6216 27.0926 64.6542 27.0472C64.6867 27.0017 64.7074 26.9493 64.7146 26.8944C64.7218 26.8395 64.7152 26.7838 64.6953 26.7319L64.6956 26.7317ZM65.9838 30.834H57.1681C57.0959 30.834 57.0255 30.8554 56.9663 30.8954C56.9071 30.9354 56.8619 30.992 56.8368 31.0577L55.1012 35.5989C55.0761 35.6646 55.031 35.7212 54.9717 35.7612C54.9125 35.8012 54.8421 35.8226 54.77 35.8226H50.949C50.8912 35.8226 50.8344 35.8088 50.7833 35.7825C50.7323 35.7562 50.6887 35.7182 50.6564 35.6717C50.624 35.6253 50.6039 35.5718 50.5977 35.5161C50.5916 35.4603 50.5996 35.4039 50.6211 35.3519L59.4182 14.0747C59.4445 14.0112 59.4898 13.9568 59.5483 13.9184C59.6068 13.8801 59.6758 13.8597 59.7463 13.8597H63.405C63.5492 13.8597 63.679 13.9448 63.733 14.0747L72.5298 35.3517C72.5514 35.4037 72.5595 35.4602 72.5534 35.516C72.5473 35.5718 72.5272 35.6253 72.4948 35.6718C72.4624 35.7184 72.4188 35.7564 72.3677 35.7828C72.3166 35.8091 72.2597 35.8229 72.2019 35.8228H68.3816C68.3094 35.8228 68.239 35.8013 68.1798 35.7613C68.1206 35.7213 68.0754 35.6646 68.0503 35.5989L66.3145 31.0577C66.2894 30.992 66.2442 30.9354 66.185 30.8954C66.1258 30.8554 66.0554 30.834 65.9833 30.834H65.9838ZM74.32 21.3269H77.5881C77.6818 21.3269 77.7717 21.3631 77.838 21.4274C77.9043 21.4918 77.9415 21.579 77.9415 21.67V35.4795C77.9415 35.5705 77.9043 35.6578 77.838 35.7221C77.7717 35.7865 77.6818 35.8226 77.5881 35.8226H74.32C74.2263 35.8226 74.1364 35.7865 74.0702 35.7221C74.0039 35.6578 73.9667 35.5705 73.9667 35.4795V21.6698C73.9667 21.5788 74.0039 21.4915 74.0702 21.4272C74.1364 21.3629 74.2263 21.3267 74.32 21.3267V21.3269ZM89.8604 24.6861C89.8604 24.7771 89.8231 24.8644 89.7569 24.9287C89.6906 24.993 89.6007 25.0292 89.507 25.0292H89.408C87.7921 25.0292 86.6069 25.4057 85.853 26.1587C85.0987 26.9117 84.7222 28.1564 84.7222 29.8925V35.4795C84.7222 35.5705 84.685 35.6578 84.6187 35.7221C84.5524 35.7865 84.4625 35.8226 84.3688 35.8226H81.1328C81.0391 35.8226 80.9492 35.7865 80.8829 35.7221C80.8166 35.6578 80.7794 35.5705 80.7794 35.4795V21.6698C80.7794 21.5788 80.8166 21.4915 80.8829 21.4272C80.9492 21.3629 81.0391 21.3267 81.1328 21.3267H84.3363C84.43 21.3267 84.5199 21.3629 84.5862 21.4272C84.6525 21.4915 84.6897 21.5788 84.6897 21.6698V24.4013H84.7545C85.1422 23.2718 85.7562 22.4043 86.5968 21.7972C87.4366 21.1908 88.4709 20.8873 89.6988 20.8873H89.8604V24.6859V24.6861ZM98.7962 24.5585C98.7025 24.5585 98.6126 24.5946 98.5463 24.659C98.4801 24.7233 98.4428 24.8106 98.4428 24.9016V30.6455C98.4428 31.2313 98.5606 31.6496 98.7981 31.9005C99.0349 32.1515 99.4443 32.277 100.026 32.277H100.351C100.445 32.277 100.535 32.3132 100.601 32.3775C100.667 32.4419 100.705 32.5291 100.705 32.6201V35.5106C100.705 35.6016 100.667 35.6889 100.601 35.7532C100.535 35.8176 100.445 35.8537 100.351 35.8537H98.9595C97.516 35.8537 96.4067 35.493 95.6311 34.7714C94.8553 34.0497 94.4675 32.9781 94.4675 31.5554V24.9016C94.4675 24.8106 94.4303 24.7233 94.364 24.659C94.2978 24.5946 94.2079 24.5585 94.1141 24.5585H92.0742C91.9805 24.5585 91.8906 24.5223 91.8243 24.458C91.758 24.3936 91.7208 24.3064 91.7208 24.2154V21.6698C91.7208 21.5788 91.758 21.4915 91.8243 21.4272C91.8906 21.3629 91.9805 21.3267 92.0742 21.3267H94.1144C94.2081 21.3267 94.298 21.2906 94.3643 21.2262C94.4305 21.1619 94.4678 21.0746 94.4678 20.9836V15.8653C94.4678 15.7743 94.505 15.687 94.5713 15.6227C94.6375 15.5583 94.7274 15.5222 94.8211 15.5222H98.0892C98.1829 15.5222 98.2728 15.5583 98.3391 15.6227C98.4054 15.687 98.4426 15.7743 98.4426 15.8653V20.9836C98.4426 21.0746 98.4798 21.1619 98.5461 21.2262C98.6124 21.2906 98.7023 21.3267 98.796 21.3267H101.159C101.253 21.3267 101.343 21.3629 101.409 21.4272C101.475 21.4915 101.513 21.5788 101.513 21.6698V24.2156C101.513 24.3066 101.475 24.3939 101.409 24.4582C101.343 24.5225 101.253 24.5587 101.159 24.5587H98.7962V24.5585ZM113.761 31.524C114.504 30.7711 114.876 29.788 114.876 28.5745C114.876 27.3618 114.504 26.3783 113.761 25.6253C113.018 24.8723 112.043 24.4958 110.836 24.4958C109.63 24.4958 108.655 24.8723 107.912 25.6253C107.169 26.3783 106.797 27.3618 106.797 28.5745C106.797 29.788 107.169 30.7711 107.912 31.524C108.655 32.277 109.63 32.6535 110.836 32.6535C112.043 32.6535 113.018 32.277 113.761 31.524ZM106.215 35.3832C105.116 34.7769 104.249 33.8928 103.614 32.732C102.978 31.5712 102.66 30.1855 102.66 28.5745C102.66 26.9643 102.978 25.5782 103.614 24.4173C104.249 23.2565 105.116 22.3732 106.215 21.7661C107.314 21.1595 108.52 20.8562 109.834 20.8562C110.998 20.8562 111.994 21.0758 112.824 21.515C113.653 21.9541 114.315 22.5715 114.811 23.3663H114.876V21.6698C114.876 21.5788 114.913 21.4915 114.979 21.4272C115.046 21.3629 115.135 21.3267 115.229 21.3267H118.465C118.559 21.3267 118.649 21.3629 118.715 21.4272C118.781 21.4915 118.818 21.5788 118.818 21.6698V35.4793C118.818 35.5703 118.781 35.6576 118.715 35.7219C118.649 35.7862 118.559 35.8224 118.465 35.8224H115.229C115.135 35.8224 115.046 35.7862 114.979 35.7219C114.913 35.6576 114.876 35.5703 114.876 35.4793V33.783H114.811C114.315 34.5783 113.653 35.195 112.824 35.6341C111.994 36.0733 110.998 36.2929 109.834 36.2929C108.52 36.2929 107.314 35.9896 106.215 35.3832ZM132.276 31.524C133.019 30.7711 133.391 29.788 133.391 28.5745C133.391 27.3618 133.019 26.3783 132.276 25.6253C131.533 24.8723 130.558 24.4958 129.351 24.4958C128.145 24.4958 127.17 24.8723 126.427 25.6253C125.684 26.3783 125.312 27.3618 125.312 28.5745C125.312 29.788 125.684 30.7711 126.427 31.524C127.17 32.277 128.145 32.6535 129.351 32.6535C130.558 32.6535 131.533 32.277 132.276 31.524ZM127.364 35.6341C126.534 35.195 125.872 34.5783 125.376 33.783H125.312V35.4793C125.312 35.5703 125.274 35.6576 125.208 35.7219C125.142 35.7862 125.052 35.8224 124.958 35.8224H121.69C121.596 35.8224 121.507 35.7862 121.44 35.7219C121.374 35.6576 121.337 35.5703 121.337 35.4793V14.2022C121.337 14.1112 121.374 14.0239 121.44 13.9595C121.507 13.8952 121.596 13.8591 121.69 13.8591H124.958C125.052 13.8591 125.142 13.8952 125.208 13.9595C125.274 14.0239 125.312 14.1112 125.312 14.2022V23.3661H125.376C125.872 22.5712 126.534 21.9541 127.364 21.515C128.193 21.0756 129.19 20.856 130.353 20.856C131.667 20.856 132.874 21.1593 133.973 21.7659C135.071 22.3729 135.938 23.2563 136.574 24.4169C137.209 25.5784 137.528 26.9645 137.528 28.5748C137.528 30.1857 137.209 31.5712 136.574 32.7322C135.939 33.893 135.072 34.7771 133.973 35.3832C132.874 35.9898 131.667 36.2933 130.353 36.2933C129.19 36.2933 128.193 36.0738 127.364 35.6344L127.364 35.6341ZM143.034 35.8226H139.766C139.672 35.8226 139.582 35.7865 139.516 35.7221C139.45 35.6578 139.412 35.5705 139.412 35.4795V14.2028C139.412 14.1118 139.45 14.0246 139.516 13.9602C139.582 13.8959 139.672 13.8597 139.766 13.8597H143.034C143.127 13.8597 143.217 13.8959 143.284 13.9602C143.35 14.0246 143.387 14.1118 143.387 14.2028V35.4795C143.387 35.5705 143.35 35.6578 143.284 35.7221C143.217 35.7865 143.127 35.8226 143.034 35.8226ZM150.743 24.6843C150.201 25.0946 149.835 25.687 149.646 26.462C149.593 26.6756 149.765 26.8806 149.991 26.8806H156.211C156.427 26.8806 156.596 26.693 156.561 26.4862C156.437 25.7531 156.113 25.1687 155.59 24.7314C154.976 24.219 154.173 23.9628 153.182 23.9628C152.191 23.9628 151.378 24.2032 150.743 24.6843ZM158.709 22.88C159.98 24.2295 160.615 26.1383 160.615 28.6061V29.016C160.615 29.107 160.578 29.1943 160.512 29.2586C160.445 29.323 160.356 29.3591 160.262 29.3591H149.871C149.82 29.3592 149.769 29.3703 149.722 29.3915C149.675 29.4128 149.633 29.4437 149.6 29.4822C149.567 29.5207 149.542 29.5657 149.529 29.6142C149.515 29.6627 149.513 29.7135 149.522 29.763C149.688 30.6798 150.105 31.4081 150.775 31.9477C151.539 32.5652 152.504 32.8733 153.667 32.8733C155.169 32.8733 156.559 32.3043 157.838 31.1659C157.994 31.0268 158.241 31.0563 158.363 31.2253L159.951 33.4395C160.001 33.5083 160.023 33.5926 160.013 33.6761C160.003 33.7597 159.962 33.8368 159.897 33.8928C159.117 34.5556 158.25 35.1148 157.319 35.5559C156.285 36.0472 155.067 36.2933 153.667 36.2933C152.052 36.2933 150.64 35.974 149.434 35.3363C148.227 34.6986 147.29 33.7992 146.622 32.638C145.954 31.4772 145.621 30.1334 145.621 28.6061C145.621 27.0796 145.944 25.7305 146.59 24.5587C147.236 23.3876 148.141 22.4777 149.305 21.829C150.468 21.181 151.825 20.8564 153.377 20.8564C155.659 20.8564 157.437 21.5312 158.709 22.88ZM78.3684 16.2216C78.3684 17.5158 77.2877 18.565 75.9545 18.565C74.6211 18.565 73.5405 17.5158 73.5405 16.2214C73.5405 14.927 74.6214 13.8778 75.9545 13.8778C77.2877 13.8778 78.3684 14.927 78.3684 16.2214" fill="#333333"/>
<path d="M19.0281 7.67112L3.48868 13.9139C2.62454 14.2611 2.6335 15.4531 3.50305 15.7877L19.1072 21.7956C20.4782 22.3235 22.0051 22.3235 23.3761 21.7956L38.9805 15.7875C39.8498 15.4531 39.8593 14.2614 38.9946 13.9141L23.4557 7.6709C22.0381 7.10134 20.4455 7.10134 19.0278 7.6709" fill="#FCB400"/>
<path d="M22.625 25.0761V40.0848C22.625 40.7985 23.3664 41.2875 24.0498 41.0245L41.4377 34.4718C41.6316 34.3971 41.798 34.2676 41.9152 34.1001C42.0324 33.9325 42.095 33.7347 42.095 33.5321V18.5236C42.095 17.8098 41.3536 17.321 40.6701 17.584L23.2823 24.1367C23.0884 24.2114 22.9221 24.3409 22.8049 24.5084C22.6877 24.676 22.625 24.8738 22.625 25.0764" fill="#18BFFF"/>
<path d="M18.5653 25.8505L13.4049 28.2696L12.881 28.5155L1.98786 33.5831C1.29759 33.9065 0.416016 33.4179 0.416016 32.6732V18.5864C0.416016 18.317 0.558311 18.0844 0.749138 17.9094C0.827423 17.8337 0.916238 17.769 1.013 17.7173C1.27309 17.5656 1.64437 17.5251 1.96006 17.6464L18.4786 24.001C19.3182 24.3244 19.3842 25.4667 18.5653 25.8508" fill="#F82B60"/>
<path d="M18.5661 25.8505L13.4058 28.2696L0.75 17.9092C0.828301 17.8336 0.917116 17.769 1.01386 17.7173C1.27395 17.5656 1.64524 17.5251 1.96092 17.6464L18.4794 24.001C19.3191 24.3244 19.385 25.4667 18.5661 25.8508" fill="black" fill-opacity="0.25"/>
</g>
<defs>
<clipPath id="clip0_270_6775">
<rect width="160.417" height="50" fill="white" transform="translate(0.416016)"/>
</clipPath>
</defs>
</svg>
