<svg width="171" height="50" viewBox="0 0 171 50" fill="none" xmlns="http://www.w3.org/2000/svg">
<g clip-path="url(#clip0_270_6781)">
<path d="M11.0192 33.3335C10.1269 32.4373 9.42105 31.3746 8.94201 30.2065C8.46297 29.0383 8.22017 27.7875 8.22754 26.5258C8.2243 25.2641 8.47381 24.0144 8.96149 22.8499C9.44917 21.6853 10.1652 20.6291 11.0678 19.7432C11.4544 19.4012 11.7668 18.9842 11.9859 18.5178C12.205 18.0514 12.3261 17.5454 12.3419 17.0308C12.3576 16.5162 12.2677 16.0038 12.0776 15.525C11.8874 15.0462 11.6011 14.611 11.2361 14.2462C10.8712 13.8813 10.4352 13.5945 9.95496 13.4032C9.47472 13.2118 8.9603 13.1201 8.4432 13.1336C7.92609 13.147 7.41719 13.2654 6.94765 13.4814C6.47811 13.6975 6.05781 14.0066 5.71249 14.3899C2.46891 17.5992 0.63894 21.9595 0.625079 26.5116C0.611219 31.0637 2.4146 35.4349 5.63858 38.6637C5.98277 39.0465 6.40169 39.3555 6.86979 39.5719C7.33789 39.7883 7.84537 39.9076 8.36128 39.9224C8.8772 39.9373 9.39074 39.8474 9.87061 39.6582C10.3505 39.469 10.7866 39.1846 11.1524 38.8222C11.5183 38.4598 11.8061 38.0271 11.9984 37.5504C12.1907 37.0736 12.2835 36.5629 12.271 36.0494C12.2585 35.5358 12.1411 35.0302 11.9259 34.5633C11.7107 34.0963 11.4022 33.6779 11.0192 33.3335Z" fill="#FFDA00"/>
<path d="M11.0674 19.7429C12.8864 17.9506 15.3451 16.9493 17.9046 16.9583C20.4641 16.9674 22.9156 17.9861 24.7218 19.7912C25.0647 20.1781 25.4836 20.491 25.9526 20.7108C26.4216 20.9305 26.9307 21.0525 27.4488 21.0692C27.9669 21.0859 28.4829 20.9969 28.9652 20.8078C29.4475 20.6187 29.8858 20.3334 30.2532 19.9694C30.6206 19.6055 30.9093 19.1706 31.1016 18.6914C31.2939 18.2123 31.3857 17.6991 31.3714 17.1834C31.3571 16.6677 31.2369 16.1603 31.0183 15.6925C30.7997 15.2247 30.4873 14.8064 30.1003 14.4632C28.5098 12.8597 26.6168 11.5848 24.5299 10.7117C22.4429 9.83853 20.2033 9.38432 17.9395 9.37514C15.6757 9.36596 13.4324 9.80199 11.3384 10.6582C9.2444 11.5144 7.34097 12.7739 5.73743 14.3644C5.3494 14.7047 5.03523 15.1202 4.81412 15.5855C4.59302 16.0508 4.46965 16.5561 4.45155 17.0706C4.43345 17.585 4.52101 18.0977 4.70887 18.5772C4.89672 19.0568 5.18093 19.4932 5.54409 19.8596C5.90725 20.2261 6.34172 20.515 6.82092 20.7085C7.30012 20.9021 7.81397 20.9963 8.33101 20.9854C8.84805 20.9744 9.35741 20.8586 9.82793 20.645C10.2984 20.4313 10.7202 20.1244 11.0674 19.7429Z" fill="#67B3FF"/>
<path d="M24.699 33.3815C23.7988 34.2714 22.7312 34.9758 21.5571 35.4544C20.3831 35.933 19.1257 36.1764 17.857 36.1706C16.5886 36.1725 15.3326 35.9225 14.1625 35.4352C12.9924 34.948 11.9317 34.2334 11.0425 33.3332C10.6989 32.9483 10.2799 32.6374 9.81131 32.4193C9.34271 32.2013 8.83433 32.0807 8.31729 32.065C7.80025 32.0494 7.28543 32.1389 6.80436 32.3281C6.32329 32.5174 5.88609 32.8023 5.51953 33.1656C5.15296 33.5289 4.86475 33.9628 4.67254 34.4408C4.48033 34.9188 4.38817 35.4308 4.40169 35.9454C4.41521 36.4601 4.53414 36.9666 4.75118 37.434C4.96823 37.9013 5.27883 38.3196 5.66397 38.6633C7.25717 40.2666 9.15261 41.5412 11.2417 42.4141C13.3307 43.2869 15.5723 43.7408 17.8379 43.7498C20.1035 43.7588 22.3487 43.3227 24.4446 42.4664C26.5406 41.6102 28.4462 40.3506 30.0522 38.76C30.407 38.4102 30.6891 37.9942 30.8824 37.5358C31.0757 37.0775 31.1764 36.5857 31.1788 36.0886C31.1811 35.5915 31.0851 35.0988 30.8961 34.6386C30.7072 34.1785 30.429 33.7599 30.0775 33.4067C29.726 33.0536 29.3081 32.7728 28.8476 32.5804C28.387 32.388 27.8929 32.2877 27.3935 32.2854C26.8941 32.2831 26.399 32.3787 25.9367 32.5667C25.4744 32.7548 25.0538 33.0317 24.699 33.3815Z" fill="#EB5A68"/>
<path d="M11.0674 19.7428C10.5346 20.2724 9.85579 20.6326 9.11703 20.7777C8.37828 20.9228 7.61288 20.8462 6.91791 20.5577C6.22294 20.2692 5.62973 19.7818 5.21351 19.1572C4.7973 18.5326 4.57685 17.7991 4.58011 17.0496C4.58338 16.3002 4.81022 15.5686 5.23186 14.9476C5.6535 14.3267 6.25094 13.8443 6.9484 13.5618C7.64585 13.2793 8.4119 13.2094 9.14936 13.3608C9.88682 13.5123 10.5625 13.8784 11.0906 14.4126C11.7942 15.1243 12.1866 16.084 12.1822 17.0824C12.1779 18.0809 11.7771 19.0372 11.0674 19.7428Z" fill="#47A1FF"/>
<path d="M10.994 38.6635C10.4611 39.1929 9.7821 39.5528 9.04329 39.6976C8.30448 39.8424 7.53911 39.7656 6.84426 39.4768C6.1494 39.188 5.55638 38.7003 5.14042 38.0756C4.72446 37.4508 4.50429 36.7172 4.50786 35.9678C4.51142 35.2183 4.73855 34.4868 5.16043 33.866C5.58232 33.2452 6.17995 32.7631 6.87751 32.4809C7.57508 32.1987 8.34115 32.129 9.07855 32.2808C9.81595 32.4325 10.4915 32.7989 11.0194 33.3333C11.7227 34.0453 12.1147 35.0051 12.1099 36.0036C12.1052 37.002 11.7041 37.9581 10.994 38.6635Z" fill="#D5465F"/>
<path d="M47.0157 30.2333C48.1116 29.4093 48.2574 29.8696 49.1823 30.7902C49.6448 31.2505 50.9097 32.0513 50.0819 32.7281C48.3545 34.1321 46.796 34.7627 44.5914 34.7627C39.6014 34.7395 36.0728 31.0319 36.3557 26.1137C36.4761 23.911 37.3525 21.826 39.0819 20.3968C40.6636 19.0642 42.6339 18.4841 44.7033 18.5325C45.7176 18.5295 46.7225 18.7266 47.6597 19.1126C48.2946 19.3407 48.8928 19.6593 49.4357 20.0584C50.5317 20.8991 50.0206 21.3909 49.1675 22.238C48.9732 22.4313 48.7789 22.6268 48.6079 22.8202C48.1708 23.2552 47.8772 23.5705 47.2944 23.1586C46.1752 22.383 44.7604 21.971 43.4236 22.3178C39.1157 23.4066 39.31 31.0382 44.5935 31.0635C45.4694 31.052 46.3184 30.761 47.0157 30.2333ZM166.765 34.8572C166.592 34.8581 166.421 34.8248 166.261 34.7595C166.101 34.6941 165.956 34.5979 165.833 34.4763C165.711 34.3548 165.614 34.2103 165.548 34.0513C165.482 33.8923 165.449 33.7219 165.449 33.5499L165.523 16.6408C165.522 16.4688 165.556 16.2984 165.621 16.1393C165.687 15.9801 165.784 15.8356 165.906 15.7138C166.028 15.5921 166.173 15.4956 166.333 15.43C166.492 15.3644 166.664 15.3309 166.837 15.3314H168.249C168.422 15.3309 168.594 15.3644 168.754 15.4302C168.913 15.496 169.059 15.5926 169.181 15.7146C169.303 15.8365 169.4 15.9814 169.465 16.1407C169.531 16.3001 169.564 16.4708 169.563 16.643L169.489 33.552C169.49 33.7239 169.456 33.8943 169.391 34.0533C169.325 34.2123 169.228 34.3567 169.106 34.4783C168.984 34.5999 168.839 34.6961 168.679 34.7615C168.519 34.8269 168.348 34.8602 168.175 34.8593L166.765 34.8572ZM159.374 32.8962C157.841 34.3255 156.379 35.0758 154.213 35.0758C149.833 35.0506 147.738 31.4418 147.738 27.3958L147.764 20.5166C147.763 20.3447 147.797 20.1743 147.863 20.0155C147.929 19.8566 148.026 19.7123 148.148 19.5909C148.27 19.4696 148.415 19.3735 148.575 19.3084C148.735 19.2432 148.906 19.2103 149.079 19.2114H150.492C150.665 19.2105 150.836 19.2438 150.996 19.3092C151.155 19.3746 151.3 19.4708 151.423 19.5924C151.545 19.714 151.641 19.8584 151.707 20.0174C151.773 20.1764 151.806 20.3468 151.805 20.5187L151.782 27.3979C151.782 29.6511 152.998 31.4187 155.385 31.4187C157.771 31.4187 159.23 29.4325 159.253 27.2151V24.758C159.234 24.6626 159.226 24.5652 159.23 24.468L159.253 20.567C159.253 20.3951 159.286 20.2247 159.352 20.0658C159.417 19.9068 159.514 19.7623 159.636 19.6407C159.758 19.5192 159.903 19.4229 160.063 19.3575C160.223 19.2921 160.394 19.2589 160.567 19.2597H161.961C162.133 19.2589 162.304 19.2921 162.464 19.3575C162.624 19.4229 162.769 19.5192 162.891 19.6407C163.013 19.7623 163.11 19.9068 163.176 20.0658C163.242 20.2247 163.275 20.3951 163.274 20.567L163.228 33.552C163.224 33.8956 163.084 34.2238 162.838 34.4646C162.592 34.7054 162.259 34.839 161.914 34.8362H160.721C160.382 34.8257 160.06 34.687 159.82 34.4484C159.581 34.2098 159.441 33.8893 159.431 33.552L159.374 32.8962ZM142.571 19.2597H145.297C145.47 19.2622 145.641 19.2987 145.799 19.3671C145.958 19.4355 146.101 19.5345 146.221 19.6584C146.341 19.7823 146.435 19.9286 146.498 20.0889C146.561 20.2492 146.591 20.4202 146.587 20.5923V21.4876C146.585 21.8328 146.446 22.1631 146.201 22.4075C145.956 22.652 145.625 22.7911 145.278 22.7949H142.545L142.497 33.4784C142.498 33.6505 142.464 33.8209 142.399 33.98C142.333 34.1391 142.236 34.2837 142.114 34.4055C141.992 34.5272 141.847 34.6237 141.687 34.6893C141.527 34.7549 141.356 34.7884 141.183 34.7879H139.773C139.6 34.7884 139.429 34.7549 139.269 34.6893C139.109 34.6237 138.964 34.5273 138.841 34.4056C138.719 34.2839 138.622 34.1393 138.556 33.9802C138.49 33.8211 138.457 33.6506 138.457 33.4784L138.506 18.7027C138.506 15.4807 140.356 12.9354 143.667 12.6453C143.764 12.6453 143.836 12.6222 143.933 12.6222C144.128 12.6096 144.323 12.6096 144.518 12.6222H145.785C145.958 12.6246 146.128 12.6611 146.286 12.7294C146.445 12.7977 146.588 12.8965 146.708 13.0202C146.828 13.1438 146.922 13.2899 146.985 13.4499C147.048 13.6099 147.079 13.7808 147.075 13.9526V14.7765C147.073 15.1228 146.934 15.4542 146.688 15.6993C146.442 15.9443 146.109 16.0832 145.762 16.086H144.74C143.181 16.086 142.524 17.2714 142.499 18.7258L142.571 19.2597ZM132.787 19.2114H135.775C136.12 19.2147 136.45 19.3542 136.692 19.5993C136.934 19.8445 137.068 20.1751 137.066 20.5187V21.4141C137.062 21.7576 136.922 22.0858 136.676 22.3266C136.429 22.5674 136.097 22.7011 135.752 22.6983H132.762L132.739 29.2349C132.739 30.496 133.347 31.2211 134.612 31.2211H135.22C135.565 31.225 135.895 31.365 136.137 31.6104C136.379 31.8559 136.513 32.1868 136.51 32.5305V33.4385C136.506 33.7819 136.366 34.1098 136.12 34.3505C135.874 34.5911 135.542 34.725 135.197 34.7227H134.052C133.841 34.7269 133.629 34.7185 133.419 34.6975C130.181 34.4873 128.745 32.3981 128.745 29.2475C128.771 25.0082 128.771 20.794 128.794 16.5547C128.796 16.3844 128.831 16.2161 128.898 16.0594C128.965 15.9026 129.062 15.7606 129.185 15.6414C129.307 15.5221 129.451 15.428 129.61 15.3643C129.769 15.3007 129.938 15.2688 130.11 15.2705H131.497C131.842 15.2738 132.172 15.4133 132.414 15.6585C132.656 15.9036 132.79 16.2342 132.787 16.5778V19.2114ZM89.4971 19.0411H92.4851C92.8303 19.0444 93.1601 19.184 93.402 19.4291C93.6439 19.6742 93.7782 20.0049 93.7754 20.3484V21.248C93.7715 21.5914 93.6311 21.9193 93.385 22.16C93.1388 22.4006 92.8069 22.5345 92.4619 22.5322H89.4633V29.071C89.4633 30.332 90.0714 31.0572 91.3364 31.0572H91.9466C92.1175 31.0588 92.2863 31.0939 92.4435 31.1605C92.6007 31.2271 92.7432 31.3239 92.8628 31.4453C92.9824 31.5667 93.0768 31.7103 93.1406 31.8681C93.2045 32.0258 93.2365 32.1945 93.2348 32.3645V33.2599C93.2314 33.6034 93.0912 33.9316 92.845 34.1724C92.5987 34.4132 92.2665 34.5469 91.9213 34.5441H91.0217C87.4909 34.5209 85.4468 33.0182 85.4468 29.0794C85.4721 24.84 85.4721 20.6238 85.4954 16.3844C85.4993 16.0407 85.6399 15.7125 85.8865 15.4717C86.1331 15.231 86.4656 15.0974 86.811 15.1002H88.1984C88.5435 15.1041 88.8731 15.2442 89.1146 15.4897C89.3561 15.7352 89.4899 16.0661 89.4865 16.4097L89.4971 19.0411ZM71.9255 20.8823C73.3614 19.5498 74.9199 18.7027 76.9387 18.7027C81.3205 18.7258 83.5843 22.2758 83.5589 26.3806L83.5357 33.2599C83.5362 33.432 83.5026 33.6025 83.4367 33.7616C83.3708 33.9207 83.2739 34.0653 83.1516 34.187C83.0293 34.3087 82.8841 34.4051 82.7242 34.4707C82.5643 34.5364 82.393 34.5698 82.2201 34.5693H80.8095C80.6365 34.5698 80.4652 34.5364 80.3053 34.4707C80.1455 34.4051 80.0002 34.3087 79.8779 34.187C79.7557 34.0653 79.6588 33.9207 79.5929 33.7616C79.5269 33.6025 79.4933 33.432 79.4939 33.2599L79.5192 26.429C79.5192 24.1758 78.3029 22.4082 75.9166 22.4082C73.5304 22.4082 72.0712 24.3713 72.0479 26.5992L72.0226 33.2599C72.0193 33.6034 71.8791 33.9316 71.6328 34.1724C71.3865 34.4132 71.0543 34.5469 70.7091 34.5441H69.3217C68.9765 34.5407 68.6468 34.4012 68.4049 34.1561C68.1629 33.911 68.0287 33.5803 68.0315 33.2367C68.0547 29.0941 68.0547 24.9283 68.08 20.7856V20.2286C68.0811 19.8854 68.2189 19.5567 68.4631 19.3144C68.7074 19.0721 69.0381 18.936 69.383 18.936H70.5761C70.9151 18.9461 71.2374 19.0846 71.4773 19.3233C71.7171 19.562 71.8563 19.8828 71.8663 20.2202L71.9255 20.8823ZM115.298 21.0504C116.734 19.72 118.29 18.8709 120.311 18.8709C124.693 18.8961 126.955 22.4566 126.931 26.5509L126.906 33.4385C126.907 33.6105 126.874 33.781 126.808 33.9401C126.742 34.0992 126.646 34.2438 126.523 34.3655C126.401 34.4873 126.256 34.5837 126.096 34.6494C125.937 34.715 125.765 34.7485 125.593 34.7479H124.182C124.009 34.7485 123.838 34.715 123.678 34.6494C123.518 34.5838 123.373 34.4874 123.25 34.3657C123.128 34.244 123.031 34.0994 122.965 33.9403C122.899 33.7811 122.866 33.6106 122.866 33.4385L122.892 26.6076C122.892 24.3545 121.673 22.5869 119.289 22.5869C116.905 22.5869 115.444 24.5479 115.418 26.7779L115.385 33.4385C115.381 33.7823 115.24 34.1105 114.993 34.3512C114.747 34.5919 114.414 34.7255 114.069 34.7227H112.682C112.337 34.7188 112.008 34.5791 111.766 34.334C111.525 34.0889 111.391 33.7586 111.393 33.4154L111.442 20.4052C111.443 20.2342 111.477 20.065 111.544 19.9073C111.61 19.7496 111.707 19.6066 111.83 19.4864C111.952 19.3663 112.097 19.2714 112.256 19.2073C112.415 19.1431 112.586 19.1109 112.758 19.1126H113.951C114.291 19.1238 114.614 19.2641 114.854 19.5049C115.093 19.7457 115.231 20.0685 115.239 20.4073L115.298 21.0504ZM58.6745 18.5808C53.9273 18.5556 50.5697 21.971 50.5443 26.6707C50.5211 31.4187 53.8302 34.7879 58.6259 34.811C63.4216 34.8341 66.7792 31.4922 66.8024 26.7127C66.8278 22.0446 63.3962 18.6039 58.6745 18.5808ZM98.0791 28.2954C98.4191 30.475 100.514 31.3703 102.558 31.3956C103.583 31.3866 104.594 31.164 105.527 30.7419C105.677 30.6811 105.823 30.6109 105.964 30.5317C106.452 30.2648 106.889 30.0966 107.328 30.5317C107.571 30.7734 107.791 31.0172 108.034 31.2337C108.263 31.4515 108.475 31.687 108.667 31.9378C109.324 32.7596 108.861 32.9551 108.108 33.4637C106.501 34.5294 104.408 35.0611 102.484 35.0611C97.3252 35.038 93.9169 31.9084 93.9169 26.7295C93.9422 21.8344 97.3484 18.5892 102.264 18.6123C107.28 18.6376 110.126 21.5696 110.2 26.5593C110.224 27.915 110.272 28.3521 108.861 28.3521L98.0791 28.2954ZM58.6745 22.238C61.1325 22.238 62.7627 24.3713 62.7627 26.7211C62.7627 29.1676 61.2296 31.1349 58.6491 31.1349C56.0686 31.1349 54.5608 29.1487 54.5608 26.7022C54.5608 24.2557 56.1193 22.238 58.6745 22.238ZM98.1868 24.9283L106.268 24.9514C105.975 22.94 104.296 22.1413 102.374 22.1413C100.453 22.1413 98.7844 23.0388 98.1868 24.9283Z" fill="#29303A"/>
</g>
<defs>
<clipPath id="clip0_270_6781">
<rect width="169.792" height="50" fill="white" transform="translate(0.625)"/>
</clipPath>
</defs>
</svg>
