<svg width="44" height="44" viewBox="0 0 44 44" fill="none" xmlns="http://www.w3.org/2000/svg">
<path d="M38.2031 4.10547H5.28992C3.55317 4.10547 2.14062 6.17766 2.14062 8.7255V26.8996C2.14062 29.4474 3.55317 31.5197 5.28992 31.5197H38.2108C39.9475 31.5197 41.3601 29.4474 41.3601 26.8996V8.7255C41.3524 6.17766 39.9398 4.10547 38.2031 4.10547ZM39.1758 26.8996C39.1758 27.6809 38.7435 28.315 38.2108 28.315H5.28992C4.75732 28.315 4.32507 27.6809 4.32507 26.8996V8.7255C4.32507 7.94413 4.75732 7.31002 5.28992 7.31002H38.2108C38.7435 7.31002 39.1758 7.94413 39.1758 8.7255V26.8996Z" fill="#44A1ED"/>
<path d="M33.1708 22.1992H10.3224C9.84153 22.1992 9.45312 22.9126 9.45312 23.7958C9.45312 24.6792 9.84153 25.3926 10.3224 25.3926H33.1769C33.6578 25.3926 34.0462 24.6792 34.0462 23.7958C34.0462 22.9126 33.6516 22.1992 33.1708 22.1992Z" fill="#44A1ED"/>
<path d="M33.1163 10.0625C32.1325 10.0625 31.3379 10.7759 31.3379 11.6591V12.1913C31.3379 13.0746 32.1325 13.7879 33.1163 13.7879C34.0999 13.7879 34.8944 13.0746 34.8944 12.1913V11.6591C34.8944 10.7759 34.0999 10.0625 33.1163 10.0625Z" fill="#44A1ED"/>
<path d="M33.1163 16.1094C32.1325 16.1094 31.3379 16.8226 31.3379 17.706V18.2382C31.3379 19.1213 32.1325 19.8347 33.1163 19.8347C34.0999 19.8347 34.8944 19.1213 34.8944 18.2382V17.706C34.8944 16.8341 34.0999 16.1094 33.1163 16.1094Z" fill="#44A1ED"/>
<path d="M11.39 33.8813C10.8622 33.7493 10.3343 34.0688 10.2024 34.5967L9.4731 37.4998C9.34114 38.0277 9.66062 38.5624 10.1885 38.6874C10.7927 38.8263 11.265 38.4166 11.3761 37.9721L12.1054 35.0689C12.2373 34.548 11.9178 34.0133 11.39 33.8813Z" fill="#44A1ED"/>
<path d="M18.292 35.0157C17.7503 34.9671 17.278 35.37 17.2364 35.9117L16.9932 38.8981C16.9515 39.4398 17.3475 39.9261 17.8892 39.9538C18.4518 39.9886 18.9033 39.5718 18.9449 39.0579L19.188 36.0713C19.2366 35.5366 18.8337 35.0643 18.292 35.0157Z" fill="#44A1ED"/>
<path d="M34.0175 37.5014L33.2882 34.5984C33.1562 34.0704 32.6215 33.758 32.1006 33.8829C31.5727 34.015 31.2532 34.5497 31.3852 35.0706L32.1144 37.9738C32.2256 38.4183 32.7048 38.8281 33.3022 38.6892C33.83 38.5641 34.1495 38.0223 34.0175 37.5014Z" fill="#44A1ED"/>
<path d="M26.4956 38.8981L26.2525 35.9116C26.2038 35.3769 25.7385 34.967 25.1967 35.0156C24.655 35.0574 24.2522 35.5296 24.3009 36.0714L24.5438 39.0579C24.5856 39.5719 25.0439 39.9885 25.5996 39.9537C26.1413 39.9191 26.5372 39.4399 26.4956 38.8981Z" fill="#44A1ED"/>
</svg>
