<svg width="20" height="20" viewBox="0 0 20 20" fill="none" xmlns="http://www.w3.org/2000/svg">
<path d="M15.5917 8.84025C15.5142 8.76214 15.422 8.70015 15.3205 8.65784C15.2189 8.61553 15.11 8.59375 15 8.59375C14.89 8.59375 14.7811 8.61553 14.6795 8.65784C14.578 8.70015 14.4858 8.76214 14.4083 8.84025L10.5917 12.6569C10.5142 12.735 10.422 12.797 10.3205 12.8393C10.2189 12.8816 10.11 12.9034 10 12.9034C9.89 12.9034 9.78108 12.8816 9.67953 12.8393C9.57798 12.797 9.48581 12.735 9.40834 12.6569L5.59168 8.84025C5.51421 8.76214 5.42204 8.70015 5.32049 8.65784C5.21894 8.61553 5.11002 8.59375 5.00001 8.59375C4.89 8.59375 4.78108 8.61553 4.67953 8.65784C4.57798 8.70015 4.48581 8.76214 4.40834 8.84025C4.25313 8.99638 4.16602 9.20759 4.16602 9.42775C4.16602 9.6479 4.25313 9.85911 4.40834 10.0152L8.23334 13.8402C8.70209 14.3084 9.33751 14.5714 10 14.5714C10.6625 14.5714 11.2979 14.3084 11.7667 13.8402L15.5917 10.0152C15.7469 9.85911 15.834 9.6479 15.834 9.42775C15.834 9.20759 15.7469 8.99638 15.5917 8.84025Z" fill="#242429"/>
</svg>
