<svg width="20" height="20" viewBox="0 0 20 20" fill="none" xmlns="http://www.w3.org/2000/svg">
<path d="M13.1588 15.5914C13.2369 15.514 13.2989 15.4218 13.3412 15.3202C13.3835 15.2187 13.4053 15.1098 13.4053 14.9998C13.4053 14.8898 13.3835 14.7808 13.3412 14.6793C13.2989 14.5777 13.2369 14.4856 13.1588 14.4081L9.34211 10.5914C9.264 10.514 9.20201 10.4218 9.1597 10.3202C9.11739 10.2187 9.09561 10.1098 9.09561 9.99976C9.09561 9.88975 9.11739 9.78083 9.1597 9.67928C9.20201 9.57773 9.264 9.48557 9.34211 9.4081L13.1588 5.59143C13.2369 5.51396 13.2989 5.4218 13.3412 5.32025C13.3835 5.2187 13.4053 5.10978 13.4053 4.99977C13.4053 4.88976 13.3835 4.78083 13.3412 4.67928C13.2989 4.57774 13.2369 4.48557 13.1588 4.4081C13.0026 4.25289 12.7914 4.16577 12.5713 4.16577C12.3511 4.16577 12.1399 4.25289 11.9838 4.4081L8.15878 8.2331C7.69061 8.70185 7.42764 9.33726 7.42764 9.99976C7.42764 10.6623 7.69061 11.2977 8.15878 11.7664L11.9838 15.5914C12.1399 15.7466 12.3511 15.8338 12.5713 15.8338C12.7914 15.8338 13.0026 15.7466 13.1588 15.5914Z" fill="#7E7E89"/>
</svg>
