<svg width="24" height="24" viewBox="0 0 24 24" fill="none" xmlns="http://www.w3.org/2000/svg">
<path d="M18.7123 8.20791C18.6193 8.11418 18.5087 8.03978 18.3868 7.98902C18.265 7.93825 18.1343 7.91211 18.0023 7.91211C17.8702 7.91211 17.7395 7.93825 17.6177 7.98902C17.4958 8.03978 17.3852 8.11418 17.2923 8.20791L12.7123 12.7879C12.6193 12.8816 12.5087 12.956 12.3868 13.0068C12.265 13.0576 12.1343 13.0837 12.0023 13.0837C11.8702 13.0837 11.7395 13.0576 11.6177 13.0068C11.4958 12.956 11.3852 12.8816 11.2923 12.7879L6.71226 8.20791C6.61929 8.11418 6.50869 8.03978 6.38683 7.98902C6.26497 7.93825 6.13427 7.91211 6.00226 7.91211C5.87025 7.91211 5.73954 7.93825 5.61768 7.98902C5.49582 8.03978 5.38522 8.11418 5.29226 8.20791C5.10601 8.39527 5.00146 8.64872 5.00146 8.91291C5.00146 9.17709 5.10601 9.43055 5.29226 9.61791L9.88226 14.2079C10.4448 14.7697 11.2073 15.0853 12.0023 15.0853C12.7973 15.0853 13.5598 14.7697 14.1223 14.2079L18.7123 9.61791C18.8985 9.43055 19.003 9.17709 19.003 8.91291C19.003 8.64872 18.8985 8.39527 18.7123 8.20791Z" fill="#7E7E89"/>
</svg>
