<svg width="24" height="24" viewBox="0 0 24 24" fill="none" xmlns="http://www.w3.org/2000/svg">
<path d="M18.7101 10.6083C18.6171 10.5146 18.5065 10.4402 18.3846 10.3894C18.2628 10.3387 18.1321 10.3125 18.0001 10.3125C17.868 10.3125 17.7373 10.3387 17.6155 10.3894C17.4936 10.4402 17.383 10.5146 17.2901 10.6083L12.7101 15.1883C12.6171 15.2821 12.5065 15.3565 12.3846 15.4072C12.2628 15.458 12.1321 15.4841 12.0001 15.4841C11.868 15.4841 11.7373 15.458 11.6155 15.4072C11.4936 15.3565 11.383 15.2821 11.2901 15.1883L6.71006 10.6083C6.6171 10.5146 6.5065 10.4402 6.38464 10.3894C6.26278 10.3387 6.13207 10.3125 6.00006 10.3125C5.86805 10.3125 5.73734 10.3387 5.61548 10.3894C5.49362 10.4402 5.38302 10.5146 5.29006 10.6083C5.10381 10.7957 4.99927 11.0491 4.99927 11.3133C4.99927 11.5775 5.10381 11.831 5.29006 12.0183L9.88006 16.6083C10.4426 17.1701 11.2051 17.4857 12.0001 17.4857C12.7951 17.4857 13.5576 17.1701 14.1201 16.6083L18.7101 12.0183C18.8963 11.831 19.0009 11.5775 19.0009 11.3133C19.0009 11.0491 18.8963 10.7957 18.7101 10.6083Z" fill="#7E7E89"/>
</svg>
