<svg width="16" height="16" viewBox="0 0 16 16" fill="none" xmlns="http://www.w3.org/2000/svg">
<path d="M12.4726 6.27142C12.4106 6.20893 12.3368 6.15934 12.2556 6.12549C12.1744 6.09164 12.0872 6.07422 11.9992 6.07422C11.9112 6.07422 11.8241 6.09164 11.7428 6.12549C11.6616 6.15934 11.5879 6.20893 11.5259 6.27142L8.47256 9.32475C8.41058 9.38724 8.33685 9.43683 8.25561 9.47068C8.17437 9.50452 8.08723 9.52195 7.99923 9.52195C7.91122 9.52195 7.82408 9.50452 7.74284 9.47068C7.6616 9.43683 7.58787 9.38724 7.52589 9.32475L4.47256 6.27142C4.41058 6.20893 4.33685 6.15934 4.25561 6.12549C4.17437 6.09164 4.08723 6.07422 3.99923 6.07422C3.91122 6.07422 3.82408 6.09164 3.74284 6.12549C3.6616 6.15934 3.58787 6.20893 3.52589 6.27142C3.40173 6.39633 3.33203 6.56529 3.33203 6.74142C3.33203 6.91754 3.40173 7.08651 3.52589 7.21142L6.58589 10.2714C6.96089 10.646 7.46922 10.8563 7.99923 10.8563C8.52923 10.8563 9.03756 10.646 9.41256 10.2714L12.4726 7.21142C12.5967 7.08651 12.6664 6.91754 12.6664 6.74142C12.6664 6.56529 12.5967 6.39633 12.4726 6.27142Z" fill="#555558"/>
</svg>
