<svg width="9" height="4" viewBox="0 0 9 4" fill="none" xmlns="http://www.w3.org/2000/svg">
<path d="M4.90591 2.72449C4.85279 2.77676 4.7896 2.81824 4.71997 2.84655C4.65034 2.87486 4.57565 2.88944 4.50022 2.88944C4.42479 2.88944 4.35011 2.87486 4.28048 2.84655C4.21085 2.81824 4.14765 2.77676 4.09453 2.72449L1.47754 0.164947C1.42442 0.112681 1.36122 0.0711958 1.29159 0.0428855C1.22196 0.0145752 1.14728 -2.82935e-08 1.07185 -2.49963e-08C0.996417 -2.16991e-08 0.921733 0.0145752 0.852103 0.0428855C0.782473 0.0711958 0.719276 0.112681 0.666157 0.164947C0.559734 0.269427 0.5 0.41076 0.5 0.558079C0.5 0.705399 0.559734 0.846732 0.666157 0.951212L3.28886 3.51075C3.61027 3.82403 4.04596 4 4.50022 4C4.95448 4 5.39017 3.82403 5.71158 3.51075L8.33428 0.951212C8.43985 0.847346 8.49936 0.707157 8.49999 0.560867C8.50042 0.487479 8.48601 0.414728 8.45758 0.346788C8.42914 0.278847 8.38724 0.217052 8.33428 0.164947C8.28117 0.112681 8.21797 0.0711955 8.14834 0.0428852C8.07871 0.0145749 8.00403 -3.28011e-07 7.92859 -3.24714e-07C7.85316 -3.21417e-07 7.77848 0.0145749 7.70885 0.0428852C7.63922 0.0711955 7.57602 0.112681 7.5229 0.164947L4.90591 2.72449Z" fill="#4B5675"/>
</svg>