<svg width="24" height="24" viewBox="0 0 24 24" fill="none" xmlns="http://www.w3.org/2000/svg">
<path d="M5.28994 10.6083C5.3829 10.5146 5.4935 10.4402 5.61536 10.3894C5.73722 10.3386 5.86793 10.3125 5.99994 10.3125C6.13195 10.3125 6.26266 10.3386 6.38451 10.3894C6.50637 10.4402 6.61697 10.5146 6.70994 10.6083L11.2899 15.1883C11.3829 15.282 11.4935 15.3564 11.6154 15.4072C11.7372 15.458 11.8679 15.4841 11.9999 15.4841C12.132 15.4841 12.2627 15.458 12.3845 15.4072C12.5064 15.3564 12.617 15.282 12.7099 15.1883L17.2899 10.6083C17.3829 10.5146 17.4935 10.4402 17.6154 10.3894C17.7372 10.3386 17.8679 10.3125 17.9999 10.3125C18.132 10.3125 18.2627 10.3386 18.3845 10.3894C18.5064 10.4402 18.617 10.5146 18.7099 10.6083C18.8962 10.7957 19.0007 11.0491 19.0007 11.3133C19.0007 11.5775 18.8962 11.8309 18.7099 12.0183L14.1199 16.6083C13.5574 17.1701 12.7949 17.4857 11.9999 17.4857C11.2049 17.4857 10.4424 17.1701 9.87994 16.6083L5.28994 12.0183C5.10369 11.8309 4.99914 11.5775 4.99914 11.3133C4.99914 11.0491 5.10369 10.7957 5.28994 10.6083Z" fill="#7E7E89"/>
</svg>
