<svg width="20" height="20" viewBox="0 0 20 20" fill="none" xmlns="http://www.w3.org/2000/svg">
<path d="M15.5917 8.09171C15.5142 8.01361 15.422 7.95161 15.3205 7.9093C15.2189 7.867 15.11 7.84521 15 7.84521C14.89 7.84521 14.7811 7.867 14.6795 7.9093C14.578 7.95161 14.4858 8.01361 14.4083 8.09171L10.5917 11.9084C10.5142 11.9865 10.422 12.0485 10.3205 12.0908C10.2189 12.1331 10.11 12.1549 10 12.1549C9.89 12.1549 9.78108 12.1331 9.67953 12.0908C9.57798 12.0485 9.48581 11.9865 9.40834 11.9084L5.59168 8.09171C5.51421 8.01361 5.42204 7.95161 5.32049 7.9093C5.21894 7.867 5.11002 7.84521 5.00001 7.84521C4.89 7.84521 4.78108 7.867 4.67953 7.9093C4.57798 7.95161 4.48581 8.01361 4.40834 8.09171C4.25313 8.24785 4.16602 8.45906 4.16602 8.67921C4.16602 8.89937 4.25313 9.11058 4.40834 9.26671L8.23334 13.0917C8.70209 13.5599 9.33751 13.8228 10 13.8228C10.6625 13.8228 11.2979 13.5599 11.7667 13.0917L15.5917 9.26671C15.7469 9.11058 15.834 8.89937 15.834 8.67921C15.834 8.45906 15.7469 8.24785 15.5917 8.09171Z" fill="#7E7E89"/>
</svg>
