<svg width="20" height="20" viewBox="0 0 20 20" fill="none" xmlns="http://www.w3.org/2000/svg">
<path d="M6.8383 4.40735C6.76019 4.48482 6.69819 4.57698 6.65589 4.67853C6.61358 4.78008 6.5918 4.88901 6.5918 4.99901C6.5918 5.10902 6.61358 5.21795 6.65589 5.3195C6.69819 5.42104 6.76019 5.51321 6.8383 5.59068L10.655 9.40735C10.7331 9.48482 10.7951 9.57698 10.8374 9.67853C10.8797 9.78008 10.9015 9.889 10.9015 9.99901C10.9015 10.109 10.8797 10.2179 10.8374 10.3195C10.7951 10.421 10.7331 10.5132 10.655 10.5907L6.8383 14.4073C6.76019 14.4848 6.69819 14.577 6.65589 14.6785C6.61358 14.7801 6.5918 14.889 6.5918 14.999C6.5918 15.109 6.61358 15.2179 6.65589 15.3195C6.69819 15.421 6.76019 15.5132 6.8383 15.5907C6.99443 15.7459 7.20564 15.833 7.4258 15.833C7.64595 15.833 7.85716 15.7459 8.0133 15.5907L11.8383 11.7657C12.3065 11.2969 12.5694 10.6615 12.5694 9.99901C12.5694 9.33651 12.3065 8.7011 11.8383 8.23235L8.0133 4.40735C7.85716 4.25214 7.64595 4.16502 7.4258 4.16502C7.20564 4.16502 6.99443 4.25214 6.8383 4.40735Z" fill="#7E7E89"/>
</svg>
