<svg width="20" height="20" viewBox="0 0 20 20" fill="none" xmlns="http://www.w3.org/2000/svg">
<path d="M15.5917 6.84025C15.5142 6.76214 15.422 6.70015 15.3205 6.65784C15.2189 6.61553 15.11 6.59375 15 6.59375C14.89 6.59375 14.7811 6.61553 14.6795 6.65784C14.578 6.70015 14.4858 6.76214 14.4083 6.84025L10.5917 10.6569C10.5142 10.735 10.422 10.797 10.3205 10.8393C10.2189 10.8816 10.11 10.9034 10 10.9034C9.89 10.9034 9.78108 10.8816 9.67953 10.8393C9.57798 10.797 9.48581 10.735 9.40834 10.6569L5.59168 6.84025C5.51421 6.76214 5.42204 6.70015 5.32049 6.65784C5.21894 6.61553 5.11002 6.59375 5.00001 6.59375C4.89 6.59375 4.78108 6.61553 4.67953 6.65784C4.57798 6.70015 4.48581 6.76214 4.40834 6.84025C4.25313 6.99638 4.16602 7.20759 4.16602 7.42775C4.16602 7.6479 4.25313 7.85911 4.40834 8.01525L8.23334 11.8402C8.70209 12.3084 9.33751 12.5714 10 12.5714C10.6625 12.5714 11.2979 12.3084 11.7667 11.8402L15.5917 8.01525C15.7469 7.85911 15.834 7.6479 15.834 7.42775C15.834 7.20759 15.7469 6.99638 15.5917 6.84025Z" fill="#7E7E89"/>
</svg>
