<svg width="30" height="30" viewBox="0 0 30 30" fill="none" xmlns="http://www.w3.org/2000/svg">
<path d="M28.125 15C28.125 22.245 22.2516 28.125 15 28.125C7.74844 28.125 1.875 22.245 1.875 15C1.875 7.74843 7.74844 1.875 15 1.875C22.2516 1.875 28.125 7.74843 28.125 15Z" fill="#283544"/>
<path d="M21.152 11.6788C21.0804 11.7206 19.3754 12.6023 19.3754 14.5574C19.4557 16.787 21.527 17.5689 21.5625 17.5689C21.527 17.6106 21.2498 18.634 20.4288 19.7068C19.7772 20.6308 19.054 21.5625 17.9557 21.5625C16.9111 21.5625 16.5361 20.9466 15.3307 20.9466C14.0363 20.9466 13.67 21.5625 12.6789 21.5625C11.5807 21.5625 10.8039 20.5809 10.1168 19.6655C9.22415 18.4674 8.46542 16.5873 8.43863 14.782C8.42058 13.8254 8.6174 12.885 9.11701 12.0863C9.82217 10.9712 11.0811 10.2143 12.4559 10.1893C13.5093 10.1562 14.4468 10.8633 15.0897 10.8633C15.7057 10.8633 16.8575 10.1893 18.1607 10.1893C18.7232 10.1899 20.2232 10.3478 21.152 11.6788ZM15.0006 9.99833C14.8131 9.12472 15.3307 8.25111 15.8129 7.69385C16.4289 7.01992 17.402 6.5625 18.2411 6.5625C18.2946 7.43611 17.9552 8.29289 17.3484 8.9169C16.8039 9.59082 15.8664 10.0982 15.0006 9.99833Z" fill="white"/>
</svg>
