<svg width="26" height="26" viewBox="0 0 26 26" fill="none" xmlns="http://www.w3.org/2000/svg">
<g clip-path="url(#clip0_272_1797)">
<path d="M20.6508 5.70479L9.92639 5.70479C9.64237 5.70973 9.37166 5.82602 9.17255 6.02862C8.97345 6.23121 8.86188 6.50391 8.86188 6.78796C8.86188 7.07202 8.97345 7.34471 9.17255 7.54731C9.37166 7.74991 9.64237 7.8662 9.92639 7.87113L18.0356 7.87113L4.56416 21.3426C4.36099 21.5457 4.24686 21.8213 4.24686 22.1086C4.24686 22.3959 4.36099 22.6715 4.56416 22.8746C4.76732 23.0778 5.04287 23.1919 5.33019 23.1919C5.61751 23.1919 5.89306 23.0778 6.09622 22.8746L19.5677 9.4032L19.5677 17.5124C19.5652 17.6562 19.5913 17.7991 19.6446 17.9327C19.698 18.0663 19.7773 18.188 19.8782 18.2906C19.979 18.3932 20.0993 18.4747 20.2319 18.5303C20.3646 18.5859 20.507 18.6146 20.6508 18.6146C20.7947 18.6146 20.9371 18.5859 21.0698 18.5303C21.2024 18.4747 21.3227 18.3932 21.4235 18.2906C21.5243 18.188 21.6037 18.0663 21.657 17.9327C21.7103 17.7991 21.7365 17.6562 21.734 17.5124L21.734 6.78796C21.734 6.5007 21.6198 6.22522 21.4167 6.02209C21.2136 5.81897 20.9381 5.70483 20.6508 5.70479Z" fill="#6C1CFF"/>
</g>
<defs>
<clipPath id="clip0_272_1797">
<rect width="26" height="26" fill="white"/>
</clipPath>
</defs>
</svg>
