<svg width="18" height="18" viewBox="0 0 18 18" fill="none" xmlns="http://www.w3.org/2000/svg">
<path d="M17.0303 8.46981L11.7802 3.21981C11.6388 3.08319 11.4493 3.0076 11.2527 3.00931C11.0561 3.01101 10.8679 3.08989 10.7289 3.22895C10.5898 3.368 10.511 3.55611 10.5092 3.75276C10.5075 3.94941 10.5831 4.13886 10.7198 4.28031L14.6895 8.25006H1.5C1.30109 8.25006 1.11032 8.32908 0.96967 8.46973C0.829018 8.61038 0.75 8.80115 0.75 9.00006C0.75 9.19897 0.829018 9.38974 0.96967 9.53039C1.11032 9.67104 1.30109 9.75006 1.5 9.75006H14.6895L10.7198 13.7198C10.6481 13.789 10.591 13.8718 10.5517 13.9633C10.5124 14.0548 10.4917 14.1532 10.4908 14.2528C10.4899 14.3523 10.5089 14.4511 10.5466 14.5433C10.5843 14.6354 10.64 14.7192 10.7105 14.7896C10.7809 14.86 10.8646 14.9157 10.9568 14.9534C11.049 14.9911 11.1477 15.0101 11.2473 15.0092C11.3469 15.0084 11.4453 14.9877 11.5368 14.9484C11.6283 14.9091 11.7111 14.8519 11.7802 14.7803L17.0303 9.53031C17.1709 9.38967 17.2498 9.19893 17.2498 9.00006C17.2498 8.80119 17.1709 8.61046 17.0303 8.46981Z" fill="white"/>
</svg>
