<svg width="31" height="30" viewBox="0 0 31 30" fill="none" xmlns="http://www.w3.org/2000/svg">
<path d="M27.2188 16.0574C26.626 15.3855 25.7718 15.0001 24.8759 15.0001H5.08342V7.16893C5.08342 6.29289 5.47927 5.42623 6.22201 4.96061C7.35644 4.24916 8.74191 4.59916 9.45861 5.5554L9.72842 5.91477L9.22527 8.80121C9.16485 9.14912 9.23673 9.50745 9.42736 9.80432C9.87009 10.4939 10.8055 10.6626 11.4608 10.171L15.2172 7.35434C15.8078 6.91164 15.9568 6.08665 15.5578 5.46478L15.5443 5.4429C15.2974 5.05749 14.8776 4.81582 14.4203 4.79499L11.3931 4.66062L11.2118 4.41895C10.5264 3.50542 9.55237 2.81272 8.43148 2.59084C5.54178 2.01897 3 4.2252 3 7.01372C3 7.01372 3.00417 12.9616 3.00625 15.2668C3.00625 15.8668 3.04479 16.4595 3.11876 17.0553C3.22397 17.898 3.36564 19.0345 3.36564 19.0345C3.62711 21.123 4.63965 22.9584 6.11055 24.2813L5.63449 26.2083C5.49594 26.7667 5.83658 27.3313 6.39494 27.4698C6.47932 27.4906 6.56265 27.5 6.64599 27.5C7.11372 27.5 7.53874 27.1823 7.65645 26.7083L7.94501 25.5406C9.10026 26.1281 10.4034 26.4583 11.7743 26.4583H19.5007C20.7747 26.4583 21.9904 26.174 23.0842 25.6615L23.3436 26.7083C23.4603 27.1823 23.8863 27.5 24.354 27.5C24.4374 27.5 24.5207 27.4896 24.6051 27.4698C25.1635 27.3313 25.5041 26.7667 25.3655 26.2083L24.9384 24.4792C26.5323 23.1438 27.6375 21.2292 27.9115 19.0355L27.9761 18.5136C28.0865 17.624 27.8115 16.7303 27.2177 16.0584L27.2188 16.0574ZM25.9093 18.2542L25.8447 18.7761C25.4458 21.9678 22.7186 24.375 19.5018 24.375H11.7754C8.55857 24.375 5.83241 21.9678 5.43344 18.7761L5.22197 17.0834H24.8759C25.1791 17.0834 25.4572 17.2084 25.6572 17.4355C25.8572 17.6636 25.9468 17.9532 25.9093 18.2542Z" fill="#7E7E89"/>
</svg>
