<svg width="19" height="18" viewBox="0 0 19 18" fill="none" xmlns="http://www.w3.org/2000/svg">
<path d="M16.5312 9.63443C16.1756 9.23131 15.6631 9.00007 15.1256 9.00007H3.25005V4.30136C3.25005 3.77574 3.48756 3.25574 3.93321 2.97637C4.61386 2.5495 5.44515 2.7595 5.87517 3.33324L6.03705 3.54886L5.73516 5.28072C5.69891 5.48947 5.74204 5.70447 5.85642 5.88259C6.12205 6.29634 6.68333 6.39759 7.07647 6.10259L9.33032 4.41261C9.68471 4.14698 9.77408 3.65199 9.5347 3.27887L9.52657 3.26574C9.37844 3.03449 9.12656 2.88949 8.85217 2.87699L7.03584 2.79637L6.92709 2.65137C6.51582 2.10325 5.93142 1.68763 5.25889 1.55451C3.52507 1.21138 2 2.53512 2 4.20823C2 4.20823 2.0025 7.77695 2.00375 9.16006C2.00375 9.52006 2.02688 9.87568 2.07125 10.2332C2.13438 10.7388 2.21938 11.4207 2.21938 11.4207C2.37627 12.6738 2.98379 13.775 3.86633 14.5688L3.58069 15.725C3.49756 16.06 3.70195 16.3988 4.03696 16.4819C4.08759 16.4944 4.13759 16.5 4.18759 16.5C4.46823 16.5 4.72324 16.3094 4.79387 16.025L4.967 15.3244C5.66016 15.6769 6.44207 15.875 7.2646 15.875H11.9004C12.6648 15.875 13.3942 15.7044 14.0505 15.3969L14.2061 16.025C14.2762 16.3094 14.5318 16.5 14.8124 16.5C14.8624 16.5 14.9124 16.4937 14.9631 16.4819C15.2981 16.3988 15.5025 16.06 15.4193 15.725L15.1631 14.6875C16.1194 13.8863 16.7825 12.7375 16.9469 11.4213L16.9856 11.1082C17.0519 10.5744 16.8869 10.0382 16.5306 9.63506L16.5312 9.63443ZM15.7456 10.9525L15.7068 11.2657C15.4675 13.1807 13.8311 14.625 11.9011 14.625H7.26523C5.33514 14.625 3.69945 13.1807 3.46006 11.2657L3.33318 10.2501H15.1256C15.3074 10.2501 15.4743 10.3251 15.5943 10.4613C15.7143 10.5982 15.7681 10.7719 15.7456 10.9525Z" fill="#7E7E89"/>
</svg>
