<svg width="16" height="16" viewBox="0 0 16 16" fill="none" xmlns="http://www.w3.org/2000/svg">
<path d="M14.25 8.56395C13.9339 8.20562 13.4783 8.00007 13.0005 8.00007H2.44453V3.82344C2.44453 3.35622 2.65565 2.894 3.05178 2.64567C3.65681 2.26623 4.39573 2.45289 4.77797 2.96289L4.92186 3.15456L4.65352 4.69399C4.62129 4.87954 4.65963 5.07065 4.7613 5.22898C4.99742 5.59676 5.49633 5.68675 5.84579 5.42453L7.84921 3.92233C8.16422 3.68622 8.24367 3.24622 8.03088 2.91456L8.02366 2.90289C7.89199 2.69734 7.66809 2.56845 7.42419 2.55734L5.80968 2.48567L5.71301 2.35678C5.34744 1.86957 4.82797 1.50013 4.23017 1.38179C2.68899 1.0768 1.33337 2.25345 1.33337 3.74066C1.33337 3.74066 1.3356 6.91285 1.33671 8.14229C1.33671 8.46229 1.35726 8.77839 1.39671 9.09617C1.45282 9.54561 1.52838 10.1517 1.52838 10.1517C1.66783 11.2656 2.20786 12.2445 2.99233 12.95L2.73843 13.9778C2.66454 14.2756 2.84622 14.5767 3.14401 14.6506C3.18901 14.6617 3.23346 14.6667 3.2779 14.6667C3.52736 14.6667 3.75403 14.4972 3.81681 14.2445L3.97071 13.6217C4.58685 13.935 5.28188 14.1111 6.01302 14.1111H10.1338C10.8132 14.1111 11.4616 13.9595 12.0449 13.6861L12.1833 14.2445C12.2455 14.4972 12.4727 14.6667 12.7222 14.6667C12.7666 14.6667 12.8111 14.6611 12.8561 14.6506C13.1539 14.5767 13.3356 14.2756 13.2617 13.9778L13.0339 13.0556C13.8839 12.3434 14.4734 11.3223 14.6195 10.1523L14.6539 9.87394C14.7128 9.3995 14.5662 8.92284 14.2495 8.56451L14.25 8.56395ZM13.5517 9.73561L13.5172 10.0139C13.3044 11.7161 11.8499 13 10.1343 13H6.01358C4.29795 13 2.84399 11.7161 2.63121 10.0139L2.51842 9.11117H13.0005C13.1622 9.11117 13.3106 9.17783 13.4172 9.29895C13.5239 9.42061 13.5717 9.57505 13.5517 9.73561Z" fill="#0B0D0F"/>
</svg>
