<svg width="25" height="24" viewBox="0 0 25 24" fill="none" xmlns="http://www.w3.org/2000/svg">
<path d="M18.1302 4H6.46354C4.16604 4 2.29688 5.7944 2.29688 8V19.2C2.29688 19.6424 2.67021 20 3.13021 20C3.59021 20 3.96354 19.6424 3.96354 19.2V17.6H20.6302V19.2C20.6302 19.6424 21.0027 20 21.4635 20C21.9244 20 22.2969 19.6424 22.2969 19.2V8C22.2969 5.7944 20.4277 4 18.1302 4ZM6.46354 5.6H18.1302C19.5085 5.6 20.6302 6.6768 20.6302 8V12.8H18.9635C18.9635 11.0352 17.4685 9.6 15.6302 9.6H14.7969C13.8019 9.6 12.9085 10.0208 12.2969 10.6856C11.6852 10.02 10.7919 9.6 9.79688 9.6H8.96354C7.12521 9.6 5.63021 11.0352 5.63021 12.8H3.96354V8C3.96354 6.6768 5.08521 5.6 6.46354 5.6ZM13.1302 12.8C13.1302 11.9176 13.8777 11.2 14.7969 11.2H15.6302C16.5494 11.2 17.2969 11.9176 17.2969 12.8H13.1302ZM7.29688 12.8C7.29688 11.9176 8.04437 11.2 8.96354 11.2H9.79688C10.716 11.2 11.4635 11.9176 11.4635 12.8H7.29688ZM3.96354 16V14.4H20.6302V16H3.96354Z" fill="#7E7E89"/>
</svg>
