<svg width="18" height="18" viewBox="0 0 18 18" fill="none" xmlns="http://www.w3.org/2000/svg">
<path d="M13.375 3H4.625C2.90187 3 1.5 4.3458 1.5 6V14.4C1.5 14.7318 1.78 15 2.125 15C2.47 15 2.75 14.7318 2.75 14.4V13.2H15.25V14.4C15.25 14.7318 15.5294 15 15.875 15C16.2206 15 16.5 14.7318 16.5 14.4V6C16.5 4.3458 15.0981 3 13.375 3ZM4.625 4.2H13.375C14.4087 4.2 15.25 5.0076 15.25 6V9.6H14C14 8.2764 12.8787 7.2 11.5 7.2H10.875C10.1287 7.2 9.45875 7.5156 9 8.0142C8.54125 7.515 7.87125 7.2 7.125 7.2H6.5C5.12125 7.2 4 8.2764 4 9.6H2.75V6C2.75 5.0076 3.59125 4.2 4.625 4.2ZM9.625 9.6C9.625 8.9382 10.1856 8.4 10.875 8.4H11.5C12.1894 8.4 12.75 8.9382 12.75 9.6H9.625ZM5.25 9.6C5.25 8.9382 5.81062 8.4 6.5 8.4H7.125C7.81437 8.4 8.375 8.9382 8.375 9.6H5.25ZM2.75 12V10.8H15.25V12H2.75Z" fill="#7E7E89"/>
</svg>
