<svg width="31" height="30" viewBox="0 0 31 30" fill="none" xmlns="http://www.w3.org/2000/svg">
<path d="M22.7917 5H8.20833C5.33646 5 3 7.243 3 10V24C3 24.553 3.46667 25 4.04167 25C4.61667 25 5.08333 24.553 5.08333 24V22H25.9167V24C25.9167 24.553 26.3823 25 26.9583 25C27.5344 25 28 24.553 28 24V10C28 7.243 25.6635 5 22.7917 5ZM8.20833 7H22.7917C24.5146 7 25.9167 8.346 25.9167 10V16H23.8333C23.8333 13.794 21.9646 12 19.6667 12H18.625C17.3813 12 16.2646 12.526 15.5 13.357C14.7354 12.525 13.6188 12 12.375 12H11.3333C9.03542 12 7.16667 13.794 7.16667 16H5.08333V10C5.08333 8.346 6.48542 7 8.20833 7ZM16.5417 16C16.5417 14.897 17.476 14 18.625 14H19.6667C20.8156 14 21.75 14.897 21.75 16H16.5417ZM9.25 16C9.25 14.897 10.1844 14 11.3333 14H12.375C13.524 14 14.4583 14.897 14.4583 16H9.25ZM5.08333 20V18H25.9167V20H5.08333Z" fill="#7E7E89"/>
</svg>
