<svg width="28" height="28" viewBox="0 0 28 28" fill="none" xmlns="http://www.w3.org/2000/svg">
<path d="M22.1302 26.5417H5.79688C1.42187 26.5417 1.42188 24.115 1.42188 22.1667V21C1.42188 19.88 2.34354 18.9584 3.46354 18.9584H24.4635C25.5835 18.9584 26.5052 19.88 26.5052 21V22.1667C26.5052 24.115 26.5052 26.5417 22.1302 26.5417ZM3.46354 20.7084C3.30021 20.7084 3.17188 20.8367 3.17188 21V22.1667C3.17188 24.08 3.17187 24.7917 5.79688 24.7917H22.1302C24.7552 24.7917 24.7552 24.08 24.7552 22.1667V21C24.7552 20.8367 24.6269 20.7084 24.4635 20.7084H3.46354Z" fill="#6C1CFF"/>
<path d="M24.1747 20.7084H3.81641C3.33807 20.7084 2.94141 20.3117 2.94141 19.8334V15.1667C2.94141 10.3834 6.33641 6.18337 11.0031 5.19171C11.6914 5.04004 12.4147 4.95837 13.1497 4.95837H14.8414C15.5881 4.95837 16.3114 5.04004 16.9997 5.19171C21.6664 6.19504 25.0497 10.395 25.0497 15.1667V19.8334C25.0497 20.3117 24.6647 20.7084 24.1747 20.7084ZM4.69141 18.9584H23.2997V15.1667C23.2997 11.2117 20.4997 7.73504 16.6264 6.89504C16.0547 6.76671 15.4597 6.70837 14.8414 6.70837H13.1497C12.5431 6.70837 11.9481 6.76671 11.3764 6.89504C7.50307 7.72337 4.69141 11.2 4.69141 15.1667V18.9584Z" fill="#6C1CFF"/>
<path d="M11.189 6.91837C10.804 6.91837 10.454 6.66171 10.349 6.27671C10.2557 5.93837 10.209 5.60004 10.209 5.25004C10.209 3.16171 11.9123 1.45837 14.0007 1.45837C16.089 1.45837 17.7923 3.16171 17.7923 5.25004C17.7923 5.60004 17.7457 5.93837 17.6523 6.27671C17.5357 6.72004 17.0923 7.00004 16.6257 6.89504C16.054 6.76671 15.459 6.70837 14.8407 6.70837H13.149C12.5423 6.70837 11.9473 6.76671 11.3757 6.89504C11.3173 6.90671 11.259 6.91837 11.189 6.91837ZM13.149 4.95837H14.8407C15.2373 4.95837 15.6457 4.98171 16.0307 5.02837C15.9257 4.00171 15.0507 3.20837 14.0007 3.20837C12.9507 3.20837 12.0873 4.00171 11.9707 5.02837C12.3673 4.98171 12.7523 4.95837 13.149 4.95837Z" fill="#6C1CFF"/>
</svg>
