<svg width="28" height="28" viewBox="0 0 28 28" fill="none" xmlns="http://www.w3.org/2000/svg">
<path d="M15.1673 26.5417H5.83398C3.01065 26.5417 1.45898 24.99 1.45898 22.1667V12.8334C1.45898 10.01 3.01065 8.45837 5.83398 8.45837H11.6673C12.1457 8.45837 12.5423 8.85504 12.5423 9.33337V22.1667C12.5423 24.01 13.324 24.7917 15.1673 24.7917C15.6457 24.7917 16.0423 25.1884 16.0423 25.6667C16.0423 26.145 15.6457 26.5417 15.1673 26.5417ZM5.83398 10.2084C3.99065 10.2084 3.20898 10.99 3.20898 12.8334V22.1667C3.20898 24.01 3.99065 24.7917 5.83398 24.7917H11.434C11.014 24.1034 10.7923 23.2284 10.7923 22.1667V10.2084H5.83398Z" fill="#6C1CFF"/>
<path d="M11.6673 10.2083H5.83398C5.35565 10.2083 4.95898 9.81163 4.95898 9.33329V6.99996C4.95898 5.22663 6.39398 3.79163 8.16732 3.79163H11.7956C12.064 3.79163 12.3207 3.91993 12.484 4.12993C12.6473 4.3516 12.7056 4.63163 12.6356 4.8883C12.5656 5.14496 12.5423 5.43663 12.5423 5.83329V9.33329C12.5423 9.81163 12.1457 10.2083 11.6673 10.2083ZM6.70898 8.45829H10.7923V5.83329C10.7923 5.72829 10.7923 5.63496 10.7923 5.54163H8.16732C7.36232 5.54163 6.70898 6.19496 6.70898 6.99996V8.45829Z" fill="#6C1CFF"/>
<path d="M16.334 16.0417C15.8557 16.0417 15.459 15.645 15.459 15.1667V9.33337C15.459 8.85504 15.8557 8.45837 16.334 8.45837C16.8123 8.45837 17.209 8.85504 17.209 9.33337V15.1667C17.209 15.645 16.8123 16.0417 16.334 16.0417Z" fill="#6C1CFF"/>
<path d="M21 16.0417C20.5217 16.0417 20.125 15.645 20.125 15.1667V9.33337C20.125 8.85504 20.5217 8.45837 21 8.45837C21.4783 8.45837 21.875 8.85504 21.875 9.33337V15.1667C21.875 15.645 21.4783 16.0417 21 16.0417Z" fill="#6C1CFF"/>
<path d="M21.0007 26.5417H16.334C15.8557 26.5417 15.459 26.145 15.459 25.6667V21C15.459 19.88 16.3807 18.9584 17.5007 18.9584H19.834C20.954 18.9584 21.8757 19.88 21.8757 21V25.6667C21.8757 26.145 21.479 26.5417 21.0007 26.5417ZM17.209 24.7917H20.1257V21C20.1257 20.8367 19.9973 20.7084 19.834 20.7084H17.5007C17.3373 20.7084 17.209 20.8367 17.209 21V24.7917Z" fill="#6C1CFF"/>
<path d="M7 20.7083C6.52167 20.7083 6.125 20.3116 6.125 19.8333V15.1666C6.125 14.6883 6.52167 14.2916 7 14.2916C7.47833 14.2916 7.875 14.6883 7.875 15.1666V19.8333C7.875 20.3116 7.47833 20.7083 7 20.7083Z" fill="#6C1CFF"/>
<path d="M22.166 26.5417H15.166C12.3427 26.5417 10.791 24.99 10.791 22.1667V5.83337C10.791 3.01004 12.3427 1.45837 15.166 1.45837H22.166C24.9893 1.45837 26.541 3.01004 26.541 5.83337V22.1667C26.541 24.99 24.9893 26.5417 22.166 26.5417ZM15.166 3.20837C13.3227 3.20837 12.541 3.99004 12.541 5.83337V22.1667C12.541 24.01 13.3227 24.7917 15.166 24.7917H22.166C24.0093 24.7917 24.791 24.01 24.791 22.1667V5.83337C24.791 3.99004 24.0093 3.20837 22.166 3.20837H15.166Z" fill="#6C1CFF"/>
</svg>
