<svg width="21" height="20" viewBox="0 0 21 20" fill="none" xmlns="http://www.w3.org/2000/svg">
<path d="M7.1665 4.79163C6.82484 4.79163 6.5415 4.50829 6.5415 4.16663V1.66663C6.5415 1.32496 6.82484 1.04163 7.1665 1.04163C7.50817 1.04163 7.7915 1.32496 7.7915 1.66663V4.16663C7.7915 4.50829 7.50817 4.79163 7.1665 4.79163Z" fill="white"/>
<path d="M13.8335 4.79163C13.4918 4.79163 13.2085 4.50829 13.2085 4.16663V1.66663C13.2085 1.32496 13.4918 1.04163 13.8335 1.04163C14.1752 1.04163 14.4585 1.32496 14.4585 1.66663V4.16663C14.4585 4.50829 14.1752 4.79163 13.8335 4.79163Z" fill="white"/>
<path d="M7.58333 12.0834C7.475 12.0834 7.36666 12.0584 7.26666 12.0168C7.15833 11.9751 7.07501 11.9167 6.99167 11.8417C6.84167 11.6834 6.75 11.4667 6.75 11.2501C6.75 11.0334 6.84167 10.8168 6.99167 10.6584C7.07501 10.5834 7.16666 10.5251 7.26666 10.4834C7.46666 10.4001 7.7 10.4001 7.9 10.4834C8 10.5251 8.09166 10.5834 8.17499 10.6584C8.20833 10.7001 8.24999 10.7417 8.27499 10.7834C8.30832 10.8334 8.33334 10.8834 8.35001 10.9334C8.37501 10.9834 8.39168 11.0334 8.40001 11.0834C8.40834 11.1417 8.41667 11.2001 8.41667 11.2501C8.41667 11.4667 8.32499 11.6834 8.17499 11.8417C8.09166 11.9167 8 11.9751 7.9 12.0168C7.8 12.0584 7.69167 12.0834 7.58333 12.0834Z" fill="white"/>
<path d="M10.4998 12.0834C10.3915 12.0834 10.2832 12.0584 10.1832 12.0167C10.0748 11.975 9.99151 11.9167 9.90818 11.8417C9.75818 11.6834 9.6665 11.4667 9.6665 11.25C9.6665 11.2 9.67483 11.1417 9.68316 11.0834C9.69149 11.0334 9.70816 10.9834 9.73316 10.9334C9.74983 10.8834 9.77485 10.8334 9.80818 10.7834C9.84152 10.7417 9.87484 10.7 9.90818 10.6584C10.2165 10.35 10.7748 10.35 11.0915 10.6584C11.1248 10.7 11.1582 10.7417 11.1915 10.7834C11.2248 10.8334 11.2498 10.8834 11.2665 10.9334C11.2915 10.9834 11.3082 11.0334 11.3165 11.0834C11.3248 11.1417 11.3332 11.2 11.3332 11.25C11.3332 11.4667 11.2415 11.6834 11.0915 11.8417C10.9332 11.9917 10.7248 12.0834 10.4998 12.0834Z" fill="white"/>
<path d="M7.58333 15C7.475 15 7.36666 14.975 7.26666 14.9334C7.16666 14.8917 7.07501 14.8334 6.99167 14.7584C6.84167 14.6 6.75 14.3834 6.75 14.1667C6.75 14.1167 6.75832 14.0584 6.76666 14.0084C6.77499 13.95 6.79166 13.9 6.81666 13.85C6.83332 13.8 6.85834 13.75 6.89168 13.7C6.91668 13.6584 6.95834 13.6167 6.99167 13.575C7.07501 13.5 7.16666 13.4417 7.26666 13.4C7.46666 13.3167 7.7 13.3167 7.9 13.4C8 13.4417 8.09166 13.5 8.17499 13.575C8.20833 13.6167 8.24999 13.6584 8.27499 13.7C8.30832 13.75 8.33334 13.8 8.35001 13.85C8.37501 13.9 8.39168 13.95 8.40001 14.0084C8.40834 14.0584 8.41667 14.1167 8.41667 14.1667C8.41667 14.3834 8.32499 14.6 8.17499 14.7584C8.09166 14.8334 8 14.8917 7.9 14.9334C7.8 14.975 7.69167 15 7.58333 15Z" fill="white"/>
<path d="M17.5832 8.19995H3.4165C3.07484 8.19995 2.7915 7.91662 2.7915 7.57495C2.7915 7.23328 3.07484 6.94995 3.4165 6.94995H17.5832C17.9248 6.94995 18.2082 7.23328 18.2082 7.57495C18.2082 7.91662 17.9248 8.19995 17.5832 8.19995Z" fill="white"/>
<path d="M13.6833 18.9833C13.3666 18.9833 13.0666 18.8667 12.85 18.65C12.5916 18.3917 12.475 18.0167 12.5333 17.625L12.6916 16.5C12.7333 16.2083 12.9083 15.8583 13.1166 15.65L16.0666 12.7C16.4666 12.3 16.8583 12.0917 17.2833 12.05C17.8083 12 18.3166 12.2167 18.8 12.7C19.3083 13.2083 19.9916 14.2417 18.8 15.4333L15.85 18.3833C15.6416 18.5917 15.2916 18.7667 15 18.8083L13.875 18.9667C13.8083 18.975 13.75 18.9833 13.6833 18.9833ZM17.425 13.2917C17.4166 13.2917 17.4083 13.2917 17.4 13.2917C17.2833 13.3 17.125 13.4083 16.95 13.5833L14 16.5333C13.975 16.5583 13.9333 16.6417 13.9333 16.675L13.7833 17.7167L14.825 17.5667C14.8583 17.5583 14.9416 17.5167 14.9666 17.4917L17.9166 14.5417C18.2833 14.175 18.3333 13.9917 17.9166 13.575C17.7833 13.45 17.5916 13.2917 17.425 13.2917Z" fill="white"/>
<path d="M17.9333 16.0416C17.875 16.0416 17.8167 16.0333 17.7667 16.0167C16.6667 15.7083 15.7917 14.8333 15.4833 13.7333C15.3917 13.4 15.5833 13.0583 15.9167 12.9583C16.25 12.8666 16.5916 13.0583 16.6916 13.3917C16.8833 14.075 17.425 14.6166 18.1083 14.8083C18.4417 14.9 18.6333 15.25 18.5417 15.5833C18.4583 15.8583 18.2083 16.0416 17.9333 16.0416Z" fill="white"/>
<path d="M10.5 18.9583H7.16667C4.125 18.9583 2.375 17.2083 2.375 14.1666V7.08329C2.375 4.04163 4.125 2.29163 7.16667 2.29163H13.8333C16.875 2.29163 18.625 4.04163 18.625 7.08329V9.99996C18.625 10.3416 18.3417 10.625 18 10.625C17.6583 10.625 17.375 10.3416 17.375 9.99996V7.08329C17.375 4.69996 16.2167 3.54163 13.8333 3.54163H7.16667C4.78333 3.54163 3.625 4.69996 3.625 7.08329V14.1666C3.625 16.55 4.78333 17.7083 7.16667 17.7083H10.5C10.8417 17.7083 11.125 17.9916 11.125 18.3333C11.125 18.675 10.8417 18.9583 10.5 18.9583Z" fill="white"/>
</svg>
