<svg width="25" height="24" viewBox="0 0 25 24" fill="none" xmlns="http://www.w3.org/2000/svg">
<path d="M17.7869 3.99844H16.9869V3.19844C16.9869 2.75684 16.6285 2.39844 16.1869 2.39844C15.7453 2.39844 15.3869 2.75684 15.3869 3.19844V3.99844H8.98691V3.19844C8.98691 2.75684 8.62851 2.39844 8.18691 2.39844C7.74531 2.39844 7.38691 2.75684 7.38691 3.19844V3.99844H6.58691C4.38131 3.99844 2.58691 5.79284 2.58691 7.99844V17.5984C2.58691 19.804 4.38131 21.5984 6.58691 21.5984H17.7869C19.9925 21.5984 21.7869 19.804 21.7869 17.5984V7.99844C21.7869 5.79284 19.9925 3.99844 17.7869 3.99844ZM6.58691 5.59844H17.7869C19.1101 5.59844 20.1869 6.67524 20.1869 7.99844V8.79844H4.18691V7.99844C4.18691 6.67524 5.26371 5.59844 6.58691 5.59844ZM17.7869 19.9984H6.58691C5.26371 19.9984 4.18691 18.9216 4.18691 17.5984V10.3984H20.1869V17.5984C20.1869 18.9216 19.1101 19.9984 17.7869 19.9984ZM15.3869 15.1984C15.3869 15.64 15.0285 15.9984 14.5869 15.9984H9.78691C9.34531 15.9984 8.98691 15.64 8.98691 15.1984C8.98691 14.7568 9.34531 14.3984 9.78691 14.3984H14.5869C15.0285 14.3984 15.3869 14.7568 15.3869 15.1984Z" fill="#7E7E89"/>
</svg>
