<svg width="25" height="24" viewBox="0 0 25 24" fill="none" xmlns="http://www.w3.org/2000/svg">
<path d="M18.1004 4.00002H17.3004V3.20002C17.3004 2.75842 16.942 2.40002 16.5004 2.40002C16.0588 2.40002 15.7004 2.75842 15.7004 3.20002V4.00002H9.30039V3.20002C9.30039 2.75842 8.94199 2.40002 8.50039 2.40002C8.05879 2.40002 7.70039 2.75842 7.70039 3.20002V4.00002H6.90039C4.69479 4.00002 2.90039 5.79442 2.90039 8.00002V17.6C2.90039 19.8056 4.69479 21.6 6.90039 21.6H18.1004C20.306 21.6 22.1004 19.8056 22.1004 17.6V8.00002C22.1004 5.79442 20.306 4.00002 18.1004 4.00002ZM6.90039 5.60002H18.1004C19.4236 5.60002 20.5004 6.67682 20.5004 8.00002V8.80002H4.50039V8.00002C4.50039 6.67682 5.57719 5.60002 6.90039 5.60002ZM18.1004 20H6.90039C5.57719 20 4.50039 18.9232 4.50039 17.6V10.4H20.5004V17.6C20.5004 18.9232 19.4236 20 18.1004 20ZM15.7004 15.2C15.7004 15.6416 15.342 16 14.9004 16H10.1004C9.65879 16 9.30039 15.6416 9.30039 15.2C9.30039 14.7584 9.65879 14.4 10.1004 14.4H14.9004C15.342 14.4 15.7004 14.7584 15.7004 15.2Z" fill="white"/>
</svg>
