<svg width="20" height="20" viewBox="0 0 20 20" fill="none" xmlns="http://www.w3.org/2000/svg">
<mask id="mask0_99_2819" style="mask-type:luminance" maskUnits="userSpaceOnUse" x="0" y="0" width="20" height="20">
<path d="M20 0H0V20H20V0Z" fill="white"/>
</mask>
<g mask="url(#mask0_99_2819)">
<path d="M17.67 16.1905L16.1137 17.7468C16.1137 17.7468 12.0715 19.4792 6.29557 13.7033C0.519687 7.9274 2.2521 3.88511 2.2521 3.88511L3.80832 2.32888C3.97381 2.16326 4.17296 2.03515 4.39229 1.95324C4.61162 1.87133 4.846 1.83752 5.07953 1.85412C5.31307 1.87072 5.54031 1.93733 5.74585 2.04944C5.95139 2.16155 6.13043 2.31653 6.27082 2.50389L7.75634 4.48438C7.9921 4.79901 8.10647 5.18813 8.07843 5.5803C8.0504 5.97247 7.88185 6.34136 7.60372 6.61925L6.29498 7.92799C6.29498 7.92799 6.29498 9.08293 8.60486 11.3928C10.9147 13.7027 12.0697 13.7027 12.0697 13.7027L13.3778 12.3945C13.6558 12.1164 14.0249 11.9478 14.4172 11.9199C14.8095 11.892 15.1987 12.0065 15.5133 12.2425L17.4932 13.7274C17.6808 13.8677 17.836 14.0467 17.9483 14.2522C18.0607 14.4577 18.1275 14.685 18.1442 14.9186C18.161 15.1522 18.1273 15.3867 18.0455 15.6062C17.9637 15.8256 17.8356 16.0249 17.67 16.1905Z" fill="#124797"/>
</g>
</svg>
