<svg width="26" height="27" viewBox="0 0 26 27" fill="none" xmlns="http://www.w3.org/2000/svg">
<path d="M19.7835 16.1171C19.0447 15.9582 18.4601 16.3012 17.9426 16.6009C17.4125 16.9096 16.4047 17.7272 15.8269 17.518C12.8691 16.3001 10.0873 13.7113 8.88312 10.7416C8.67089 10.1516 9.48467 9.13732 9.79112 8.60103C10.0885 8.08188 10.4244 7.49184 10.2712 6.74744C10.1327 6.07849 8.34173 3.79953 7.70842 3.17634C7.29074 2.76468 6.86285 2.53827 6.42362 2.50167C4.77221 2.43078 2.92786 4.63428 2.6044 5.16142C1.79402 6.28547 1.79856 7.78115 2.61802 9.59472C4.59289 14.466 12.0622 21.8174 16.9517 23.8665C17.854 24.2885 18.6791 24.5 19.4203 24.5C20.1455 24.5 20.7913 24.2976 21.3464 23.8963C21.7652 23.655 24.059 21.7191 23.9988 20.0233C23.9625 19.591 23.7367 19.1588 23.3304 18.7403C22.7117 18.1011 20.4475 16.2567 19.7835 16.1171Z" fill="#6C1CFF"/>
</svg>
