<svg width="28" height="28" viewBox="0 0 28 28" fill="none" xmlns="http://www.w3.org/2000/svg">
<path d="M23.3336 13.7084H4.66691C4.39857 13.7084 4.15357 13.5918 3.99024 13.3818C3.82691 13.1834 3.75691 12.9034 3.81524 12.6468L5.13357 6.34676C5.56524 4.30509 6.44024 2.42676 9.90524 2.42676H18.1069C21.5719 2.42676 22.4469 4.31676 22.8786 6.34676L24.1969 12.6584C24.2552 12.9151 24.1852 13.1834 24.0219 13.3934C23.8469 13.5918 23.6019 13.7084 23.3336 13.7084ZM5.74024 11.9584H22.2486L21.1519 6.70842C20.8252 5.18009 20.4402 4.17676 18.0952 4.17676H9.90524C7.56024 4.17676 7.17524 5.18009 6.84857 6.70842L5.74024 11.9584Z" fill="#6C1CFF"/>
<path d="M23.2852 26.5417H21.0919C19.2019 26.5417 18.8402 25.4567 18.6069 24.745L18.3736 24.045C18.0702 23.1584 18.0352 23.0417 16.9852 23.0417H11.0119C9.96189 23.0417 9.89189 23.24 9.62355 24.045L9.39022 24.745C9.14522 25.4684 8.79522 26.5417 6.90522 26.5417H4.71189C3.79022 26.5417 2.90355 26.1567 2.28522 25.48C1.67855 24.815 1.38689 23.9284 1.46855 23.0417L2.12189 15.9367C2.29689 14.0117 2.81022 11.9584 6.55522 11.9584H21.4419C25.1869 11.9584 25.6886 14.0117 25.8752 15.9367L26.5286 23.0417C26.6102 23.9284 26.3186 24.815 25.7119 25.48C25.0936 26.1567 24.2069 26.5417 23.2852 26.5417ZM11.0119 21.2917H16.9852C19.1086 21.2917 19.6102 22.2367 20.0302 23.4734L20.2752 24.1967C20.4736 24.7917 20.4736 24.8034 21.1036 24.8034H23.2969C23.7286 24.8034 24.1369 24.6284 24.4286 24.3134C24.7086 24.01 24.8369 23.625 24.8019 23.2167L24.1486 16.1117C23.9969 14.5367 23.8102 13.72 21.4652 13.72H6.55522C4.19855 13.72 4.01189 14.5367 3.87189 16.1117L3.21855 23.2167C3.18355 23.625 3.31189 24.01 3.59189 24.3134C3.87189 24.6284 4.29189 24.8034 4.72355 24.8034H6.91689C7.54689 24.8034 7.54689 24.7917 7.74522 24.2084L7.97855 23.4967C8.27022 22.5634 8.70189 21.2917 11.0119 21.2917Z" fill="#6C1CFF"/>
<path d="M4.66667 10.2084H3.5C3.02167 10.2084 2.625 9.81171 2.625 9.33337C2.625 8.85504 3.02167 8.45837 3.5 8.45837H4.66667C5.145 8.45837 5.54167 8.85504 5.54167 9.33337C5.54167 9.81171 5.145 10.2084 4.66667 10.2084Z" fill="#6C1CFF"/>
<path d="M24.5007 10.2084H23.334C22.8557 10.2084 22.459 9.81171 22.459 9.33337C22.459 8.85504 22.8557 8.45837 23.334 8.45837H24.5007C24.979 8.45837 25.3757 8.85504 25.3757 9.33337C25.3757 9.81171 24.979 10.2084 24.5007 10.2084Z" fill="#6C1CFF"/>
<path d="M14 6.70833C13.5217 6.70833 13.125 6.31167 13.125 5.83333V3.5C13.125 3.02167 13.5217 2.625 14 2.625C14.4783 2.625 14.875 3.02167 14.875 3.5V5.83333C14.875 6.31167 14.4783 6.70833 14 6.70833Z" fill="#6C1CFF"/>
<path d="M15.75 6.70837H12.25C11.7717 6.70837 11.375 6.31171 11.375 5.83337C11.375 5.35504 11.7717 4.95837 12.25 4.95837H15.75C16.2283 4.95837 16.625 5.35504 16.625 5.83337C16.625 6.31171 16.2283 6.70837 15.75 6.70837Z" fill="#6C1CFF"/>
<path d="M10.5 18.375H7C6.52167 18.375 6.125 17.9783 6.125 17.5C6.125 17.0217 6.52167 16.625 7 16.625H10.5C10.9783 16.625 11.375 17.0217 11.375 17.5C11.375 17.9783 10.9783 18.375 10.5 18.375Z" fill="#6C1CFF"/>
<path d="M21 18.375H17.5C17.0217 18.375 16.625 17.9783 16.625 17.5C16.625 17.0217 17.0217 16.625 17.5 16.625H21C21.4783 16.625 21.875 17.0217 21.875 17.5C21.875 17.9783 21.4783 18.375 21 18.375Z" fill="#6C1CFF"/>
</svg>
