<svg width="32" height="32" viewBox="0 0 32 32" fill="none" xmlns="http://www.w3.org/2000/svg">
<path d="M1.48 11.4682L12.5733 8.44153C14.4 7.94573 16.3473 8.17005 18.0133 9.06819L22.8933 11.7349L30 13.0682C30.5281 13.0682 31.0348 13.2771 31.4095 13.6493C31.7842 14.0215 31.9965 14.5267 32 15.0549V19.0549C32 19.5853 31.7893 20.094 31.4142 20.4691C31.0391 20.8441 30.5304 21.0549 30 21.0549H28.6667C28.5356 21.8282 28.135 22.5301 27.5359 23.0363C26.9367 23.5425 26.1777 23.8202 25.3933 23.8202C24.609 23.8202 23.85 23.5425 23.2508 23.0363C22.6517 22.5301 22.251 21.8282 22.12 21.0549H10C9.86896 21.8282 9.46835 22.5301 8.86919 23.0363C8.27003 23.5425 7.51101 23.8202 6.72667 23.8202C5.94232 23.8202 5.18331 23.5425 4.58415 23.0363C3.98499 22.5301 3.58438 21.8282 3.45333 21.0549H2.12C1.58957 21.0549 1.08086 20.8441 0.70579 20.4691C0.330717 20.094 0.120003 19.5853 0.120003 19.0549V13.3349C0.125841 12.9213 0.259764 12.5197 0.503328 12.1854C0.746893 11.8511 1.08812 11.6005 1.48 11.4682ZM8 11.0815V11.7215H8.93334L9.45333 10.6682L8 11.0815ZM17.3333 10.2549C16.0507 9.5704 14.5641 9.37156 13.1467 9.69486H12.88H12.6533L11.1333 10.1082L10.3867 11.6149H20L17.3333 10.2549ZM25.3333 22.4815C25.7289 22.4815 26.1156 22.3642 26.4445 22.1445C26.7734 21.9247 27.0297 21.6123 27.1811 21.2469C27.3325 20.8814 27.3721 20.4793 27.2949 20.0913C27.2177 19.7034 27.0273 19.347 26.7475 19.0673C26.4678 18.7876 26.1115 18.5971 25.7235 18.52C25.3356 18.4428 24.9334 18.4824 24.568 18.6338C24.2025 18.7851 23.8902 19.0415 23.6704 19.3704C23.4506 19.6993 23.3333 20.086 23.3333 20.4815C23.3333 21.012 23.544 21.5207 23.9191 21.8957C24.2942 22.2708 24.8029 22.4815 25.3333 22.4815ZM6.66667 22.4815C7.06223 22.4815 7.44891 22.3642 7.77781 22.1445C8.10671 21.9247 8.36305 21.6123 8.51443 21.2469C8.6658 20.8814 8.70541 20.4793 8.62824 20.0913C8.55107 19.7034 8.36059 19.347 8.08088 19.0673C7.80118 18.7876 7.44481 18.5971 7.05685 18.52C6.66889 18.4428 6.26675 18.4824 5.9013 18.6338C5.53585 18.7851 5.22349 19.0415 5.00373 19.3704C4.78397 19.6993 4.66667 20.086 4.66667 20.4815C4.66667 21.012 4.87738 21.5207 5.25246 21.8957C5.62753 22.2708 6.13623 22.4815 6.66667 22.4815ZM1.33334 15.7215H2C2.17681 15.7215 2.34638 15.7918 2.47141 15.9168C2.59643 16.0418 2.66667 16.2114 2.66667 16.3882C2.66667 16.565 2.59643 16.7346 2.47141 16.8596C2.34638 16.9846 2.17681 17.0549 2 17.0549H1.33334V19.0549C1.33334 19.2317 1.40357 19.4012 1.5286 19.5263C1.65362 19.6513 1.82319 19.7215 2 19.7215H3.42667C3.5968 18.9916 4.00892 18.3407 4.59598 17.8747C5.18304 17.4088 5.9105 17.1552 6.66 17.1552C7.40951 17.1552 8.13696 17.4088 8.72402 17.8747C9.31108 18.3407 9.7232 18.9916 9.89334 19.7215H22.0933C22.2635 18.9916 22.6756 18.3407 23.2626 17.8747C23.8497 17.4088 24.5772 17.1552 25.3267 17.1552C26.0762 17.1552 26.8036 17.4088 27.3907 17.8747C27.9777 18.3407 28.3899 18.9916 28.56 19.7215H30C30.1768 19.7215 30.3464 19.6513 30.4714 19.5263C30.5964 19.4012 30.6667 19.2317 30.6667 19.0549V17.0549H30C29.8232 17.0549 29.6536 16.9846 29.5286 16.8596C29.4036 16.7346 29.3333 16.565 29.3333 16.3882C29.3333 16.2114 29.4036 16.0418 29.5286 15.9168C29.6536 15.7918 29.8232 15.7215 30 15.7215H30.6667V15.0549C30.6617 14.9578 30.6371 14.8628 30.5945 14.7755C30.5518 14.6883 30.492 14.6105 30.4185 14.547C30.345 14.4834 30.2594 14.4354 30.1668 14.4059C30.0743 14.3763 29.9767 14.3657 29.88 14.3749L22.6667 13.0549H7.33333C7.15652 13.0549 6.98695 12.9846 6.86193 12.8596C6.73691 12.7346 6.66667 12.565 6.66667 12.3882V11.4415L1.82667 12.7749C1.69796 12.8083 1.58221 12.8796 1.4943 12.9794C1.40639 13.0792 1.35033 13.203 1.33334 13.3349V15.7215ZM11.3333 17.0549H20.6667C20.8435 17.0549 21.013 17.1251 21.1381 17.2501C21.2631 17.3751 21.3333 17.5447 21.3333 17.7215C21.3333 17.8983 21.2631 18.0679 21.1381 18.1929C21.013 18.318 20.8435 18.3882 20.6667 18.3882H11.3333C11.1565 18.3882 10.987 18.318 10.8619 18.1929C10.7369 18.0679 10.6667 17.8983 10.6667 17.7215C10.6667 17.5447 10.7369 17.3751 10.8619 17.2501C10.987 17.1251 11.1565 17.0549 11.3333 17.0549Z" fill="#242429"/>
</svg>
