<svg width="24" height="24" viewBox="0 0 24 24" fill="none" xmlns="http://www.w3.org/2000/svg">
<path d="M22 9.10934C22 8.7831 21.8683 8.47023 21.6339 8.23955C21.3995 8.00887 21.0815 7.87927 20.75 7.87927C20.75 7.87927 20.2633 7.87927 20.2292 7.88583C19.606 6.74969 18.8921 5.66408 18.0942 4.63927C17.6778 4.10648 17.1008 3.71697 16.4458 3.52647C14.9783 2.82451 9.02167 2.82451 7.55417 3.52647C6.89917 3.71697 6.3222 4.10648 5.90583 4.63927C5.10787 5.66408 4.39396 6.74969 3.77083 7.88583C3.73667 7.87927 3.25 7.87927 3.25 7.87927C2.91848 7.87927 2.60054 8.00887 2.36612 8.23955C2.1317 8.47023 2 8.7831 2 9.10934V14.4396C2.00016 15.0153 2.15426 15.5807 2.44681 16.0792C2.73936 16.5777 3.16007 16.9916 3.66667 17.2795V18.5399C3.66667 19.1923 3.93006 19.8181 4.3989 20.2794C4.86774 20.7408 5.50363 21 6.16667 21C6.82971 21 7.46559 20.7408 7.93443 20.2794C8.40327 19.8181 8.66667 19.1923 8.66667 18.5399V17.7198H15.3333V18.5399C15.3333 19.1923 15.5967 19.8181 16.0656 20.2794C16.5344 20.7408 17.1703 21 17.8333 21C18.4964 21 19.1323 20.7408 19.6011 20.2794C20.0699 19.8181 20.3333 19.1923 20.3333 18.5399V17.2795C20.8399 16.9916 21.2606 16.5777 21.5532 16.0792C21.8457 15.5807 21.9998 15.0153 22 14.4396V9.10934ZM7.22833 5.63727C7.43248 5.37819 7.71447 5.18908 8.03417 5.09686C9.3 4.481 14.7008 4.481 15.9658 5.09686C16.2855 5.18908 16.5675 5.37819 16.7717 5.63727C18.0372 7.27018 19.0794 9.0595 19.8717 10.9594C14.6515 10.2098 9.34847 10.2098 4.12833 10.9594C4.92058 9.0595 5.96282 7.27018 7.22833 5.63727ZM7 18.5399C7 18.7574 6.9122 18.9659 6.75592 19.1197C6.59964 19.2735 6.38768 19.3599 6.16667 19.3599C5.94565 19.3599 5.73369 19.2735 5.57741 19.1197C5.42113 18.9659 5.33333 18.7574 5.33333 18.5399V17.7198H7V18.5399ZM18.6667 18.5399C18.6667 18.7574 18.5789 18.9659 18.4226 19.1197C18.2663 19.2735 18.0543 19.3599 17.8333 19.3599C17.6123 19.3599 17.4004 19.2735 17.2441 19.1197C17.0878 18.9659 17 18.7574 17 18.5399V17.7198H18.6667V18.5399ZM18.6667 16.0797H5.33333C4.89131 16.0797 4.46738 15.9069 4.15482 15.5994C3.84226 15.2918 3.66667 14.8746 3.66667 14.4396V12.6823C6.42563 12.2672 9.2095 12.0325 12 11.9795C14.7905 12.0325 17.5744 12.2672 20.3333 12.6823V14.4396C20.3333 14.8746 20.1577 15.2918 19.8452 15.5994C19.5326 15.9069 19.1087 16.0797 18.6667 16.0797ZM7 14.4396C7 14.6571 6.9122 14.8657 6.75592 15.0195C6.59964 15.1733 6.38768 15.2597 6.16667 15.2597C5.94565 15.2597 5.73369 15.1733 5.57741 15.0195C5.42113 14.8657 5.33333 14.6571 5.33333 14.4396C5.33333 14.2221 5.42113 14.0136 5.57741 13.8598C5.73369 13.706 5.94565 13.6196 6.16667 13.6196C6.38768 13.6196 6.59964 13.706 6.75592 13.8598C6.9122 14.0136 7 14.2221 7 14.4396ZM18.6667 14.4396C18.6667 14.6571 18.5789 14.8657 18.4226 15.0195C18.2663 15.1733 18.0543 15.2597 17.8333 15.2597C17.6123 15.2597 17.4004 15.1733 17.2441 15.0195C17.0878 14.8657 17 14.6571 17 14.4396C17 14.2221 17.0878 14.0136 17.2441 13.8598C17.4004 13.706 17.6123 13.6196 17.8333 13.6196C18.0543 13.6196 18.2663 13.706 18.4226 13.8598C18.5789 14.0136 18.6667 14.2221 18.6667 14.4396Z" fill="#7E7E89"/>
</svg>
