<svg width="18" height="18" viewBox="0 0 18 18" fill="none" xmlns="http://www.w3.org/2000/svg">
<g clip-path="url(#clip0_37_920)">
<path d="M17.4854 2.46073C17.2206 2.19547 16.7909 2.19502 16.5261 2.4596L8.38771 10.5765L5.45139 7.38742C5.19766 7.112 4.76869 7.09414 4.49282 7.34783C4.21716 7.60155 4.19951 8.03074 4.45323 8.3064L7.86782 12.0147C7.99287 12.1506 8.16788 12.2296 8.35241 12.2334C8.35737 12.2336 8.36215 12.2336 8.3669 12.2336C8.54623 12.2336 8.71874 12.1624 8.84583 12.0357L17.484 3.42018C17.7495 3.15563 17.75 2.72598 17.4854 2.46073Z" fill="#F3C54C"/>
<path d="M17.3216 8.32159C16.9469 8.32159 16.6432 8.62527 16.6432 9C16.6432 13.2146 13.2146 16.6432 9 16.6432C4.78561 16.6432 1.35679 13.2146 1.35679 9C1.35679 4.78561 4.78561 1.35679 9 1.35679C9.3747 1.35679 9.67841 1.05311 9.67841 0.67841C9.67841 0.30368 9.3747 0 9 0C4.03734 0 0 4.03734 0 9C0 13.9624 4.03734 18 9 18C13.9624 18 18 13.9624 18 9C18 8.6253 17.6963 8.32159 17.3216 8.32159Z" fill="#F3C54C"/>
</g>
<defs>
<clipPath id="clip0_37_920">
<rect width="18" height="18" fill="white"/>
</clipPath>
</defs>
</svg>
