<svg width="30" height="30" viewBox="0 0 30 30" fill="none" xmlns="http://www.w3.org/2000/svg">
<path d="M27.5 26.563H25.9375V13.7505C25.9375 10.7255 24.275 9.06298 21.25 9.06298H15.9375V7.52548C16.6625 7.70048 17.3875 7.80048 18.125 7.80048C19.3 7.80048 20.475 7.57548 21.6 7.12548C21.95 6.98798 22.1875 6.63798 22.1875 6.25048V2.50048C22.1875 2.18798 22.0375 1.90048 21.775 1.72548C21.5125 1.55048 21.1875 1.51298 20.9 1.62548C19.1125 2.33798 17.1375 2.33798 15.35 1.62548C15.0625 1.51298 14.7375 1.55048 14.475 1.72548C14.2125 1.90048 14.0625 2.18798 14.0625 2.50048V6.25048V9.06298H8.75C5.725 9.06298 4.0625 10.7255 4.0625 13.7505V26.563H2.5C1.9875 26.563 1.5625 26.988 1.5625 27.5005C1.5625 28.013 1.9875 28.438 2.5 28.438H5H25H27.5C28.0125 28.438 28.4375 28.013 28.4375 27.5005C28.4375 26.988 28.0125 26.563 27.5 26.563ZM9.05 26.563H5.9375V15.938H9.05V26.563ZM14.05 26.563H10.925V15.938H14.05V26.563ZM19.05 26.563H15.925V15.938H19.05V26.563ZM24.0625 26.563H20.925V15.938H24.0625V26.563Z" fill="#44A1ED"/>
</svg>
