<svg width="25" height="19" viewBox="0 0 25 19" fill="none" xmlns="http://www.w3.org/2000/svg">
<path d="M24.5448 3.39376L24.6963 14.4014C24.6595 14.5926 24.6271 14.7843 24.5854 14.9743C24.0846 17.2419 22.1776 18.7812 19.8018 18.8276C18.406 18.8551 17.01 18.8657 15.6141 18.8848C12.4164 18.9285 9.21911 18.9933 6.02105 19.0062C3.32115 19.017 1.16834 16.9049 1.12568 14.2525C1.07115 10.8563 1.02441 7.45982 0.985456 4.06303C0.982336 3.87481 1.00478 3.68702 1.05219 3.50464C1.439 2.07086 3.20548 1.58428 4.31319 2.61268C5.12308 3.36368 5.9099 4.13619 6.70765 4.89886C6.76561 4.95436 6.82723 5.00678 6.91254 5.08309C6.98637 4.99553 7.04071 4.92215 7.1044 4.85712C8.47369 3.47125 9.84319 2.08599 11.2129 0.701333C12.1361 -0.232538 13.2836 -0.247002 14.2334 0.660072L18.4716 4.71818C18.5339 4.77786 18.6018 4.83746 18.6728 4.90247C18.7384 4.84105 18.7888 4.79435 18.8361 4.7465C19.6071 3.96784 20.3737 3.18502 21.1485 2.41055C21.6854 1.87358 22.3327 1.66802 23.0802 1.8624C23.8277 2.05678 24.2989 2.55334 24.4985 3.29271C24.5106 3.32779 24.5261 3.36163 24.5448 3.39376Z" fill="#6C1CFF"/>
</svg>
