<svg width="15" height="18" viewBox="0 0 15 18" fill="none" xmlns="http://www.w3.org/2000/svg">
<path d="M14.25 2.99999H11.925C11.5662 1.25518 10.0313 0.00225 8.24998 0H6.74996C4.96863 0.00225 3.43378 1.25518 3.07498 2.99999H0.749988C0.335777 2.99999 0 3.33577 0 3.74998C0 4.16419 0.335777 4.5 0.749988 4.5H1.49998V14.25C1.50247 16.32 3.17995 17.9975 5.24999 18H9.74999C11.82 17.9975 13.4975 16.32 13.5 14.25V4.5H14.25C14.6642 4.5 15 4.16422 15 3.75001C15 3.3358 14.6642 2.99999 14.25 2.99999ZM6.75 12.75C6.75 13.1642 6.41422 13.5 6.00001 13.5C5.58577 13.5 5.24999 13.1642 5.24999 12.75V8.25001C5.24999 7.8358 5.58576 7.50002 5.99998 7.50002C6.41419 7.50002 6.74996 7.8358 6.74996 8.25001V12.75H6.75ZM9.74999 12.75C9.74999 13.1642 9.41421 13.5 9 13.5C8.58579 13.5 8.25001 13.1642 8.25001 12.75V8.25001C8.25001 7.8358 8.58579 7.50002 9 7.50002C9.41421 7.50002 9.74999 7.8358 9.74999 8.25001V12.75ZM4.62825 2.99999C4.94726 2.10171 5.79677 1.50114 6.75 1.49998H8.25001C9.20324 1.50114 10.0528 2.10171 10.3718 2.99999H4.62825Z" fill="#F65E5E"/>
</svg>
