<svg width="25" height="24" viewBox="0 0 25 24" fill="none" xmlns="http://www.w3.org/2000/svg">
<path d="M24.0688 9.25738C23.8908 10.0161 23.5595 10.7309 23.0952 11.3581C21.9921 12.8389 20.9055 14.3316 19.8121 15.8195L14.9069 22.498C13.6678 24.1851 11.3495 24.1961 10.0987 22.523C7.2793 18.7446 4.45866 14.9671 1.63682 11.1904C1.2285 10.646 0.94002 10.022 0.790155 9.35914L6.88309 9.31284C7.26996 10.289 7.65808 11.2692 8.04745 12.2535L11.5419 21.1009C11.7902 21.7304 12.3485 21.9927 12.8999 21.7431C13.1904 21.6113 13.3444 21.372 13.4524 21.0852C14.1193 19.3117 14.7882 17.5388 15.4592 15.7665C16.2546 13.6552 17.0516 11.5434 17.8502 9.43126C17.8765 9.36139 17.91 9.29327 17.9404 9.21367L24.0681 9.1671L24.0688 9.25738Z" fill="#6C1CFF"/>
<path d="M9.37902 0.570312C9.04033 1.48941 8.70247 2.4091 8.36542 3.32939C7.88829 4.60964 7.41116 5.88807 6.9383 7.1695C6.8912 7.2977 6.84056 7.36231 6.68718 7.36287C4.76754 7.37201 2.84796 7.38902 0.928353 7.40239C0.86749 7.40285 0.810213 7.39481 0.740175 7.38928C0.848801 6.71912 1.11276 6.08336 1.51113 5.53241C2.38221 4.35217 3.25819 3.17431 4.16232 2.01806C4.7729 1.23545 5.60272 0.786836 6.58636 0.632734C6.63776 0.621598 6.68846 0.607455 6.7382 0.59038L9.37902 0.570312Z" fill="#6C1CFF"/>
<path d="M17.8982 0.506016C18.2263 0.591378 18.5615 0.654873 18.8801 0.766361C19.5516 0.999921 20.138 1.42724 20.5645 1.99383C21.4511 3.15365 22.3324 4.31835 23.2085 5.48794C23.5959 6.00526 23.8685 6.59859 24.0082 7.22866L23.749 7.23063C21.8896 7.24476 20.0302 7.25586 18.1709 7.27665C17.9932 7.278 17.9107 7.23319 17.8449 7.05858C17.0186 4.87798 16.1866 2.70025 15.3486 0.525391L17.8982 0.506016Z" fill="#6C1CFF"/>
<path d="M13.2973 0.540761C13.3497 0.703955 13.3954 0.87023 13.4563 1.03094C14.2215 3.03306 14.9875 5.03457 15.7543 7.03547C15.7829 7.11039 15.8029 7.189 15.8316 7.28028L8.94627 7.3326L11.4745 0.554613L13.2973 0.540761Z" fill="#6C1CFF"/>
<path d="M12.4492 18.0982L8.96973 9.29675L15.8472 9.24449C14.7296 12.2017 13.6148 15.1538 12.5028 18.1008L12.4492 18.0982Z" fill="#6C1CFF"/>
</svg>
