<svg width="22" height="23" viewBox="0 0 22 23" fill="none" xmlns="http://www.w3.org/2000/svg">
<path d="M13.7502 21.3542H8.25016C3.27266 21.3542 1.146 19.2275 1.146 14.25V8.75004C1.146 3.77254 3.27266 1.64587 8.25016 1.64587H12.8335C13.2093 1.64587 13.521 1.95754 13.521 2.33337C13.521 2.70921 13.2093 3.02087 12.8335 3.02087H8.25016C4.02433 3.02087 2.521 4.52421 2.521 8.75004V14.25C2.521 18.4759 4.02433 19.9792 8.25016 19.9792H13.7502C17.976 19.9792 19.4793 18.4759 19.4793 14.25V9.66671C19.4793 9.29087 19.791 8.97921 20.1668 8.97921C20.5427 8.97921 20.8543 9.29087 20.8543 9.66671V14.25C20.8543 19.2275 18.7277 21.3542 13.7502 21.3542Z" fill="#14161B"/>
<path d="M20.1668 10.3542H16.5002C13.3652 10.3542 12.146 9.13503 12.146 6.00003V2.33336C12.146 2.05836 12.311 1.8017 12.5677 1.70086C12.8243 1.59086 13.1177 1.65503 13.3193 1.84753L20.6527 9.18086C20.8452 9.37336 20.9093 9.67586 20.7993 9.93253C20.6893 10.1892 20.4418 10.3542 20.1668 10.3542ZM13.521 3.99253V6.00003C13.521 8.36503 14.1352 8.9792 16.5002 8.9792H18.5077L13.521 3.99253Z" fill="#14161B"/>
<path d="M11.9165 13.1041H6.4165C6.04067 13.1041 5.729 12.7925 5.729 12.4166C5.729 12.0408 6.04067 11.7291 6.4165 11.7291H11.9165C12.2923 11.7291 12.604 12.0408 12.604 12.4166C12.604 12.7925 12.2923 13.1041 11.9165 13.1041Z" fill="#14161B"/>
<path d="M10.0832 16.7709H6.4165C6.04067 16.7709 5.729 16.4592 5.729 16.0834C5.729 15.7075 6.04067 15.3959 6.4165 15.3959H10.0832C10.459 15.3959 10.7707 15.7075 10.7707 16.0834C10.7707 16.4592 10.459 16.7709 10.0832 16.7709Z" fill="#14161B"/>
</svg>
