<svg width="22" height="23" viewBox="0 0 22 23" fill="none" xmlns="http://www.w3.org/2000/svg">
<path d="M12.2835 16.4683H9.98264C8.47931 16.4683 7.26014 15.2033 7.26014 13.6449C7.26014 13.2691 7.57181 12.9574 7.94764 12.9574C8.32348 12.9574 8.63514 13.2691 8.63514 13.6449C8.63514 14.4424 9.24014 15.0933 9.98264 15.0933H12.2835C12.8793 15.0933 13.3743 14.5616 13.3743 13.9199C13.3743 13.1224 13.0901 12.9666 12.6226 12.8016L8.92848 11.4999C8.21348 11.2524 7.25098 10.7208 7.25098 9.07995C7.25098 7.66828 8.36014 6.53162 9.71681 6.53162H12.0176C13.521 6.53162 14.7401 7.79662 14.7401 9.35495C14.7401 9.73078 14.4285 10.0424 14.0526 10.0424C13.6768 10.0424 13.3651 9.73078 13.3651 9.35495C13.3651 8.55745 12.7601 7.90662 12.0176 7.90662H9.71681C9.12098 7.90662 8.62598 8.43828 8.62598 9.07995C8.62598 9.87745 8.91014 10.0333 9.37764 10.1983L13.0718 11.4999C13.7868 11.7474 14.7493 12.2791 14.7493 13.9199C14.7401 15.3224 13.6401 16.4683 12.2835 16.4683Z" fill="#14161B"/>
<path d="M11 17.6875C10.6242 17.6875 10.3125 17.3758 10.3125 17V6C10.3125 5.62417 10.6242 5.3125 11 5.3125C11.3758 5.3125 11.6875 5.62417 11.6875 6V17C11.6875 17.3758 11.3758 17.6875 11 17.6875Z" fill="#14161B"/>
<path d="M11.0002 21.3542C5.56433 21.3542 1.146 16.9359 1.146 11.5C1.146 6.06421 5.56433 1.64587 11.0002 1.64587C16.436 1.64587 20.8543 6.06421 20.8543 11.5C20.8543 16.9359 16.436 21.3542 11.0002 21.3542ZM11.0002 3.02087C6.32516 3.02087 2.521 6.82504 2.521 11.5C2.521 16.175 6.32516 19.9792 11.0002 19.9792C15.6752 19.9792 19.4793 16.175 19.4793 11.5C19.4793 6.82504 15.6752 3.02087 11.0002 3.02087Z" fill="#14161B"/>
</svg>
