<svg width="22" height="22" viewBox="0 0 22 22" fill="none" xmlns="http://www.w3.org/2000/svg">
<g clip-path="url(#clip0_136_740)">
<path d="M11.0002 5.5C10.275 5.5 9.56605 5.71505 8.96307 6.11794C8.36009 6.52084 7.89013 7.0935 7.61261 7.76349C7.33508 8.43349 7.26247 9.17073 7.40395 9.882C7.54543 10.5933 7.89465 11.2466 8.40744 11.7594C8.92023 12.2722 9.57357 12.6214 10.2848 12.7629C10.9961 12.9044 11.7333 12.8317 12.4033 12.5542C13.0733 12.2767 13.646 11.8067 14.0489 11.2038C14.4518 10.6008 14.6668 9.89186 14.6668 9.16667C14.6668 8.19421 14.2805 7.26157 13.5929 6.57394C12.9053 5.88631 11.9726 5.5 11.0002 5.5ZM11.0002 11C10.6376 11 10.2831 10.8925 9.98162 10.691C9.68013 10.4896 9.44515 10.2033 9.30639 9.86825C9.16762 9.53326 9.13132 9.16463 9.20206 8.809C9.2728 8.45337 9.44741 8.1267 9.7038 7.8703C9.9602 7.61391 10.2869 7.4393 10.6425 7.36856C10.9981 7.29782 11.3668 7.33413 11.7018 7.47289C12.0367 7.61165 12.3231 7.84663 12.5245 8.14812C12.726 8.44961 12.8335 8.80407 12.8335 9.16667C12.8335 9.6529 12.6403 10.1192 12.2965 10.463C11.9527 10.8068 11.4864 11 11.0002 11Z" fill="#5F6164"/>
<path d="M10.9998 22C10.2279 22.004 9.46632 21.8229 8.77877 21.4721C8.09123 21.1212 7.49776 20.6107 7.04805 19.9833C3.55463 15.1644 1.78271 11.5418 1.78271 9.21525C1.78271 6.77073 2.7538 4.42633 4.48234 2.69779C6.21087 0.969252 8.55528 -0.00183105 10.9998 -0.00183105C13.4443 -0.00183105 15.7887 0.969252 17.5173 2.69779C19.2458 4.42633 20.2169 6.77073 20.2169 9.21525C20.2169 11.5418 18.445 15.1644 14.9515 19.9833C14.5018 20.6107 13.9084 21.1212 13.2208 21.4721C12.5333 21.8229 11.7717 22.004 10.9998 22ZM10.9998 1.99925C9.08618 2.00144 7.25156 2.76259 5.89843 4.11572C4.5453 5.46885 3.78415 7.30347 3.78196 9.21709C3.78196 11.0596 5.51721 14.4668 8.66688 18.8109C8.93427 19.1792 9.28505 19.479 9.69054 19.6857C10.096 19.8924 10.5447 20.0001 10.9998 20.0001C11.4549 20.0001 11.9036 19.8924 12.3091 19.6857C12.7145 19.479 13.0653 19.1792 13.3327 18.8109C16.4824 14.4668 18.2176 11.0596 18.2176 9.21709C18.2154 7.30347 17.4543 5.46885 16.1012 4.11572C14.748 2.76259 12.9134 2.00144 10.9998 1.99925Z" fill="#5F6164"/>
</g>
<defs>
<clipPath id="clip0_136_740">
<rect width="22" height="22" fill="white"/>
</clipPath>
</defs>
</svg>
