<svg width="20" height="20" viewBox="0 0 20 20" fill="none" xmlns="http://www.w3.org/2000/svg">
<path d="M17.7087 7.62506C15.7837 4.60006 12.967 2.8584 10.0003 2.8584C8.51699 2.8584 7.07532 3.29173 5.75866 4.10007C4.44199 4.91673 3.25866 6.1084 2.29199 7.62506C1.45866 8.9334 1.45866 11.0584 2.29199 12.3667C4.21699 15.4001 7.03366 17.1334 10.0003 17.1334C11.4837 17.1334 12.9253 16.7001 14.242 15.8917C15.5587 15.0751 16.742 13.8834 17.7087 12.3667C18.542 11.0667 18.542 8.9334 17.7087 7.62506ZM10.0003 13.3667C8.13366 13.3667 6.63366 11.8584 6.63366 10.0001C6.63366 8.14173 8.13366 6.6334 10.0003 6.6334C11.867 6.6334 13.367 8.14173 13.367 10.0001C13.367 11.8584 11.867 13.3667 10.0003 13.3667Z" fill="#737B86"/>
<path d="M10 7.6167C8.69167 7.6167 7.625 8.68337 7.625 10C7.625 11.3084 8.69167 12.375 10 12.375C11.3083 12.375 12.3833 11.3084 12.3833 10C12.3833 8.6917 11.3083 7.6167 10 7.6167Z" fill="#737B86"/>
</svg>
