<svg width="18" height="18" viewBox="0 0 18 18" fill="none" xmlns="http://www.w3.org/2000/svg">
<path d="M15.3937 4.30875C15.3765 4.338 15.3562 4.36575 15.3337 4.392L11.0077 9.4215V13.6185C11.0077 14.1 10.7325 14.5305 10.2885 14.7435L8.84249 15.4335C8.66174 15.5197 8.46749 15.5632 8.27474 15.5632C8.03249 15.5632 7.79024 15.495 7.57724 15.36C7.21049 15.1282 6.99074 14.7352 6.99074 14.3085V9.4215L2.66624 4.392C2.64374 4.36575 2.62349 4.338 2.60624 4.30875C2.38199 3.924 2.38049 3.46425 2.60249 3.078C2.82974 2.68275 3.25949 2.4375 3.72374 2.4375H14.2762C14.7405 2.4375 15.1702 2.68275 15.3975 3.078C15.6195 3.46425 15.618 3.924 15.3937 4.30875Z" fill="white"/>
</svg>
