<svg width="30" height="30" viewBox="0 0 30 30" fill="none" xmlns="http://www.w3.org/2000/svg">
<path d="M28.1267 15.2915C28.1267 14.2123 28.0373 13.4248 27.8439 12.6082H15.2695V17.4789H22.6504C22.5017 18.6894 21.6981 20.5123 19.9123 21.7372L19.8873 21.9003L23.8631 24.9187L24.1386 24.9457C26.6683 22.656 28.1267 19.2873 28.1267 15.2915Z" fill="#4285F4"/>
<path d="M15.268 28.125C18.884 28.125 21.9197 26.9582 24.137 24.9458L19.9108 21.7373C18.7799 22.5103 17.262 23.0498 15.268 23.0498C11.7264 23.0498 8.72043 20.7603 7.64891 17.5957L7.49185 17.6088L3.35777 20.7442L3.30371 20.8915C5.50606 25.179 10.0299 28.125 15.268 28.125Z" fill="#34A853"/>
<path d="M7.64972 17.5958C7.36699 16.7792 7.20336 15.9041 7.20336 15C7.20336 14.0958 7.36699 13.2208 7.63485 12.4042L7.62736 12.2302L3.44147 9.04443L3.30451 9.10827C2.39681 10.8875 1.87598 12.8854 1.87598 15C1.87598 17.1146 2.39681 19.1124 3.30451 20.8916L7.64972 17.5958Z" fill="#FBBC05"/>
<path d="M15.2681 6.94997C17.7829 6.94997 19.4793 8.01454 20.4466 8.90419L24.2264 5.2875C21.905 3.17292 18.8841 1.875 15.2681 1.875C10.0299 1.875 5.50607 4.82081 3.30371 9.10828L7.63406 12.4042C8.72047 9.23958 11.7264 6.94997 15.2681 6.94997Z" fill="#EB4335"/>
</svg>
