<svg width="20" height="16" viewBox="0 0 20 16" fill="none" xmlns="http://www.w3.org/2000/svg">
<g clip-path="url(#clip0_144_1181)">
<path d="M10.0005 1C9.7474 1 9.4974 1.04375 9.2599 1.12813L0.494233 4.29375C0.197357 4.40313 0.000481011 4.68438 0.000481011 5C0.000481011 5.31563 0.197357 5.59688 0.494233 5.70625L2.30362 6.35938C1.79111 7.16563 1.50049 8.11876 1.50049 9.12188V10C1.50049 10.8875 1.16299 11.8031 0.80361 12.525C0.600484 12.9313 0.369233 13.3313 0.100482 13.7C0.000481012 13.8344 -0.0276441 14.0094 0.0286061 14.1688C0.0848564 14.3281 0.216107 14.4469 0.378608 14.4875L2.37862 14.9875C2.50987 15.0219 2.65049 14.9969 2.76612 14.925C2.88174 14.8531 2.963 14.7344 2.988 14.6C3.25675 13.2625 3.12237 12.0625 2.92237 11.2031C2.82237 10.7594 2.68799 10.3063 2.50049 9.89063V9.12188C2.50049 8.17813 2.81924 7.28751 3.37237 6.575C3.7755 6.09063 4.29738 5.7 4.90988 5.45938L9.81615 3.53125C10.0724 3.43125 10.363 3.55625 10.463 3.8125C10.563 4.06875 10.438 4.35938 10.1818 4.45938L5.27551 6.3875C4.88801 6.54063 4.54738 6.775 4.26925 7.06251L9.25678 8.86251C9.49428 8.94688 9.74428 8.99063 9.9974 8.99063C10.2505 8.99063 10.5005 8.94688 10.738 8.86251L19.5068 5.70625C19.8037 5.6 20.0006 5.31563 20.0006 5C20.0006 4.68438 19.8037 4.40313 19.5068 4.29375L10.7412 1.12813C10.5037 1.04375 10.2537 1 10.0005 1ZM4.0005 12.75C4.0005 13.8531 6.68801 15 10.0005 15C13.313 15 16.0006 13.8531 16.0006 12.75L15.5224 8.20626L11.0787 9.81251C10.7318 9.93751 10.3662 10 10.0005 10C9.6349 10 9.26615 9.93751 8.9224 9.81251L4.47863 8.20626L4.0005 12.75Z" fill="white"/>
</g>
<defs>
<clipPath id="clip0_144_1181">
<rect width="20" height="16" fill="white"/>
</clipPath>
</defs>
</svg>
