<svg width="24" height="24" viewBox="0 0 24 24" fill="none" xmlns="http://www.w3.org/2000/svg">
<path d="M21.1479 7.67577L19.3268 5.85379L20.1172 5.06341C20.1969 4.98642 20.2605 4.89432 20.3042 4.7925C20.3479 4.69067 20.371 4.58115 20.3719 4.47033C20.3729 4.35951 20.3518 4.24961 20.3098 4.14704C20.2678 4.04446 20.2059 3.95128 20.1275 3.87291C20.0491 3.79455 19.9559 3.73258 19.8534 3.69061C19.7508 3.64864 19.6409 3.62753 19.5301 3.62849C19.4193 3.62945 19.3097 3.65248 19.2079 3.69622C19.1061 3.73996 19.014 3.80354 18.937 3.88326L18.1466 4.67364L16.3246 2.8525C15.7504 2.30526 14.9875 2 14.1943 2C13.401 2 12.6382 2.30526 12.0639 2.8525C11.784 3.13224 11.5619 3.46441 11.4103 3.83002C11.2588 4.19563 11.1808 4.58752 11.1808 4.98329C11.1808 5.37905 11.2588 5.77094 11.4103 6.13656C11.5619 6.50217 11.784 6.83433 12.0639 7.11407L13.8851 8.93521L8.96582 13.8545L7.14384 12.0333C6.56957 11.4861 5.80674 11.1808 5.01348 11.1808C4.22022 11.1808 3.45738 11.4861 2.88311 12.0333C2.60315 12.313 2.38105 12.6452 2.22952 13.0108C2.07799 13.3764 2 13.7683 2 14.1641C2 14.5599 2.07799 14.9518 2.22952 15.3174C2.38105 15.683 2.60315 16.0151 2.88311 16.2949L4.70425 18.116L3.91387 18.9064C3.83415 18.9834 3.77057 19.0755 3.72683 19.1773C3.68309 19.2791 3.66006 19.3887 3.6591 19.4995C3.65814 19.6103 3.67925 19.7202 3.72122 19.8228C3.76318 19.9253 3.82516 20.0185 3.90352 20.0969C3.98189 20.1753 4.07507 20.2372 4.17765 20.2792C4.28022 20.3212 4.39012 20.3423 4.50094 20.3413C4.61176 20.3404 4.72128 20.3173 4.82311 20.2736C4.92493 20.2298 5.01703 20.1663 5.09402 20.0865L5.8844 19.2962L7.70638 21.1173C7.9861 21.3971 8.31821 21.6191 8.68374 21.7706C9.04928 21.922 9.44107 22 9.83674 22C10.2324 22 10.6242 21.922 10.9897 21.7706C11.3553 21.6191 11.6874 21.3971 11.9671 21.1173C12.247 20.8376 12.4691 20.5055 12.6206 20.14C12.7722 19.7745 12.8501 19.3826 12.8501 18.9869C12.8501 18.5912 12.7722 18.1994 12.6206 17.8339C12.4691 17.4683 12.247 17.1362 11.9671 16.8566L10.146 15.0354L15.0702 10.1154L16.8914 11.9365C17.1711 12.2163 17.5032 12.4383 17.8687 12.5898C18.2343 12.7412 18.6261 12.8192 19.0217 12.8192C19.4174 12.8192 19.8092 12.7412 20.1747 12.5898C20.5403 12.4383 20.8724 12.2163 21.1521 11.9365C21.432 11.6568 21.6541 11.3247 21.8056 10.9592C21.9571 10.5937 22.0351 10.2018 22.0351 9.80613C22.0351 9.41043 21.9571 9.01861 21.8056 8.65307C21.6541 8.28753 21.432 7.95543 21.1521 7.67577H21.1479ZM11.1809 18.9874C11.1813 19.1638 11.1466 19.3387 11.079 19.5017C11.0114 19.6647 10.9121 19.8127 10.787 19.9372C10.5311 20.1819 10.1908 20.3185 9.83674 20.3185C9.48272 20.3185 9.14235 20.1819 8.88653 19.9372L4.06326 15.1139C3.81125 14.8619 3.66967 14.5201 3.66967 14.1637C3.66967 13.8073 3.81125 13.4655 4.06326 13.2135C4.31528 12.9615 4.65708 12.8199 5.01348 12.8199C5.36988 12.8199 5.71168 12.9615 5.96369 13.2135L10.787 18.0367C10.9122 18.1613 11.0115 18.3094 11.0792 18.4726C11.1468 18.6357 11.1814 18.8107 11.1809 18.9874ZM19.9678 10.7563C19.7119 11.0011 19.3716 11.1377 19.0175 11.1377C18.6635 11.1377 18.3232 11.0011 18.0673 10.7563L13.2441 5.93308C13.1193 5.8083 13.0203 5.66016 12.9528 5.49712C12.8852 5.33408 12.8505 5.15934 12.8505 4.98287C12.8505 4.62647 12.9921 4.28467 13.2441 4.03265C13.4961 3.78064 13.8379 3.63906 14.1943 3.63906C14.5507 3.63906 14.8925 3.78064 15.1445 4.03265L19.9678 8.85592C20.0927 8.98064 20.1917 9.12876 20.2593 9.29181C20.3269 9.45485 20.3617 9.62963 20.3617 9.80613C20.3617 9.98264 20.3269 10.1574 20.2593 10.3205C20.1917 10.4835 20.0927 10.6316 19.9678 10.7563Z" fill="#7E7E89"/>
</svg>
