<svg width="28" height="28" viewBox="0 0 28 28" fill="none" xmlns="http://www.w3.org/2000/svg">
<path d="M14.0007 25.2584C13.639 25.2584 13.289 25.2117 12.9973 25.1067C8.54065 23.5784 1.45898 18.1534 1.45898 10.1384C1.45898 6.05503 4.76065 2.7417 8.82065 2.7417C10.7923 2.7417 12.6357 3.5117 14.0007 4.88837C15.3657 3.5117 17.209 2.7417 19.1807 2.7417C23.2407 2.7417 26.5423 6.0667 26.5423 10.1384C26.5423 18.165 19.4606 23.5784 15.004 25.1067C14.7123 25.2117 14.3623 25.2584 14.0007 25.2584ZM8.82065 4.4917C5.72898 4.4917 3.20898 7.02337 3.20898 10.1384C3.20898 18.1067 10.874 22.54 13.569 23.4617C13.779 23.5317 14.234 23.5317 14.444 23.4617C17.1273 22.54 24.804 18.1184 24.804 10.1384C24.804 7.02337 22.284 4.4917 19.1923 4.4917C17.419 4.4917 15.774 5.32003 14.7123 6.75503C14.3857 7.19837 13.639 7.19837 13.3123 6.75503C12.2273 5.30837 10.594 4.4917 8.82065 4.4917Z" fill="#6C1CFF"/>
<path fill-rule="evenodd" clip-rule="evenodd" d="M14.6687 9.99992C14.6687 9.63173 14.3702 9.33325 14.002 9.33325C13.6338 9.33325 13.3354 9.63173 13.3354 9.99992V13.3333L10.0007 13.3333C9.63246 13.3333 9.33398 13.6317 9.33398 13.9999C9.33398 14.3681 9.63246 14.6666 10.0007 14.6666L13.3354 14.6666V17.9999C13.3354 18.3681 13.6338 18.6666 14.002 18.6666C14.3702 18.6666 14.6687 18.3681 14.6687 17.9999V14.6666L18.0007 14.6666C18.3688 14.6666 18.6673 14.3681 18.6673 13.9999C18.6673 13.6317 18.3688 13.3333 18.0007 13.3333L14.6687 13.3333V9.99992Z" fill="#6C1CFF"/>
</svg>
