<svg width="20" height="18" viewBox="0 0 20 18" fill="none" xmlns="http://www.w3.org/2000/svg">
<g clip-path="url(#clip0_144_1187)">
<path d="M18.8819 9.98611C19.4722 9.98611 19.9931 9.5 19.9931 8.87153C20.0278 8.55903 19.8889 8.28125 19.6111 8.03819L10.7465 0.243056C10.5382 0.0694444 10.2604 0 10.0174 0C9.77431 0 9.49653 0.0347222 9.25347 0.277778L0.347222 8.03819C0.104167 8.28125 0 8.55903 0 8.87153C0 9.49653 0.486111 9.98611 1.11111 9.98611H2.22222V15.5556C2.22222 16.7813 3.21875 17.7778 4.44444 17.7778H15.5694C16.8021 17.7778 17.7986 16.7778 17.7917 15.5451L17.7674 9.98264H18.8785L18.8819 9.98611ZM8.88889 7.22222C8.88889 6.91667 9.13889 6.66667 9.44444 6.66667H10.5556C10.8611 6.66667 11.1111 6.91667 11.1111 7.22222V8.88889H12.7778C13.0833 8.88889 13.3333 9.13889 13.3333 9.44444V10.5556C13.3333 10.8611 13.0833 11.1111 12.7778 11.1111H11.1111V12.7778C11.1111 13.0833 10.8611 13.3333 10.5556 13.3333H9.44444C9.13889 13.3333 8.88889 13.0833 8.88889 12.7778V11.1111H7.22222C6.91667 11.1111 6.66667 10.8611 6.66667 10.5556V9.44444C6.66667 9.13889 6.91667 8.88889 7.22222 8.88889H8.88889V7.22222Z" fill="white"/>
</g>
<defs>
<clipPath id="clip0_144_1187">
<rect width="20" height="17.7778" fill="white"/>
</clipPath>
</defs>
</svg>
