<svg width="20" height="20" viewBox="0 0 20 20" fill="none" xmlns="http://www.w3.org/2000/svg">
<path d="M9.58332 18.1251C4.87499 18.1251 1.04166 14.2917 1.04166 9.58342C1.04166 4.87508 4.87499 1.04175 9.58332 1.04175C14.2917 1.04175 18.125 4.87508 18.125 9.58342C18.125 14.2917 14.2917 18.1251 9.58332 18.1251ZM9.58332 2.29175C5.55832 2.29175 2.29166 5.56675 2.29166 9.58342C2.29166 13.6001 5.55832 16.8751 9.58332 16.8751C13.6083 16.8751 16.875 13.6001 16.875 9.58342C16.875 5.56675 13.6083 2.29175 9.58332 2.29175Z" fill="white"/>
<path d="M18.3333 18.9583C18.175 18.9583 18.0167 18.9 17.8917 18.775L16.225 17.1083C15.9833 16.8666 15.9833 16.4666 16.225 16.225C16.4667 15.9833 16.8667 15.9833 17.1083 16.225L18.775 17.8916C19.0167 18.1333 19.0167 18.5333 18.775 18.775C18.65 18.9 18.4917 18.9583 18.3333 18.9583Z" fill="white"/>
</svg>
