<svg width="14" height="14" viewBox="0 0 14 14" fill="none" xmlns="http://www.w3.org/2000/svg">
<path d="M7.86406 13.65C9.73437 11.8945 14 7.63984 14 5.25C14 2.35156 10.8646 0 7 0C3.13542 0 0 2.35156 0 5.25C0 7.63984 4.26562 11.8945 6.13594 13.65C6.58437 14.0684 7.41562 14.0684 7.86406 13.65ZM7 3.5C7.61884 3.5 8.21233 3.68437 8.64992 4.01256C9.0875 4.34075 9.33333 4.78587 9.33333 5.25C9.33333 5.71413 9.0875 6.15925 8.64992 6.48744C8.21233 6.81563 7.61884 7 7 7C6.38116 7 5.78767 6.81563 5.35008 6.48744C4.9125 6.15925 4.66667 5.71413 4.66667 5.25C4.66667 4.78587 4.9125 4.34075 5.35008 4.01256C5.78767 3.68437 6.38116 3.5 7 3.5Z" fill="white"/>
</svg>
