<svg width="20" height="20" viewBox="0 0 20 20" fill="none" xmlns="http://www.w3.org/2000/svg">
<path d="M10.0004 11.8084C8.22539 11.8084 6.77539 10.3667 6.77539 8.58337C6.77539 6.80003 8.22539 5.3667 10.0004 5.3667C11.7754 5.3667 13.2254 6.80837 13.2254 8.5917C13.2254 10.375 11.7754 11.8084 10.0004 11.8084ZM10.0004 6.6167C8.91706 6.6167 8.02539 7.50003 8.02539 8.5917C8.02539 9.68337 8.90872 10.5667 10.0004 10.5667C11.0921 10.5667 11.9754 9.68337 11.9754 8.5917C11.9754 7.50003 11.0837 6.6167 10.0004 6.6167Z" fill="#7E7E89"/>
<path d="M10.0004 18.9665C8.76706 18.9665 7.52539 18.4998 6.55872 17.5748C4.10039 15.2082 1.38372 11.4332 2.40872 6.9415C3.33372 2.8665 6.89206 1.0415 10.0004 1.0415C10.0004 1.0415 10.0004 1.0415 10.0087 1.0415C13.1171 1.0415 16.6754 2.8665 17.6004 6.94984C18.6171 11.4415 15.9004 15.2082 13.4421 17.5748C12.4754 18.4998 11.2337 18.9665 10.0004 18.9665ZM10.0004 2.2915C7.57539 2.2915 4.45872 3.58317 3.63372 7.2165C2.73372 11.1415 5.20039 14.5248 7.43372 16.6665C8.87539 18.0582 11.1337 18.0582 12.5754 16.6665C14.8004 14.5248 17.2671 11.1415 16.3837 7.2165C15.5504 3.58317 12.4254 2.2915 10.0004 2.2915Z" fill="#7E7E89"/>
</svg>
