<svg width="20" height="20" viewBox="0 0 20 20" fill="none" xmlns="http://www.w3.org/2000/svg">
<path d="M10 11.8079C8.225 11.8079 6.775 10.3662 6.775 8.58288C6.775 6.79954 8.225 5.36621 10 5.36621C11.775 5.36621 13.225 6.80788 13.225 8.59121C13.225 10.3745 11.775 11.8079 10 11.8079ZM10 6.61621C8.91667 6.61621 8.025 7.49954 8.025 8.59121C8.025 9.68288 8.90833 10.5662 10 10.5662C11.0917 10.5662 11.975 9.68288 11.975 8.59121C11.975 7.49954 11.0833 6.61621 10 6.61621Z" fill="#124797"/>
<path d="M10 18.967C8.76667 18.967 7.525 18.5003 6.55834 17.5753C4.1 15.2087 1.38334 11.4337 2.40834 6.94199C3.33334 2.86699 6.89167 1.04199 10 1.04199C10 1.04199 10 1.04199 10.0083 1.04199C13.1167 1.04199 16.675 2.86699 17.6 6.95033C18.6167 11.442 15.9 15.2087 13.4417 17.5753C12.475 18.5003 11.2333 18.967 10 18.967ZM10 2.29199C7.575 2.29199 4.45834 3.58366 3.63334 7.21699C2.73334 11.142 5.2 14.5253 7.43334 16.667C8.875 18.0587 11.1333 18.0587 12.575 16.667C14.8 14.5253 17.2667 11.142 16.3833 7.21699C15.55 3.58366 12.425 2.29199 10 2.29199Z" fill="#124797"/>
</svg>
