<svg width="26" height="27" viewBox="0 0 26 27" fill="none" xmlns="http://www.w3.org/2000/svg">
<path d="M22.2786 9.67882C21.1483 4.7059 16.8105 2.46701 13.0001 2.46701C13.0001 2.46701 13.0001 2.46701 12.9893 2.46701C9.18967 2.46701 4.84105 4.69514 3.71085 9.66805C2.45147 15.2222 5.85286 19.926 8.93133 22.8861C10.0723 23.984 11.5362 24.533 13.0001 24.533C14.464 24.533 15.9279 23.984 17.0581 22.8861C20.1365 19.926 23.5379 15.233 22.2786 9.67882ZM13.0001 15.0715C11.1272 15.0715 9.60946 13.5538 9.60946 11.6809C9.60946 9.80798 11.1272 8.29027 13.0001 8.29027C14.873 8.29027 16.3907 9.80798 16.3907 11.6809C16.3907 13.5538 14.873 15.0715 13.0001 15.0715Z" fill="#6C1CFF"/>
</svg>
