<svg width="16" height="16" viewBox="0 0 16 16" fill="none" xmlns="http://www.w3.org/2000/svg">
<path d="M8.00004 9.44667C6.58004 9.44667 5.42004 8.29333 5.42004 6.86667C5.42004 5.44 6.58004 4.29333 8.00004 4.29333C9.42004 4.29333 10.58 5.44667 10.58 6.87334C10.58 8.3 9.42004 9.44667 8.00004 9.44667ZM8.00004 5.29333C7.13338 5.29333 6.42004 6 6.42004 6.87334C6.42004 7.74667 7.12671 8.45333 8.00004 8.45333C8.87338 8.45333 9.58004 7.74667 9.58004 6.87334C9.58004 6 8.86671 5.29333 8.00004 5.29333Z" fill="#EF255C"/>
<path d="M8 15.1733C7.01333 15.1733 6.01999 14.8 5.24666 14.06C3.28 12.1666 1.10666 9.14665 1.92666 5.55331C2.66666 2.29331 5.51333 0.833313 8 0.833313C8 0.833313 8 0.833313 8.00666 0.833313C10.4933 0.833313 13.34 2.29331 14.08 5.55998C14.8933 9.15331 12.72 12.1666 10.7533 14.06C9.97999 14.8 8.98666 15.1733 8 15.1733ZM8 1.83331C6.06 1.83331 3.56666 2.86665 2.90666 5.77331C2.18666 8.91331 4.16 11.62 5.94666 13.3333C7.1 14.4466 8.90666 14.4466 10.06 13.3333C11.84 11.62 13.8133 8.91331 13.1067 5.77331C12.44 2.86665 9.93999 1.83331 8 1.83331Z" fill="#EF255C"/>
</svg>
