<svg width="22" height="23" viewBox="0 0 22 23" fill="none" xmlns="http://www.w3.org/2000/svg">
<path d="M11.0001 13.4892C9.04764 13.4892 7.45264 11.9033 7.45264 9.94165C7.45264 7.97999 9.04764 6.40332 11.0001 6.40332C12.9526 6.40332 14.5476 7.98915 14.5476 9.95082C14.5476 11.9125 12.9526 13.4892 11.0001 13.4892ZM11.0001 7.77832C9.80847 7.77832 8.82764 8.74999 8.82764 9.95082C8.82764 11.1517 9.7993 12.1233 11.0001 12.1233C12.201 12.1233 13.1726 11.1517 13.1726 9.95082C13.1726 8.74999 12.1918 7.77832 11.0001 7.77832Z" fill="#14161B"/>
<path d="M11 21.3634C9.64337 21.3634 8.27754 20.85 7.21421 19.8325C4.51004 17.2292 1.52171 13.0767 2.64921 8.13587C3.66671 3.65337 7.58087 1.64587 11 1.64587C11 1.64587 11 1.64587 11.0092 1.64587C14.4284 1.64587 18.3425 3.65337 19.36 8.14504C20.4784 13.0859 17.49 17.2292 14.7859 19.8325C13.7225 20.85 12.3567 21.3634 11 21.3634ZM11 3.02087C8.33254 3.02087 4.90421 4.44171 3.99671 8.43837C3.00671 12.7559 5.72004 16.4775 8.17671 18.8334C9.76254 20.3642 12.2467 20.3642 13.8325 18.8334C16.28 16.4775 18.9934 12.7559 18.0217 8.43837C17.105 4.44171 13.6675 3.02087 11 3.02087Z" fill="#14161B"/>
</svg>
