<svg width="16" height="16" viewBox="0 0 16 16" fill="none" xmlns="http://www.w3.org/2000/svg">
<path d="M7.99992 9.4463C6.57992 9.4463 5.41992 8.29297 5.41992 6.8663C5.41992 5.43964 6.57992 4.29297 7.99992 4.29297C9.41992 4.29297 10.5799 5.4463 10.5799 6.87297C10.5799 8.29964 9.41992 9.4463 7.99992 9.4463ZM7.99992 5.29297C7.13326 5.29297 6.41992 5.99964 6.41992 6.87297C6.41992 7.7463 7.12659 8.45297 7.99992 8.45297C8.87326 8.45297 9.57992 7.7463 9.57992 6.87297C9.57992 5.99964 8.86659 5.29297 7.99992 5.29297Z" fill="#FF736A"/>
<path d="M8.00012 15.172C7.01345 15.172 6.02012 14.7987 5.24678 14.0587C3.28012 12.1654 1.10678 9.14536 1.92678 5.55203C2.66678 2.29203 5.51345 0.832031 8.00012 0.832031C8.00012 0.832031 8.00012 0.832031 8.00678 0.832031C10.4935 0.832031 13.3401 2.29203 14.0801 5.5587C14.8935 9.15203 12.7201 12.1654 10.7534 14.0587C9.98012 14.7987 8.98678 15.172 8.00012 15.172ZM8.00012 1.83203C6.06012 1.83203 3.56678 2.86536 2.90678 5.77203C2.18678 8.91203 4.16012 11.6187 5.94678 13.332C7.10012 14.4454 8.90678 14.4454 10.0601 13.332C11.8401 11.6187 13.8134 8.91203 13.1068 5.77203C12.4401 2.86536 9.94012 1.83203 8.00012 1.83203Z" fill="#FF736A"/>
</svg>
