<svg width="20" height="20" viewBox="0 0 20 20" fill="none" xmlns="http://www.w3.org/2000/svg">
<path d="M17.1834 7.04134C16.3084 3.19134 12.9501 1.45801 10.0001 1.45801C10.0001 1.45801 10.0001 1.45801 9.99175 1.45801C7.05008 1.45801 3.68341 3.18301 2.80841 7.03301C1.83341 11.333 4.46675 14.9747 6.85008 17.2663C7.73341 18.1163 8.86675 18.5413 10.0001 18.5413C11.1334 18.5413 12.2667 18.1163 13.1417 17.2663C15.5251 14.9747 18.1584 11.3413 17.1834 7.04134ZM10.0001 11.2163C8.55008 11.2163 7.37508 10.0413 7.37508 8.59134C7.37508 7.14134 8.55008 5.96634 10.0001 5.96634C11.4501 5.96634 12.6251 7.14134 12.6251 8.59134C12.6251 10.0413 11.4501 11.2163 10.0001 11.2163Z" fill="#1A66FA"/>
</svg>
