<svg width="20" height="20" viewBox="0 0 20 20" fill="none" xmlns="http://www.w3.org/2000/svg">
<path d="M9.73287 12.375C9.55416 12.375 9.38277 12.4409 9.2564 12.5581C9.13003 12.6753 9.05904 12.8343 9.05904 13V14.8749C9.05904 15.3722 8.84606 15.8491 8.46696 16.2007C8.08786 16.5523 7.57368 16.7498 7.03755 16.7498H5.36915C4.83302 16.7498 4.31884 16.5523 3.93974 16.2007C3.56064 15.8491 3.34766 15.3722 3.34766 14.8749V6.12534C3.34766 5.62808 3.56064 5.15119 3.93974 4.79958C4.31884 4.44796 4.83302 4.25043 5.36915 4.25043H7.03755C7.57368 4.25043 8.08786 4.44796 8.46696 4.79958C8.84606 5.15119 9.05904 5.62808 9.05904 6.12534V8.00025C9.05904 8.166 9.13003 8.32497 9.2564 8.44217C9.38277 8.55938 9.55416 8.62522 9.73287 8.62522C9.91158 8.62522 10.083 8.55938 10.2093 8.44217C10.3357 8.32497 10.4067 8.166 10.4067 8.00025V6.12534C10.4056 5.29688 10.0503 4.50264 9.41872 3.91683C8.78711 3.33102 7.93078 3.00148 7.03755 3.00049H5.36915C4.47592 3.00148 3.61959 3.33102 2.98798 3.91683C2.35638 4.50264 2.00107 5.29688 2 6.12534L2 14.8749C2.00107 15.7034 2.35638 16.4976 2.98798 17.0834C3.61959 17.6692 4.47592 17.9988 5.36915 17.9998H7.03755C7.93078 17.9988 8.78711 17.6692 9.41872 17.0834C10.0503 16.4976 10.4056 15.7034 10.4067 14.8749V13C10.4067 12.8343 10.3357 12.6753 10.2093 12.5581C10.083 12.4409 9.91158 12.375 9.73287 12.375Z" fill="white"/>
<path d="M17.4081 9.1741L14.3179 6.30798C14.2557 6.24829 14.1814 6.20068 14.0992 6.16793C14.0169 6.13517 13.9285 6.11793 13.8391 6.11721C13.7496 6.11649 13.6609 6.1323 13.578 6.16373C13.4952 6.19515 13.42 6.24156 13.3567 6.30024C13.2935 6.35892 13.2434 6.4287 13.2096 6.5055C13.1757 6.58231 13.1586 6.66461 13.1594 6.74759C13.1602 6.83057 13.1788 6.91258 13.2141 6.98883C13.2494 7.06508 13.3007 7.13404 13.3651 7.19169L16.2369 9.85594L6.04257 9.87469C5.86386 9.87469 5.69247 9.94053 5.5661 10.0577C5.43974 10.1749 5.36874 10.3339 5.36874 10.4997C5.36874 10.6654 5.43974 10.8244 5.5661 10.9416C5.69247 11.0588 5.86386 11.1246 6.04257 11.1246L16.2767 11.1053L13.3637 13.8076C13.2994 13.8653 13.248 13.9342 13.2127 14.0105C13.1774 14.0867 13.1588 14.1687 13.1581 14.2517C13.1573 14.3347 13.1743 14.417 13.2082 14.4938C13.2421 14.5706 13.2921 14.6404 13.3554 14.6991C13.4187 14.7578 13.4939 14.8042 13.5767 14.8356C13.6595 14.867 13.7482 14.8828 13.8377 14.8821C13.9272 14.8814 14.0156 14.8641 14.0978 14.8314C14.18 14.7986 14.2544 14.751 14.3165 14.6913L17.4067 11.8252C17.7859 11.4738 17.999 10.9971 17.9993 10.4999C17.9995 10.0028 17.7869 9.52586 17.4081 9.1741Z" fill="white"/>
</svg>
