<svg width="20" height="20" viewBox="0 0 20 20" fill="none" xmlns="http://www.w3.org/2000/svg">
<path d="M12.6991 18.5586L12.5908 18.5586C8.89079 18.5586 7.10745 17.1002 6.79912 13.8336C6.76579 13.4919 7.01579 13.1836 7.36579 13.1502C7.69912 13.1169 8.01579 13.3752 8.04912 13.7169C8.29079 16.3336 9.52412 17.3086 12.5991 17.3086L12.7075 17.3086C16.0991 17.3086 17.2991 16.1086 17.2991 12.7169L17.2991 7.28356C17.2991 3.89189 16.0991 2.69189 12.7075 2.69189L12.5991 2.69189C9.50745 2.69189 8.27412 3.68356 8.04912 6.35023C8.00745 6.69189 7.71579 6.95023 7.36579 6.91689C7.01579 6.89189 6.76578 6.58356 6.79078 6.24189C7.07412 2.92523 8.86578 1.44189 12.5908 1.44189L12.6991 1.44189C16.7908 1.44189 18.5408 3.19189 18.5408 7.28356L18.5408 12.7169C18.5408 16.8086 16.7908 18.5586 12.6991 18.5586Z" fill="white"/>
<path d="M12.499 10.625L3.01563 10.625C2.67396 10.625 2.39063 10.3417 2.39063 10C2.39063 9.65833 2.67396 9.375 3.01562 9.375L12.499 9.375C12.8406 9.375 13.124 9.65833 13.124 10C13.124 10.3417 12.8406 10.625 12.499 10.625Z" fill="white"/>
<path d="M4.87552 13.4167C4.71719 13.4167 4.55886 13.3584 4.43386 13.2334L1.64219 10.4417C1.40052 10.2 1.40052 9.80003 1.64219 9.55837L4.43385 6.7667C4.67552 6.52503 5.07552 6.52503 5.31719 6.7667C5.55885 7.00837 5.55885 7.40837 5.31719 7.65003L2.96719 10L5.31719 12.35C5.55885 12.5917 5.55885 12.9917 5.31719 13.2334C5.20052 13.3584 5.03385 13.4167 4.87552 13.4167Z" fill="white"/>
</svg>
