<svg width="28" height="28" viewBox="0 0 28 28" fill="none" xmlns="http://www.w3.org/2000/svg">
<path d="M5.83271 25.5149C4.96937 25.5149 4.11771 25.1883 3.46437 24.5349C2.83437 23.9049 2.48438 23.0649 2.48438 22.1666C2.48438 21.2683 2.83437 20.4283 3.46437 19.7983L18.631 4.63161C19.9377 3.32494 22.061 3.32494 23.3677 4.63161C23.9977 5.26161 24.3477 6.10161 24.3477 6.99994C24.3477 7.89828 23.9977 8.73828 23.3677 9.36828L8.20104 24.5349C7.54771 25.1883 6.69604 25.5149 5.83271 25.5149ZM20.9994 5.40161C20.591 5.40161 20.1827 5.55328 19.8677 5.86828L4.70104 21.0349C4.39771 21.3383 4.23438 21.7349 4.23438 22.1666C4.23438 22.5983 4.39771 22.9949 4.70104 23.2983C5.31938 23.9166 6.34604 23.9166 6.96437 23.2983L22.131 8.13161C22.4344 7.82828 22.5977 7.43161 22.5977 6.99994C22.5977 6.56828 22.4344 6.17161 22.131 5.86828C21.816 5.55328 21.4077 5.40161 20.9994 5.40161Z" fill="#6C1CFF"/>
<path d="M21.0108 11.3633C20.7891 11.3633 20.5674 11.2816 20.3924 11.1066L16.8924 7.60663C16.5541 7.26829 16.5541 6.70829 16.8924 6.36996C17.2308 6.03163 17.7908 6.03163 18.1291 6.36996L21.6291 9.86996C21.9674 10.2083 21.9674 10.7683 21.6291 11.1066C21.4541 11.2816 21.2324 11.3633 21.0108 11.3633Z" fill="#6C1CFF"/>
<path d="M11.6662 6.41669C11.6079 6.41669 11.5612 6.40502 11.5029 6.39335L9.91624 5.92669L8.32957 6.39335C8.11957 6.45169 7.89791 6.39335 7.75791 6.24169C7.60624 6.09002 7.5479 5.88002 7.60624 5.67002L8.07291 4.08335L7.60624 2.49669C7.5479 2.28669 7.60624 2.06502 7.75791 1.92502C7.90957 1.77335 8.13124 1.71502 8.32957 1.77335L9.91624 2.24002L11.5029 1.77335C11.7129 1.71502 11.9229 1.77335 12.0746 1.92502C12.2262 2.07669 12.2846 2.29835 12.2262 2.49669L11.7596 4.08335L12.2262 5.67002C12.2846 5.88002 12.2262 6.10169 12.0746 6.24169C11.9696 6.35835 11.8179 6.41669 11.6662 6.41669ZM9.91624 4.73669C9.97457 4.73669 10.0212 4.74835 10.0796 4.76002L10.8029 4.97002L10.5929 4.24669C10.5579 4.14169 10.5579 4.02502 10.5929 3.92002L10.8029 3.19669L10.0796 3.40669C9.97457 3.44169 9.8579 3.44169 9.7529 3.40669L9.02957 3.19669L9.23957 3.92002C9.27457 4.02502 9.27457 4.14169 9.23957 4.24669L9.02957 4.97002L9.7529 4.76002C9.81124 4.74835 9.85791 4.73669 9.91624 4.73669Z" fill="#6C1CFF"/>
<path d="M7.00022 13.4167C6.94189 13.4167 6.89522 13.405 6.83689 13.3934L5.25022 12.9267L3.66356 13.3934C3.45356 13.4517 3.24356 13.3934 3.09189 13.2417C2.94022 13.09 2.88189 12.8684 2.94022 12.67L3.40689 11.0834L2.94022 9.49669C2.88189 9.28669 2.94022 9.06502 3.09189 8.92502C3.24356 8.78502 3.46522 8.71502 3.66356 8.77335L5.25022 9.24002L6.83689 8.77335C7.03522 8.71502 7.25689 8.77335 7.40856 8.92502C7.56022 9.07669 7.61856 9.29835 7.56022 9.49669L7.09356 11.0834L7.56022 12.67C7.61856 12.88 7.56022 13.1017 7.40856 13.2417C7.30356 13.3584 7.15189 13.4167 7.00022 13.4167ZM5.25022 11.7367C5.30856 11.7367 5.35522 11.7484 5.41356 11.76L6.13689 11.97L5.92689 11.2467C5.89189 11.1417 5.89189 11.025 5.92689 10.92L6.13689 10.1967L5.41356 10.4067C5.30856 10.4417 5.19189 10.4417 5.08689 10.4067L4.36356 10.1967L4.57356 10.92C4.60856 11.025 4.60856 11.1417 4.57356 11.2467L4.36356 11.97L5.08689 11.76C5.14522 11.7484 5.19189 11.7367 5.25022 11.7367Z" fill="#6C1CFF"/>
<path d="M24.5002 19.2501C24.4419 19.2501 24.3952 19.2384 24.3369 19.2267L22.7502 18.7601L21.1636 19.2267C20.9536 19.2851 20.7436 19.2267 20.5919 19.0751C20.4402 18.9234 20.3819 18.7017 20.4402 18.5034L20.9069 16.9167L20.4402 15.3301C20.3819 15.1201 20.4402 14.8984 20.5919 14.7584C20.7436 14.6184 20.9652 14.5484 21.1636 14.6067L22.7502 15.0734L24.3369 14.6067C24.5352 14.5484 24.7569 14.6067 24.9086 14.7584C25.0602 14.9101 25.1186 15.1317 25.0602 15.3301L24.5936 16.9167L25.0602 18.5034C25.1186 18.7134 25.0602 18.9351 24.9086 19.0751C24.8036 19.1917 24.6519 19.2501 24.5002 19.2501ZM22.7502 17.5701C22.8086 17.5701 22.8552 17.5817 22.9136 17.5934L23.6369 17.8034L23.4269 17.0801C23.3919 16.9751 23.3919 16.8584 23.4269 16.7534L23.6369 16.0301L22.9136 16.2401C22.8086 16.2751 22.6919 16.2751 22.5869 16.2401L21.8636 16.0301L22.0736 16.7534C22.1086 16.8584 22.1086 16.9751 22.0736 17.0801L21.8636 17.8034L22.5869 17.5934C22.6452 17.5817 22.6919 17.5701 22.7502 17.5701Z" fill="#6C1CFF"/>
</svg>
