<svg width="30" height="30" viewBox="0 0 30 30" fill="none" xmlns="http://www.w3.org/2000/svg">
<mask id="mask0_136_1211" style="mask-type:luminance" maskUnits="userSpaceOnUse" x="0" y="0" width="30" height="30">
<path d="M0 1.90735e-06H30V30H0V1.90735e-06Z" fill="white"/>
</mask>
<g mask="url(#mask0_136_1211)">
<path fill-rule="evenodd" clip-rule="evenodd" d="M8.01146 22.9449C9.94221 24.0777 12.4243 24.4812 15.0001 24.4812C17.5758 24.4812 20.0579 24.0777 21.9886 22.9449C23.9708 21.7819 25.3016 19.8887 25.5785 17.1198L24.7039 17.0324L25.5785 17.1198L26.4654 8.25029C26.5115 7.78951 26.1921 7.37202 25.7354 7.29589L15.1445 5.53076C15.0489 5.51481 14.9512 5.51481 14.8556 5.53076L4.26474 7.29589C3.80796 7.37202 3.48861 7.78951 3.53469 8.25029L4.42162 17.1198C4.69851 19.8887 6.02927 21.7819 8.01146 22.9449ZM8.90097 21.4288C7.40841 20.5531 6.39235 19.1613 6.17071 16.9449L5.29659 17.0323L6.17071 16.9449L5.36568 8.89446L15.0001 7.28873L24.6344 8.89446L23.8294 16.9449C23.6077 19.1613 22.5917 20.5531 21.0991 21.4288C19.5551 22.3346 17.4345 22.7234 15.0001 22.7234C12.5656 22.7234 10.445 22.3346 8.90097 21.4288Z" fill="white"/>
<path fill-rule="evenodd" clip-rule="evenodd" d="M4.40918 17.8748C2.94488 17.8748 1.75781 16.6877 1.75781 15.2234V11.6931C1.75781 10.2288 2.94488 9.04175 4.40918 9.04175V7.28394C1.97407 7.28394 0 9.258 0 11.6931V15.2234C0 17.6585 1.97407 19.6326 4.40918 19.6326H5.65342V17.8748H4.40918Z" fill="white"/>
<path fill-rule="evenodd" clip-rule="evenodd" d="M24.3467 19.6326H25.5909C28.026 19.6326 30.0001 17.6585 30.0001 15.2234V11.6931C30.0001 9.258 28.026 7.28394 25.5909 7.28394V9.04175C27.0552 9.04175 28.2423 10.2288 28.2423 11.6931V15.2234C28.2423 16.6877 27.0552 17.8748 25.5909 17.8748H24.3467V19.6326Z" fill="white"/>
<path fill-rule="evenodd" clip-rule="evenodd" d="M14.8555 9.06103L4.26465 10.8262L4.55363 12.5601L15 10.819L25.4463 12.5601L25.7353 10.8262L15.1444 9.06103C15.0488 9.04508 14.9511 9.04508 14.8555 9.06103Z" fill="white"/>
</g>
</svg>
