<svg width="14" height="14" viewBox="0 0 14 14" fill="none" xmlns="http://www.w3.org/2000/svg">
<g clip-path="url(#clip0_290_5648)">
<path d="M7.0026 11.0833C6.19719 11.0833 5.54427 11.7363 5.54427 12.5417C5.54427 13.3471 6.19719 14 7.0026 14C7.80802 14 8.46094 13.3471 8.46094 12.5417C8.46094 11.7363 7.80802 11.0833 7.0026 11.0833Z" fill="#4B5675"/>
<path d="M7.0026 5.54256C6.19719 5.54256 5.54427 6.19548 5.54427 7.00089C5.54427 7.80631 6.19719 8.45923 7.0026 8.45923C7.80802 8.45923 8.46094 7.80631 8.46094 7.0009C8.46094 6.19548 7.80802 5.54256 7.0026 5.54256Z" fill="#4B5675"/>
<path d="M7.0026 -0.000895628C6.19719 -0.000895698 5.54427 0.652022 5.54427 1.45744C5.54427 2.26285 6.19719 2.91577 7.0026 2.91577C7.80802 2.91577 8.46094 2.26285 8.46094 1.45744C8.46094 0.652023 7.80802 -0.000895557 7.0026 -0.000895628Z" fill="#4B5675"/>
</g>
<defs>
<clipPath id="clip0_290_5648">
<rect width="14" height="14" fill="white" transform="translate(14 14) rotate(-180)"/>
</clipPath>
</defs>
</svg>
