<svg width="67" height="66" viewBox="0 0 67 66" fill="none" xmlns="http://www.w3.org/2000/svg">
<path fill-rule="evenodd" clip-rule="evenodd" d="M47.0822 8.25C50.77 8.25 54.3175 9.7075 56.9272 12.3228C59.5397 14.9325 61 18.4525 61 22.1375V43.8625C61 51.535 54.7575 57.75 47.0822 57.75H19.915C12.2397 57.75 6 51.535 6 43.8625V22.1375C6 14.465 12.2122 8.25 19.915 8.25H47.0822ZM51.4575 26.235L51.6775 26.015C52.3347 25.2175 52.3347 24.0625 51.6472 23.265C51.265 22.8553 50.7397 22.605 50.1925 22.55C49.615 22.5197 49.065 22.715 48.6497 23.1L36.25 33C34.655 34.3228 32.3697 34.3228 30.75 33L18.375 23.1C17.5197 22.4675 16.3372 22.55 15.625 23.2925C14.8825 24.035 14.8 25.2175 15.4297 26.0425L15.79 26.4L28.3025 36.1625C29.8425 37.3725 31.7097 38.0325 33.665 38.0325C35.6147 38.0325 37.515 37.3725 39.0522 36.1625L51.4575 26.235Z" fill="#6C1CFF"/>
</svg>
