<svg width="32" height="32" viewBox="0 0 32 32" fill="none" xmlns="http://www.w3.org/2000/svg">
<path d="M16 2C8.274 2 2 8.274 2 16C2 23.726 8.274 30 16 30C23.726 30 30 23.726 30 16C30 8.274 23.726 2 16 2ZM15.55 3.021V5.52C14.064 5.583 12.591 5.962 11.232 6.654L9.98 4.48C11.7041 3.58103 13.6086 3.08233 15.552 3.021H15.55ZM16.55 3.027C18.551 3.111 20.435 3.633 22.102 4.52L20.846 6.695C19.5147 6.00187 18.0499 5.60287 16.551 5.525V3.027H16.55ZM9.112 4.984L10.364 7.15C10.004 7.38 9.65 7.626 9.314 7.904C8.48586 8.59078 7.76874 9.40134 7.188 10.307L5.02 9.057C6.06172 7.41066 7.45934 6.01885 9.11 4.984H9.112ZM22.962 5.029C24.5959 6.06797 25.9777 7.45799 27.007 9.098L24.84 10.35C24.2721 9.45494 23.5714 8.65142 22.762 7.967C22.4273 7.68874 22.0756 7.43158 21.709 7.197L22.962 5.029ZM16.046 6.498C18.2693 6.50759 20.4186 7.29833 22.118 8.732C23.8199 10.163 24.9656 12.1458 25.3554 14.3349C25.7452 16.524 25.3543 18.7805 24.251 20.711C24.1934 20.8129 24.1734 20.9317 24.1944 21.0468C24.2154 21.1619 24.2761 21.266 24.366 21.341C24.3667 21.342 24.3673 21.343 24.368 21.344C24.4064 21.3903 24.4528 21.4292 24.505 21.459L27.005 22.902C24.705 26.562 20.645 29 16 29C11.372 29 7.325 26.58 5.021 22.943L7.596 21.457C7.65922 21.4212 7.71389 21.3721 7.75618 21.313C7.79848 21.2539 7.82739 21.1863 7.8409 21.1149C7.85442 21.0435 7.85221 20.9701 7.83444 20.8996C7.81667 20.8292 7.78376 20.7634 7.738 20.707C7.72957 20.6822 7.7192 20.6582 7.707 20.635C6.62145 18.6942 6.25147 16.434 6.66155 14.2483C7.07163 12.0627 8.23576 10.0903 9.951 8.675C11.6642 7.25718 13.8222 6.48661 16.046 6.498ZM15.5 9V16.092C14.921 16.3 14.5 16.853 14.5 17.5C14.5 18.147 14.921 18.698 15.5 18.906V20H16.5V18.906C17.079 18.698 17.5 18.146 17.5 17.5C17.5 16.853 17.079 16.3 16.5 16.092V9H15.5ZM4.512 9.916L6.686 11.172C5.99102 12.5142 5.59334 13.9903 5.52 15.5H3.025C3.09334 13.5504 3.60169 11.6414 4.512 9.916ZM27.51 9.961C28.4062 11.6746 28.9068 13.5674 28.975 15.5H26.479C26.4073 14.0068 26.0183 12.5461 25.338 11.215L27.51 9.96V9.961ZM3.025 16.5H5.52C5.589 17.977 5.972 19.452 6.686 20.828L4.512 22.084C3.60165 20.3586 3.09331 18.4496 3.025 16.5ZM26.479 16.5H28.975C28.9065 18.4331 28.4051 20.3263 27.508 22.04L25.336 20.785C26.0192 19.4549 26.409 17.9937 26.479 16.5ZM16 17C16.282 17 16.5 17.218 16.5 17.5C16.5 17.782 16.282 18 16 18C15.9341 18.0009 15.8686 17.9887 15.8075 17.9639C15.7465 17.9391 15.691 17.9023 15.6443 17.8557C15.5977 17.809 15.5609 17.7535 15.5361 17.6925C15.5113 17.6314 15.4991 17.5659 15.5 17.5C15.5 17.218 15.718 17 16 17ZM10.5 23C10.3674 23 10.2402 23.0527 10.1464 23.1464C10.0527 23.2402 10 23.3674 10 23.5V25.5C10 25.6326 10.0527 25.7598 10.1464 25.8536C10.2402 25.9473 10.3674 26 10.5 26H21.5C21.6326 26 21.7598 25.9473 21.8536 25.8536C21.9473 25.7598 22 25.6326 22 25.5V23.5C22 23.3674 21.9473 23.2402 21.8536 23.1464C21.7598 23.0527 21.6326 23 21.5 23H10.5ZM11 24H21V25H11V24Z" fill="#242429"/>
</svg>
