<svg width="44" height="44" viewBox="0 0 44 44" fill="none" xmlns="http://www.w3.org/2000/svg">
<path d="M32.1929 32.9453H11.8063C4.50959 32.9453 2.29126 30.727 2.29126 23.4303V11.807C2.29126 4.51033 4.50959 2.29199 11.8063 2.29199H32.1746C39.4713 2.29199 41.6896 4.51033 41.6896 11.807V23.412C41.7079 30.727 39.4896 32.9453 32.1929 32.9453ZM11.8063 5.04199C6.04959 5.04199 5.04126 6.05033 5.04126 11.807V23.412C5.04126 29.1687 6.04959 30.177 11.8063 30.177H32.1746C37.9313 30.177 38.9396 29.1687 38.9396 23.412V11.807C38.9396 6.05033 37.9313 5.04199 32.1746 5.04199H11.8063Z" fill="#44A1ED"/>
<path d="M22 41.7086C21.2483 41.7086 20.625 41.0853 20.625 40.3336V31.5703C20.625 30.8186 21.2483 30.1953 22 30.1953C22.7517 30.1953 23.375 30.8186 23.375 31.5703V40.3336C23.375 41.0853 22.7517 41.7086 22 41.7086Z" fill="#44A1ED"/>
<path d="M40.3329 25.208H3.66626C2.91459 25.208 2.29126 24.5847 2.29126 23.833C2.29126 23.0813 2.91459 22.458 3.66626 22.458H40.3329C41.0846 22.458 41.7079 23.0813 41.7079 23.833C41.7079 24.5847 41.0846 25.208 40.3329 25.208Z" fill="#44A1ED"/>
<path d="M30.25 41.708H13.75C12.9983 41.708 12.375 41.0847 12.375 40.333C12.375 39.5813 12.9983 38.958 13.75 38.958H30.25C31.0017 38.958 31.625 39.5813 31.625 40.333C31.625 41.0847 31.0017 41.708 30.25 41.708Z" fill="#44A1ED"/>
</svg>
