<svg width="32" height="32" viewBox="0 0 32 32" fill="none" xmlns="http://www.w3.org/2000/svg">
<path d="M28.6999 12.9C28.6499 12.9 28.4099 12.78 27.9999 12.64V9.31C27.9993 9.12151 27.9456 8.93702 27.8447 8.77778C27.7439 8.61854 27.6001 8.49105 27.4299 8.41C23.8228 6.8397 19.9339 6.01973 15.9999 6C12.0658 6.01973 8.17697 6.8397 4.56988 8.41C4.3997 8.49105 4.2559 8.61854 4.15505 8.77778C4.0542 8.93702 4.00041 9.12151 3.99988 9.31V12.64C3.58988 12.78 3.34988 12.88 3.29988 12.9C3.08765 12.9858 2.9113 13.1419 2.80027 13.3421C2.68925 13.5423 2.65028 13.7745 2.68988 14L4.92988 25.23C4.96256 25.3913 5.03455 25.5421 5.13947 25.6689C5.24439 25.7957 5.37899 25.8947 5.53133 25.957C5.68367 26.0193 5.84904 26.0431 6.01276 26.0261C6.17649 26.0092 6.3335 25.9522 6.46988 25.86C6.46988 25.86 9.70988 23.79 15.9999 23.79C22.2899 23.79 25.4599 25.79 25.5299 25.86C25.6926 25.9693 25.8838 26.0285 26.0799 26.03C26.2137 26.0275 26.3459 26.0004 26.4699 25.95C26.6211 25.8881 26.7549 25.7902 26.8595 25.6646C26.964 25.5391 27.0363 25.3899 27.0699 25.23L29.3099 14C29.3495 13.7745 29.3105 13.5423 29.1995 13.3421C29.0885 13.1419 28.9121 12.9858 28.6999 12.9ZM5.99988 10C9.18057 8.71974 12.5714 8.04157 15.9999 8C19.428 8.04411 22.8185 8.72219 25.9999 10V12C22.7467 11.0712 19.3829 10.5868 15.9999 10.56C12.6169 10.5868 9.25302 11.0712 5.99988 12V10ZM25.3699 23.53C22.4003 22.3089 19.2099 21.7165 15.9999 21.79C12.7899 21.7165 9.59947 22.3089 6.62988 23.53L4.81988 14.47C8.42688 13.2676 12.1981 12.6301 15.9999 12.58C19.8017 12.6301 23.5729 13.2676 27.1799 14.47L25.3699 23.53ZM15.9999 14C16.2651 14 16.5194 14.1054 16.707 14.2929C16.8945 14.4804 16.9999 14.7348 16.9999 15V16H17.9999C18.2651 16 18.5194 16.1054 18.707 16.2929C18.8945 16.4804 18.9999 16.7348 18.9999 17C18.9999 17.2652 18.8945 17.5196 18.707 17.7071C18.5194 17.8946 18.2651 18 17.9999 18H16.9999V19C16.9999 19.2652 16.8945 19.5196 16.707 19.7071C16.5194 19.8946 16.2651 20 15.9999 20C15.7347 20 15.4803 19.8946 15.2928 19.7071C15.1052 19.5196 14.9999 19.2652 14.9999 19V18H13.9999C13.7347 18 13.4803 17.8946 13.2928 17.7071C13.1052 17.5196 12.9999 17.2652 12.9999 17C12.9999 16.7348 13.1052 16.4804 13.2928 16.2929C13.4803 16.1054 13.7347 16 13.9999 16H14.9999V15C14.9999 14.7348 15.1052 14.4804 15.2928 14.2929C15.4803 14.1054 15.7347 14 15.9999 14Z" fill="white"/>
</svg>
