<svg width="20" height="20" viewBox="0 0 20 20" fill="none" xmlns="http://www.w3.org/2000/svg">
<path d="M9.16602 10.8307H4.99935C4.76324 10.8307 4.56532 10.7509 4.4056 10.5911C4.24588 10.4314 4.16602 10.2335 4.16602 9.9974C4.16602 9.76128 4.24588 9.56337 4.4056 9.40365C4.56532 9.24392 4.76324 9.16406 4.99935 9.16406H9.16602V4.9974C9.16602 4.76128 9.24588 4.56337 9.4056 4.40365C9.56532 4.24392 9.76324 4.16406 9.99935 4.16406C10.2355 4.16406 10.4334 4.24392 10.5931 4.40365C10.7528 4.56337 10.8327 4.76128 10.8327 4.9974V9.16406H14.9993C15.2355 9.16406 15.4334 9.24392 15.5931 9.40365C15.7528 9.56337 15.8327 9.76128 15.8327 9.9974C15.8327 10.2335 15.7528 10.4314 15.5931 10.5911C15.4334 10.7509 15.2355 10.8307 14.9993 10.8307H10.8327V14.9974C10.8327 15.2335 10.7528 15.4314 10.5931 15.5911C10.4334 15.7509 10.2355 15.8307 9.99935 15.8307C9.76324 15.8307 9.56532 15.7509 9.4056 15.5911C9.24588 15.4314 9.16602 15.2335 9.16602 14.9974V10.8307Z" fill="white"/>
</svg>
