<svg width="18" height="18" viewBox="0 0 18 18" fill="none" xmlns="http://www.w3.org/2000/svg">
<path d="M16.5002 2.18191L16.4999 5.5916C16.4999 5.96819 16.1947 6.27326 15.8183 6.27326C15.4417 6.27326 15.1367 5.96819 15.1367 5.59148V3.82923L11.1756 7.79377C11.0423 7.92722 10.8676 7.9935 10.6931 7.9935C10.5187 7.9935 10.3444 7.92709 10.2112 7.7939C9.94499 7.5279 9.94474 7.09628 10.2109 6.83003L14.1732 2.86383H12.4114C12.0348 2.86383 11.7296 2.5585 11.7296 2.18179C11.7296 1.80533 12.0349 1.5 12.4114 1.5H15.8183C15.9992 1.5 16.1725 1.57189 16.3004 1.69998C16.4284 1.8278 16.5002 2.00147 16.5002 2.18191ZM15.8184 11.7269C15.4417 11.7269 15.1367 12.0326 15.1367 12.4089V14.1712L11.242 10.3097C10.9755 10.0434 10.5256 10.0432 10.2594 10.3094C9.99301 10.5753 9.98381 11.0072 10.2498 11.2733L14.1052 15.1367H12.3414H12.34C11.9634 15.1367 11.6578 15.4418 11.6577 15.8185C11.6576 16.1947 11.9623 16.5002 12.339 16.5002L15.7453 16.5005C15.9264 16.5005 16.1364 16.4287 16.2639 16.3008C16.3918 16.173 16.5003 15.9996 16.5003 15.8189V12.4088C16.5002 12.0325 16.1948 11.7269 15.8184 11.7269ZM6.75801 10.2797L2.8637 14.1714V12.4088C2.8637 12.0322 2.5645 11.7277 2.18804 11.7277H2.19085C1.81427 11.7277 1.51047 12.0326 1.51047 12.4088L1.51073 15.8184C1.51073 15.9993 1.58288 16.1727 1.7107 16.3006C1.83879 16.4285 2.01246 16.5003 2.19328 16.5003H5.60029C5.97687 16.5003 6.28207 16.195 6.28207 15.8185C6.28207 15.4417 5.97675 15.1365 5.60029 15.1365H3.83894L7.72839 11.2434C7.9949 10.9773 7.99145 10.545 7.7252 10.2792C7.45895 10.0133 7.02439 10.0136 6.75801 10.2797ZM3.82693 2.92525H5.58854C5.96512 2.92525 6.2702 2.6203 6.2702 2.24385C6.2702 1.86713 5.965 1.56181 5.58854 1.56181L2.18191 1.56155H2.18179C2.00084 1.56155 1.82768 1.63306 1.69959 1.76089C1.57189 1.88872 1.5 2.062 1.5 2.24321L1.50038 5.65303C1.50038 6.0291 1.80558 6.33481 2.18204 6.33481C2.55862 6.33481 2.8637 6.0291 2.8637 5.65303V3.89053L6.79376 7.82378C6.92695 7.9571 7.10165 8.02376 7.27621 8.02376C7.45039 8.02376 7.62496 7.95736 7.75802 7.82417C8.0244 7.55817 8.02478 7.12616 7.7584 6.85966L3.82693 2.92525Z" fill="#7E7E89"/>
</svg>
