<svg width="31" height="30" viewBox="0 0 31 30" fill="none" xmlns="http://www.w3.org/2000/svg">
<path d="M28.0003 3.63652L27.9998 9.31934C27.9998 9.94698 27.4912 10.4554 26.8638 10.4554C26.2361 10.4554 25.7279 9.94698 25.7279 9.31913V6.38205L19.126 12.9896C18.9038 13.212 18.6127 13.3225 18.3218 13.3225C18.0312 13.3225 17.7407 13.2118 17.5187 12.9898C17.075 12.5465 17.0746 11.8271 17.5181 11.3834L24.1221 4.77304H21.1856C20.558 4.77304 20.0493 4.26416 20.0493 3.63631C20.0493 3.00888 20.5582 2.5 21.1856 2.5H26.8638C27.1653 2.5 27.4541 2.61982 27.6674 2.83329C27.8807 3.04634 28.0003 3.33579 28.0003 3.63652ZM26.864 19.5448C26.2361 19.5448 25.7279 20.0544 25.7279 20.6816V23.6187L19.2367 17.1828C18.7925 16.7391 18.0427 16.7387 17.599 17.1824C17.155 17.6255 17.1397 18.3453 17.583 18.7889L24.0086 25.2279H21.069H21.0666C20.439 25.2279 19.9297 25.7363 19.9295 26.3642C19.9293 26.9912 20.4371 27.5003 21.0649 27.5003L26.7422 27.5009C27.044 27.5009 27.3939 27.3811 27.6065 27.168C27.8196 26.955 28.0005 26.666 28.0005 26.3648V20.6814C28.0003 20.0541 27.4914 19.5448 26.864 19.5448ZM11.7633 17.1328L5.27283 23.6191V20.6814C5.27283 20.0537 4.77416 19.5461 4.14674 19.5461H4.15142C3.52378 19.5461 3.01745 20.0544 3.01745 20.6814L3.01788 26.364C3.01788 26.6656 3.13813 26.9546 3.35117 27.1676C3.56464 27.3809 3.85409 27.5005 4.15546 27.5005H9.83381C10.4615 27.5005 10.9701 26.9916 10.9701 26.3642C10.9701 25.7361 10.4612 25.2275 9.83381 25.2275H6.89823L13.3807 18.7391C13.8248 18.2955 13.8191 17.5751 13.3753 17.132C12.9316 16.6889 12.2073 16.6893 11.7633 17.1328ZM6.87822 4.87542H9.81423C10.4419 4.87542 10.9503 4.36717 10.9503 3.73974C10.9503 3.11189 10.4417 2.60301 9.81423 2.60301L4.13652 2.60258H4.13631C3.83473 2.60258 3.54613 2.72177 3.33266 2.93482C3.11982 3.14786 3 3.43667 3 3.73868L3.00064 9.42171C3.00064 10.0485 3.50931 10.558 4.13673 10.558C4.76437 10.558 5.27283 10.0485 5.27283 9.42171V6.48421L11.8229 13.0396C12.0449 13.2618 12.3361 13.3729 12.627 13.3729C12.9173 13.3729 13.2083 13.2623 13.43 13.0403C13.874 12.597 13.8746 11.8769 13.4307 11.4328L6.87822 4.87542Z" fill="#7E7E89"/>
</svg>
