<svg width="95" height="95" viewBox="0 0 95 95" fill="none" xmlns="http://www.w3.org/2000/svg">
<g clip-path="url(#clip0_239_4042)">
<path d="M88.5059 6.23047H53.9941C50.4133 6.23047 47.5 8.9071 47.5 12.1971V48.7397C48.8732 49.1077 50.2266 49.5479 51.5557 50.0644C55.9752 51.782 59.9433 54.2395 63.3496 57.3691C66.7559 60.4987 69.4307 64.1445 71.3001 68.2051C72.795 71.4524 73.7185 74.8546 74.0631 78.3536C77.3387 79.0619 79.7852 81.7676 79.7852 84.99V86.6948C79.7852 89.2289 78.9183 91.5793 77.4465 93.5138H88.5059C92.0867 93.5138 95 90.8372 95 87.5472V12.1971C95 8.9071 92.0867 6.23047 88.5059 6.23047ZM81.7334 34.1884C83.2705 34.1884 84.5166 35.3333 84.5166 36.7455C84.5166 38.1578 83.2705 39.3027 81.7334 39.3027H60.7666C59.2295 39.3027 57.9834 38.1578 57.9834 36.7455C57.9834 35.3333 59.2295 34.1884 60.7666 34.1884H81.7334ZM65.0342 21.4028C65.0342 19.9906 66.2803 18.8456 67.8174 18.8456H74.6826C76.2197 18.8456 77.4658 19.9906 77.4658 21.4028C77.4658 22.815 76.2197 23.9599 74.6826 23.9599H67.8174C66.2803 23.9599 65.0342 22.815 65.0342 21.4028ZM60.7666 49.5312C59.2295 49.5312 57.9834 48.3863 57.9834 46.9741C57.9834 45.5618 59.2295 44.4169 60.7666 44.4169H81.7334C83.2705 44.4169 84.5166 45.5618 84.5166 46.9741C84.5166 48.3863 83.2705 49.5312 81.7334 49.5312H60.7666Z" fill="#6C1CFF"/>
<path d="M34.3257 50.8039C19.3992 52.0953 7.45477 63.672 5.77148 78.331H68.4463C66.763 63.672 54.8186 52.0953 39.8921 50.8039V45.275V44.8828H41.9693C43.5063 44.8828 44.7525 43.6498 44.7525 42.1289C44.7525 40.608 43.5063 39.375 41.9693 39.375H32.2483C30.7112 39.375 29.4651 40.608 29.4651 42.1289C29.4651 43.6498 30.7112 44.8828 32.2483 44.8828H34.3257V45.275V50.8039ZM25.7612 65.4932C23.6448 66.9669 21.8816 68.9358 20.6625 71.1872C20.1608 72.1138 19.1997 72.6409 18.207 72.6409C17.7632 72.6409 17.3134 72.5357 16.8948 72.3139C15.54 71.5955 15.0303 69.9265 15.7561 68.5859C17.3832 65.5814 19.7352 62.9545 22.5581 60.9889C23.8144 60.1136 25.5512 60.4123 26.4358 61.6563C27.3202 62.9 27.0183 64.6179 25.7612 65.4932ZM35.2534 62.5221C34.6485 62.5221 34.0392 62.5548 33.4425 62.6193C33.3397 62.6305 33.2376 62.6358 33.1369 62.6358C31.7352 62.6358 30.5292 61.5909 30.3735 60.1806C30.2067 58.6687 31.31 57.309 32.8379 57.1439C33.6347 57.0578 34.4474 57.0141 35.2534 57.0141C36.7905 57.0141 38.0366 58.2472 38.0366 59.768C38.0366 61.2889 36.7905 62.5221 35.2534 62.5221Z" fill="#6C1CFF"/>
<path d="M74.2188 87.5117V85.6758C74.2188 84.6618 73.3881 83.8398 72.3633 83.8398H1.85547C0.830693 83.8398 0 84.6618 0 85.6758V87.5117C0 91.5675 3.32296 94.8555 7.42188 94.8555H53.9941H66.7969C70.8958 94.8555 74.2188 91.5675 74.2188 87.5117Z" fill="#6C1CFF"/>
</g>
<defs>
<clipPath id="clip0_239_4042">
<rect width="95" height="94" fill="white" transform="translate(0 0.855469)"/>
</clipPath>
</defs>
</svg>
