<svg width="78" height="96" viewBox="0 0 78 96" fill="none" xmlns="http://www.w3.org/2000/svg">
<path fill-rule="evenodd" clip-rule="evenodd" d="M77.9994 48.6313C77.9994 43.3286 73.6573 39.0312 68.2994 39.0312H55.954C54.4938 39.0312 53.3086 40.2042 53.3086 41.6494V93.3812C53.3086 94.8265 54.4938 95.9994 55.954 95.9994H71.8267C75.2375 95.9994 77.9994 93.2625 77.9994 89.8903V48.6313ZM58.5995 44.2676V90.763H71.8267C72.3134 90.763 72.7085 90.3721 72.7085 89.8903V48.6313C72.7085 46.2225 70.7332 44.2676 68.2994 44.2676H58.5995Z" fill="#6C1CFF"/>
<path fill-rule="evenodd" clip-rule="evenodd" d="M47.1352 0C48.5955 0 49.7807 1.17295 49.7807 2.61818V13.0909C49.7807 14.5361 48.5955 15.7091 47.1352 15.7091H32.1444V19.7865C32.1444 21.2317 30.9592 22.4047 29.499 22.4047C28.0387 22.4047 26.8535 21.2317 26.8535 19.7865V2.61818C26.8535 1.17295 28.0387 0 29.499 0H47.1352Z" fill="#6C1CFF"/>
<path fill-rule="evenodd" clip-rule="evenodd" d="M14.5023 96.0014H3.04583C1.58555 96.0014 0.400391 94.8284 0.400391 93.3832V41.812C0.400391 38.6876 1.93827 35.7553 4.52375 33.9574C9.28201 30.6481 18.5728 24.1864 23.9236 20.4651C27.271 18.1366 31.7294 18.1366 35.0768 20.4651C40.4277 24.1864 49.7184 30.6481 54.4767 33.9574C57.0622 35.7553 58.6001 38.6876 58.6001 41.812V93.3832C58.6001 94.8284 57.4149 96.0014 55.9546 96.0014H44.4981V74.5009C44.4981 71.9525 43.4752 69.5124 41.6551 67.7111C39.8386 65.9097 37.3695 64.9009 34.7982 64.9009H24.2023C21.6309 64.9009 19.1618 65.9097 17.3453 67.7111C15.5253 69.5124 14.5023 71.9525 14.5023 74.5009V96.0014ZM19.7932 96.0014V74.5009C19.7932 73.3419 20.2588 72.2318 21.0842 71.4149C21.9131 70.5945 23.0348 70.1372 24.2023 70.1372H34.7982C35.9657 70.1372 37.0873 70.5945 37.9163 71.4149C38.7416 72.2318 39.2072 73.3419 39.2072 74.5009V96.0014H19.7932ZM29.5002 33.1929C23.6697 33.1929 18.9326 37.8812 18.9326 43.6517C18.9326 49.4257 23.6697 54.1105 29.5002 54.1105C35.3308 54.1105 40.0679 49.4257 40.0679 43.6517C40.0679 37.8812 35.3308 33.1929 29.5002 33.1929ZM29.5002 38.4293C32.4137 38.4293 34.777 40.7682 34.777 43.6517C34.777 46.5352 32.4137 48.8741 29.5002 48.8741C26.5867 48.8741 24.2235 46.5352 24.2235 43.6517C24.2235 40.7682 26.5867 38.4293 29.5002 38.4293Z" fill="#6C1CFF"/>
</svg>
