<svg width="16" height="16" viewBox="0 0 16 16" fill="none" xmlns="http://www.w3.org/2000/svg">
<path d="M7.66927 14.5002C3.9026 14.5002 0.835938 11.4335 0.835938 7.66683C0.835938 3.90016 3.9026 0.833496 7.66927 0.833496C11.4359 0.833496 14.5026 3.90016 14.5026 7.66683C14.5026 11.4335 11.4359 14.5002 7.66927 14.5002ZM7.66927 1.8335C4.44927 1.8335 1.83594 4.4535 1.83594 7.66683C1.83594 10.8802 4.44927 13.5002 7.66927 13.5002C10.8893 13.5002 13.5026 10.8802 13.5026 7.66683C13.5026 4.4535 10.8893 1.8335 7.66927 1.8335Z" fill="#4B5675"/>
<path d="M14.6632 15.1666C14.5366 15.1666 14.4099 15.12 14.3099 15.02L11.9966 12.7067C11.8032 12.5133 11.8032 12.1933 11.9966 12C12.1899 11.8067 12.5099 11.8067 12.7032 12L15.0166 14.3133C15.2099 14.5066 15.2099 14.8266 15.0166 15.02C14.9166 15.12 14.7899 15.1666 14.6632 15.1666Z" fill="#4B5675"/>
</svg>
