<svg width="16" height="16" viewBox="0 0 16 16" fill="none" xmlns="http://www.w3.org/2000/svg">
<path d="M7.66732 14.5002C3.90065 14.5002 0.833984 11.4335 0.833984 7.66683C0.833984 3.90016 3.90065 0.833496 7.66732 0.833496C11.434 0.833496 14.5007 3.90016 14.5007 7.66683C14.5007 11.4335 11.434 14.5002 7.66732 14.5002ZM7.66732 1.8335C4.44732 1.8335 1.83398 4.4535 1.83398 7.66683C1.83398 10.8802 4.44732 13.5002 7.66732 13.5002C10.8873 13.5002 13.5007 10.8802 13.5007 7.66683C13.5007 4.4535 10.8873 1.8335 7.66732 1.8335Z" fill="white"/>
<path d="M14.6652 15.1666C14.5385 15.1666 14.4118 15.12 14.3118 15.02L11.9985 12.7067C11.8052 12.5133 11.8052 12.1933 11.9985 12C12.1919 11.8067 12.5119 11.8067 12.7052 12L15.0185 14.3133C15.2118 14.5066 15.2118 14.8266 15.0185 15.02C14.9185 15.12 14.7918 15.1666 14.6652 15.1666Z" fill="white"/>
</svg>
