<svg width="16" height="16" viewBox="0 0 16 16" fill="none" xmlns="http://www.w3.org/2000/svg">
<path d="M14.4233 13.248L11.8424 10.6661C13.7736 8.08541 13.247 4.42787 10.6663 2.49675C8.08569 0.565623 4.42815 1.09218 2.49703 3.67283C0.565906 6.25349 1.09246 9.91103 3.67311 11.8421C5.74611 13.3934 8.59332 13.3934 10.6663 11.8421L13.2483 14.4241C13.5728 14.7486 14.0988 14.7486 14.4233 14.4241C14.7477 14.0996 14.7477 13.5736 14.4233 13.2491L14.4233 13.248ZM7.19125 11.3438C4.89768 11.3438 3.0384 9.48453 3.0384 7.19097C3.0384 4.8974 4.89768 3.03812 7.19125 3.03812C9.48481 3.03812 11.3441 4.8974 11.3441 7.19097C11.3416 9.48349 9.4838 11.3414 7.19125 11.3438Z" fill="white"/>
</svg>
