<svg width="17" height="16" viewBox="0 0 17 16" fill="none" xmlns="http://www.w3.org/2000/svg">
<path d="M8.16634 14.5C4.39967 14.5 1.33301 11.4334 1.33301 7.66671C1.33301 3.90004 4.39967 0.833374 8.16634 0.833374C11.933 0.833374 14.9997 3.90004 14.9997 7.66671C14.9997 11.4334 11.933 14.5 8.16634 14.5ZM8.16634 1.83337C4.94634 1.83337 2.33301 4.45337 2.33301 7.66671C2.33301 10.88 4.94634 13.5 8.16634 13.5C11.3863 13.5 13.9997 10.88 13.9997 7.66671C13.9997 4.45337 11.3863 1.83337 8.16634 1.83337Z" fill="#4B5675"/>
<path d="M15.1666 15.1666C15.04 15.1666 14.9133 15.12 14.8133 15.02L13.48 13.6866C13.2866 13.4933 13.2866 13.1733 13.48 12.98C13.6733 12.7866 13.9933 12.7866 14.1866 12.98L15.52 14.3133C15.7133 14.5066 15.7133 14.8266 15.52 15.02C15.42 15.12 15.2933 15.1666 15.1666 15.1666Z" fill="#4B5675"/>
</svg>
