<svg width="20" height="18" viewBox="0 0 20 18" fill="none" xmlns="http://www.w3.org/2000/svg">
<g clip-path="url(#clip0_144_1184)">
<path d="M0 0.833333C0 0.371528 0.371528 0 0.833333 0H2.41319C3.17708 0 3.85417 0.444444 4.17014 1.11111H18.441C19.3542 1.11111 20.0208 1.97917 19.7813 2.86111L18.3576 8.14931C18.0625 9.23958 17.0729 10 15.9444 10H5.92708L6.11458 10.9896C6.19097 11.3819 6.53472 11.6667 6.93403 11.6667H16.9444C17.4063 11.6667 17.7778 12.0382 17.7778 12.5C17.7778 12.9618 17.4063 13.3333 16.9444 13.3333H6.93403C5.73264 13.3333 4.70139 12.4792 4.47917 11.3021L2.6875 1.89236C2.66319 1.76042 2.54861 1.66667 2.41319 1.66667H0.833333C0.371528 1.66667 0 1.29514 0 0.833333ZM4.44444 16.1111C4.44444 15.8922 4.48755 15.6755 4.57131 15.4733C4.65507 15.2711 4.77784 15.0874 4.9326 14.9326C5.08736 14.7778 5.2711 14.6551 5.47331 14.5713C5.67551 14.4876 5.89224 14.4444 6.11111 14.4444C6.32998 14.4444 6.54671 14.4876 6.74892 14.5713C6.95113 14.6551 7.13486 14.7778 7.28962 14.9326C7.44439 15.0874 7.56715 15.2711 7.65091 15.4733C7.73467 15.6755 7.77778 15.8922 7.77778 16.1111C7.77778 16.33 7.73467 16.5467 7.65091 16.7489C7.56715 16.9511 7.44439 17.1349 7.28962 17.2896C7.13486 17.4444 6.95113 17.5672 6.74892 17.6509C6.54671 17.7347 6.32998 17.7778 6.11111 17.7778C5.89224 17.7778 5.67551 17.7347 5.47331 17.6509C5.2711 17.5672 5.08736 17.4444 4.9326 17.2896C4.77784 17.1349 4.65507 16.9511 4.57131 16.7489C4.48755 16.5467 4.44444 16.33 4.44444 16.1111ZM16.1111 14.4444C16.5531 14.4444 16.9771 14.62 17.2896 14.9326C17.6022 15.2452 17.7778 15.6691 17.7778 16.1111C17.7778 16.5531 17.6022 16.9771 17.2896 17.2896C16.9771 17.6022 16.5531 17.7778 16.1111 17.7778C15.6691 17.7778 15.2452 17.6022 14.9326 17.2896C14.62 16.9771 14.4444 16.5531 14.4444 16.1111C14.4444 15.6691 14.62 15.2452 14.9326 14.9326C15.2452 14.62 15.6691 14.4444 16.1111 14.4444Z" fill="white"/>
</g>
<defs>
<clipPath id="clip0_144_1184">
<rect width="20" height="17.7778" fill="white"/>
</clipPath>
</defs>
</svg>
