<svg width="26" height="27" viewBox="0 0 26 27" fill="none" xmlns="http://www.w3.org/2000/svg">
<path d="M18.382 4.35065H7.61815C4.38898 4.35065 2.23621 5.96523 2.23621 9.73259V17.2673C2.23621 21.0347 4.38898 22.6493 7.61815 22.6493H18.382C21.6112 22.6493 23.764 21.0347 23.764 17.2673V9.73259C23.764 5.96523 21.6112 4.35065 18.382 4.35065ZM18.8879 10.9059L15.5188 13.5968C14.8084 14.1673 13.9043 14.4472 13.0001 14.4472C12.0959 14.4472 11.181 14.1673 10.4813 13.5968L7.11225 10.9059C6.7678 10.626 6.71398 10.1093 6.98308 9.76488C7.26294 9.42044 7.76884 9.35586 8.11329 9.63572L11.4824 12.3267C12.3004 12.9833 13.689 12.9833 14.507 12.3267L17.8761 9.63572C18.2206 9.35586 18.7372 9.40967 19.0063 9.76488C19.2862 10.1093 19.2324 10.626 18.8879 10.9059Z" fill="#6C1CFF"/>
</svg>
