<svg width="24" height="24" viewBox="0 0 24 24" fill="none" xmlns="http://www.w3.org/2000/svg">
<path d="M21.1526 10.2953L18.4231 12.9257C18.0484 13.2863 17.7938 14.0076 17.8716 14.5238L18.2959 17.6068C18.5716 19.5796 17.3483 20.4352 15.5806 19.5159L12.5824 17.9462C12.0804 17.6845 11.2602 17.6987 10.7723 17.9886L8.14889 19.523C6.07706 20.7322 4.83963 19.82 5.39117 17.4865L6.16192 14.2268C6.30334 13.6328 6.04171 12.8196 5.59623 12.4166L3.11429 10.1751C1.33945 8.56993 1.83442 7.11329 4.22444 6.92944L7.25086 6.70317C7.81655 6.66074 8.50244 6.21526 8.76407 5.71322L10.3338 2.70094C11.2602 0.940247 12.7522 0.947319 13.6502 2.72216L15.0502 5.49401C15.2907 5.9607 15.8988 6.41325 16.415 6.49104L20.1626 7.09915C22.185 7.43856 22.6304 8.87398 21.1526 10.2953Z" fill="#F3C54C"/>
</svg>
