<svg width="17" height="16" viewBox="0 0 17 16" fill="none" xmlns="http://www.w3.org/2000/svg">
<path d="M14.6829 6.86343L12.8633 8.61706C12.6135 8.85747 12.4438 9.3383 12.4956 9.68243L12.7785 11.7378C12.9623 13.053 12.1468 13.6234 10.9683 13.0105L8.96952 11.964C8.63482 11.7896 8.08799 11.799 7.76272 11.9923L6.01381 13.0153C4.63259 13.8214 3.80764 13.2132 4.17533 11.6576L4.68916 9.48444C4.78344 9.08846 4.60902 8.54635 4.31204 8.27764L2.65741 6.78329C1.47418 5.7132 1.80417 4.74211 3.39751 4.61955L5.41512 4.4687C5.79225 4.44041 6.24951 4.14343 6.42393 3.80873L7.47045 1.80055C8.08799 0.62675 9.08265 0.631464 9.68134 1.81469L10.6147 3.66259C10.775 3.97372 11.1804 4.27542 11.5245 4.32728L14.023 4.73268C15.3712 4.95896 15.6682 5.91591 14.6829 6.86343Z" fill="#0F0B0B"/>
</svg>
