<svg width="20" height="20" viewBox="0 0 20 20" fill="none" xmlns="http://www.w3.org/2000/svg">
<path d="M17.6276 8.57923L15.3531 10.7713C15.0408 11.0718 14.8286 11.6728 14.8935 12.103L15.247 14.6721C15.4768 16.3162 14.4574 17.0292 12.9843 16.2631L10.4858 14.955C10.0674 14.7369 9.38391 14.7487 8.97733 14.9903L6.79119 16.269C5.06467 17.2766 4.03347 16.5165 4.49309 14.572L5.13538 11.8555C5.25323 11.3605 5.03521 10.6829 4.66397 10.347L2.59569 8.47905C1.11665 7.14144 1.52913 5.92758 3.52082 5.77437L6.04283 5.58581C6.51424 5.55046 7.08581 5.17922 7.30384 4.76085L8.61199 2.25062C9.38391 0.783377 10.6272 0.78927 11.3756 2.2683L12.5423 4.57818C12.7427 4.96709 13.2494 5.34422 13.6796 5.40903L16.8026 5.91579C18.4879 6.19864 18.8591 7.39483 17.6276 8.57923Z" fill="#F3C54C"/>
</svg>
