<svg width="18" height="18" viewBox="0 0 18 18" fill="none" xmlns="http://www.w3.org/2000/svg">
<g clip-path="url(#clip0_286_5122)">
<path d="M6.09364 5.42602L1.37725 6.10982L1.29371 6.12683C1.16725 6.1604 1.05197 6.22693 0.959639 6.31962C0.867305 6.41232 0.801227 6.52786 0.768152 6.65445C0.735077 6.78103 0.73619 6.91413 0.771379 7.04014C0.806567 7.16616 0.87457 7.28058 0.968442 7.37172L4.38524 10.6976L3.57946 15.3955L3.56985 15.4768C3.56211 15.6076 3.58927 15.7381 3.64855 15.855C3.70782 15.9718 3.79709 16.0708 3.9072 16.1418C4.01731 16.2128 4.14431 16.2532 4.2752 16.259C4.4061 16.2648 4.53617 16.2357 4.65211 16.1747L8.87026 13.9569L13.0788 16.1747L13.1527 16.2087C13.2747 16.2567 13.4073 16.2715 13.5369 16.2514C13.6665 16.2313 13.7885 16.1771 13.8902 16.0943C13.9919 16.0115 14.0698 15.9032 14.1158 15.7804C14.1619 15.6576 14.1744 15.5248 14.1522 15.3955L13.3457 10.6976L16.7639 7.37098L16.8216 7.30814C16.904 7.20669 16.958 7.08522 16.9781 6.95611C16.9983 6.82699 16.9838 6.69485 16.9362 6.57313C16.8887 6.45142 16.8097 6.34448 16.7074 6.26323C16.605 6.18197 16.483 6.12929 16.3537 6.11056L11.6373 5.42602L9.52893 1.15317C9.46792 1.02937 9.37347 0.925123 9.25628 0.852225C9.13909 0.779328 9.00383 0.740692 8.86582 0.740692C8.72781 0.740692 8.59255 0.779328 8.47536 0.852225C8.35817 0.925123 8.26372 1.02937 8.20272 1.15317L6.09364 5.42602Z" fill="#FFC107"/>
</g>
<defs>
<clipPath id="clip0_286_5122">
<rect width="17.7419" height="17.7419" fill="white"/>
</clipPath>
</defs>
</svg>
