<svg width="20" height="20" viewBox="0 0 20 20" fill="none" xmlns="http://www.w3.org/2000/svg">
<path d="M16.7649 8.85414L14.7926 10.7549C14.5218 11.0155 14.3379 11.5366 14.3941 11.9096L14.7006 14.1374C14.8999 15.5629 14.016 16.1812 12.7386 15.5169L10.5722 14.3826C10.2094 14.1936 9.61668 14.2038 9.26412 14.4133L7.3685 15.522C5.87141 16.3958 4.97725 15.7366 5.37579 14.0505L5.93273 11.695C6.03492 11.2658 5.84586 10.6782 5.52397 10.387L3.73053 8.76727C2.44804 7.60742 2.80571 6.55486 4.53272 6.42201L6.71959 6.25851C7.12835 6.22785 7.62397 5.90595 7.81302 5.54318L8.94733 3.36653C9.61668 2.09426 10.6948 2.09937 11.3437 3.38186L12.3554 5.38478C12.5291 5.72201 12.9685 6.04902 13.3415 6.10522L16.0495 6.54464C17.5109 6.7899 17.8328 7.82713 16.7649 8.85414Z" fill="#FFC108"/>
</svg>
