<svg width="18" height="18" viewBox="0 0 18 18" fill="none" xmlns="http://www.w3.org/2000/svg">
<g clip-path="url(#clip0_286_5124)">
<path d="M6.22255 5.42602L1.50615 6.10982L1.42262 6.12683C1.29616 6.1604 1.18088 6.22693 1.08855 6.31962C0.996211 6.41232 0.930133 6.52786 0.897058 6.65445C0.863983 6.78103 0.865097 6.91413 0.900285 7.04014C0.935473 7.16616 1.00348 7.28058 1.09735 7.37172L4.51415 10.6976L3.70837 15.3955L3.69876 15.4768C3.69102 15.6076 3.71818 15.7381 3.77745 15.855C3.83673 15.9718 3.92599 16.0708 4.0361 16.1418C4.14622 16.2128 4.27322 16.2532 4.40411 16.259C4.535 16.2648 4.66508 16.2357 4.78102 16.1747L8.99916 13.9569L13.2077 16.1747L13.2816 16.2087C13.4036 16.2567 13.5363 16.2715 13.6658 16.2514C13.7954 16.2313 13.9174 16.1771 14.0191 16.0943C14.1208 16.0115 14.1987 15.9032 14.2447 15.7804C14.2908 15.6576 14.3033 15.5248 14.2811 15.3955L13.4746 10.6976L16.8928 7.37098L16.9505 7.30814C17.0329 7.20669 17.0869 7.08522 17.107 6.95611C17.1272 6.82699 17.1127 6.69485 17.0652 6.57313C17.0176 6.45142 16.9386 6.34448 16.8363 6.26323C16.7339 6.18197 16.6119 6.12929 16.4826 6.11056L11.7662 5.42602L9.65783 1.15317C9.59683 1.02937 9.50238 0.925123 9.38519 0.852225C9.268 0.779328 9.13274 0.740692 8.99473 0.740692C8.85671 0.740692 8.72146 0.779328 8.60426 0.852225C8.48707 0.925123 8.39263 1.02937 8.33162 1.15317L6.22255 5.42602Z" fill="#D8D8D8"/>
</g>
<defs>
<clipPath id="clip0_286_5124">
<rect width="17.7419" height="17.7419" fill="white" transform="translate(0.128906)"/>
</clipPath>
</defs>
</svg>
