<svg width="26" height="26" viewBox="0 0 26 26" fill="none" xmlns="http://www.w3.org/2000/svg">
<path d="M16.0363 1.01218H12.9998V2.90997H15.0874V6.48416C15.0874 9.62346 12.5332 12.1776 9.39392 12.1776C6.25463 12.1776 3.70053 9.62351 3.70053 6.48421V2.90997H5.72488V1.01218H2.75163C2.22752 1.01218 1.80273 1.43696 1.80273 1.96108V6.48421C1.80273 10.6702 5.20802 14.0755 9.39397 14.0755C13.5799 14.0755 16.9852 10.6702 16.9852 6.48421V1.96108C16.9852 1.43696 16.5604 1.01218 16.0363 1.01218Z" fill="white"/>
<path d="M19.737 14.8662V19.3577C19.737 21.9738 17.6086 24.1022 14.9924 24.1022C12.3763 24.1022 10.2479 21.9738 10.2479 19.3577V13.1581H8.3501V19.3577C8.3501 23.0201 11.3296 26 14.9924 26C18.6549 26 21.6348 23.0201 21.6348 19.3577V14.8662H19.737Z" fill="white"/>
<path d="M20.6861 8.7299C18.7497 8.7299 17.1748 10.3048 17.1748 12.2409C17.1748 14.1767 18.7497 15.7518 20.6858 15.7518C22.6219 15.7518 24.1967 14.1767 24.197 12.2409C24.197 10.3048 22.6219 8.7299 20.6861 8.7299ZM20.6858 13.854C19.796 13.854 19.0723 13.1304 19.0723 12.2409C19.0723 11.3515 19.796 10.6278 20.6858 10.6278C21.5752 10.6278 22.2989 11.3515 22.2989 12.2409C22.2989 13.1304 21.5752 13.854 20.6858 13.854Z" fill="white"/>
<path d="M5.69353 0C5.16941 0 4.74463 0.424785 4.74463 0.948898V2.97324C4.74463 3.49735 5.16941 3.92214 5.69353 3.92214C6.21764 3.92214 6.64243 3.49735 6.64243 2.97324V0.948898C6.64243 0.424785 6.21764 0 5.69353 0Z" fill="white"/>
<path d="M13.0314 0C12.5073 0 12.0825 0.424785 12.0825 0.948898V2.97324C12.0825 3.49735 12.5073 3.92214 13.0314 3.92214C13.5555 3.92214 13.9803 3.49735 13.9803 2.97324V0.948898C13.9803 0.424785 13.5555 0 13.0314 0Z" fill="white"/>
</svg>
