<svg width="26" height="26" viewBox="0 0 26 26" fill="none" xmlns="http://www.w3.org/2000/svg">
<circle cx="13" cy="13" r="13" fill="white"/>
<path d="M18.7467 10.6268C18.0467 7.54682 15.3601 6.16016 13.0001 6.16016C13.0001 6.16016 13.0001 6.16016 12.9934 6.16016C10.6401 6.16016 7.94673 7.54016 7.24673 10.6202C6.46673 14.0602 8.5734 16.9735 10.4801 18.8068C11.1867 19.4868 12.0934 19.8268 13.0001 19.8268C13.9067 19.8268 14.8134 19.4868 15.5134 18.8068C17.4201 16.9735 19.5267 14.0668 18.7467 10.6268ZM13.0001 13.9668C11.8401 13.9668 10.9001 13.0268 10.9001 11.8668C10.9001 10.7068 11.8401 9.76682 13.0001 9.76682C14.1601 9.76682 15.1001 10.7068 15.1001 11.8668C15.1001 13.0268 14.1601 13.9668 13.0001 13.9668Z" fill="#6C1CFF"/>
</svg>
