<svg width="27" height="27" viewBox="0 0 27 27" fill="none" xmlns="http://www.w3.org/2000/svg">
<g clip-path="url(#clip0_136_1237)">
<mask id="mask0_136_1237" style="mask-type:luminance" maskUnits="userSpaceOnUse" x="0" y="0" width="27" height="27">
<path d="M0.333496 0.333254H26.3335V26.3333H0.333496V0.333254Z" fill="white"/>
</mask>
<g mask="url(#mask0_136_1237)">
<path d="M25.1255 8.0046C24.5306 7.40965 23.566 7.40965 22.971 8.0046L16.5077 14.468C15.2002 15.7755 12.9917 15.6442 11.865 14.0743C10.9798 12.8408 11.2455 11.1122 12.3192 10.0386L18.6622 3.69566C19.2571 3.1007 19.2571 2.13617 18.6622 1.54121C18.0672 0.946209 17.1027 0.946209 16.5077 1.54121L10.2363 7.8126C8.21178 9.83709 7.72555 12.9909 9.11827 15.394L6.48156 18.0307C5.1649 19.3474 3.59485 20.3499 2.06806 21.4159C1.96152 21.4904 1.85985 21.5752 1.76454 21.6705C0.872107 22.5629 0.872107 24.0098 1.76454 24.9022C2.65692 25.7946 4.10378 25.7946 4.99621 24.9022C5.09152 24.8069 5.17633 24.7053 5.25077 24.5986C6.31682 23.0719 7.31935 21.5018 8.63605 20.1851L11.2807 17.5405C13.6154 18.9105 16.661 18.6237 18.6622 16.6225L25.1255 10.159C25.7205 9.56409 25.7205 8.59955 25.1255 8.0046Z" stroke="white" stroke-width="1.52344" stroke-miterlimit="10" stroke-linecap="round" stroke-linejoin="round"/>
</g>
</g>
<defs>
<clipPath id="clip0_136_1237">
<rect width="26" height="26" fill="white" transform="translate(0.333496 0.333252)"/>
</clipPath>
</defs>
</svg>
