<svg width="25" height="24" viewBox="0 0 25 24" fill="none" xmlns="http://www.w3.org/2000/svg">
<path d="M9.65963 11.62C9.62963 11.62 9.60963 11.62 9.57963 11.62C9.52963 11.61 9.45963 11.61 9.39963 11.62C6.49963 11.53 4.30963 9.25 4.30963 6.44C4.30963 3.58 6.63963 1.25 9.49963 1.25C12.3596 1.25 14.6896 3.58 14.6896 6.44C14.6796 9.25 12.4796 11.53 9.68963 11.62C9.67963 11.62 9.66963 11.62 9.65963 11.62ZM9.49963 2.75C7.46963 2.75 5.80963 4.41 5.80963 6.44C5.80963 8.44 7.36963 10.05 9.35963 10.12C9.41963 10.11 9.54963 10.11 9.67963 10.12C11.6396 10.03 13.1796 8.42 13.1896 6.44C13.1896 4.41 11.5296 2.75 9.49963 2.75Z" fill="white"/>
<path d="M17.0396 11.75C17.0096 11.75 16.9796 11.75 16.9496 11.74C16.5396 11.78 16.1196 11.49 16.0796 11.08C16.0396 10.67 16.2896 10.3 16.6996 10.25C16.8196 10.24 16.9496 10.24 17.0596 10.24C18.5196 10.16 19.6596 8.96 19.6596 7.49C19.6596 5.97 18.4296 4.74 16.9096 4.74C16.4996 4.75 16.1596 4.41 16.1596 4C16.1596 3.59 16.4996 3.25 16.9096 3.25C19.2496 3.25 21.1596 5.16 21.1596 7.5C21.1596 9.8 19.3596 11.66 17.0696 11.75C17.0596 11.75 17.0496 11.75 17.0396 11.75Z" fill="white"/>
<path d="M9.66961 22.55C7.70961 22.55 5.73961 22.05 4.24961 21.05C2.85961 20.13 2.09961 18.87 2.09961 17.5C2.09961 16.13 2.85961 14.86 4.24961 13.93C7.24961 11.94 12.1096 11.94 15.0896 13.93C16.4696 14.85 17.2396 16.11 17.2396 17.48C17.2396 18.85 16.4796 20.12 15.0896 21.05C13.5896 22.05 11.6296 22.55 9.66961 22.55ZM5.07961 15.19C4.11961 15.83 3.59961 16.65 3.59961 17.51C3.59961 18.36 4.12961 19.18 5.07961 19.81C7.56961 21.48 11.7696 21.48 14.2596 19.81C15.2196 19.17 15.7396 18.35 15.7396 17.49C15.7396 16.64 15.2096 15.82 14.2596 15.19C11.7696 13.53 7.56961 13.53 5.07961 15.19Z" fill="white"/>
<path d="M18.8396 20.75C18.4896 20.75 18.1796 20.51 18.1096 20.15C18.0296 19.74 18.2896 19.35 18.6896 19.26C19.3196 19.13 19.8996 18.88 20.3496 18.53C20.9196 18.1 21.2296 17.56 21.2296 16.99C21.2296 16.42 20.9196 15.88 20.3596 15.46C19.9196 15.12 19.3696 14.88 18.7196 14.73C18.3196 14.64 18.0596 14.24 18.1496 13.83C18.2396 13.43 18.6396 13.17 19.0496 13.26C19.9096 13.45 20.6596 13.79 21.2696 14.26C22.1996 14.96 22.7296 15.95 22.7296 16.99C22.7296 18.03 22.1896 19.02 21.2596 19.73C20.6396 20.21 19.8596 20.56 18.9996 20.73C18.9396 20.75 18.8896 20.75 18.8396 20.75Z" fill="white"/>
</svg>
