<svg width="24" height="24" viewBox="0 0 24 24" fill="none" xmlns="http://www.w3.org/2000/svg">
<path d="M8.44644 12.7905C7.7438 12.7905 7.05693 12.5821 6.47271 12.1918C5.88848 11.8014 5.43313 11.2466 5.16424 10.5974C4.89535 9.94825 4.825 9.23393 4.96207 8.54479C5.09915 7.85564 5.43751 7.22263 5.93435 6.72578C6.4312 6.22894 7.06422 5.89058 7.75336 5.7535C8.4425 5.61642 9.15682 5.68678 9.80598 5.95567C10.4551 6.22456 11.01 6.67991 11.4003 7.26413C11.7907 7.84836 11.9991 8.53523 11.9991 9.23787C11.998 10.1798 11.6234 11.0828 10.9574 11.7488C10.2914 12.4148 9.38834 12.7895 8.44644 12.7905ZM8.44644 7.26419C8.05609 7.26419 7.67449 7.37994 7.34992 7.59681C7.02535 7.81368 6.77238 8.12193 6.623 8.48257C6.47361 8.84322 6.43453 9.24006 6.51068 9.62292C6.58684 10.0058 6.77481 10.3575 7.05084 10.6335C7.32686 10.9095 7.67854 11.0975 8.0614 11.1736C8.44425 11.2498 8.8411 11.2107 9.20174 11.0613C9.56238 10.9119 9.87063 10.659 10.0875 10.3344C10.3044 10.0098 10.4201 9.62823 10.4201 9.23787C10.4201 8.71442 10.2122 8.2124 9.84205 7.84227C9.47191 7.47213 8.9699 7.26419 8.44644 7.26419ZM14.3675 20.6852V20.2905C14.3675 18.7201 13.7437 17.2141 12.6333 16.1037C11.5228 14.9933 10.0168 14.3694 8.44644 14.3694C6.87608 14.3694 5.37004 14.9933 4.25963 16.1037C3.14921 17.2141 2.52539 18.7201 2.52539 20.2905L2.52539 20.6852C2.52539 20.8946 2.60857 21.0954 2.75662 21.2435C2.90468 21.3915 3.10548 21.4747 3.31486 21.4747C3.52425 21.4747 3.72505 21.3915 3.87311 21.2435C4.02116 21.0954 4.10434 20.8946 4.10434 20.6852V20.2905C4.10434 19.1389 4.56181 18.0345 5.37611 17.2202C6.19041 16.4059 7.29485 15.9484 8.44644 15.9484C9.59804 15.9484 10.7025 16.4059 11.5168 17.2202C12.3311 18.0345 12.7885 19.1389 12.7885 20.2905V20.6852C12.7885 20.8946 12.8717 21.0954 13.0198 21.2435C13.1678 21.3915 13.3686 21.4747 13.578 21.4747C13.7874 21.4747 13.9882 21.3915 14.1363 21.2435C14.2843 21.0954 14.3675 20.8946 14.3675 20.6852ZM21.4728 16.7379C21.4727 15.671 21.1639 14.627 20.5836 13.7318C20.0033 12.8367 19.1762 12.1286 18.2023 11.6931C17.2284 11.2576 16.1493 11.1133 15.0952 11.2777C14.0411 11.442 13.0571 11.9079 12.262 12.6192C12.1836 12.688 12.1197 12.7717 12.0739 12.8654C12.0281 12.9591 12.0013 13.0609 11.995 13.165C11.9888 13.2691 12.0033 13.3734 12.0376 13.4719C12.0719 13.5704 12.1253 13.6611 12.1949 13.7388C12.2645 13.8165 12.3487 13.8797 12.4429 13.9246C12.537 13.9696 12.639 13.9954 12.7432 14.0007C12.8474 14.006 12.9515 13.9905 13.0497 13.9553C13.1479 13.9201 13.2381 13.8658 13.3151 13.7955C13.8831 13.2876 14.586 12.9549 15.3389 12.8376C16.0918 12.7203 16.8625 12.8235 17.5581 13.1346C18.2537 13.4457 18.8443 13.9514 19.2588 14.5908C19.6733 15.2302 19.8938 15.9759 19.8938 16.7379C19.8938 16.9473 19.977 17.1481 20.125 17.2961C20.2731 17.4442 20.4739 17.5273 20.6833 17.5273C20.8927 17.5273 21.0935 17.4442 21.2415 17.2961C21.3896 17.1481 21.4728 16.9473 21.4728 16.7379ZM16.3412 9.63261C15.6385 9.63261 14.9517 9.42425 14.3674 9.03388C13.7832 8.64351 13.3279 8.08867 13.059 7.43951C12.7901 6.79035 12.7197 6.07604 12.8568 5.38689C12.9939 4.69775 13.3322 4.06473 13.8291 3.56789C14.3259 3.07104 14.959 2.73269 15.6481 2.59561C16.3372 2.45853 17.0516 2.52888 17.7007 2.79777C18.3499 3.06666 18.9047 3.52201 19.2951 4.10624C19.6855 4.69047 19.8938 5.37733 19.8938 6.07998C19.8928 7.02187 19.5181 7.92489 18.8521 8.59091C18.1861 9.25693 17.2831 9.63156 16.3412 9.63261ZM16.3412 4.10629C15.9508 4.10629 15.5692 4.22205 15.2447 4.43892C14.9201 4.65579 14.6671 4.96404 14.5177 5.32468C14.3684 5.68532 14.3293 6.08217 14.4054 6.46502C14.4816 6.84788 14.6696 7.19956 14.9456 7.47558C15.2216 7.75161 15.5733 7.93958 15.9561 8.01574C16.339 8.09189 16.7358 8.05281 17.0965 7.90342C17.4571 7.75404 17.7654 7.50107 17.9822 7.1765C18.1991 6.85193 18.3149 6.47033 18.3149 6.07998C18.3149 5.55652 18.1069 5.05451 17.7368 4.68437C17.3666 4.31423 16.8646 4.10629 16.3412 4.10629Z" fill="#7E7E89"/>
</svg>
