<svg width="20" height="20" viewBox="0 0 20 20" fill="none" xmlns="http://www.w3.org/2000/svg">
<path d="M12.9924 11.4836L10.65 9.72683V6.14823C10.65 5.78841 10.3591 5.49756 9.9993 5.49756C9.63948 5.49756 9.34863 5.78841 9.34863 6.14823V10.0522C9.34863 10.2571 9.44494 10.4504 9.6089 10.5727L12.2115 12.5247C12.3238 12.6093 12.4607 12.655 12.6013 12.6549C12.7997 12.6549 12.9949 12.5657 13.1225 12.3939C13.3385 12.1069 13.28 11.699 12.9924 11.4836Z" fill="#7E7E89" fill-opacity="0.7"/>
<path d="M9.99961 1.6001C5.36757 1.6001 1.59961 5.36806 1.59961 10.0001C1.59961 14.6321 5.36757 18.4001 9.99961 18.4001C14.6317 18.4001 18.3996 14.6321 18.3996 10.0001C18.3996 5.36806 14.6317 1.6001 9.99961 1.6001ZM9.99961 17.0988C6.0859 17.0988 2.90092 13.9138 2.90092 10.0001C2.90092 6.08639 6.0859 2.90141 9.99961 2.90141C13.914 2.90141 17.0983 6.08639 17.0983 10.0001C17.0983 13.9138 13.9133 17.0988 9.99961 17.0988Z" fill="#7E7E89" fill-opacity="0.7"/>
</svg>
