<svg width="44" height="44" viewBox="0 0 44 44" fill="none" xmlns="http://www.w3.org/2000/svg">
<path d="M18.9168 32.9513C18.9168 31.2294 20.3028 29.8206 21.9968 29.8206C23.6908 29.8206 25.0768 31.2294 25.0768 32.9513C25.0768 34.6731 23.6908 36.0819 21.9968 36.0819C20.3028 36.0819 18.9168 34.6731 18.9168 32.9513ZM39.9839 18.1434C40.6153 17.5486 40.6461 16.5624 40.0609 15.9363C35.4101 10.849 28.819 7.92188 21.9968 7.92188C15.1746 7.92188 8.58344 10.8334 3.93266 15.9206C3.34747 16.5624 3.39367 17.5486 4.00966 18.1277C4.62566 18.7225 5.61126 18.6756 6.18105 18.0495C10.2466 13.5883 16.0062 11.0369 21.9968 11.0369C27.9874 11.0369 33.7315 13.5883 37.8125 18.0495C38.1205 18.3782 38.5209 18.5504 38.9367 18.5504C39.3063 18.5504 39.6913 18.4095 39.9839 18.1277V18.1434ZM32.2685 25.6725C32.8999 25.0777 32.9307 24.0916 32.3455 23.4654C29.6814 20.5383 25.9084 18.8634 21.9968 18.8634C18.0852 18.8634 14.3122 20.5383 11.648 23.4654C11.0628 24.0916 11.109 25.0934 11.725 25.6725C12.341 26.2674 13.3266 26.2204 13.8964 25.5943C15.9754 23.3089 18.9322 22.0097 21.9968 22.0097C25.0614 22.0097 28.0028 23.3246 30.0972 25.5943C30.4052 25.923 30.8056 26.0952 31.2213 26.0952C31.5909 26.0952 31.9759 25.9543 32.2685 25.6725Z" fill="white"/>
</svg>
